G04*
G04 #@! TF.GenerationSoftware,Altium Limited,Altium Designer,20.2.6 (244)*
G04*
G04 Layer_Physical_Order=1*
G04 Layer_Color=255*
%FSLAX25Y25*%
%MOIN*%
G70*
G04*
G04 #@! TF.SameCoordinates,118C2C68-07E6-42F6-8D37-0A3A2A95D5DC*
G04*
G04*
G04 #@! TF.FilePolarity,Positive*
G04*
G01*
G75*
%ADD13C,0.01575*%
%ADD24R,0.06102X0.02362*%
%ADD32R,0.05906X0.04331*%
%ADD33R,0.04331X0.05512*%
%ADD34R,0.01575X0.09449*%
%ADD35R,0.09449X0.01575*%
%ADD36R,0.21654X0.07874*%
%ADD37R,0.04331X0.05906*%
%ADD38R,0.04724X0.05512*%
%ADD39C,0.02362*%
%ADD40C,0.05906*%
%ADD41R,0.05906X0.05906*%
%ADD42R,0.05906X0.05906*%
%ADD43O,0.07874X0.06693*%
%ADD44R,0.07874X0.06693*%
%ADD45C,0.02362*%
%ADD46C,0.03937*%
G36*
X690968Y249338D02*
X691789Y248789D01*
X692338Y247968D01*
X692507Y247118D01*
X692483Y247000D01*
Y106500D01*
X692507Y106382D01*
X692338Y105532D01*
X691789Y104711D01*
X690968Y104163D01*
X690118Y103993D01*
X690000Y104017D01*
X521500D01*
X521382Y103993D01*
X520532Y104163D01*
X519711Y104711D01*
X519163Y105532D01*
X518993Y106382D01*
X519017Y106500D01*
Y184845D01*
X519517Y185052D01*
X522156Y182413D01*
X522036Y181500D01*
X522205Y180215D01*
X522701Y179018D01*
X523490Y177990D01*
X524518Y177201D01*
X525715Y176705D01*
X527000Y176536D01*
X528285Y176705D01*
X529482Y177201D01*
X530510Y177990D01*
X531299Y179018D01*
X531743Y180092D01*
X531744Y180092D01*
X532256D01*
X532257Y180092D01*
X532701Y179018D01*
X533490Y177990D01*
X534518Y177201D01*
X535194Y176921D01*
X535095Y176421D01*
X532079D01*
Y166579D01*
X541921D01*
Y176421D01*
X538905D01*
X538806Y176921D01*
X539482Y177201D01*
X540510Y177990D01*
X541299Y179018D01*
X541795Y180215D01*
X541964Y181500D01*
X541795Y182785D01*
X541629Y183185D01*
X541888Y183448D01*
X542029Y183524D01*
X542748Y183227D01*
X543570Y183118D01*
X544228Y183205D01*
X544728Y182887D01*
Y161993D01*
X544823Y161273D01*
X545100Y160603D01*
X545542Y160027D01*
X553535Y152034D01*
X554110Y151593D01*
X554781Y151315D01*
X555500Y151220D01*
X560720D01*
Y150850D01*
X561689D01*
Y149500D01*
X565740D01*
X569791D01*
Y150850D01*
X570760D01*
Y152156D01*
X571222Y152347D01*
X571534Y152034D01*
X572110Y151593D01*
X572781Y151315D01*
X573500Y151220D01*
X581980D01*
Y150850D01*
X582949D01*
Y149500D01*
X587000D01*
X591051D01*
Y150850D01*
X592020D01*
Y157150D01*
X581980D01*
Y156780D01*
X574651D01*
X572992Y158439D01*
X573118Y158744D01*
X573118D01*
Y162000D01*
X569953D01*
Y163000D01*
X573118D01*
Y165853D01*
X573520Y166091D01*
X573550Y166091D01*
X576280D01*
Y162981D01*
X579445D01*
Y162481D01*
X579945D01*
Y158725D01*
X581217D01*
Y157757D01*
X589484D01*
Y157790D01*
X589900Y158067D01*
X590031Y158013D01*
X590853Y157905D01*
X591676Y158013D01*
X592442Y158330D01*
X593100Y158835D01*
X593605Y159493D01*
X593922Y160259D01*
X594030Y161082D01*
X594009Y161240D01*
X594478Y161511D01*
X594807Y161258D01*
X595477Y160980D01*
X595913Y160923D01*
Y156776D01*
X607140D01*
X608032Y155883D01*
X607841Y155421D01*
X602315D01*
Y154878D01*
X602134Y154453D01*
X601815Y154453D01*
X599469D01*
Y150500D01*
Y146547D01*
X601815D01*
X602134Y146547D01*
X602315Y146122D01*
Y145579D01*
X606090D01*
X607686Y143983D01*
X607699Y143800D01*
X607340Y143421D01*
X602299D01*
Y142878D01*
X602118Y142453D01*
X599453D01*
Y138500D01*
Y134547D01*
X602118D01*
X602299Y134122D01*
Y133579D01*
X610567D01*
Y137275D01*
X614156Y140864D01*
X614583Y141192D01*
X614912Y141620D01*
X615045Y141754D01*
X615550Y142412D01*
X615868Y143178D01*
X615976Y144000D01*
X615868Y144822D01*
X615550Y145588D01*
X615045Y146246D01*
X614970Y146304D01*
X614583Y146808D01*
X613761Y147439D01*
X612829Y147825D01*
X610583Y150071D01*
Y153743D01*
X610834Y153963D01*
X611083Y154051D01*
X611741Y153778D01*
X612563Y153670D01*
X613385Y153778D01*
X614151Y154095D01*
X614809Y154600D01*
X615314Y155258D01*
X615631Y156024D01*
X615740Y156846D01*
X615631Y157669D01*
X615314Y158435D01*
X614809Y159093D01*
X614151Y159598D01*
X613385Y159915D01*
X612563Y160023D01*
X611848Y159929D01*
X610087Y161691D01*
Y162985D01*
X610587Y163319D01*
X610935Y163174D01*
X611757Y163066D01*
X612579Y163174D01*
X613345Y163492D01*
X614003Y163997D01*
X614508Y164655D01*
X614825Y165421D01*
X614934Y166243D01*
X614825Y167065D01*
X614508Y167831D01*
X614003Y168489D01*
X613345Y168994D01*
X612579Y169311D01*
X612556Y169315D01*
X612239Y169558D01*
X611569Y169836D01*
X610898Y169924D01*
Y169925D01*
X610874Y170106D01*
Y174609D01*
X611336Y174801D01*
X622554Y163582D01*
X622422Y163008D01*
X621865Y162636D01*
X621382Y161914D01*
X621313Y161563D01*
X623437D01*
Y161063D01*
X623937D01*
Y158939D01*
X624288Y159008D01*
X625009Y159491D01*
X625382Y160048D01*
X625956Y160180D01*
X627220Y158916D01*
Y147651D01*
X624109Y144540D01*
X623412Y144251D01*
X622754Y143746D01*
X622249Y143088D01*
X621932Y142322D01*
X621823Y141500D01*
X621932Y140678D01*
X622249Y139912D01*
X622387Y139732D01*
X621754Y139246D01*
X621249Y138588D01*
X620931Y137822D01*
X620823Y137000D01*
X620931Y136178D01*
X621249Y135412D01*
X621754Y134754D01*
X622412Y134249D01*
X623178Y133932D01*
X624000Y133823D01*
X624822Y133932D01*
X625520Y134220D01*
X626204D01*
X626395Y133758D01*
X619562Y126925D01*
X619072D01*
X618353Y126831D01*
X617683Y126553D01*
X617107Y126111D01*
X611150Y120155D01*
X610708Y119579D01*
X610431Y118908D01*
X610336Y118189D01*
Y113811D01*
X610431Y113092D01*
X610708Y112421D01*
X611150Y111846D01*
X614670Y108326D01*
X615246Y107884D01*
X615916Y107606D01*
X616635Y107512D01*
X673291D01*
X674011Y107606D01*
X674681Y107884D01*
X675257Y108326D01*
X678010Y111079D01*
X683921D01*
Y120921D01*
X674079D01*
Y117905D01*
X673579Y117806D01*
X673299Y118482D01*
X672510Y119510D01*
X671482Y120299D01*
X670285Y120795D01*
X669000Y120964D01*
X667715Y120795D01*
X666518Y120299D01*
X665490Y119510D01*
X664701Y118482D01*
X664257Y117408D01*
X664256Y117408D01*
X663744D01*
X663743Y117408D01*
X663299Y118482D01*
X662510Y119510D01*
X661482Y120299D01*
X660285Y120795D01*
X659000Y120964D01*
X657715Y120795D01*
X656518Y120299D01*
X655490Y119510D01*
X654701Y118482D01*
X654257Y117408D01*
X654256Y117408D01*
X653744D01*
X653743Y117408D01*
X653299Y118482D01*
X652510Y119510D01*
X651482Y120299D01*
X650285Y120795D01*
X649000Y120964D01*
X647715Y120795D01*
X646518Y120299D01*
X645490Y119510D01*
X644701Y118482D01*
X644257Y117408D01*
X644256Y117408D01*
X643744D01*
X643743Y117408D01*
X643299Y118482D01*
X642510Y119510D01*
X642206Y119743D01*
X642173Y120242D01*
X659966Y138034D01*
X660407Y138610D01*
X660685Y139281D01*
X660780Y140000D01*
Y144349D01*
X664510Y148079D01*
X670421D01*
Y153990D01*
X673778Y157348D01*
X674220Y157923D01*
X674498Y158594D01*
X674593Y159313D01*
Y175594D01*
X675093Y175907D01*
X675250Y175876D01*
Y178000D01*
Y180124D01*
X675093Y180093D01*
X674593Y180405D01*
Y187187D01*
X674498Y187906D01*
X674220Y188577D01*
X673778Y189153D01*
X670466Y192465D01*
X669890Y192907D01*
X669219Y193185D01*
X668500Y193280D01*
X657151D01*
X648844Y201588D01*
X648964Y202500D01*
X648795Y203785D01*
X648299Y204982D01*
X647510Y206010D01*
X646482Y206799D01*
X645806Y207079D01*
X645905Y207579D01*
X648921D01*
Y217421D01*
X639079D01*
Y215280D01*
X614286D01*
X613567Y215185D01*
X612896Y214907D01*
X612321Y214465D01*
X602552Y204697D01*
X599110D01*
X598930Y204673D01*
X594779D01*
Y215697D01*
X582969D01*
Y214728D01*
X582181D01*
Y215697D01*
X575906D01*
Y216366D01*
X586417D01*
Y218775D01*
X586445D01*
X587165Y218870D01*
X587835Y219147D01*
X588411Y219589D01*
X588574Y219752D01*
X589035Y219561D01*
Y217335D01*
X591701D01*
Y221287D01*
X592701D01*
Y217335D01*
X595047D01*
X595366Y217335D01*
X595547Y216910D01*
Y216366D01*
X599575D01*
X599912Y215945D01*
X599927Y215884D01*
X599823Y215098D01*
X599931Y214276D01*
X600249Y213510D01*
X600754Y212852D01*
X601412Y212347D01*
X602178Y212030D01*
X603000Y211922D01*
X603822Y212030D01*
X604588Y212347D01*
X605246Y212852D01*
X605751Y213510D01*
X606069Y214276D01*
X606177Y215098D01*
X606069Y215921D01*
X605780Y216618D01*
Y217181D01*
X605685Y217900D01*
X605407Y218571D01*
X604965Y219147D01*
X603815Y220297D01*
Y226209D01*
X595547D01*
Y225665D01*
X595366Y225240D01*
X595047Y225240D01*
X592836D01*
X592645Y225702D01*
X593186Y226244D01*
X593199Y226249D01*
X593856Y226754D01*
X594361Y227412D01*
X594679Y228178D01*
X594787Y229000D01*
X594679Y229822D01*
X594361Y230588D01*
X593856Y231246D01*
X593403Y231594D01*
X593573Y232095D01*
X604996D01*
Y243905D01*
X579405D01*
Y232351D01*
X575262Y228207D01*
X574757Y227549D01*
X574439Y226783D01*
X574364Y226209D01*
X570669D01*
Y222154D01*
X570169Y221840D01*
X569773Y222004D01*
X569054Y222099D01*
X568374D01*
Y225921D01*
X565939D01*
X565502Y226490D01*
X560360Y231632D01*
X560551Y232095D01*
X567594D01*
Y243905D01*
X542004D01*
Y232095D01*
X552949D01*
Y231374D01*
X553058Y230552D01*
X553375Y229785D01*
X553880Y229128D01*
X556624Y226383D01*
X556433Y225921D01*
X552626D01*
Y216079D01*
X552964D01*
X553242Y215663D01*
X553101Y215322D01*
X552992Y214500D01*
X553101Y213678D01*
X553418Y212912D01*
X553923Y212254D01*
X554581Y211749D01*
X555347Y211432D01*
X556169Y211323D01*
X556991Y211432D01*
X557758Y211749D01*
X558416Y212254D01*
X558920Y212912D01*
X559238Y213678D01*
X559346Y214500D01*
X559238Y215322D01*
X559132Y215579D01*
X559330Y216079D01*
X567197D01*
Y209004D01*
X567220Y208823D01*
Y204673D01*
X557690D01*
X557423Y205317D01*
X556981Y205893D01*
X530780Y232094D01*
Y235342D01*
X531299Y236018D01*
X531795Y237215D01*
X531964Y238500D01*
X531795Y239785D01*
X531299Y240982D01*
X530510Y242010D01*
X529482Y242799D01*
X528285Y243295D01*
X527000Y243464D01*
X525715Y243295D01*
X524518Y242799D01*
X523490Y242010D01*
X522701Y240982D01*
X522205Y239785D01*
X522036Y238500D01*
X522205Y237215D01*
X522701Y236018D01*
X523490Y234990D01*
X524518Y234201D01*
X525220Y233910D01*
Y230943D01*
X525315Y230223D01*
X525593Y229553D01*
X526034Y228977D01*
X528953Y226059D01*
X528670Y225635D01*
X528285Y225795D01*
X527000Y225964D01*
X525715Y225795D01*
X524518Y225299D01*
X523490Y224510D01*
X522701Y223482D01*
X522205Y222285D01*
X522036Y221000D01*
X522205Y219715D01*
X522701Y218518D01*
X523490Y217490D01*
X524518Y216701D01*
X525715Y216205D01*
X527000Y216036D01*
X528285Y216205D01*
X529482Y216701D01*
X530510Y217490D01*
X531299Y218518D01*
X531795Y219715D01*
X531964Y221000D01*
X531795Y222285D01*
X531635Y222670D01*
X532059Y222953D01*
X552236Y202776D01*
Y201088D01*
X552013Y201059D01*
X551342Y200781D01*
X550767Y200340D01*
X545542Y195115D01*
X545399Y195105D01*
X541330Y199174D01*
X540754Y199616D01*
X540084Y199894D01*
X539365Y199988D01*
X524635D01*
X523916Y199894D01*
X523246Y199616D01*
X522670Y199174D01*
X519517Y196021D01*
X519017Y196228D01*
Y247000D01*
X518993Y247118D01*
X519163Y247968D01*
X519711Y248789D01*
X520532Y249338D01*
X521382Y249507D01*
X521500Y249483D01*
X690000D01*
X690118Y249507D01*
X690968Y249338D01*
D02*
G37*
G36*
X582969Y202311D02*
X592417D01*
Y199161D01*
Y196012D01*
Y192862D01*
Y189713D01*
Y186563D01*
Y183413D01*
Y179476D01*
X579819D01*
Y178508D01*
X579031D01*
Y179476D01*
X573520D01*
Y178508D01*
X572732D01*
Y179476D01*
X569583D01*
Y183413D01*
Y186563D01*
Y189713D01*
Y192862D01*
Y196012D01*
Y199161D01*
Y202311D01*
X575164D01*
X575482Y201917D01*
X575473Y201811D01*
X575366Y201000D01*
X575475Y200178D01*
X575792Y199412D01*
X576297Y198754D01*
X576955Y198249D01*
X577721Y197932D01*
X578543Y197823D01*
X579365Y197932D01*
X580132Y198249D01*
X580790Y198754D01*
X581294Y199412D01*
X581612Y200178D01*
X581650Y200467D01*
X581833Y200705D01*
X582110Y201376D01*
X582205Y202095D01*
Y203279D01*
X582969D01*
Y202311D01*
D02*
G37*
G36*
X668887Y186182D02*
X668851Y185948D01*
X668324Y185813D01*
X668319Y185819D01*
X667493Y186453D01*
X666532Y186851D01*
X666000Y186921D01*
Y183000D01*
Y179079D01*
X666532Y179149D01*
X667493Y179547D01*
X668319Y180181D01*
X668533Y180460D01*
X669033Y180290D01*
Y177122D01*
X668533Y176876D01*
X667982Y177299D01*
X666785Y177795D01*
X665500Y177964D01*
X664215Y177795D01*
X663018Y177299D01*
X661990Y176510D01*
X661201Y175482D01*
X660847Y174627D01*
X660347Y174727D01*
Y185035D01*
X660253Y185754D01*
X659975Y186425D01*
X659533Y187000D01*
X659275Y187258D01*
X659467Y187720D01*
X667349D01*
X668887Y186182D01*
D02*
G37*
G36*
X644500Y148579D02*
X645032Y148649D01*
X645993Y149047D01*
X646819Y149681D01*
X647453Y150507D01*
X647720Y151153D01*
X648220Y151053D01*
Y143049D01*
X632451Y127280D01*
X629427D01*
X628707Y127185D01*
X628167Y126961D01*
X627884Y127385D01*
X638966Y138467D01*
X639407Y139042D01*
X639685Y139713D01*
X639780Y140432D01*
Y151053D01*
X640280Y151153D01*
X640547Y150507D01*
X641181Y149681D01*
X642007Y149047D01*
X642968Y148649D01*
X643500Y148579D01*
Y152500D01*
X644500D01*
Y148579D01*
D02*
G37*
%LPC*%
G36*
X682437Y219346D02*
X678000D01*
Y215500D01*
X682437D01*
Y219346D01*
D02*
G37*
G36*
X677000D02*
X672563D01*
Y215500D01*
X677000D01*
Y219346D01*
D02*
G37*
G36*
X661453Y215665D02*
X658000D01*
Y213000D01*
X661453D01*
Y215665D01*
D02*
G37*
G36*
X657000D02*
X653547D01*
Y213000D01*
X657000D01*
Y215665D01*
D02*
G37*
G36*
X682437Y214500D02*
X672563D01*
Y210653D01*
X675421D01*
X675522Y210178D01*
X674229Y209643D01*
X673119Y208791D01*
X672351Y207789D01*
X662421D01*
Y209154D01*
X661878D01*
X661453Y209335D01*
X661453Y209653D01*
Y212000D01*
X657500D01*
X653547D01*
Y209653D01*
X653547Y209335D01*
X653122Y209154D01*
X652579D01*
Y200886D01*
X662421D01*
Y202230D01*
X672335D01*
X673119Y201209D01*
X674229Y200357D01*
X675522Y199822D01*
X676909Y199639D01*
X678091D01*
X679478Y199822D01*
X680771Y200357D01*
X681881Y201209D01*
X682733Y202320D01*
X683269Y203612D01*
X683451Y205000D01*
X683269Y206387D01*
X682733Y207680D01*
X681881Y208791D01*
X680771Y209643D01*
X679478Y210178D01*
X679578Y210653D01*
X682437D01*
Y214500D01*
D02*
G37*
G36*
X676250Y180124D02*
Y178500D01*
X677874D01*
X677805Y178851D01*
X677322Y179572D01*
X676601Y180054D01*
X676250Y180124D01*
D02*
G37*
G36*
X677874Y177500D02*
X676250D01*
Y175876D01*
X676601Y175945D01*
X677322Y176427D01*
X677805Y177149D01*
X677874Y177500D01*
D02*
G37*
G36*
X527500Y175421D02*
Y172000D01*
X530921D01*
X530851Y172532D01*
X530453Y173493D01*
X529819Y174319D01*
X528993Y174953D01*
X528032Y175351D01*
X527500Y175421D01*
D02*
G37*
G36*
X526500D02*
X525968Y175351D01*
X525007Y174953D01*
X524181Y174319D01*
X523547Y173493D01*
X523149Y172532D01*
X523079Y172000D01*
X526500D01*
Y175421D01*
D02*
G37*
G36*
X530921Y171000D02*
X527500D01*
Y167579D01*
X528032Y167649D01*
X528993Y168047D01*
X529819Y168681D01*
X530453Y169507D01*
X530851Y170468D01*
X530921Y171000D01*
D02*
G37*
G36*
X526500D02*
X523079D01*
X523149Y170468D01*
X523547Y169507D01*
X524181Y168681D01*
X525007Y168047D01*
X525968Y167649D01*
X526500Y167579D01*
Y171000D01*
D02*
G37*
G36*
X622937Y160563D02*
X621313D01*
X621382Y160212D01*
X621865Y159491D01*
X622586Y159008D01*
X622937Y158939D01*
Y160563D01*
D02*
G37*
G36*
X578945Y161981D02*
X576280D01*
Y158725D01*
X578945D01*
Y161981D01*
D02*
G37*
G36*
X598468Y154453D02*
X595803D01*
Y151000D01*
X598468D01*
Y154453D01*
D02*
G37*
G36*
X559953Y150091D02*
X556500D01*
Y147425D01*
X559953D01*
Y150091D01*
D02*
G37*
G36*
X555500D02*
X552047D01*
Y147425D01*
X555500D01*
Y150091D01*
D02*
G37*
G36*
X591051Y148500D02*
X587500D01*
Y146819D01*
X591051D01*
Y148500D01*
D02*
G37*
G36*
X586500D02*
X582949D01*
Y146819D01*
X586500D01*
Y148500D01*
D02*
G37*
G36*
X598468Y150000D02*
X595803D01*
Y146547D01*
X598468D01*
Y150000D01*
D02*
G37*
G36*
X591051Y146181D02*
X587500D01*
Y144500D01*
X591051D01*
Y146181D01*
D02*
G37*
G36*
X586500D02*
X582949D01*
Y144500D01*
X586500D01*
Y146181D01*
D02*
G37*
G36*
X569791Y148500D02*
X565740D01*
X561689D01*
Y147150D01*
X560720D01*
Y143889D01*
X560452Y143758D01*
X559953Y144040D01*
Y146425D01*
X556000D01*
X552047D01*
Y144079D01*
X552047Y143760D01*
X551622Y143579D01*
X551079D01*
Y135311D01*
X552323D01*
Y134660D01*
X552061Y134318D01*
X551664Y133360D01*
X551529Y132332D01*
X551664Y131305D01*
X552061Y130347D01*
X552692Y129525D01*
X553514Y128893D01*
X554472Y128497D01*
X555500Y128361D01*
X556528Y128497D01*
X557485Y128893D01*
X558308Y129525D01*
X558939Y130347D01*
X559336Y131305D01*
X559471Y132332D01*
X559336Y133360D01*
X558939Y134318D01*
X558677Y134660D01*
Y135311D01*
X560921D01*
Y135823D01*
X565740D01*
X565947Y135850D01*
X570760D01*
Y140094D01*
X571222Y140286D01*
X578124Y133383D01*
X577933Y132921D01*
X572177D01*
X572118Y132998D01*
X571295Y133629D01*
X570338Y134026D01*
X569310Y134161D01*
X568282Y134026D01*
X567325Y133629D01*
X566502Y132998D01*
X565871Y132176D01*
X565474Y131218D01*
X565339Y130190D01*
X565474Y129162D01*
X565871Y128205D01*
X566502Y127382D01*
X567325Y126751D01*
X568282Y126354D01*
X568709Y126298D01*
X569254Y125754D01*
X569912Y125249D01*
X570678Y124932D01*
X571500Y124823D01*
X572126D01*
Y123079D01*
X576264D01*
X576455Y122617D01*
X574747Y120909D01*
X574331Y120964D01*
X573046Y120795D01*
X571849Y120299D01*
X570821Y119510D01*
X570032Y118482D01*
X569587Y117408D01*
X569587Y117408D01*
X569075D01*
X569074Y117408D01*
X568629Y118482D01*
X567841Y119510D01*
X566813Y120299D01*
X565615Y120795D01*
X564331Y120964D01*
X563046Y120795D01*
X561849Y120299D01*
X560821Y119510D01*
X560032Y118482D01*
X559536Y117285D01*
X559367Y116000D01*
X559536Y114715D01*
X560032Y113518D01*
X560821Y112490D01*
X561849Y111701D01*
X563046Y111205D01*
X564331Y111036D01*
X565615Y111205D01*
X566813Y111701D01*
X567841Y112490D01*
X568629Y113518D01*
X569074Y114592D01*
X569075Y114592D01*
X569587D01*
X569587Y114592D01*
X570032Y113518D01*
X570821Y112490D01*
X571849Y111701D01*
X573046Y111205D01*
X574331Y111036D01*
X575615Y111205D01*
X576813Y111701D01*
X577841Y112490D01*
X578629Y113518D01*
X579074Y114592D01*
X579075Y114592D01*
X579587D01*
X579587Y114592D01*
X580032Y113518D01*
X580821Y112490D01*
X581849Y111701D01*
X583046Y111205D01*
X584331Y111036D01*
X585615Y111205D01*
X586813Y111701D01*
X587841Y112490D01*
X588629Y113518D01*
X588909Y114194D01*
X589409Y114095D01*
Y111079D01*
X599252D01*
Y120921D01*
X593345D01*
X593154Y121383D01*
X593850Y122079D01*
X601307D01*
Y117327D01*
X601045Y116985D01*
X600649Y116028D01*
X600513Y115000D01*
X600649Y113972D01*
X601045Y113014D01*
X601676Y112192D01*
X602499Y111561D01*
X603456Y111164D01*
X604484Y111029D01*
X605512Y111164D01*
X606470Y111561D01*
X607292Y112192D01*
X607923Y113014D01*
X608320Y113972D01*
X608455Y115000D01*
X608320Y116028D01*
X607923Y116985D01*
X607661Y117327D01*
Y122079D01*
X608028D01*
Y131921D01*
X596772D01*
X596285Y132408D01*
Y134547D01*
X598453D01*
Y138500D01*
Y142453D01*
X595787D01*
Y138642D01*
X595287Y138546D01*
X592587Y141246D01*
X592020Y141682D01*
Y142150D01*
X591051D01*
Y143500D01*
X587000D01*
X582949D01*
Y142150D01*
X581980D01*
Y139166D01*
X581518Y138974D01*
X574246Y146246D01*
X573588Y146751D01*
X572822Y147069D01*
X572000Y147177D01*
X569791D01*
Y148500D01*
D02*
G37*
G36*
X554831Y119921D02*
Y116500D01*
X558252D01*
X558182Y117032D01*
X557783Y117993D01*
X557150Y118819D01*
X556324Y119453D01*
X555363Y119851D01*
X554831Y119921D01*
D02*
G37*
G36*
X553831D02*
X553299Y119851D01*
X552337Y119453D01*
X551512Y118819D01*
X550878Y117993D01*
X550480Y117032D01*
X550410Y116500D01*
X553831D01*
Y119921D01*
D02*
G37*
G36*
X558252Y115500D02*
X554831D01*
Y112079D01*
X555363Y112149D01*
X556324Y112547D01*
X557150Y113181D01*
X557783Y114007D01*
X558182Y114968D01*
X558252Y115500D01*
D02*
G37*
G36*
X553831D02*
X550410D01*
X550480Y114968D01*
X550878Y114007D01*
X551512Y113181D01*
X552337Y112547D01*
X553299Y112149D01*
X553831Y112079D01*
Y115500D01*
D02*
G37*
G36*
X665000Y186921D02*
X664468Y186851D01*
X663507Y186453D01*
X662681Y185819D01*
X662047Y184993D01*
X661649Y184032D01*
X661579Y183500D01*
X665000D01*
Y186921D01*
D02*
G37*
G36*
Y182500D02*
X661579D01*
X661649Y181968D01*
X662047Y181007D01*
X662681Y180181D01*
X663507Y179547D01*
X664468Y179149D01*
X665000Y179079D01*
Y182500D01*
D02*
G37*
%LPD*%
D13*
X590842Y161093D02*
X590853Y161082D01*
X586728Y161093D02*
X590842D01*
X583985Y163837D02*
X586728Y161093D01*
X583985Y163837D02*
Y166228D01*
X582575Y167637D02*
X583985Y166228D01*
X582575Y167637D02*
Y172783D01*
X677490Y205010D02*
X677500Y205000D01*
X657510Y205010D02*
X677490D01*
X657500Y205020D02*
X657510Y205010D01*
X528000Y238000D02*
X528500Y238500D01*
X528000Y230943D02*
Y238000D01*
X605061Y198768D02*
X610619Y204326D01*
X641002D02*
X642828Y202500D01*
X610619Y204326D02*
X641002D01*
X642828Y202500D02*
X644000D01*
X612732Y200500D02*
X635172D01*
X643172Y192500D02*
X650103D01*
X607850Y195618D02*
X612732Y200500D01*
X635172D02*
X643172Y192500D01*
X599110Y198768D02*
X605061D01*
X614286Y212500D02*
X644000D01*
X599110Y201917D02*
X603703D01*
X614286Y212500D01*
X555016Y185382D02*
X555166Y185231D01*
X599110Y179870D02*
X604656D01*
X563000Y172500D02*
X569299D01*
X582575Y181453D02*
Y190001D01*
X599110Y183020D02*
X607048D01*
X573126Y180552D02*
X582575Y190001D01*
X607796Y186169D02*
X633500Y160465D01*
X579425Y202095D02*
Y209004D01*
X553584Y190933D02*
Y193500D01*
X633500Y142605D02*
Y160465D01*
X556694Y183020D02*
X562890D01*
X555166Y184547D02*
Y185231D01*
X557946Y179870D02*
X562890D01*
X599110Y186169D02*
X607796D01*
X555329Y177252D02*
X557946Y179870D01*
X607048Y183020D02*
X630000Y160068D01*
X573126Y172783D02*
Y180552D01*
X579425Y178303D02*
X582575Y181453D01*
X604656Y179870D02*
X607000Y177526D01*
X555197Y189319D02*
X562890D01*
X555329Y174870D02*
Y177252D01*
X625000Y141500D02*
X630000Y146500D01*
X578543Y201213D02*
X579425Y202095D01*
X627895Y137000D02*
X633500Y142605D01*
X579425Y172783D02*
Y178303D01*
X624000Y137000D02*
X627895D01*
X553584Y190933D02*
X555197Y189319D01*
X555166Y184547D02*
X556694Y183020D01*
X630000Y146500D02*
Y160068D01*
X569299Y172500D02*
X569583Y172783D01*
X607000Y177500D02*
Y177526D01*
X582575Y190001D02*
Y209004D01*
X612338Y196209D02*
X614000D01*
X619457Y193484D02*
X620425D01*
X618260Y194681D02*
X619457Y193484D01*
X613425Y196453D02*
X616669D01*
X618260Y194681D02*
Y194862D01*
X616669Y196453D02*
X618260Y194862D01*
X608598Y192469D02*
X612338Y196209D01*
X621213Y185823D02*
X625437Y181598D01*
Y178000D02*
Y181598D01*
X620425Y185823D02*
X621213D01*
X608544Y189319D02*
X637000Y160863D01*
X599110Y189319D02*
X608544D01*
X637000Y140432D02*
Y160863D01*
X558492Y198768D02*
X562890D01*
X552732Y198374D02*
X556655D01*
Y198768D02*
X558491D01*
X547507Y193149D02*
X552732Y198374D01*
X555016Y200407D02*
Y203927D01*
Y200407D02*
X556655Y198768D01*
X558491D02*
X558492Y198768D01*
X528000Y230943D02*
X555016Y203927D01*
X599287Y220894D02*
X603000Y217181D01*
Y215098D02*
Y217181D01*
X588067Y225056D02*
X591610Y228599D01*
Y229000D01*
X586445Y221555D02*
X588067Y223176D01*
Y225056D01*
X582961Y235650D02*
X585311Y238000D01*
X592201D01*
X582551Y221555D02*
X586445D01*
X592201Y220500D02*
Y221287D01*
X587398Y215697D02*
X592201Y220500D01*
X584122Y215697D02*
X587398D01*
X582575Y214150D02*
X584122Y215697D01*
X582575Y209004D02*
Y214150D01*
X610849Y167151D02*
X611757Y166243D01*
X543570Y186295D02*
Y193003D01*
X547507Y161993D02*
Y193149D01*
X539365Y197209D02*
X543570Y193003D01*
X547507Y161993D02*
X555500Y154000D01*
X524635Y197209D02*
X539365D01*
X521291Y193865D02*
X524635Y197209D01*
X611000Y156846D02*
X612563D01*
X606347Y161500D02*
X611000Y156846D01*
X551079Y187013D02*
X553385Y189319D01*
X551079Y164854D02*
Y187013D01*
Y164854D02*
X558354Y157579D01*
X553385Y189319D02*
X555197D01*
X644000Y202500D02*
X656000Y190500D01*
X668500D02*
X671813Y187187D01*
X656000Y190500D02*
X668500D01*
X650103Y192500D02*
X657568Y185035D01*
Y170932D02*
Y185035D01*
X671813Y159313D02*
Y187187D01*
X665500Y153000D02*
X671813Y159313D01*
X657568Y170932D02*
X665500Y163000D01*
X658000Y145500D02*
X665500Y153000D01*
X658000Y140000D02*
Y145500D01*
X521291Y187209D02*
Y193865D01*
Y187209D02*
X527000Y181500D01*
X613116Y118189D02*
X619072Y124146D01*
X620713D01*
X637000Y140432D01*
X613116Y113811D02*
Y118189D01*
Y113811D02*
X616635Y110291D01*
X673291D02*
X679000Y116000D01*
X616635Y110291D02*
X673291D01*
X609411Y167151D02*
X610849D01*
X608118Y168444D02*
X609411Y167151D01*
X606543Y171500D02*
X608118Y169925D01*
Y168444D02*
Y169925D01*
X639000Y116000D02*
Y121000D01*
X658000Y140000D01*
X629000Y116000D02*
X654000Y141000D01*
X629000Y116000D02*
X629000D01*
X654000Y141000D02*
Y172500D01*
X651000Y141897D02*
Y165500D01*
X629427Y124500D02*
X633603D01*
X651000Y141897D01*
X623291Y118365D02*
X629427Y124500D01*
X623291Y118365D02*
Y118365D01*
X620473Y116301D02*
X621000Y116829D01*
X621755D01*
X623291Y118365D01*
X644000Y182500D02*
X654000Y172500D01*
X579425Y162855D02*
Y172783D01*
X569310Y130190D02*
Y130190D01*
Y130190D02*
X569531Y129969D01*
X592024Y167839D02*
Y172783D01*
Y167839D02*
X596197Y163665D01*
X599260Y161500D02*
Y162287D01*
X597882Y163665D02*
X599260Y162287D01*
X596197Y163665D02*
X597882D01*
X599457Y171106D02*
Y171500D01*
X572118Y164665D02*
X572203D01*
X570346Y162894D02*
X572118Y164665D01*
X573126Y165588D02*
Y172390D01*
X572203Y164665D02*
X573126Y165588D01*
X569921Y157579D02*
X573500Y154000D01*
X558354Y157579D02*
X569921D01*
X555500Y154000D02*
X565740D01*
X573500D02*
X587000D01*
X606449Y149713D02*
Y150500D01*
X606433Y138500D02*
X606866Y138067D01*
X557000Y164500D02*
X559000Y162500D01*
X557000Y164500D02*
Y164500D01*
X582283Y221287D02*
X582551Y221555D01*
X573126Y218823D02*
X575591Y221287D01*
X573126Y209004D02*
Y218823D01*
X569976Y209004D02*
Y218396D01*
X569054Y219319D02*
X569976Y218396D01*
X564740Y220197D02*
X565618Y219319D01*
X569054D01*
X556320Y220560D02*
X556760Y221000D01*
X556320Y214651D02*
Y220560D01*
X556169Y214500D02*
X556320Y214651D01*
X599287Y220894D02*
Y221287D01*
X559000Y162500D02*
X563260D01*
X576260Y128000D02*
X576653D01*
X579051Y162481D02*
X579425Y162855D01*
X599110Y192469D02*
X608598D01*
X599110Y195618D02*
X607850D01*
X605346Y148606D02*
Y149000D01*
X644000Y152500D02*
X644829Y151671D01*
X644000Y172500D02*
X651000Y165500D01*
X587000Y139000D02*
X588500D01*
D24*
X587000D02*
D03*
Y144000D02*
D03*
Y149000D02*
D03*
Y154000D02*
D03*
X565740D02*
D03*
Y149000D02*
D03*
Y144000D02*
D03*
Y139000D02*
D03*
D32*
X657500Y205020D02*
D03*
Y212500D02*
D03*
X620425Y185823D02*
D03*
Y193303D02*
D03*
X556000Y146925D02*
D03*
Y139445D02*
D03*
D33*
X569953Y162500D02*
D03*
X564047D02*
D03*
X600047Y161500D02*
D03*
X605953D02*
D03*
X579445Y162481D02*
D03*
X585350D02*
D03*
D34*
X592024Y209004D02*
D03*
X588874D02*
D03*
X585724D02*
D03*
X582575D02*
D03*
X579425D02*
D03*
X576276D02*
D03*
X573126D02*
D03*
X569976D02*
D03*
X569976Y172783D02*
D03*
X573126D02*
D03*
X576275D02*
D03*
X579425Y172783D02*
D03*
X582575Y172783D02*
D03*
X585724D02*
D03*
X588874D02*
D03*
X592024D02*
D03*
D35*
X562890Y201917D02*
D03*
Y198768D02*
D03*
Y195618D02*
D03*
Y192469D02*
D03*
Y189319D02*
D03*
Y186169D02*
D03*
Y183020D02*
D03*
Y179870D02*
D03*
X599110Y179870D02*
D03*
Y183020D02*
D03*
Y186169D02*
D03*
Y189319D02*
D03*
Y192469D02*
D03*
Y195618D02*
D03*
Y198768D02*
D03*
Y201917D02*
D03*
D36*
X554799Y238000D02*
D03*
X592201D02*
D03*
D37*
X583740Y128000D02*
D03*
X576260D02*
D03*
X574803Y221287D02*
D03*
X582283D02*
D03*
X606433Y138500D02*
D03*
X598953D02*
D03*
X603894Y127000D02*
D03*
X596413D02*
D03*
X556760Y221000D02*
D03*
X564240D02*
D03*
X599681Y221287D02*
D03*
X592201D02*
D03*
X606449Y150500D02*
D03*
X598969D02*
D03*
D38*
X599457Y171500D02*
D03*
X606543D02*
D03*
D39*
X555500Y132332D02*
Y138945D01*
X556000Y139445D01*
X606449Y149713D02*
X611776Y144386D01*
Y144000D02*
Y144386D01*
X606866Y138067D02*
X612799Y144000D01*
X612161D02*
X612799D01*
X604484Y115000D02*
Y128378D01*
X603500Y127394D02*
X604484Y128378D01*
X599457Y161697D02*
Y171106D01*
X596413Y126350D02*
Y127000D01*
X586036Y118757D02*
X592643Y125365D01*
X595429D01*
X596413Y126350D01*
X584331Y116959D02*
X586036Y118664D01*
X584331Y116000D02*
Y116959D01*
X586036Y118664D02*
Y118757D01*
X590341Y139000D02*
X593109Y136232D01*
Y131092D02*
X596807Y127394D01*
X593109Y131092D02*
Y136232D01*
X583347Y125016D02*
Y128000D01*
X565740Y144000D02*
X572000D01*
X583168Y132832D01*
Y128179D02*
Y132832D01*
Y128179D02*
X583347Y128000D01*
X583488Y231941D02*
Y234868D01*
X577508Y225960D02*
X583488Y231941D01*
X577508Y224443D02*
Y225960D01*
X556000Y139445D02*
X556445Y139000D01*
X565740D01*
X560254Y149000D02*
X565740D01*
X556394Y146531D02*
X557772Y147909D01*
X559163D02*
X560254Y149000D01*
X557772Y147909D02*
X559163D01*
X574803Y222075D02*
X575787Y223059D01*
X563256Y221984D02*
X564240Y221000D01*
X576124Y223059D02*
X577508Y224443D01*
X556126Y231374D02*
X563256Y224244D01*
X554799Y238000D02*
X556126Y236673D01*
X589146Y234945D02*
X592201Y238000D01*
X575787Y223059D02*
X576124D01*
X556126Y231374D02*
Y236673D01*
X574803Y221287D02*
Y222075D01*
X583488Y234868D02*
X589146Y234945D01*
X563256Y221984D02*
Y224244D01*
X571500Y128000D02*
X576260D01*
X599346Y138500D02*
Y140000D01*
X596807Y127000D02*
Y127394D01*
X569531Y129969D02*
X571500Y128000D01*
X574331Y116000D02*
X583347Y125016D01*
X588500Y139000D02*
X590341D01*
X587000Y144000D02*
X598862D01*
X597362Y149000D02*
X598862Y150500D01*
Y140272D02*
Y144000D01*
Y149000D01*
X599075Y140272D02*
X599346Y140000D01*
X587000Y149000D02*
X597362D01*
D40*
X527000Y221000D02*
D03*
Y171500D02*
D03*
X537000Y181500D02*
D03*
X527000D02*
D03*
X537000Y191500D02*
D03*
X527000D02*
D03*
Y238500D02*
D03*
X619000Y116000D02*
D03*
X629000D02*
D03*
X639000D02*
D03*
X649000D02*
D03*
X669000D02*
D03*
X659000D02*
D03*
X584331D02*
D03*
X574331D02*
D03*
X564331D02*
D03*
X554331D02*
D03*
X665500Y183000D02*
D03*
Y173000D02*
D03*
Y163000D02*
D03*
X644000Y192500D02*
D03*
Y202500D02*
D03*
Y182500D02*
D03*
Y172500D02*
D03*
Y162500D02*
D03*
Y152500D02*
D03*
D41*
X537000Y171500D02*
D03*
X665500Y153000D02*
D03*
X644000Y212500D02*
D03*
D42*
X679000Y116000D02*
D03*
X594331D02*
D03*
D43*
X677500Y205000D02*
D03*
D44*
Y215000D02*
D03*
D45*
X590853Y161082D02*
D03*
X563000Y172500D02*
D03*
X624000Y137000D02*
D03*
X607000Y177500D02*
D03*
X578543Y201000D02*
D03*
X553584Y193500D02*
D03*
X625000Y141500D02*
D03*
X555016Y185382D02*
D03*
X555329Y174870D02*
D03*
X614000Y196098D02*
D03*
X625437Y178000D02*
D03*
X603000Y215098D02*
D03*
X591610Y229000D02*
D03*
X611757Y166243D02*
D03*
X543570Y186295D02*
D03*
X675750Y178000D02*
D03*
X612563Y156846D02*
D03*
X623437Y161063D02*
D03*
X557000Y164500D02*
D03*
X556169Y214500D02*
D03*
D46*
X555500Y132332D02*
D03*
X611776Y144000D02*
D03*
X604484Y115000D02*
D03*
X569310Y130190D02*
D03*
M02*
