G04*
G04 #@! TF.GenerationSoftware,Altium Limited,Altium Designer,20.2.6 (244)*
G04*
G04 Layer_Physical_Order=2*
G04 Layer_Color=16711680*
%FSLAX25Y25*%
%MOIN*%
G70*
G04*
G04 #@! TF.SameCoordinates,118C2C68-07E6-42F6-8D37-0A3A2A95D5DC*
G04*
G04*
G04 #@! TF.FilePolarity,Positive*
G04*
G01*
G75*
%ADD13C,0.01575*%
%ADD38R,0.04724X0.05512*%
%ADD39C,0.02362*%
%ADD40C,0.05906*%
%ADD41R,0.05906X0.05906*%
%ADD42R,0.05906X0.05906*%
%ADD43O,0.07874X0.06693*%
%ADD44R,0.07874X0.06693*%
%ADD45C,0.02362*%
%ADD46C,0.03937*%
G36*
X690968Y249338D02*
X691789Y248789D01*
X692338Y247968D01*
X692507Y247118D01*
X692483Y247000D01*
Y106500D01*
X692507Y106382D01*
X692338Y105532D01*
X691789Y104711D01*
X690968Y104163D01*
X690118Y103993D01*
X690000Y104017D01*
X521500D01*
X521382Y103993D01*
X520532Y104163D01*
X519711Y104711D01*
X519163Y105532D01*
X518993Y106382D01*
X519017Y106500D01*
Y247000D01*
X518993Y247118D01*
X519163Y247968D01*
X519711Y248789D01*
X520532Y249338D01*
X521382Y249507D01*
X521500Y249483D01*
X690000D01*
X690118Y249507D01*
X690968Y249338D01*
D02*
G37*
%LPC*%
G36*
X527000Y243464D02*
X525715Y243295D01*
X524518Y242799D01*
X523490Y242010D01*
X522701Y240982D01*
X522205Y239785D01*
X522036Y238500D01*
X522205Y237215D01*
X522701Y236018D01*
X523490Y234990D01*
X524518Y234201D01*
X525715Y233705D01*
X527000Y233536D01*
X528285Y233705D01*
X529482Y234201D01*
X530510Y234990D01*
X531299Y236018D01*
X531795Y237215D01*
X531964Y238500D01*
X531795Y239785D01*
X531299Y240982D01*
X530510Y242010D01*
X529482Y242799D01*
X528285Y243295D01*
X527000Y243464D01*
D02*
G37*
G36*
X592110Y231124D02*
Y229500D01*
X593735D01*
X593665Y229851D01*
X593183Y230573D01*
X592461Y231055D01*
X592110Y231124D01*
D02*
G37*
G36*
X591110D02*
X590759Y231055D01*
X590038Y230573D01*
X589556Y229851D01*
X589486Y229500D01*
X591110D01*
Y231124D01*
D02*
G37*
G36*
X593735Y228500D02*
X592110D01*
Y226876D01*
X592461Y226945D01*
X593183Y227428D01*
X593665Y228149D01*
X593735Y228500D01*
D02*
G37*
G36*
X591110D02*
X589486D01*
X589556Y228149D01*
X590038Y227428D01*
X590759Y226945D01*
X591110Y226876D01*
Y228500D01*
D02*
G37*
G36*
X603500Y217223D02*
Y215598D01*
X605124D01*
X605055Y215950D01*
X604572Y216671D01*
X603851Y217153D01*
X603500Y217223D01*
D02*
G37*
G36*
X602500D02*
X602149Y217153D01*
X601428Y216671D01*
X600946Y215950D01*
X600876Y215598D01*
X602500D01*
Y217223D01*
D02*
G37*
G36*
X556669Y216624D02*
Y215000D01*
X558294D01*
X558224Y215351D01*
X557742Y216073D01*
X557020Y216555D01*
X556669Y216624D01*
D02*
G37*
G36*
X555669D02*
X555318Y216555D01*
X554597Y216073D01*
X554115Y215351D01*
X554045Y215000D01*
X555669D01*
Y216624D01*
D02*
G37*
G36*
X605124Y214598D02*
X603500D01*
Y212974D01*
X603851Y213044D01*
X604572Y213526D01*
X605055Y214247D01*
X605124Y214598D01*
D02*
G37*
G36*
X602500D02*
X600876D01*
X600946Y214247D01*
X601428Y213526D01*
X602149Y213044D01*
X602500Y212974D01*
Y214598D01*
D02*
G37*
G36*
X558294Y214000D02*
X556669D01*
Y212376D01*
X557020Y212445D01*
X557742Y212928D01*
X558224Y213649D01*
X558294Y214000D01*
D02*
G37*
G36*
X555669D02*
X554045D01*
X554115Y213649D01*
X554597Y212928D01*
X555318Y212445D01*
X555669Y212376D01*
Y214000D01*
D02*
G37*
G36*
X683405Y220315D02*
X671594D01*
Y209685D01*
X675556D01*
X675655Y209185D01*
X674718Y208797D01*
X673809Y208100D01*
X673113Y207192D01*
X672675Y206135D01*
X672591Y205500D01*
X682409D01*
X682325Y206135D01*
X681887Y207192D01*
X681190Y208100D01*
X680282Y208797D01*
X679345Y209185D01*
X679444Y209685D01*
X683405D01*
Y220315D01*
D02*
G37*
G36*
X579043Y203124D02*
Y201500D01*
X580668D01*
X580598Y201851D01*
X580116Y202572D01*
X579394Y203054D01*
X579043Y203124D01*
D02*
G37*
G36*
X578043D02*
X577692Y203054D01*
X576971Y202572D01*
X576489Y201851D01*
X576419Y201500D01*
X578043D01*
Y203124D01*
D02*
G37*
G36*
X682409Y204500D02*
X678000D01*
Y200616D01*
X678091D01*
X679225Y200765D01*
X680282Y201203D01*
X681190Y201900D01*
X681887Y202808D01*
X682325Y203865D01*
X682409Y204500D01*
D02*
G37*
G36*
X677000D02*
X672591D01*
X672675Y203865D01*
X673113Y202808D01*
X673809Y201900D01*
X674718Y201203D01*
X675775Y200765D01*
X676909Y200616D01*
X677000D01*
Y204500D01*
D02*
G37*
G36*
X580668Y200500D02*
X579043D01*
Y198876D01*
X579394Y198945D01*
X580116Y199427D01*
X580598Y200149D01*
X580668Y200500D01*
D02*
G37*
G36*
X578043D02*
X576419D01*
X576489Y200149D01*
X576971Y199427D01*
X577692Y198945D01*
X578043Y198876D01*
Y200500D01*
D02*
G37*
G36*
X527000Y225964D02*
X525715Y225795D01*
X524518Y225299D01*
X523490Y224510D01*
X522701Y223482D01*
X522205Y222285D01*
X522036Y221000D01*
X522205Y219715D01*
X522701Y218518D01*
X523490Y217490D01*
X524518Y216701D01*
X525715Y216205D01*
X527000Y216036D01*
X527103Y216050D01*
X531118Y212035D01*
X531118Y212034D01*
X550310Y192843D01*
X550103Y192343D01*
X547022D01*
X546789Y192576D01*
X546213Y193017D01*
X545543Y193295D01*
X544823Y193390D01*
X543840D01*
X543764Y193465D01*
X543189Y193907D01*
X542518Y194185D01*
X541799Y194280D01*
X541070D01*
X540510Y195010D01*
X539482Y195799D01*
X538285Y196295D01*
X537000Y196464D01*
X535715Y196295D01*
X534518Y195799D01*
X533490Y195010D01*
X532701Y193982D01*
X532205Y192785D01*
X532036Y191500D01*
X532205Y190215D01*
X532701Y189018D01*
X533490Y187990D01*
X534518Y187201D01*
X535592Y186757D01*
X535592Y186756D01*
Y186244D01*
X535592Y186243D01*
X534518Y185799D01*
X533490Y185010D01*
X532701Y183982D01*
X532257Y182908D01*
X532256Y182908D01*
X531744D01*
X531743Y182908D01*
X531299Y183982D01*
X530510Y185010D01*
X529482Y185799D01*
X528285Y186295D01*
X527000Y186464D01*
X525715Y186295D01*
X524518Y185799D01*
X523490Y185010D01*
X522701Y183982D01*
X522205Y182785D01*
X522036Y181500D01*
X522205Y180215D01*
X522701Y179018D01*
X523490Y177990D01*
X524518Y177201D01*
X525592Y176757D01*
X525592Y176756D01*
Y176244D01*
X525592Y176243D01*
X524518Y175799D01*
X523490Y175010D01*
X522701Y173982D01*
X522205Y172785D01*
X522036Y171500D01*
X522205Y170215D01*
X522701Y169018D01*
X523490Y167990D01*
X524518Y167201D01*
X525715Y166705D01*
X527000Y166536D01*
X528285Y166705D01*
X529482Y167201D01*
X530510Y167990D01*
X531299Y169018D01*
X531579Y169694D01*
X532079Y169595D01*
Y166579D01*
X541921D01*
Y168720D01*
X551959D01*
X552678Y168815D01*
X553349Y169093D01*
X553925Y169535D01*
X556220Y171830D01*
X556917Y172118D01*
X557575Y172623D01*
X557978Y173149D01*
X558557Y173278D01*
X559897Y171938D01*
X559932Y171678D01*
X560249Y170912D01*
X560754Y170254D01*
X561412Y169749D01*
X562178Y169431D01*
X563000Y169323D01*
X563822Y169431D01*
X564588Y169749D01*
X565246Y170254D01*
X565751Y170912D01*
X566069Y171678D01*
X566177Y172500D01*
X566069Y173322D01*
X565751Y174088D01*
X565246Y174746D01*
X564588Y175251D01*
X564345Y175352D01*
X558732Y180965D01*
X558156Y181407D01*
X557485Y181685D01*
X556766Y181780D01*
X555615D01*
X555582Y182280D01*
X555838Y182313D01*
X556604Y182631D01*
X557262Y183136D01*
X557767Y183793D01*
X558084Y184560D01*
X558192Y185382D01*
X558084Y186204D01*
X558016Y186368D01*
X558294Y186783D01*
X610583D01*
Y183776D01*
X618220D01*
Y173722D01*
X618315Y173002D01*
X618593Y172332D01*
X619034Y171756D01*
X619476Y171315D01*
Y169318D01*
X619014Y169127D01*
X610106Y178035D01*
X610069Y178322D01*
X609751Y179088D01*
X609246Y179746D01*
X608588Y180251D01*
X607822Y180569D01*
X607000Y180677D01*
X606178Y180569D01*
X605412Y180251D01*
X604754Y179746D01*
X604249Y179088D01*
X603932Y178322D01*
X603823Y177500D01*
X603932Y176678D01*
X604249Y175912D01*
X604754Y175254D01*
X605412Y174749D01*
X605614Y174665D01*
X610575Y169704D01*
X610458Y169114D01*
X610169Y168994D01*
X609511Y168489D01*
X609006Y167831D01*
X608688Y167065D01*
X608580Y166243D01*
X608688Y165421D01*
X609006Y164655D01*
X609511Y163997D01*
X610169Y163492D01*
X610866Y163203D01*
X613720Y160349D01*
Y159252D01*
X613220Y158940D01*
X613063Y158971D01*
Y156846D01*
Y154722D01*
X613220Y154753D01*
X613720Y154441D01*
Y146814D01*
X613599Y146754D01*
X613220Y146615D01*
X612550Y146892D01*
X612276Y146928D01*
Y144000D01*
Y141072D01*
X612550Y141108D01*
X613220Y141385D01*
X613599Y141246D01*
X613720Y141186D01*
Y139145D01*
X607633Y133058D01*
X607191Y132482D01*
X606914Y131812D01*
X606819Y131092D01*
Y127947D01*
X599635Y120763D01*
X599252Y120921D01*
Y120921D01*
X589409D01*
Y117905D01*
X588909Y117806D01*
X588629Y118482D01*
X587841Y119510D01*
X586813Y120299D01*
X585615Y120795D01*
X584331Y120964D01*
X583046Y120795D01*
X581849Y120299D01*
X580821Y119510D01*
X580032Y118482D01*
X579587Y117408D01*
X579587Y117408D01*
X579075D01*
X579074Y117408D01*
X578629Y118482D01*
X577841Y119510D01*
X576813Y120299D01*
X575615Y120795D01*
X574331Y120964D01*
X573046Y120795D01*
X571849Y120299D01*
X570821Y119510D01*
X570032Y118482D01*
X569536Y117285D01*
X569367Y116000D01*
X569536Y114715D01*
X570032Y113518D01*
X570821Y112490D01*
X571849Y111701D01*
X573046Y111205D01*
X574331Y111036D01*
X575615Y111205D01*
X576813Y111701D01*
X577841Y112490D01*
X578629Y113518D01*
X579074Y114592D01*
X579075Y114592D01*
X579587D01*
X579587Y114592D01*
X580032Y113518D01*
X580821Y112490D01*
X581849Y111701D01*
X583046Y111205D01*
X584331Y111036D01*
X585615Y111205D01*
X586813Y111701D01*
X587841Y112490D01*
X588629Y113518D01*
X588909Y114194D01*
X589409Y114095D01*
Y111079D01*
X599252D01*
Y113279D01*
X599522Y113315D01*
X600193Y113593D01*
X600769Y114034D01*
X601120Y114385D01*
X601247Y114342D01*
X601614Y114173D01*
X601891Y113503D01*
X602367Y112883D01*
X602987Y112407D01*
X603709Y112108D01*
X603984Y112072D01*
Y115000D01*
X604484D01*
Y115500D01*
X607413D01*
X607376Y115775D01*
X607077Y116497D01*
X606601Y117117D01*
X605981Y117593D01*
X605311Y117870D01*
X605142Y118237D01*
X605099Y118365D01*
X611564Y124830D01*
X612006Y125406D01*
X612283Y126076D01*
X612378Y126795D01*
Y129941D01*
X618466Y136028D01*
X618907Y136604D01*
X619185Y137274D01*
X619280Y137994D01*
Y154636D01*
X619742Y154827D01*
X629827Y144742D01*
X629636Y144280D01*
X626520D01*
X625822Y144569D01*
X625000Y144677D01*
X624178Y144569D01*
X623412Y144251D01*
X622754Y143746D01*
X622249Y143088D01*
X621932Y142322D01*
X621823Y141500D01*
X621932Y140678D01*
X622249Y139912D01*
X622387Y139732D01*
X621754Y139246D01*
X621249Y138588D01*
X620931Y137822D01*
X620823Y137000D01*
X620931Y136178D01*
X621249Y135412D01*
X621754Y134754D01*
X622412Y134249D01*
X623178Y133932D01*
X624000Y133823D01*
X624822Y133932D01*
X625520Y134220D01*
X631849D01*
X645692Y120377D01*
Y119665D01*
X645490Y119510D01*
X644701Y118482D01*
X644257Y117408D01*
X644256Y117408D01*
X643744D01*
X643743Y117408D01*
X643299Y118482D01*
X642510Y119510D01*
X641482Y120299D01*
X640285Y120795D01*
X639000Y120964D01*
X637715Y120795D01*
X636518Y120299D01*
X635490Y119510D01*
X634701Y118482D01*
X634257Y117408D01*
X634256Y117408D01*
X633744D01*
X633743Y117408D01*
X633299Y118482D01*
X632510Y119510D01*
X631482Y120299D01*
X630285Y120795D01*
X629000Y120964D01*
X627715Y120795D01*
X626518Y120299D01*
X625490Y119510D01*
X624701Y118482D01*
X624257Y117408D01*
X624256Y117408D01*
X623744D01*
X623743Y117408D01*
X623299Y118482D01*
X622510Y119510D01*
X621482Y120299D01*
X620285Y120795D01*
X619000Y120964D01*
X617715Y120795D01*
X616518Y120299D01*
X615490Y119510D01*
X614701Y118482D01*
X614205Y117285D01*
X614036Y116000D01*
X614205Y114715D01*
X614701Y113518D01*
X615490Y112490D01*
X616518Y111701D01*
X617715Y111205D01*
X619000Y111036D01*
X620285Y111205D01*
X621482Y111701D01*
X622510Y112490D01*
X623299Y113518D01*
X623743Y114592D01*
X623744Y114592D01*
X624256D01*
X624257Y114592D01*
X624701Y113518D01*
X625490Y112490D01*
X626518Y111701D01*
X627715Y111205D01*
X629000Y111036D01*
X630285Y111205D01*
X631482Y111701D01*
X632510Y112490D01*
X633299Y113518D01*
X633743Y114592D01*
X633744Y114592D01*
X634256D01*
X634257Y114592D01*
X634701Y113518D01*
X635490Y112490D01*
X636518Y111701D01*
X637715Y111205D01*
X639000Y111036D01*
X640285Y111205D01*
X641482Y111701D01*
X642510Y112490D01*
X643299Y113518D01*
X643743Y114592D01*
X643744Y114592D01*
X644256D01*
X644257Y114592D01*
X644701Y113518D01*
X645490Y112490D01*
X646518Y111701D01*
X647715Y111205D01*
X649000Y111036D01*
X650285Y111205D01*
X651482Y111701D01*
X652510Y112490D01*
X653299Y113518D01*
X653743Y114592D01*
X653744Y114592D01*
X654256D01*
X654257Y114592D01*
X654701Y113518D01*
X655490Y112490D01*
X656518Y111701D01*
X657715Y111205D01*
X659000Y111036D01*
X660285Y111205D01*
X661482Y111701D01*
X662510Y112490D01*
X663299Y113518D01*
X663743Y114592D01*
X663744Y114592D01*
X664256D01*
X664257Y114592D01*
X664701Y113518D01*
X665490Y112490D01*
X666518Y111701D01*
X667715Y111205D01*
X669000Y111036D01*
X670285Y111205D01*
X671482Y111701D01*
X672510Y112490D01*
X673299Y113518D01*
X673579Y114194D01*
X674079Y114095D01*
Y111079D01*
X683921D01*
Y120921D01*
X674079D01*
Y117905D01*
X673579Y117806D01*
X673299Y118482D01*
X672510Y119510D01*
X671482Y120299D01*
X670285Y120795D01*
X669000Y120964D01*
X668087Y120844D01*
X641965Y146966D01*
X641390Y147407D01*
X640719Y147685D01*
X640000Y147780D01*
X634651D01*
X633173Y149258D01*
X633364Y149720D01*
X639930D01*
X640490Y148990D01*
X641518Y148201D01*
X642715Y147705D01*
X644000Y147536D01*
X645285Y147705D01*
X646482Y148201D01*
X647510Y148990D01*
X648299Y150018D01*
X648795Y151215D01*
X648964Y152500D01*
X648795Y153785D01*
X648299Y154982D01*
X647510Y156010D01*
X646482Y156799D01*
X645285Y157295D01*
X644000Y157464D01*
X642715Y157295D01*
X641518Y156799D01*
X640490Y156010D01*
X639930Y155280D01*
X633151D01*
X626477Y161954D01*
X626188Y162651D01*
X625683Y163309D01*
X625036Y163806D01*
Y172466D01*
X624941Y173185D01*
X624663Y173856D01*
X624221Y174431D01*
X623780Y174873D01*
Y175883D01*
X624280Y176150D01*
X624586Y175945D01*
X624937Y175876D01*
Y178000D01*
Y180124D01*
X624586Y180054D01*
X624280Y179850D01*
X623780Y180117D01*
Y183776D01*
X626331D01*
Y193224D01*
X616780D01*
Y194579D01*
X617068Y195276D01*
X617177Y196098D01*
X617068Y196921D01*
X616751Y197687D01*
X616246Y198345D01*
X615588Y198850D01*
X614822Y199167D01*
X614000Y199275D01*
X613178Y199167D01*
X612412Y198850D01*
X611754Y198345D01*
X611249Y197687D01*
X610931Y196921D01*
X610823Y196098D01*
X610931Y195276D01*
X611220Y194579D01*
Y193224D01*
X610583D01*
Y192343D01*
X556992D01*
X556674Y192843D01*
X556761Y193500D01*
X556652Y194322D01*
X556335Y195088D01*
X555830Y195746D01*
X555172Y196251D01*
X554475Y196540D01*
X535049Y215966D01*
X535049Y215966D01*
X531650Y219365D01*
X531795Y219715D01*
X531964Y221000D01*
X531795Y222285D01*
X531299Y223482D01*
X530510Y224510D01*
X529482Y225299D01*
X528285Y225795D01*
X527000Y225964D01*
D02*
G37*
G36*
X527500Y195421D02*
Y192000D01*
X530921D01*
X530851Y192532D01*
X530453Y193493D01*
X529819Y194319D01*
X528993Y194953D01*
X528032Y195351D01*
X527500Y195421D01*
D02*
G37*
G36*
X526500D02*
X525968Y195351D01*
X525007Y194953D01*
X524181Y194319D01*
X523547Y193493D01*
X523149Y192532D01*
X523079Y192000D01*
X526500D01*
Y195421D01*
D02*
G37*
G36*
X530921Y191000D02*
X527500D01*
Y187579D01*
X528032Y187649D01*
X528993Y188047D01*
X529819Y188681D01*
X530453Y189507D01*
X530851Y190468D01*
X530921Y191000D01*
D02*
G37*
G36*
X526500D02*
X523079D01*
X523149Y190468D01*
X523547Y189507D01*
X524181Y188681D01*
X525007Y188047D01*
X525968Y187649D01*
X526500Y187579D01*
Y191000D01*
D02*
G37*
G36*
X625937Y180124D02*
Y178500D01*
X627561D01*
X627492Y178851D01*
X627009Y179572D01*
X626288Y180054D01*
X625937Y180124D01*
D02*
G37*
G36*
X627561Y177500D02*
X625937D01*
Y175876D01*
X626288Y175945D01*
X627009Y176427D01*
X627492Y177149D01*
X627561Y177500D01*
D02*
G37*
G36*
X665500Y187964D02*
X664215Y187795D01*
X663018Y187299D01*
X661990Y186510D01*
X661201Y185482D01*
X660705Y184285D01*
X660536Y183000D01*
X660705Y181715D01*
X661201Y180518D01*
X661990Y179490D01*
X663018Y178701D01*
X664215Y178205D01*
X665500Y178036D01*
X666785Y178205D01*
X667982Y178701D01*
X669010Y179490D01*
X669276Y179836D01*
X669939Y179880D01*
X672710Y177109D01*
X672999Y176412D01*
X673504Y175754D01*
X674162Y175249D01*
X674928Y174932D01*
X675750Y174823D01*
X676572Y174932D01*
X677338Y175249D01*
X677996Y175754D01*
X678501Y176412D01*
X678819Y177178D01*
X678927Y178000D01*
X678819Y178822D01*
X678501Y179588D01*
X677996Y180246D01*
X677338Y180751D01*
X676641Y181040D01*
X672716Y184966D01*
X672140Y185407D01*
X671469Y185685D01*
X670750Y185780D01*
X669570D01*
X669010Y186510D01*
X667982Y187299D01*
X666785Y187795D01*
X665500Y187964D01*
D02*
G37*
G36*
X666000Y176921D02*
Y173500D01*
X669421D01*
X669351Y174032D01*
X668953Y174993D01*
X668319Y175819D01*
X667493Y176453D01*
X666532Y176851D01*
X666000Y176921D01*
D02*
G37*
G36*
X665000D02*
X664468Y176851D01*
X663507Y176453D01*
X662681Y175819D01*
X662047Y174993D01*
X661649Y174032D01*
X661579Y173500D01*
X665000D01*
Y176921D01*
D02*
G37*
G36*
X669421Y172500D02*
X666000D01*
Y169079D01*
X666532Y169149D01*
X667493Y169547D01*
X668319Y170181D01*
X668953Y171007D01*
X669351Y171968D01*
X669421Y172500D01*
D02*
G37*
G36*
X665000D02*
X661579D01*
X661649Y171968D01*
X662047Y171007D01*
X662681Y170181D01*
X663507Y169547D01*
X664468Y169149D01*
X665000Y169079D01*
Y172500D01*
D02*
G37*
G36*
X648921Y217421D02*
X639079D01*
Y207579D01*
X642095D01*
X642194Y207079D01*
X641518Y206799D01*
X640490Y206010D01*
X639701Y204982D01*
X639205Y203785D01*
X639036Y202500D01*
X639205Y201215D01*
X639701Y200018D01*
X640490Y198990D01*
X641518Y198201D01*
X642592Y197757D01*
X642592Y197756D01*
Y197244D01*
X642592Y197243D01*
X641518Y196799D01*
X640490Y196010D01*
X639701Y194982D01*
X639205Y193785D01*
X639036Y192500D01*
X639205Y191215D01*
X639701Y190018D01*
X640490Y188990D01*
X641518Y188201D01*
X642592Y187757D01*
X642592Y187756D01*
Y187244D01*
X642592Y187243D01*
X641518Y186799D01*
X640490Y186010D01*
X639701Y184982D01*
X639205Y183785D01*
X639036Y182500D01*
X639205Y181215D01*
X639701Y180018D01*
X640490Y178990D01*
X641518Y178201D01*
X642592Y177757D01*
X642592Y177756D01*
Y177244D01*
X642592Y177243D01*
X641518Y176799D01*
X640490Y176010D01*
X639701Y174982D01*
X639205Y173785D01*
X639036Y172500D01*
X639205Y171215D01*
X639701Y170018D01*
X640490Y168990D01*
X641518Y168201D01*
X642715Y167705D01*
X644000Y167536D01*
X645285Y167705D01*
X646482Y168201D01*
X647510Y168990D01*
X648299Y170018D01*
X648795Y171215D01*
X648964Y172500D01*
X648795Y173785D01*
X648299Y174982D01*
X647510Y176010D01*
X646482Y176799D01*
X645408Y177243D01*
X645408Y177244D01*
Y177756D01*
X645408Y177757D01*
X646482Y178201D01*
X647510Y178990D01*
X648299Y180018D01*
X648795Y181215D01*
X648964Y182500D01*
X648795Y183785D01*
X648299Y184982D01*
X647510Y186010D01*
X646482Y186799D01*
X645408Y187243D01*
X645408Y187244D01*
Y187756D01*
X645408Y187757D01*
X646482Y188201D01*
X647510Y188990D01*
X648299Y190018D01*
X648795Y191215D01*
X648964Y192500D01*
X648795Y193785D01*
X648299Y194982D01*
X647510Y196010D01*
X646482Y196799D01*
X645408Y197243D01*
X645408Y197244D01*
Y197756D01*
X645408Y197757D01*
X646482Y198201D01*
X647510Y198990D01*
X648299Y200018D01*
X648795Y201215D01*
X648964Y202500D01*
X648795Y203785D01*
X648299Y204982D01*
X647510Y206010D01*
X646482Y206799D01*
X645806Y207079D01*
X645905Y207579D01*
X648921D01*
Y217421D01*
D02*
G37*
G36*
X557500Y166624D02*
Y165000D01*
X559124D01*
X559055Y165351D01*
X558572Y166072D01*
X557851Y166555D01*
X557500Y166624D01*
D02*
G37*
G36*
X556500D02*
X556149Y166555D01*
X555428Y166072D01*
X554946Y165351D01*
X554876Y165000D01*
X556500D01*
Y166624D01*
D02*
G37*
G36*
X644500Y166421D02*
Y163000D01*
X647921D01*
X647851Y163532D01*
X647453Y164493D01*
X646819Y165319D01*
X645993Y165953D01*
X645032Y166351D01*
X644500Y166421D01*
D02*
G37*
G36*
X643500D02*
X642968Y166351D01*
X642007Y165953D01*
X641181Y165319D01*
X640547Y164493D01*
X640149Y163532D01*
X640079Y163000D01*
X643500D01*
Y166421D01*
D02*
G37*
G36*
X559124Y164000D02*
X557500D01*
Y162376D01*
X557851Y162445D01*
X558572Y162928D01*
X559055Y163649D01*
X559124Y164000D01*
D02*
G37*
G36*
X556500D02*
X554876D01*
X554946Y163649D01*
X555428Y162928D01*
X556149Y162445D01*
X556500Y162376D01*
Y164000D01*
D02*
G37*
G36*
X591353Y163206D02*
Y161582D01*
X592978D01*
X592908Y161933D01*
X592426Y162654D01*
X591704Y163136D01*
X591353Y163206D01*
D02*
G37*
G36*
X590353D02*
X590002Y163136D01*
X589281Y162654D01*
X588799Y161933D01*
X588729Y161582D01*
X590353D01*
Y163206D01*
D02*
G37*
G36*
X592978Y160582D02*
X591353D01*
Y158957D01*
X591704Y159027D01*
X592426Y159509D01*
X592908Y160231D01*
X592978Y160582D01*
D02*
G37*
G36*
X590353D02*
X588729D01*
X588799Y160231D01*
X589281Y159509D01*
X590002Y159027D01*
X590353Y158957D01*
Y160582D01*
D02*
G37*
G36*
X647921Y162000D02*
X644500D01*
Y158579D01*
X645032Y158649D01*
X645993Y159047D01*
X646819Y159681D01*
X647453Y160507D01*
X647851Y161468D01*
X647921Y162000D01*
D02*
G37*
G36*
X643500D02*
X640079D01*
X640149Y161468D01*
X640547Y160507D01*
X641181Y159681D01*
X642007Y159047D01*
X642968Y158649D01*
X643500Y158579D01*
Y162000D01*
D02*
G37*
G36*
X612063Y158971D02*
X611712Y158901D01*
X610990Y158419D01*
X610508Y157697D01*
X610439Y157346D01*
X612063D01*
Y158971D01*
D02*
G37*
G36*
Y156346D02*
X610439D01*
X610508Y155995D01*
X610990Y155274D01*
X611712Y154792D01*
X612063Y154722D01*
Y156346D01*
D02*
G37*
G36*
X665500Y167964D02*
X664215Y167795D01*
X663018Y167299D01*
X661990Y166510D01*
X661201Y165482D01*
X660705Y164285D01*
X660536Y163000D01*
X660705Y161715D01*
X661201Y160518D01*
X661990Y159490D01*
X663018Y158701D01*
X663694Y158421D01*
X663595Y157921D01*
X660579D01*
Y148079D01*
X670421D01*
Y157921D01*
X667405D01*
X667306Y158421D01*
X667982Y158701D01*
X669010Y159490D01*
X669799Y160518D01*
X670295Y161715D01*
X670464Y163000D01*
X670295Y164285D01*
X669799Y165482D01*
X669010Y166510D01*
X667982Y167299D01*
X666785Y167795D01*
X665500Y167964D01*
D02*
G37*
G36*
X611276Y146928D02*
X611001Y146892D01*
X610279Y146593D01*
X609658Y146117D01*
X609183Y145497D01*
X608883Y144775D01*
X608847Y144500D01*
X611276D01*
Y146928D01*
D02*
G37*
G36*
Y143500D02*
X608847D01*
X608883Y143225D01*
X609183Y142503D01*
X609658Y141883D01*
X610279Y141407D01*
X611001Y141108D01*
X611276Y141072D01*
Y143500D01*
D02*
G37*
G36*
X556000Y135261D02*
Y132832D01*
X558428D01*
X558392Y133107D01*
X558093Y133829D01*
X557617Y134450D01*
X556997Y134925D01*
X556275Y135224D01*
X556000Y135261D01*
D02*
G37*
G36*
X555000D02*
X554725Y135224D01*
X554003Y134925D01*
X553383Y134450D01*
X552907Y133829D01*
X552608Y133107D01*
X552572Y132832D01*
X555000D01*
Y135261D01*
D02*
G37*
G36*
X569810Y133118D02*
Y130690D01*
X572238D01*
X572202Y130965D01*
X571903Y131687D01*
X571427Y132307D01*
X570807Y132783D01*
X570085Y133082D01*
X569810Y133118D01*
D02*
G37*
G36*
X568810D02*
X568535Y133082D01*
X567813Y132783D01*
X567193Y132307D01*
X566717Y131687D01*
X566418Y130965D01*
X566382Y130690D01*
X568810D01*
Y133118D01*
D02*
G37*
G36*
X558428Y131832D02*
X556000D01*
Y129404D01*
X556275Y129440D01*
X556997Y129739D01*
X557617Y130215D01*
X558093Y130835D01*
X558392Y131557D01*
X558428Y131832D01*
D02*
G37*
G36*
X555000D02*
X552572D01*
X552608Y131557D01*
X552907Y130835D01*
X553383Y130215D01*
X554003Y129739D01*
X554725Y129440D01*
X555000Y129404D01*
Y131832D01*
D02*
G37*
G36*
X572238Y129690D02*
X569810D01*
Y127262D01*
X570085Y127298D01*
X570807Y127597D01*
X571427Y128073D01*
X571903Y128693D01*
X572202Y129415D01*
X572238Y129690D01*
D02*
G37*
G36*
X568810D02*
X566382D01*
X566418Y129415D01*
X566717Y128693D01*
X567193Y128073D01*
X567813Y127597D01*
X568535Y127298D01*
X568810Y127262D01*
Y129690D01*
D02*
G37*
G36*
X564831Y119921D02*
Y116500D01*
X568252D01*
X568182Y117032D01*
X567783Y117993D01*
X567150Y118819D01*
X566324Y119453D01*
X565363Y119851D01*
X564831Y119921D01*
D02*
G37*
G36*
X563831D02*
X563299Y119851D01*
X562337Y119453D01*
X561512Y118819D01*
X560878Y117993D01*
X560480Y117032D01*
X560410Y116500D01*
X563831D01*
Y119921D01*
D02*
G37*
G36*
X568252Y115500D02*
X564831D01*
Y112079D01*
X565363Y112149D01*
X566324Y112547D01*
X567150Y113181D01*
X567783Y114007D01*
X568182Y114968D01*
X568252Y115500D01*
D02*
G37*
G36*
X563831D02*
X560410D01*
X560480Y114968D01*
X560878Y114007D01*
X561512Y113181D01*
X562337Y112547D01*
X563299Y112149D01*
X563831Y112079D01*
Y115500D01*
D02*
G37*
G36*
X607413Y114500D02*
X604984D01*
Y112072D01*
X605259Y112108D01*
X605981Y112407D01*
X606601Y112883D01*
X607077Y113503D01*
X607376Y114225D01*
X607413Y114500D01*
D02*
G37*
G36*
X554331Y120964D02*
X553046Y120795D01*
X551849Y120299D01*
X550821Y119510D01*
X550032Y118482D01*
X549536Y117285D01*
X549367Y116000D01*
X549536Y114715D01*
X550032Y113518D01*
X550821Y112490D01*
X551849Y111701D01*
X553046Y111205D01*
X554331Y111036D01*
X555615Y111205D01*
X556813Y111701D01*
X557841Y112490D01*
X558629Y113518D01*
X559125Y114715D01*
X559294Y116000D01*
X559125Y117285D01*
X558629Y118482D01*
X557841Y119510D01*
X556813Y120299D01*
X555615Y120795D01*
X554331Y120964D01*
D02*
G37*
%LPD*%
D13*
X614000Y189413D02*
Y196098D01*
X607000Y177210D02*
Y177500D01*
X621000Y173722D02*
Y185943D01*
Y173722D02*
X622256Y172466D01*
X607000Y177210D02*
X619500Y164710D01*
X614000Y189413D02*
X614913Y188500D01*
X545870Y189563D02*
X613850D01*
X544823Y190610D02*
X545870Y189563D01*
X554803Y185382D02*
X555016D01*
X554015Y186169D02*
X554803Y185382D01*
X533084Y214000D02*
X533084D01*
X527102Y219982D02*
X533084Y214000D01*
X611757Y166243D02*
X616500Y161500D01*
X543570Y186295D02*
X543696Y186169D01*
X554015D01*
X542689Y190610D02*
X544823D01*
X541799Y191500D02*
X542689Y190610D01*
X537000Y191500D02*
X541799D01*
X670750Y183000D02*
X675750Y178000D01*
X664698Y183000D02*
X670750D01*
X623437Y161063D02*
Y161198D01*
X622256Y162379D02*
X623437Y161198D01*
X622256Y162379D02*
Y172466D01*
X619500Y159000D02*
X633500Y145000D01*
X619500Y159000D02*
Y164710D01*
X632000Y152500D02*
X644000D01*
X623437Y161063D02*
X632000Y152500D01*
X533084Y214000D02*
X553584Y193500D01*
X556766Y179000D02*
X563000Y172766D01*
X537000Y181500D02*
X537588D01*
X540088Y179000D01*
X556766D01*
X551959Y171500D02*
X555329Y174870D01*
X537000Y171500D02*
X551959D01*
X598803Y116000D02*
X609598Y126795D01*
X616500Y137994D02*
Y161500D01*
X609598Y126795D02*
Y131092D01*
X616500Y137994D01*
X594331Y116000D02*
X598803D01*
X635500Y141500D02*
X658171Y118829D01*
X625000Y141500D02*
X635500D01*
X624000Y137000D02*
X633000D01*
X648472Y121528D01*
X633500Y145000D02*
X640000D01*
X669000Y116000D01*
X658171Y116829D02*
X659000Y116000D01*
X658171Y116829D02*
Y118829D01*
X648472Y116528D02*
X649000Y116000D01*
X648472Y116528D02*
Y121528D01*
X563000Y172500D02*
Y172766D01*
X554953Y174870D02*
X555329D01*
D38*
X622000Y188500D02*
D03*
X614913D02*
D03*
D39*
X644000Y212500D02*
X645500Y214000D01*
D40*
X527000Y221000D02*
D03*
Y171500D02*
D03*
X537000Y181500D02*
D03*
X527000D02*
D03*
X537000Y191500D02*
D03*
X527000D02*
D03*
Y238500D02*
D03*
X619000Y116000D02*
D03*
X629000D02*
D03*
X639000D02*
D03*
X649000D02*
D03*
X669000D02*
D03*
X659000D02*
D03*
X584331D02*
D03*
X574331D02*
D03*
X564331D02*
D03*
X554331D02*
D03*
X665500Y183000D02*
D03*
Y173000D02*
D03*
Y163000D02*
D03*
X644000Y192500D02*
D03*
Y202500D02*
D03*
Y182500D02*
D03*
Y172500D02*
D03*
Y162500D02*
D03*
Y152500D02*
D03*
D41*
X537000Y171500D02*
D03*
X665500Y153000D02*
D03*
X644000Y212500D02*
D03*
D42*
X679000Y116000D02*
D03*
X594331D02*
D03*
D43*
X677500Y205000D02*
D03*
D44*
Y215000D02*
D03*
D45*
X590853Y161082D02*
D03*
X563000Y172500D02*
D03*
X624000Y137000D02*
D03*
X607000Y177500D02*
D03*
X578543Y201000D02*
D03*
X553584Y193500D02*
D03*
X625000Y141500D02*
D03*
X555016Y185382D02*
D03*
X555329Y174870D02*
D03*
X614000Y196098D02*
D03*
X625437Y178000D02*
D03*
X603000Y215098D02*
D03*
X591610Y229000D02*
D03*
X611757Y166243D02*
D03*
X543570Y186295D02*
D03*
X675750Y178000D02*
D03*
X612563Y156846D02*
D03*
X623437Y161063D02*
D03*
X557000Y164500D02*
D03*
X556169Y214500D02*
D03*
D46*
X555500Y132332D02*
D03*
X611776Y144000D02*
D03*
X604484Y115000D02*
D03*
X569310Y130190D02*
D03*
M02*
