G04*
G04 #@! TF.GenerationSoftware,Altium Limited,Altium Designer,20.2.6 (244)*
G04*
G04 Layer_Color=32768*
%FSLAX25Y25*%
%MOIN*%
G70*
G04*
G04 #@! TF.SameCoordinates,118C2C68-07E6-42F6-8D37-0A3A2A95D5DC*
G04*
G04*
G04 #@! TF.FilePolarity,Positive*
G04*
G01*
G75*
%ADD10C,0.00787*%
%ADD47C,0.00394*%
%ADD48C,0.00197*%
D10*
X562295Y136362D02*
Y156638D01*
X590445D01*
Y136362D02*
Y156638D01*
X562295Y136362D02*
X590445D01*
D47*
X653563Y201870D02*
X661437D01*
X653563Y215650D02*
X661437D01*
X653563Y201870D02*
Y215650D01*
X661437Y201870D02*
Y215650D01*
X657500Y206791D02*
Y210728D01*
X655532Y208760D02*
X659469D01*
X567000Y160531D02*
Y164469D01*
X565031Y162500D02*
X568968D01*
X561488Y159350D02*
X572512D01*
X561488Y165650D02*
X572512D01*
Y159350D02*
Y165650D01*
X561488Y159350D02*
Y165650D01*
X603000Y159531D02*
Y163469D01*
X601031Y161500D02*
X604969D01*
X597488Y164650D02*
X608512D01*
X597488Y158350D02*
X608512D01*
X597488D02*
Y164650D01*
X608512Y158350D02*
Y164650D01*
X582398Y160513D02*
Y164450D01*
X580429Y162481D02*
X584366D01*
X576886Y165631D02*
X587910D01*
X576886Y159332D02*
X587910D01*
X576886D02*
Y165631D01*
X587910Y159332D02*
Y165631D01*
X527000Y219032D02*
Y222969D01*
X525032Y221000D02*
X528968D01*
X616488Y182673D02*
X624362D01*
X616488Y196453D02*
X624362D01*
X616488Y182673D02*
Y196453D01*
X624362Y182673D02*
Y196453D01*
X620425Y187594D02*
Y191532D01*
X618457Y189563D02*
X622394D01*
X618457Y186531D02*
Y190469D01*
X616488Y188500D02*
X620425D01*
X611567Y192240D02*
X625347D01*
X611567Y184760D02*
X625347D01*
Y192240D01*
X611567Y184760D02*
Y192240D01*
X527000Y236531D02*
Y240469D01*
X525032Y238500D02*
X528968D01*
X580000Y126031D02*
Y129969D01*
X578031Y128000D02*
X581968D01*
X573110Y124063D02*
X586890D01*
X573110Y131937D02*
X586890D01*
Y124063D02*
Y131937D01*
X573110Y124063D02*
Y131937D01*
X603000Y169532D02*
Y173468D01*
X601031Y171500D02*
X604969D01*
X596110Y175240D02*
X609890D01*
X596110Y167760D02*
X609890D01*
X596110D02*
Y175240D01*
X609890Y167760D02*
Y175240D01*
X554032Y143185D02*
X557969D01*
X556000Y141217D02*
Y145153D01*
X559937Y136295D02*
Y150075D01*
X552063Y136295D02*
Y150075D01*
X559937D01*
X552063Y136295D02*
X559937D01*
X578543Y219319D02*
Y223256D01*
X576575Y221287D02*
X580512D01*
X571654Y225224D02*
X585433D01*
X571654Y217350D02*
X585433D01*
X571654D02*
Y225224D01*
X585433Y217350D02*
Y225224D01*
X609583Y134563D02*
Y142437D01*
X595803Y134563D02*
Y142437D01*
Y134563D02*
X609583D01*
X595803Y142437D02*
X609583D01*
X600724Y138500D02*
X604661D01*
X602693Y136531D02*
Y140469D01*
X607043Y123063D02*
Y130937D01*
X593264Y123063D02*
Y130937D01*
Y123063D02*
X607043D01*
X593264Y130937D02*
X607043D01*
X598185Y127000D02*
X602122D01*
X600153Y125031D02*
Y128969D01*
X553610Y217063D02*
Y224937D01*
X567390Y217063D02*
Y224937D01*
X553610D02*
X567390D01*
X553610Y217063D02*
X567390D01*
X558532Y221000D02*
X562468D01*
X560500Y219032D02*
Y222969D01*
X602831Y217350D02*
Y225224D01*
X589051Y217350D02*
Y225224D01*
Y217350D02*
X602831D01*
X589051Y225224D02*
X602831D01*
X593972Y221287D02*
X597909D01*
X595941Y219319D02*
Y223256D01*
X609598Y146563D02*
Y154437D01*
X595819Y146563D02*
Y154437D01*
Y146563D02*
X609598D01*
X595819Y154437D02*
X609598D01*
X600740Y150500D02*
X604677D01*
X602709Y148531D02*
Y152469D01*
X576370Y143459D02*
Y149541D01*
X573329Y146500D02*
X579411D01*
D48*
X532394Y221000D02*
X532302Y221991D01*
X532029Y222948D01*
X531586Y223839D01*
X530986Y224634D01*
X530250Y225304D01*
X529404Y225828D01*
X528476Y226188D01*
X527498Y226371D01*
X526502D01*
X525524Y226188D01*
X524596Y225828D01*
X523750Y225304D01*
X523014Y224634D01*
X522414Y223839D01*
X521971Y222948D01*
X521698Y221991D01*
X521606Y221000D01*
X521698Y220009D01*
X521971Y219052D01*
X522414Y218161D01*
X523014Y217366D01*
X523750Y216696D01*
X524596Y216172D01*
X525524Y215812D01*
X526502Y215629D01*
X527498D01*
X528476Y215812D01*
X529404Y216172D01*
X530250Y216696D01*
X530986Y217366D01*
X531586Y218161D01*
X532029Y219052D01*
X532302Y220009D01*
X532394Y221000D01*
Y238500D02*
X532302Y239491D01*
X532029Y240448D01*
X531586Y241339D01*
X530986Y242134D01*
X530250Y242804D01*
X529404Y243328D01*
X528476Y243688D01*
X527498Y243871D01*
X526502D01*
X525524Y243688D01*
X524596Y243328D01*
X523750Y242804D01*
X523014Y242134D01*
X522414Y241339D01*
X521971Y240448D01*
X521698Y239491D01*
X521606Y238500D01*
X521698Y237509D01*
X521971Y236552D01*
X522414Y235661D01*
X523014Y234866D01*
X523750Y234196D01*
X524596Y233672D01*
X525524Y233312D01*
X526502Y233129D01*
X527498D01*
X528476Y233312D01*
X529404Y233672D01*
X530250Y234196D01*
X530986Y234866D01*
X531586Y235661D01*
X532029Y236552D01*
X532302Y237509D01*
X532394Y238500D01*
M02*
