G04*
G04 #@! TF.GenerationSoftware,Altium Limited,Altium Designer,20.2.6 (244)*
G04*
G04 Layer_Color=16711935*
%FSLAX25Y25*%
%MOIN*%
G70*
G04*
G04 #@! TF.SameCoordinates,118C2C68-07E6-42F6-8D37-0A3A2A95D5DC*
G04*
G04*
G04 #@! TF.FilePolarity,Positive*
G04*
G01*
G75*
%ADD14C,0.01000*%
D14*
X521500Y252000D02*
X520525Y251904D01*
X519587Y251619D01*
X518722Y251157D01*
X517965Y250535D01*
X517343Y249778D01*
X516881Y248913D01*
X516596Y247975D01*
X516500Y247000D01*
Y106500D02*
X516596Y105525D01*
X516881Y104587D01*
X517343Y103722D01*
X517965Y102964D01*
X518722Y102343D01*
X519587Y101881D01*
X520525Y101596D01*
X521500Y101500D01*
X690000D02*
X690976Y101596D01*
X691913Y101881D01*
X692778Y102343D01*
X693536Y102964D01*
X694157Y103722D01*
X694619Y104587D01*
X694904Y105525D01*
X695000Y106500D01*
Y247000D02*
X694904Y247975D01*
X694619Y248913D01*
X694157Y249778D01*
X693536Y250535D01*
X692778Y251157D01*
X691913Y251619D01*
X690976Y251904D01*
X690000Y252000D01*
X521500D02*
X678500D01*
X516500Y106500D02*
Y247000D01*
X521500Y101500D02*
X690000D01*
X695000Y106500D02*
Y247000D01*
X678500Y252000D02*
X690000D01*
M02*
