G04*
G04 #@! TF.GenerationSoftware,Altium Limited,Altium Designer,21.0.9 (235)*
G04*
G04 Layer_Color=8421504*
%FSLAX25Y25*%
%MOIN*%
G70*
G04*
G04 #@! TF.SameCoordinates,DB600209-2405-4227-A8B2-1458F7EF1284*
G04*
G04*
G04 #@! TF.FilePolarity,Positive*
G04*
G01*
G75*
%ADD17R,0.05906X0.04331*%
%ADD18R,0.04331X0.05512*%
%ADD19R,0.01575X0.09449*%
%ADD20R,0.09449X0.01575*%
%ADD21R,0.21654X0.07874*%
%ADD22R,0.04331X0.05906*%
%ADD23R,0.04724X0.05512*%
%ADD24R,0.06102X0.02362*%
D17*
X657500Y205020D02*
D03*
Y212500D02*
D03*
X620425Y185823D02*
D03*
Y193303D02*
D03*
X556000Y146925D02*
D03*
Y139445D02*
D03*
D18*
X569953Y162500D02*
D03*
X564047D02*
D03*
X600047Y161500D02*
D03*
X605953D02*
D03*
X579445Y162481D02*
D03*
X585350D02*
D03*
D19*
X592024Y209004D02*
D03*
X588874D02*
D03*
X585724D02*
D03*
X582575D02*
D03*
X579425D02*
D03*
X576276D02*
D03*
X573126D02*
D03*
X569976D02*
D03*
X569976Y172783D02*
D03*
X573126D02*
D03*
X576275D02*
D03*
X579425Y172783D02*
D03*
X582575Y172783D02*
D03*
X585724D02*
D03*
X588874D02*
D03*
X592024D02*
D03*
D20*
X562890Y201917D02*
D03*
Y198768D02*
D03*
Y195618D02*
D03*
Y192469D02*
D03*
Y189319D02*
D03*
Y186169D02*
D03*
Y183020D02*
D03*
Y179870D02*
D03*
X599110Y179870D02*
D03*
Y183020D02*
D03*
Y186169D02*
D03*
Y189319D02*
D03*
Y192469D02*
D03*
Y195618D02*
D03*
Y198768D02*
D03*
Y201917D02*
D03*
D21*
X554799Y238000D02*
D03*
X592201D02*
D03*
D22*
X583740Y128000D02*
D03*
X576260D02*
D03*
X574803Y221287D02*
D03*
X582283D02*
D03*
X606433Y138500D02*
D03*
X598953D02*
D03*
X603894Y127000D02*
D03*
X596413D02*
D03*
X556760Y221000D02*
D03*
X564240D02*
D03*
X599681Y221287D02*
D03*
X592201D02*
D03*
X606449Y150500D02*
D03*
X598969D02*
D03*
D23*
X599457Y171500D02*
D03*
X606543D02*
D03*
D24*
X587000Y139000D02*
D03*
Y144000D02*
D03*
Y149000D02*
D03*
Y154000D02*
D03*
X565740D02*
D03*
Y149000D02*
D03*
Y144000D02*
D03*
Y139000D02*
D03*
M02*
