G04*
G04 #@! TF.GenerationSoftware,Altium Limited,Altium Designer,21.0.9 (235)*
G04*
G04 Layer_Color=16711935*
%FSLAX25Y25*%
%MOIN*%
G70*
G04*
G04 #@! TF.SameCoordinates,DB600209-2405-4227-A8B2-1458F7EF1284*
G04*
G04*
G04 #@! TF.FilePolarity,Negative*
G04*
G01*
G75*
%ADD31R,0.05524X0.06312*%
%ADD32C,0.06706*%
%ADD33R,0.06706X0.06706*%
%ADD34R,0.06706X0.06706*%
%ADD35O,0.08674X0.07493*%
%ADD36R,0.08674X0.07493*%
%ADD37C,0.03162*%
%ADD38C,0.04737*%
D31*
X622000Y188500D02*
D03*
X614913D02*
D03*
D32*
X527000Y221000D02*
D03*
Y171500D02*
D03*
X537000Y181500D02*
D03*
X527000D02*
D03*
X537000Y191500D02*
D03*
X527000D02*
D03*
Y238500D02*
D03*
X619000Y116000D02*
D03*
X629000D02*
D03*
X639000D02*
D03*
X649000D02*
D03*
X669000D02*
D03*
X659000D02*
D03*
X584331D02*
D03*
X574331D02*
D03*
X564331D02*
D03*
X554331D02*
D03*
X665500Y183000D02*
D03*
Y173000D02*
D03*
Y163000D02*
D03*
X644000Y192500D02*
D03*
Y202500D02*
D03*
Y182500D02*
D03*
Y172500D02*
D03*
Y162500D02*
D03*
Y152500D02*
D03*
D33*
X537000Y171500D02*
D03*
X665500Y153000D02*
D03*
X644000Y212500D02*
D03*
D34*
X679000Y116000D02*
D03*
X594331D02*
D03*
D35*
X677500Y205000D02*
D03*
D36*
Y215000D02*
D03*
D37*
X590853Y161082D02*
D03*
X563000Y172500D02*
D03*
X624000Y137000D02*
D03*
X607000Y177500D02*
D03*
X578543Y201000D02*
D03*
X553584Y193500D02*
D03*
X625000Y141500D02*
D03*
X555016Y185382D02*
D03*
X555329Y174870D02*
D03*
X614000Y196098D02*
D03*
X625437Y178000D02*
D03*
X603000Y215098D02*
D03*
X591610Y229000D02*
D03*
X611757Y166243D02*
D03*
X543570Y186295D02*
D03*
X675750Y178000D02*
D03*
X612563Y156846D02*
D03*
X623437Y161063D02*
D03*
X557000Y164500D02*
D03*
X556169Y214500D02*
D03*
D38*
X555500Y132332D02*
D03*
X611776Y144000D02*
D03*
X604484Y115000D02*
D03*
X569310Y130190D02*
D03*
M02*
