G04*
G04 #@! TF.GenerationSoftware,Altium Limited,Altium Designer,21.0.9 (235)*
G04*
G04 Layer_Color=16711935*
%FSLAX25Y25*%
%MOIN*%
G70*
G04*
G04 #@! TF.SameCoordinates,DB600209-2405-4227-A8B2-1458F7EF1284*
G04*
G04*
G04 #@! TF.FilePolarity,Positive*
G04*
G01*
G75*
%ADD47C,0.00394*%
D47*
X532000Y221000D02*
X531898Y222007D01*
X531595Y222972D01*
X531104Y223856D01*
X530445Y224624D01*
X529645Y225243D01*
X528736Y225689D01*
X527757Y225942D01*
X526747Y225994D01*
X525747Y225840D01*
X524798Y225489D01*
X523940Y224954D01*
X523206Y224257D01*
X522628Y223427D01*
X522229Y222497D01*
X522026Y221506D01*
Y220494D01*
X522229Y219503D01*
X522628Y218573D01*
X523206Y217743D01*
X523940Y217046D01*
X524798Y216511D01*
X525747Y216160D01*
X526747Y216006D01*
X527757Y216058D01*
X528736Y216311D01*
X529645Y216757D01*
X530445Y217376D01*
X531104Y218144D01*
X531595Y219028D01*
X531898Y219993D01*
X532000Y221000D01*
Y238500D02*
X531898Y239507D01*
X531595Y240472D01*
X531104Y241356D01*
X530445Y242124D01*
X529645Y242743D01*
X528736Y243189D01*
X527757Y243442D01*
X526747Y243494D01*
X525747Y243340D01*
X524798Y242989D01*
X523940Y242454D01*
X523206Y241757D01*
X522628Y240927D01*
X522229Y239997D01*
X522026Y239006D01*
Y237994D01*
X522229Y237003D01*
X522628Y236073D01*
X523206Y235243D01*
X523940Y234546D01*
X524798Y234011D01*
X525747Y233660D01*
X526747Y233506D01*
X527757Y233558D01*
X528736Y233811D01*
X529645Y234257D01*
X530445Y234876D01*
X531104Y235644D01*
X531595Y236528D01*
X531898Y237493D01*
X532000Y238500D01*
X654646Y204429D02*
X660354D01*
X654646Y213091D02*
X660354D01*
X654646Y204429D02*
Y213091D01*
X660354Y204429D02*
Y213091D01*
X562669Y159646D02*
X571331D01*
X562669Y165354D02*
X571331D01*
Y159646D02*
Y165354D01*
X562669Y159646D02*
Y165354D01*
X598669Y164354D02*
X607331D01*
X598669Y158646D02*
X607331D01*
X598669D02*
Y164354D01*
X607331Y158646D02*
Y164354D01*
X578067Y165336D02*
X586728D01*
X578067Y159627D02*
X586728D01*
X578067D02*
Y165336D01*
X586728Y159627D02*
Y165336D01*
X617571Y185232D02*
X623279D01*
X617571Y193894D02*
X623279D01*
X617571Y185232D02*
Y193894D01*
X623279Y185232D02*
Y193894D01*
X614224Y191256D02*
X622689D01*
X614224Y185744D02*
X622689D01*
Y191256D01*
X614224Y185744D02*
Y191256D01*
X575669Y125146D02*
X584331D01*
X575669Y130854D02*
X584331D01*
Y125146D02*
Y130854D01*
X575669Y125146D02*
Y130854D01*
X598768Y174256D02*
X607232D01*
X598768Y168744D02*
X607232D01*
X598768D02*
Y174256D01*
X607232Y168744D02*
Y174256D01*
X558854Y138854D02*
Y147516D01*
X553146Y138854D02*
Y147516D01*
X558854D01*
X553146Y138854D02*
X558854D01*
X574213Y224142D02*
X582874D01*
X574213Y218433D02*
X582874D01*
X574213D02*
Y224142D01*
X582874Y218433D02*
Y224142D01*
X607024Y135646D02*
Y141354D01*
X598362Y135646D02*
Y141354D01*
Y135646D02*
X607024D01*
X598362Y141354D02*
X607024D01*
X604484Y124146D02*
Y129854D01*
X595823Y124146D02*
Y129854D01*
Y124146D02*
X604484D01*
X595823Y129854D02*
X604484D01*
X556169Y218146D02*
Y223854D01*
X564831Y218146D02*
Y223854D01*
X556169D02*
X564831D01*
X556169Y218146D02*
X564831D01*
X600272Y218433D02*
Y224142D01*
X591610Y218433D02*
Y224142D01*
Y218433D02*
X600272D01*
X591610Y224142D02*
X600272D01*
X607039Y147646D02*
Y153354D01*
X598378Y147646D02*
Y153354D01*
Y147646D02*
X607039D01*
X598378Y153354D02*
X607039D01*
M02*
