M48
;Layer_Color=9474304
;FILE_FORMAT=2:4
INCH,TZ
;TYPE=PLATED
T1F00S00C0.0157
T2F00S00C0.0236
T3F00S00C0.0354
T4F00S00C0.0394
T5F00S00C0.0472
%
T01
X62400Y13700
X62500Y14150
X62544Y17800
X67575
X60700Y17750
X61176Y16624
X61256Y15685
X62344Y16106
X59085Y16108
X55700Y16450
X55533Y17487
X56300Y17250
X55502Y18538
X55358Y19350
X54357Y18630
X55617Y21450
X57854Y20100
X60300Y21510
X59161Y22900
X61400Y19610
T02
X55550Y13233
X56931Y13019
X60448Y11500
X61178Y14400
T03
X55433Y11600
X56433
X57433
X58433
X59433
X61900
X62900
X63900
X64900
X65900
X66900
X67900
X66550Y15300
X64400Y15250
Y16250
Y17250
Y18250
Y19250
Y20250
Y21250
X66550Y18300
Y17300
Y16300
X53700Y17150
X52700
Y18150
X53700
Y19150
X52700
T04
X52700Y22100
Y23850
T05
X67750Y20500
Y21500
M30
