G04*
G04 #@! TF.GenerationSoftware,Altium Limited,Altium Designer,21.0.9 (235)*
G04*
G04 Layer_Color=32768*
%FSLAX25Y25*%
%MOIN*%
G70*
G04*
G04 #@! TF.SameCoordinates,B8C923A0-899F-4986-8B49-ABE338B4BB89*
G04*
G04*
G04 #@! TF.FilePolarity,Positive*
G04*
G01*
G75*
%ADD15C,0.00394*%
D15*
X410032Y298763D02*
Y306638D01*
X423812Y298763D02*
Y306638D01*
X410032D02*
X423812D01*
X410032Y298763D02*
X423812D01*
X414953Y302700D02*
X418890D01*
X416922Y300732D02*
Y304669D01*
X505031Y332740D02*
X508968D01*
X507000Y330772D02*
Y334709D01*
X503063Y325850D02*
Y339630D01*
X510937Y325850D02*
Y339630D01*
X503063Y325850D02*
X510937D01*
X503063Y339630D02*
X510937D01*
X505850Y349563D02*
Y357437D01*
X519630Y349563D02*
Y357437D01*
X505850D02*
X519630D01*
X505850Y349563D02*
X519630D01*
X510772Y353500D02*
X514709D01*
X512740Y351532D02*
Y355469D01*
X463531Y336500D02*
X467469D01*
X465500Y334531D02*
Y338469D01*
X469240Y329610D02*
Y343390D01*
X461760Y329610D02*
Y343390D01*
X469240D01*
X461760Y329610D02*
X469240D01*
X492457Y365032D02*
Y368969D01*
X490488Y367000D02*
X494425D01*
X485567Y363260D02*
X499346D01*
X485567Y370740D02*
X499346D01*
Y363260D02*
Y370740D01*
X485567Y363260D02*
Y370740D01*
X431760Y266327D02*
X439240D01*
X431760Y282075D02*
X439240D01*
X431760Y266327D02*
Y282075D01*
X439240Y266327D02*
Y282075D01*
X435500Y272232D02*
Y276169D01*
X433532Y274201D02*
X437468D01*
X427783Y265342D02*
Y295657D01*
X389988Y265342D02*
Y295657D01*
Y265342D02*
X427783D01*
X389988Y295657D02*
X427783D01*
X406917Y280500D02*
X410854D01*
X408886Y278532D02*
Y282469D01*
X231193Y333882D02*
Y394118D01*
X192807D02*
X231193D01*
X192807Y333882D02*
Y394118D01*
Y333882D02*
X231193D01*
X233382Y340307D02*
Y378693D01*
X293618D01*
Y340307D02*
Y378693D01*
X233382Y340307D02*
X293618D01*
X508500Y364531D02*
Y368468D01*
X506531Y366500D02*
X510468D01*
X501610Y362563D02*
X515390D01*
X501610Y370437D02*
X515390D01*
Y362563D02*
Y370437D01*
X501610Y362563D02*
Y370437D01*
X506110Y309563D02*
Y317437D01*
X519890Y309563D02*
Y317437D01*
X506110D02*
X519890D01*
X506110Y309563D02*
X519890D01*
X511031Y313500D02*
X514968D01*
X513000Y311531D02*
Y315469D01*
X506110Y300260D02*
Y307740D01*
X519890Y300260D02*
Y307740D01*
X506110D02*
X519890D01*
X506110Y300260D02*
X519890D01*
X511031Y304000D02*
X514968D01*
X513000Y302031D02*
Y305968D01*
X471063Y343390D02*
X478937D01*
X471063Y329610D02*
X478937D01*
Y343390D01*
X471063Y329610D02*
Y343390D01*
X475000Y334531D02*
Y338469D01*
X473032Y336500D02*
X476968D01*
X474031Y306500D02*
X477969D01*
X476000Y304532D02*
Y308469D01*
X479937Y299610D02*
Y313390D01*
X472063Y299610D02*
Y313390D01*
X479937D01*
X472063Y299610D02*
X479937D01*
X521531Y266500D02*
X525468D01*
X523500Y264531D02*
Y268468D01*
X519760Y259610D02*
Y273390D01*
X527240Y259610D02*
Y273390D01*
X519760Y259610D02*
X527240D01*
X519760Y273390D02*
X527240D01*
X493532Y266457D02*
X497469D01*
X495500Y264488D02*
Y268425D01*
X491760Y259567D02*
Y273346D01*
X499240Y259567D02*
Y273346D01*
X491760Y259567D02*
X499240D01*
X491760Y273346D02*
X499240D01*
X502531Y266500D02*
X506468D01*
X504500Y264531D02*
Y268468D01*
X500760Y259610D02*
Y273390D01*
X508240Y259610D02*
Y273390D01*
X500760Y259610D02*
X508240D01*
X500760Y273390D02*
X508240D01*
X560032Y266500D02*
X563969D01*
X562000Y264531D02*
Y268468D01*
X558260Y259610D02*
Y273390D01*
X565740Y259610D02*
Y273390D01*
X558260Y259610D02*
X565740D01*
X558260Y273390D02*
X565740D01*
X550531Y266500D02*
X554468D01*
X552500Y264531D02*
Y268468D01*
X548760Y259610D02*
Y273390D01*
X556240Y259610D02*
Y273390D01*
X548760Y259610D02*
X556240D01*
X548760Y273390D02*
X556240D01*
X553532Y285760D02*
X557469D01*
X555500Y283791D02*
Y287728D01*
X559437Y278870D02*
Y292650D01*
X551563Y278870D02*
Y292650D01*
X559437D01*
X551563Y278870D02*
X559437D01*
X541032Y285760D02*
X544969D01*
X543000Y283791D02*
Y287728D01*
X546937Y278870D02*
Y292650D01*
X539063Y278870D02*
Y292650D01*
X546937D01*
X539063Y278870D02*
X546937D01*
X517531Y285760D02*
X521468D01*
X519500Y283791D02*
Y287728D01*
X523437Y278870D02*
Y292650D01*
X515563Y278870D02*
Y292650D01*
X523437D01*
X515563Y278870D02*
X523437D01*
X530031Y285760D02*
X533968D01*
X532000Y283791D02*
Y287728D01*
X535937Y278870D02*
Y292650D01*
X528063Y278870D02*
Y292650D01*
X535937D01*
X528063Y278870D02*
X535937D01*
X583500Y344032D02*
Y347969D01*
X581531Y346000D02*
X585468D01*
X576610Y342260D02*
X590390D01*
X576610Y349740D02*
X590390D01*
Y342260D02*
Y349740D01*
X576610Y342260D02*
Y349740D01*
X530760Y273390D02*
X538240D01*
X530760Y259610D02*
X538240D01*
Y273390D01*
X530760Y259610D02*
Y273390D01*
X534500Y264531D02*
Y268468D01*
X532531Y266500D02*
X536469D01*
X539260Y273346D02*
X546740D01*
X539260Y259567D02*
X546740D01*
Y273346D01*
X539260Y259567D02*
Y273346D01*
X543000Y264488D02*
Y268425D01*
X541032Y266457D02*
X544969D01*
X510760Y273390D02*
X518240D01*
X510760Y259610D02*
X518240D01*
Y273390D01*
X510760Y259610D02*
Y273390D01*
X514500Y264531D02*
Y268468D01*
X512532Y266500D02*
X516468D01*
X561563Y342630D02*
X569437D01*
X561563Y328850D02*
X569437D01*
Y342630D01*
X561563Y328850D02*
Y342630D01*
X565500Y333772D02*
Y337709D01*
X563531Y335740D02*
X567469D01*
X561563Y312870D02*
X569437D01*
X561563Y326650D02*
X569437D01*
X561563Y312870D02*
Y326650D01*
X569437Y312870D02*
Y326650D01*
X565500Y317791D02*
Y321728D01*
X563531Y319760D02*
X567469D01*
X539563Y373130D02*
X547437D01*
X539563Y359350D02*
X547437D01*
Y373130D01*
X539563Y359350D02*
Y373130D01*
X543500Y364272D02*
Y368209D01*
X541532Y366240D02*
X545469D01*
X530260Y359154D02*
X537740D01*
X530260Y372933D02*
X537740D01*
X530260Y359154D02*
Y372933D01*
X537740Y359154D02*
Y372933D01*
X534000Y364075D02*
Y368012D01*
X532031Y366043D02*
X535968D01*
M02*
