G04*
G04 #@! TF.GenerationSoftware,Altium Limited,Altium Designer,21.0.9 (235)*
G04*
G04 Layer_Color=8388736*
%FSLAX25Y25*%
%MOIN*%
G70*
G04*
G04 #@! TF.SameCoordinates,B8C923A0-899F-4986-8B49-ABE338B4BB89*
G04*
G04*
G04 #@! TF.FilePolarity,Negative*
G04*
G01*
G75*
%ADD29R,0.05131X0.06706*%
%ADD30R,0.06706X0.05131*%
%ADD31R,0.02375X0.10249*%
%ADD32R,0.10249X0.02375*%
%ADD33R,0.06312X0.05524*%
%ADD34R,0.05524X0.06312*%
%ADD35R,0.07493X0.05131*%
%ADD36R,0.11430X0.04737*%
%ADD37R,0.11430X0.13792*%
%ADD38R,0.08674X0.22453*%
%ADD39R,0.07099X0.05524*%
%ADD40C,0.04245*%
%ADD41O,0.08674X0.06706*%
%ADD42R,0.08674X0.06706*%
%ADD43C,0.07800*%
%ADD44C,0.06706*%
%ADD45R,0.06706X0.06706*%
%ADD46O,0.07493X0.08674*%
%ADD47R,0.07493X0.08674*%
%ADD48C,0.02769*%
%ADD49C,0.05800*%
%ADD50C,0.04737*%
%ADD51C,0.36627*%
%ADD52C,0.32296*%
%ADD53C,0.20485*%
%ADD54C,0.28359*%
D29*
X413182Y302700D02*
D03*
X420662D02*
D03*
X509000Y353500D02*
D03*
X516480D02*
D03*
X512240Y366500D02*
D03*
X504760D02*
D03*
X509260Y313500D02*
D03*
X516740D02*
D03*
D30*
X507000Y329000D02*
D03*
Y336480D02*
D03*
X475000Y340240D02*
D03*
Y332760D02*
D03*
X476000Y310240D02*
D03*
Y302760D02*
D03*
X555500Y289500D02*
D03*
Y282020D02*
D03*
X543000Y289500D02*
D03*
Y282020D02*
D03*
X519500Y289500D02*
D03*
Y282020D02*
D03*
X532000Y289500D02*
D03*
Y282020D02*
D03*
X565500Y339480D02*
D03*
Y332000D02*
D03*
Y316020D02*
D03*
Y323500D02*
D03*
X543500Y369980D02*
D03*
Y362500D02*
D03*
D31*
X524476Y349610D02*
D03*
X527626D02*
D03*
X530776D02*
D03*
X533925D02*
D03*
X537075D02*
D03*
X540224D02*
D03*
X543374D02*
D03*
X546524D02*
D03*
X546524Y313390D02*
D03*
X543374D02*
D03*
X540224D02*
D03*
X537075D02*
D03*
X533925D02*
D03*
X530776D02*
D03*
X527626D02*
D03*
X524476D02*
D03*
D32*
X553610Y342524D02*
D03*
Y339374D02*
D03*
Y336224D02*
D03*
Y333075D02*
D03*
X553610Y329925D02*
D03*
X553610Y326776D02*
D03*
Y323626D02*
D03*
Y320476D02*
D03*
X517390Y320476D02*
D03*
Y323626D02*
D03*
Y326776D02*
D03*
Y329925D02*
D03*
Y333075D02*
D03*
Y336224D02*
D03*
Y339374D02*
D03*
Y342524D02*
D03*
D33*
X465500Y340043D02*
D03*
Y332957D02*
D03*
X523500Y262957D02*
D03*
Y270043D02*
D03*
X495500Y262913D02*
D03*
Y270000D02*
D03*
X504500Y262957D02*
D03*
Y270043D02*
D03*
X562000Y262957D02*
D03*
Y270043D02*
D03*
X552500Y262957D02*
D03*
Y270043D02*
D03*
X534500D02*
D03*
Y262957D02*
D03*
X543000Y270000D02*
D03*
Y262913D02*
D03*
X514500Y270043D02*
D03*
Y262957D02*
D03*
X534000Y362500D02*
D03*
Y369587D02*
D03*
D34*
X496000Y367000D02*
D03*
X488913D02*
D03*
X509457Y304000D02*
D03*
X516543D02*
D03*
X587043Y346000D02*
D03*
X579957D02*
D03*
D35*
X435500Y268886D02*
D03*
Y279516D02*
D03*
D36*
X420500Y271445D02*
D03*
Y280500D02*
D03*
Y289555D02*
D03*
D37*
X397272Y280500D02*
D03*
D38*
X491500Y340201D02*
D03*
Y302799D02*
D03*
D39*
X437398Y289500D02*
D03*
X449996D02*
D03*
D40*
X208063Y364000D02*
D03*
X263500Y363437D02*
D03*
D41*
X584000Y292000D02*
D03*
X594000D02*
D03*
X584000Y282000D02*
D03*
X594000D02*
D03*
X584000Y272000D02*
D03*
D42*
X594000D02*
D03*
D43*
X590000Y364500D02*
D03*
X580000D02*
D03*
D44*
X507500Y394500D02*
D03*
X517500D02*
D03*
X527500D02*
D03*
X311500Y275000D02*
D03*
X321500D02*
D03*
X331500D02*
D03*
X341500D02*
D03*
X361500D02*
D03*
X351500D02*
D03*
X497500Y378500D02*
D03*
X507500D02*
D03*
X517500D02*
D03*
X527500D02*
D03*
X547500D02*
D03*
X537500D02*
D03*
D45*
Y394500D02*
D03*
X371500Y275000D02*
D03*
X557500Y378500D02*
D03*
D46*
X470500Y278000D02*
D03*
D47*
X460500D02*
D03*
D48*
X413500Y309500D02*
D03*
X499500Y308500D02*
D03*
X501047Y350000D02*
D03*
X539500Y357500D02*
D03*
X507000Y342500D02*
D03*
X543500Y357500D02*
D03*
X543374Y305626D02*
D03*
X551801Y299199D02*
D03*
X434000Y254500D02*
D03*
X571500Y316000D02*
D03*
X480500Y366500D02*
D03*
X497000Y356500D02*
D03*
X571500Y340000D02*
D03*
X529000Y267000D02*
D03*
X513000Y282000D02*
D03*
X457000Y351500D02*
D03*
X470500Y325500D02*
D03*
X457000Y365000D02*
D03*
X298000Y346500D02*
D03*
X301000Y352000D02*
D03*
X213375Y333625D02*
D03*
X205500Y393500D02*
D03*
X296500Y369500D02*
D03*
X578000Y327500D02*
D03*
X571547D02*
D03*
X549000Y282000D02*
D03*
X562000Y251000D02*
D03*
X542000D02*
D03*
X528000Y254500D02*
D03*
X465500Y352500D02*
D03*
X438000Y249500D02*
D03*
X434000Y258500D02*
D03*
X433500Y246000D02*
D03*
X490500Y287000D02*
D03*
X550849Y369475D02*
D03*
X558500Y302500D02*
D03*
D49*
X483000Y296000D02*
D03*
X444500Y304000D02*
D03*
X455500D02*
D03*
X483000Y282531D02*
D03*
X455500Y338500D02*
D03*
X483000Y275500D02*
D03*
X448000Y280500D02*
D03*
X483000Y266500D02*
D03*
X467500Y375000D02*
D03*
X465000Y304000D02*
D03*
D50*
X499000Y345000D02*
D03*
D51*
X430000Y333000D02*
D03*
D52*
X265000Y395500D02*
D03*
D53*
X292142Y265831D02*
D03*
X408284Y399689D02*
D03*
D54*
X589386Y391815D02*
D03*
M02*
