G04*
G04 #@! TF.GenerationSoftware,Altium Limited,Altium Designer,21.0.9 (235)*
G04*
G04 Layer_Color=16711935*
%FSLAX25Y25*%
%MOIN*%
G70*
G04*
G04 #@! TF.SameCoordinates,B8C923A0-899F-4986-8B49-ABE338B4BB89*
G04*
G04*
G04 #@! TF.FilePolarity,Positive*
G04*
G01*
G75*
%ADD14C,0.00787*%
%ADD15C,0.00394*%
D14*
X227256Y339394D02*
Y388606D01*
X196744D02*
X227256D01*
X196744Y339394D02*
Y388606D01*
Y339394D02*
X227256D01*
X238894Y344244D02*
Y374756D01*
X288106D01*
Y344244D02*
Y374756D01*
X238894Y344244D02*
X288106D01*
D15*
X412591Y299846D02*
Y305555D01*
X421253Y299846D02*
Y305555D01*
X412591D02*
X421253D01*
X412591Y299846D02*
X421253D01*
X504146Y328409D02*
Y337071D01*
X509854Y328409D02*
Y337071D01*
X504146Y328409D02*
X509854D01*
X504146Y337071D02*
X509854D01*
X508410Y350646D02*
Y356354D01*
X517071Y350646D02*
Y356354D01*
X508410D02*
X517071D01*
X508410Y350646D02*
X517071D01*
X468256Y332268D02*
Y340732D01*
X462744Y332268D02*
Y340732D01*
X468256D01*
X462744Y332268D02*
X468256D01*
X488224Y364244D02*
X496689D01*
X488224Y369756D02*
X496689D01*
Y364244D02*
Y369756D01*
X488224Y364244D02*
Y369756D01*
X431957Y267508D02*
X439043D01*
X431957Y280894D02*
X439043D01*
X431957Y267508D02*
Y280894D01*
X439043Y267508D02*
Y280894D01*
X416169Y267311D02*
Y293689D01*
X401602Y267311D02*
Y293689D01*
Y267311D02*
X416169D01*
X401602Y293689D02*
X416169D01*
X504169Y363646D02*
X512831D01*
X504169Y369354D02*
X512831D01*
Y363646D02*
Y369354D01*
X504169Y363646D02*
Y369354D01*
X508669Y310646D02*
Y316354D01*
X517331Y310646D02*
Y316354D01*
X508669D02*
X517331D01*
X508669Y310646D02*
X517331D01*
X508768Y301244D02*
Y306756D01*
X517232Y301244D02*
Y306756D01*
X508768D02*
X517232D01*
X508768Y301244D02*
X517232D01*
X472146Y340831D02*
X477854D01*
X472146Y332169D02*
X477854D01*
Y340831D01*
X472146Y332169D02*
Y340831D01*
X478854Y302169D02*
Y310831D01*
X473146Y302169D02*
Y310831D01*
X478854D01*
X473146Y302169D02*
X478854D01*
X520744Y262268D02*
Y270732D01*
X526256Y262268D02*
Y270732D01*
X520744Y262268D02*
X526256D01*
X520744Y270732D02*
X526256D01*
X492744Y262224D02*
Y270689D01*
X498256Y262224D02*
Y270689D01*
X492744Y262224D02*
X498256D01*
X492744Y270689D02*
X498256D01*
X501744Y262268D02*
Y270732D01*
X507256Y262268D02*
Y270732D01*
X501744Y262268D02*
X507256D01*
X501744Y270732D02*
X507256D01*
X559244Y262268D02*
Y270732D01*
X564756Y262268D02*
Y270732D01*
X559244Y262268D02*
X564756D01*
X559244Y270732D02*
X564756D01*
X549744Y262268D02*
Y270732D01*
X555256Y262268D02*
Y270732D01*
X549744Y262268D02*
X555256D01*
X549744Y270732D02*
X555256D01*
X558354Y281429D02*
Y290091D01*
X552646Y281429D02*
Y290091D01*
X558354D01*
X552646Y281429D02*
X558354D01*
X545854D02*
Y290091D01*
X540146Y281429D02*
Y290091D01*
X545854D01*
X540146Y281429D02*
X545854D01*
X522354D02*
Y290091D01*
X516646Y281429D02*
Y290091D01*
X522354D01*
X516646Y281429D02*
X522354D01*
X534854D02*
Y290091D01*
X529146Y281429D02*
Y290091D01*
X534854D01*
X529146Y281429D02*
X534854D01*
X579268Y343244D02*
X587732D01*
X579268Y348756D02*
X587732D01*
Y343244D02*
Y348756D01*
X579268Y343244D02*
Y348756D01*
X531744Y270732D02*
X537256D01*
X531744Y262268D02*
X537256D01*
Y270732D01*
X531744Y262268D02*
Y270732D01*
X540244Y270689D02*
X545756D01*
X540244Y262224D02*
X545756D01*
Y270689D01*
X540244Y262224D02*
Y270689D01*
X511744Y270732D02*
X517256D01*
X511744Y262268D02*
X517256D01*
Y270732D01*
X511744Y262268D02*
Y270732D01*
X562646Y340071D02*
X568354D01*
X562646Y331409D02*
X568354D01*
Y340071D01*
X562646Y331409D02*
Y340071D01*
Y315429D02*
X568354D01*
X562646Y324091D02*
X568354D01*
X562646Y315429D02*
Y324091D01*
X568354Y315429D02*
Y324091D01*
X540646Y370571D02*
X546354D01*
X540646Y361909D02*
X546354D01*
Y370571D01*
X540646Y361909D02*
Y370571D01*
X531244Y361811D02*
X536756D01*
X531244Y370276D02*
X536756D01*
X531244Y361811D02*
Y370276D01*
X536756Y361811D02*
Y370276D01*
M02*
