G04*
G04 #@! TF.GenerationSoftware,Altium Limited,Altium Designer,21.0.9 (235)*
G04*
G04 Layer_Color=32896*
%FSLAX25Y25*%
%MOIN*%
G70*
G04*
G04 #@! TF.SameCoordinates,B8C923A0-899F-4986-8B49-ABE338B4BB89*
G04*
G04*
G04 #@! TF.FilePolarity,Positive*
G04*
G01*
G75*
%ADD15C,0.00394*%
%ADD17C,0.00591*%
D15*
X227256Y339394D02*
Y388606D01*
X196744Y339394D02*
Y388606D01*
X238894Y374756D02*
X288106D01*
X238894Y344244D02*
X288106D01*
D17*
X289950Y384462D02*
X289426Y384986D01*
Y386036D01*
X289950Y386561D01*
X290475D01*
X291000Y386036D01*
Y384986D01*
X291525Y384462D01*
X292050D01*
X292574Y384986D01*
Y386036D01*
X292050Y386561D01*
X292574Y381313D02*
Y383412D01*
X290475Y381313D01*
X289950D01*
X289426Y381838D01*
Y382888D01*
X289950Y383412D01*
X236000Y393050D02*
X236525Y393574D01*
X237574D01*
X238099Y393050D01*
Y392525D01*
X237574Y392000D01*
X236525D01*
X236000Y391475D01*
Y390950D01*
X236525Y390426D01*
X237574D01*
X238099Y390950D01*
X234950Y390426D02*
X233901D01*
X234426D01*
Y393574D01*
X234950Y393050D01*
M02*
