G04*
G04 #@! TF.GenerationSoftware,Altium Limited,Altium Designer,21.0.9 (235)*
G04*
G04 Layer_Color=255*
%FSLAX25Y25*%
%MOIN*%
G70*
G04*
G04 #@! TF.SameCoordinates,B8C923A0-899F-4986-8B49-ABE338B4BB89*
G04*
G04*
G04 #@! TF.FilePolarity,Positive*
G04*
G01*
G75*
%ADD62C,0.03445*%
%ADD63O,0.07874X0.05906*%
%ADD64R,0.07874X0.05906*%
%ADD65C,0.07000*%
%ADD66C,0.05906*%
%ADD67R,0.05906X0.05906*%
%ADD68O,0.06693X0.07874*%
%ADD69R,0.06693X0.07874*%
%ADD77R,0.06299X0.09055*%
%ADD78R,0.09055X0.06299*%
D62*
X208063Y364000D02*
D03*
X263500Y363437D02*
D03*
D63*
X584000Y292000D02*
D03*
X594000D02*
D03*
X584000Y282000D02*
D03*
X594000D02*
D03*
X584000Y272000D02*
D03*
D64*
X594000D02*
D03*
D65*
X590000Y364500D02*
D03*
X580000D02*
D03*
D66*
X507500Y394500D02*
D03*
X517500D02*
D03*
X527500D02*
D03*
X311500Y275000D02*
D03*
X321500D02*
D03*
X331500D02*
D03*
X341500D02*
D03*
X361500D02*
D03*
X351500D02*
D03*
X497500Y378500D02*
D03*
X507500D02*
D03*
X517500D02*
D03*
X527500D02*
D03*
X547500D02*
D03*
X537500D02*
D03*
D67*
Y394500D02*
D03*
X371500Y275000D02*
D03*
X557500Y378500D02*
D03*
D68*
X470500Y278000D02*
D03*
D69*
X460500D02*
D03*
D77*
X221843Y342347D02*
D03*
X212000D02*
D03*
X202157D02*
D03*
Y385653D02*
D03*
X212000D02*
D03*
X221843D02*
D03*
D78*
X285154Y349658D02*
D03*
Y359500D02*
D03*
Y369342D02*
D03*
X241846D02*
D03*
Y359500D02*
D03*
Y349658D02*
D03*
M02*
