G04*
G04 #@! TF.GenerationSoftware,Altium Limited,Altium Designer,21.0.9 (235)*
G04*
G04 Layer_Color=8421504*
%FSLAX25Y25*%
%MOIN*%
G70*
G04*
G04 #@! TF.SameCoordinates,B8C923A0-899F-4986-8B49-ABE338B4BB89*
G04*
G04*
G04 #@! TF.FilePolarity,Positive*
G04*
G01*
G75*
%ADD18R,0.04331X0.05906*%
%ADD19R,0.05906X0.04331*%
%ADD20R,0.01575X0.09449*%
%ADD21R,0.09449X0.01575*%
%ADD22R,0.05512X0.04724*%
%ADD23R,0.04724X0.05512*%
%ADD24R,0.06693X0.04331*%
%ADD25R,0.10630X0.03937*%
%ADD26R,0.10630X0.12992*%
%ADD27R,0.07874X0.21654*%
%ADD28R,0.06299X0.04724*%
D18*
X413182Y302700D02*
D03*
X420662D02*
D03*
X509000Y353500D02*
D03*
X516480D02*
D03*
X512240Y366500D02*
D03*
X504760D02*
D03*
X509260Y313500D02*
D03*
X516740D02*
D03*
D19*
X507000Y329000D02*
D03*
Y336480D02*
D03*
X475000Y340240D02*
D03*
Y332760D02*
D03*
X476000Y310240D02*
D03*
Y302760D02*
D03*
X555500Y289500D02*
D03*
Y282020D02*
D03*
X543000Y289500D02*
D03*
Y282020D02*
D03*
X519500Y289500D02*
D03*
Y282020D02*
D03*
X532000Y289500D02*
D03*
Y282020D02*
D03*
X565500Y339480D02*
D03*
Y332000D02*
D03*
Y316020D02*
D03*
Y323500D02*
D03*
X543500Y369980D02*
D03*
Y362500D02*
D03*
D20*
X524476Y349610D02*
D03*
X527626D02*
D03*
X530776D02*
D03*
X533925D02*
D03*
X537075D02*
D03*
X540224D02*
D03*
X543374D02*
D03*
X546524D02*
D03*
X546524Y313390D02*
D03*
X543374D02*
D03*
X540224D02*
D03*
X537075D02*
D03*
X533925D02*
D03*
X530776D02*
D03*
X527626D02*
D03*
X524476D02*
D03*
D21*
X553610Y342524D02*
D03*
Y339374D02*
D03*
Y336224D02*
D03*
Y333075D02*
D03*
X553610Y329925D02*
D03*
X553610Y326776D02*
D03*
Y323626D02*
D03*
Y320476D02*
D03*
X517390Y320476D02*
D03*
Y323626D02*
D03*
Y326776D02*
D03*
Y329925D02*
D03*
Y333075D02*
D03*
Y336224D02*
D03*
Y339374D02*
D03*
Y342524D02*
D03*
D22*
X465500Y340043D02*
D03*
Y332957D02*
D03*
X523500Y262957D02*
D03*
Y270043D02*
D03*
X495500Y262913D02*
D03*
Y270000D02*
D03*
X504500Y262957D02*
D03*
Y270043D02*
D03*
X562000Y262957D02*
D03*
Y270043D02*
D03*
X552500Y262957D02*
D03*
Y270043D02*
D03*
X534500D02*
D03*
Y262957D02*
D03*
X543000Y270000D02*
D03*
Y262913D02*
D03*
X514500Y270043D02*
D03*
Y262957D02*
D03*
X534000Y362500D02*
D03*
Y369587D02*
D03*
D23*
X496000Y367000D02*
D03*
X488913D02*
D03*
X509457Y304000D02*
D03*
X516543D02*
D03*
X587043Y346000D02*
D03*
X579957D02*
D03*
D24*
X435500Y268886D02*
D03*
Y279516D02*
D03*
D25*
X420500Y271445D02*
D03*
Y280500D02*
D03*
Y289555D02*
D03*
D26*
X397272Y280500D02*
D03*
D27*
X491500Y340201D02*
D03*
Y302799D02*
D03*
D28*
X437398Y289500D02*
D03*
X449996D02*
D03*
M02*
