M48
;Layer_Color=9474304
;FILE_FORMAT=2:4
INCH,TZ
;TYPE=PLATED
T1F00S00C0.0138
T2F00S00C0.0197
T3F00S00C0.0280
T4F00S00C0.0354
T5F00S00C0.0472
T6F00S00C0.1969
T7F00S00C0.2756
T8F00S00C0.3150
T9F00S00C0.3583
;TYPE=NON_PLATED
T10F00S00C0.0689
%
T01
X49050Y28700
X51300Y28200
X52900Y26700
X52800Y25450
X54200Y25100
X56200
X54900Y28200
X55180Y29920
X55850Y30250
X54337Y30563
X49950Y30850
X41350Y30950
X43400Y25850
Y25450
X43800Y24950
X43350Y24600
X29800Y34650
X30100Y35200
X29650Y36950
X20550Y39350
X21337Y33363
X45700Y35150
X46550Y35250
X45700Y36500
X48050Y36650
X49700Y35650
X50105Y35000
X50700Y34250
X53950Y35750
X54350
X55085Y36948
X57150Y34000
X57155Y32750
X57800
X57150Y31600
X47050Y32550
T02
X49900Y34500
T03
X48300Y26650
Y27550
Y28253
Y29600
X46500Y30400
X45550
X44450
X44800Y28050
X45550Y33850
X46750Y37500
T04
X58400Y27200
Y28200
Y29200
X59400
Y28200
Y27200
X37150Y27500
X36150
X35150
X34150
X33150
X32150
X31150
X49750Y37850
X50750
X51750
X52750
X53750
X54750
X55750
X53750Y39450
X52750
X51750
X50750
X58000Y36450
X59000
T05
X47050Y27800
X46050
T06
X29214Y26583
X40828Y39969
T07
X58939Y39181
T08
X26500Y39550
T09
X43000Y33300
T10
X20806Y36400
X26350Y36344
M30
