G04*
G04 #@! TF.GenerationSoftware,Altium Limited,Altium Designer,21.0.9 (235)*
G04*
G04 Layer_Color=255*
%FSLAX25Y25*%
%MOIN*%
G70*
G04*
G04 #@! TF.SameCoordinates,CCBB63D4-E8DD-42B9-A150-1630AA2F812C*
G04*
G04*
G04 #@! TF.FilePolarity,Positive*
G04*
G01*
G75*
%ADD18R,0.05512X0.04724*%
%ADD19R,0.04000X0.10500*%
%ADD20R,0.10500X0.04000*%
%ADD21R,0.04331X0.06693*%
%ADD22R,0.04724X0.05512*%
%ADD23R,0.06693X0.04331*%
%ADD24R,0.25984X0.09055*%
%ADD25R,0.17362X0.15354*%
%ADD26R,0.06500X0.02787*%
%ADD27R,0.02394X0.06500*%
%ADD28R,0.02756X0.05709*%
%ADD29R,0.04500X0.03000*%
%ADD30R,0.08500X0.07000*%
%ADD31R,0.09000X0.03900*%
%ADD32R,0.06300X0.13780*%
%ADD33R,0.21654X0.07874*%
%ADD34R,0.05118X0.10630*%
%ADD35R,0.06500X0.02394*%
%ADD36R,0.02787X0.06500*%
%ADD37R,0.15354X0.17362*%
%ADD38R,0.01575X0.09449*%
%ADD39R,0.09449X0.01575*%
%ADD40R,0.03150X0.03150*%
%ADD41R,0.04331X0.07874*%
%ADD42R,0.10630X0.05118*%
%ADD80R,0.05906X0.07874*%
%ADD81O,0.05906X0.07874*%
%ADD82C,0.05906*%
%ADD83R,0.05906X0.05906*%
%ADD84R,0.05906X0.05906*%
%ADD85C,0.16535*%
D18*
X64300Y47257D02*
D03*
Y54343D02*
D03*
X43100Y80300D02*
D03*
Y73213D02*
D03*
X25000Y128957D02*
D03*
Y136043D02*
D03*
X115700Y193043D02*
D03*
Y185957D02*
D03*
X124000Y193043D02*
D03*
Y185957D02*
D03*
X184200Y175043D02*
D03*
Y167957D02*
D03*
X124000Y171457D02*
D03*
Y178543D02*
D03*
X115700Y178517D02*
D03*
Y171430D02*
D03*
X133500Y185957D02*
D03*
Y193043D02*
D03*
D19*
X179900Y140700D02*
D03*
X225500Y163500D02*
D03*
X154700Y140700D02*
D03*
D20*
X110200Y19600D02*
D03*
X204500Y115500D02*
D03*
X125300Y249400D02*
D03*
X36300Y256500D02*
D03*
D21*
X104115Y74500D02*
D03*
X93485D02*
D03*
X137815Y82800D02*
D03*
X127185D02*
D03*
X137715Y74700D02*
D03*
X127085D02*
D03*
X99515Y135300D02*
D03*
X88885D02*
D03*
X97685Y85500D02*
D03*
X108315D02*
D03*
X97285Y28974D02*
D03*
X107915D02*
D03*
X71385Y197800D02*
D03*
X82015D02*
D03*
X33185Y196000D02*
D03*
X43815D02*
D03*
X41285Y53300D02*
D03*
X51915D02*
D03*
X101700Y163474D02*
D03*
X91070D02*
D03*
X163185Y175300D02*
D03*
X173815D02*
D03*
Y183800D02*
D03*
X163185D02*
D03*
X184185Y183000D02*
D03*
X194815D02*
D03*
X33185Y204500D02*
D03*
X43815D02*
D03*
D22*
X149543Y66700D02*
D03*
X142457D02*
D03*
X149443Y57774D02*
D03*
X142357D02*
D03*
X43057Y63300D02*
D03*
X50143D02*
D03*
X109113Y163474D02*
D03*
X116200D02*
D03*
X93157Y144300D02*
D03*
X100243D02*
D03*
X142657Y100474D02*
D03*
X149743D02*
D03*
X142657Y90974D02*
D03*
X149743D02*
D03*
D23*
X189700Y87685D02*
D03*
Y98315D02*
D03*
X198000Y81385D02*
D03*
Y92015D02*
D03*
X197900Y75115D02*
D03*
Y64485D02*
D03*
X189600Y69715D02*
D03*
Y59085D02*
D03*
X66000Y90915D02*
D03*
Y80285D02*
D03*
X145900Y260195D02*
D03*
Y249565D02*
D03*
X137100Y260195D02*
D03*
Y249565D02*
D03*
X51100Y70170D02*
D03*
Y80800D02*
D03*
X17000Y136815D02*
D03*
Y126185D02*
D03*
X133300Y179315D02*
D03*
Y168685D02*
D03*
X196000Y202315D02*
D03*
Y191685D02*
D03*
D24*
X26500Y218039D02*
D03*
Y247961D02*
D03*
X215500Y179000D02*
D03*
Y208921D02*
D03*
X110000Y235461D02*
D03*
Y205539D02*
D03*
X139000D02*
D03*
Y235461D02*
D03*
D25*
X171500Y107000D02*
D03*
X170900Y51147D02*
D03*
D26*
X162700Y102474D02*
D03*
X180300D02*
D03*
X179700Y55674D02*
D03*
X162100D02*
D03*
D27*
X164100Y116274D02*
D03*
X169000D02*
D03*
X174000D02*
D03*
X178900D02*
D03*
X164100Y91674D02*
D03*
X169000D02*
D03*
X173900D02*
D03*
X179000D02*
D03*
X178300Y41874D02*
D03*
X173400D02*
D03*
X168400D02*
D03*
X163500D02*
D03*
X178300Y66474D02*
D03*
X173400D02*
D03*
X168500D02*
D03*
X163400D02*
D03*
D28*
X112600Y64930D02*
D03*
X107600D02*
D03*
X102600D02*
D03*
X97600D02*
D03*
X92600D02*
D03*
X87600D02*
D03*
X82600D02*
D03*
X112600Y43474D02*
D03*
X107600D02*
D03*
X102600D02*
D03*
X97600D02*
D03*
X92600D02*
D03*
X87600D02*
D03*
X82600D02*
D03*
X82700Y100974D02*
D03*
X87700D02*
D03*
X92700D02*
D03*
X97700D02*
D03*
X102700D02*
D03*
X107700D02*
D03*
X112700D02*
D03*
X82700Y122430D02*
D03*
X87700D02*
D03*
X92700D02*
D03*
X97700D02*
D03*
X102700D02*
D03*
X107700D02*
D03*
X112700D02*
D03*
D29*
X107700Y174474D02*
D03*
X86700Y189474D02*
D03*
Y184474D02*
D03*
Y179474D02*
D03*
Y174474D02*
D03*
X107700Y189474D02*
D03*
Y184474D02*
D03*
Y179474D02*
D03*
D30*
X196100Y155200D02*
D03*
Y139200D02*
D03*
D31*
X49500Y243000D02*
D03*
Y213000D02*
D03*
X89500Y243000D02*
D03*
Y223000D02*
D03*
Y213000D02*
D03*
D32*
X163500Y198500D02*
D03*
X183500D02*
D03*
X173500D02*
D03*
D33*
X31299Y166500D02*
D03*
X68701D02*
D03*
D34*
X34799Y183500D02*
D03*
X22201D02*
D03*
X64701D02*
D03*
X77299D02*
D03*
D35*
X149200Y46174D02*
D03*
Y41074D02*
D03*
Y36174D02*
D03*
Y31274D02*
D03*
X124600Y46074D02*
D03*
Y41174D02*
D03*
Y36174D02*
D03*
Y31274D02*
D03*
X151000Y127474D02*
D03*
Y122374D02*
D03*
Y117474D02*
D03*
Y112574D02*
D03*
X126400Y127374D02*
D03*
Y122474D02*
D03*
Y117474D02*
D03*
Y112574D02*
D03*
D36*
X138400Y47474D02*
D03*
Y29874D02*
D03*
X140200Y128774D02*
D03*
Y111174D02*
D03*
D37*
X133874Y38674D02*
D03*
X135674Y119974D02*
D03*
D38*
X63634Y109866D02*
D03*
X60484D02*
D03*
X57335D02*
D03*
X54185D02*
D03*
X51035D02*
D03*
X47886D02*
D03*
X44736D02*
D03*
X41587D02*
D03*
X41587Y146087D02*
D03*
X44736D02*
D03*
X47886D02*
D03*
X51035D02*
D03*
X54185D02*
D03*
X57335D02*
D03*
X60484D02*
D03*
X63634D02*
D03*
D39*
X34500Y116953D02*
D03*
Y120102D02*
D03*
Y123252D02*
D03*
Y126401D02*
D03*
X34500Y129551D02*
D03*
X34500Y132701D02*
D03*
Y135850D02*
D03*
Y139000D02*
D03*
X70720Y139000D02*
D03*
Y135850D02*
D03*
Y132701D02*
D03*
Y129551D02*
D03*
Y126401D02*
D03*
Y123252D02*
D03*
Y120102D02*
D03*
Y116953D02*
D03*
D40*
X89600Y34954D02*
D03*
X89700Y92954D02*
D03*
D41*
X89600Y27474D02*
D03*
X89700Y85474D02*
D03*
D42*
X62400Y61401D02*
D03*
Y73999D02*
D03*
X110500Y133001D02*
D03*
Y145599D02*
D03*
D80*
X32000Y18500D02*
D03*
D81*
Y28500D02*
D03*
X42000Y18500D02*
D03*
Y28500D02*
D03*
X52000Y18500D02*
D03*
Y28500D02*
D03*
D82*
X17500Y112000D02*
D03*
Y102000D02*
D03*
Y92000D02*
D03*
Y82000D02*
D03*
Y62000D02*
D03*
Y72000D02*
D03*
X84500Y267500D02*
D03*
X74500D02*
D03*
X64500D02*
D03*
X54500D02*
D03*
X44500D02*
D03*
D83*
X17500Y52000D02*
D03*
D84*
X34500Y267500D02*
D03*
D85*
X213200Y73974D02*
D03*
Y93974D02*
D03*
Y138500D02*
D03*
Y158500D02*
D03*
M02*
