M48
;Layer_Color=9474304
;FILE_FORMAT=2:4
INCH,TZ
;TYPE=PLATED
T1F00S00C0.0200
T2F00S00C0.0280
T3F00S00C0.0354
T4F00S00C0.0984
T5F00S00C0.1260
%
T01
X5740Y5100
X5830Y7980
Y8440
X6020Y9560
X5850Y10200
X6350Y10150
X6750Y10890
X6250Y13050
X5850Y13300
X5673Y13773
X7406Y14570
X8610Y15490
X10480Y15280
X11090
X13430Y15100
Y14480
X14110
Y15100
Y15720
X13430
X14790
Y15100
Y14480
X14520Y13210
X14590Y10910
X13670Y10041
Y9134
X15600Y9050
X15920Y9480
X15630Y9930
X16185Y8358
X16851
X17518
X18185
Y7507
X17518
X16851
X16185
X15490Y7920
X14630
X13640Y6727
X13592Y5724
X13382Y5104
X15570Y6220
X18930Y5290
X19010Y7890
X18990Y10410
X18267Y9740
X17842Y15150
X17311
X16781
X16250
Y15700
X16781
X17311
X17842
X8890Y12870
X8240Y12750
X9270Y11497
X9750Y9450
X10300Y9500
X11600Y8272
X10690Y5723
X9250Y5900
X8775Y7090
X9760Y3750
X10280Y3640
X9720Y1970
X4200Y3400
X3800Y4150
X4126Y4645
X3275Y5225
X2750Y6200
X2350Y6700
Y2850
Y2100
X2540Y11460
X2500Y12250
X1720Y12180
X4250Y12000
X4230Y12470
X5205Y13645
X5300Y9650
X3477Y10873
X1350Y14997
X1252Y19898
X8640Y16930
X12400Y16400
X15324Y17418
X16550Y16810
X17420Y16860
X17370Y20970
T02
X4450Y18350
X5498Y18348
X2610Y20430
Y22740
X7520Y23320
Y24340
X10400Y22400
X11000Y21430
X13900Y21450
X16250Y21448
X15590Y19310
X14590
Y18010
X15590
X20670Y18880
X9720Y17130
X14140Y26810
X21575Y18880
X22480
T03
X3200Y1850
Y2850
X4200
Y1850
X5200
Y2850
X1750Y5200
Y6200
Y7200
Y8200
Y9200
Y10200
Y11200
X3450Y26750
X4450
X5450
X6450
X7450
X8450
T04
X21320Y7397
Y9397
Y13850
Y15850
T05
X20720Y3670
Y24760
M30
