G04*
G04 #@! TF.GenerationSoftware,Altium Limited,Altium Designer,21.0.9 (235)*
G04*
G04 Layer_Color=65535*
%FSLAX25Y25*%
%MOIN*%
G70*
G04*
G04 #@! TF.SameCoordinates,CCBB63D4-E8DD-42B9-A150-1630AA2F812C*
G04*
G04*
G04 #@! TF.FilePolarity,Positive*
G04*
G01*
G75*
%ADD10C,0.00984*%
%ADD11C,0.02362*%
%ADD12C,0.01181*%
%ADD13C,0.01000*%
%ADD14C,0.00787*%
%ADD15C,0.00500*%
%ADD16C,0.00800*%
%ADD17C,0.00700*%
D10*
X117165Y64920D02*
X116427Y65346D01*
Y64494D01*
X117165Y64920D01*
X117265Y122420D02*
X116527Y122846D01*
Y121994D01*
X117265Y122420D01*
D11*
X112500Y56554D02*
X112055Y57478D01*
X111056Y57706D01*
X110255Y57067D01*
Y56042D01*
X111056Y55403D01*
X112055Y55631D01*
X112500Y56554D01*
X112600Y114054D02*
X112155Y114978D01*
X111156Y115206D01*
X110355Y114567D01*
Y113542D01*
X111156Y112903D01*
X112155Y113131D01*
X112600Y114054D01*
D12*
X69309Y111835D02*
X68474Y112317D01*
Y111352D01*
X69309Y111835D01*
D13*
X102200Y174474D02*
X101450Y174907D01*
Y174041D01*
X102200Y174474D01*
X158000Y117748D02*
X161500D01*
X158000Y89402D02*
Y117748D01*
Y89402D02*
X161500D01*
X181500D02*
X183705D01*
X184886D01*
Y117748D01*
X181500D02*
X184886D01*
X180900Y40399D02*
X184400D01*
Y68746D01*
X180900D02*
X184400D01*
X158695D02*
X160900D01*
X157514D02*
X158695D01*
X157514Y40399D02*
Y68746D01*
Y40399D02*
X160900D01*
X202100Y139200D02*
X203100D01*
Y155200D01*
X202100D02*
X203100D01*
X189100D02*
X190100D01*
X189100Y139200D02*
Y155200D01*
Y139200D02*
X190100D01*
X202100Y157200D02*
X203100D01*
X189100D02*
X190100D01*
X53500Y246500D02*
Y252500D01*
X85000D01*
Y246500D02*
Y252500D01*
Y226500D02*
Y239500D01*
Y216500D02*
Y219500D01*
Y203500D02*
Y209500D01*
X53500Y203500D02*
X85000D01*
X53500D02*
Y209500D01*
Y216500D02*
Y239500D01*
X190000Y263000D02*
X194000Y259000D01*
Y217000D02*
Y259000D01*
X156500Y263000D02*
X190000D01*
X153000Y259500D02*
X156500Y263000D01*
X153000Y217000D02*
X194000D01*
X153000D02*
Y259500D01*
X26531Y177201D02*
X30468D01*
X26531Y189799D02*
X30468D01*
X123126Y48674D02*
Y52060D01*
X151472D01*
Y50878D02*
Y52060D01*
Y48674D02*
Y50878D01*
Y25174D02*
Y28674D01*
X123126Y25174D02*
X151472D01*
X123126D02*
Y28674D01*
X38043Y141362D02*
Y142543D01*
X39224D01*
X65996Y142543D02*
X67177D01*
Y141362D02*
Y142543D01*
X38043Y113409D02*
Y114591D01*
Y113409D02*
X39224D01*
X65996D02*
X67177D01*
Y114591D01*
X87238Y22355D02*
X91962D01*
X56101Y65732D02*
Y69669D01*
X68699Y65732D02*
Y69669D01*
X104201Y137331D02*
Y141269D01*
X116799Y137331D02*
Y141269D01*
X124926Y129974D02*
Y133359D01*
X153272D01*
Y132178D02*
Y133359D01*
Y129974D02*
Y132178D01*
Y106474D02*
Y109974D01*
X124926Y106474D02*
X153272D01*
X124926D02*
Y109974D01*
X90200Y171974D02*
X104200D01*
X90200Y191974D02*
X104200D01*
Y171974D02*
Y191974D01*
X90200Y171974D02*
Y191974D01*
X87338Y80356D02*
X92062D01*
X69032Y189799D02*
X72969D01*
X69032Y177201D02*
X72969D01*
X24417Y47750D02*
Y50250D01*
X25667D01*
X26083Y49833D01*
Y49000D01*
X25667Y48583D01*
X24417D01*
X26917Y49833D02*
X27333Y50250D01*
X28166D01*
X28583Y49833D01*
Y49417D01*
X28166Y49000D01*
X27750D01*
X28166D01*
X28583Y48583D01*
Y48167D01*
X28166Y47750D01*
X27333D01*
X26917Y48167D01*
D14*
X61938Y50800D02*
X66662D01*
X97225Y71547D02*
X100375D01*
X97225Y77453D02*
X100375D01*
X146000Y64338D02*
Y69062D01*
X145900Y55411D02*
Y60136D01*
X130925Y79847D02*
X134075D01*
X130925Y85753D02*
X134075D01*
X130825Y71747D02*
X133975D01*
X130825Y77653D02*
X133975D01*
X186747Y91425D02*
Y94575D01*
X192653Y91425D02*
Y94575D01*
X195047Y85125D02*
Y88275D01*
X200953Y85125D02*
Y88275D01*
X37524Y229457D02*
Y236543D01*
X15476Y229457D02*
Y236543D01*
X200853Y68225D02*
Y71375D01*
X194947Y68225D02*
Y71375D01*
X192553Y62825D02*
Y65975D01*
X186647Y62825D02*
Y65975D01*
X92625Y132347D02*
X95775D01*
X92625Y138253D02*
X95775D01*
X81004Y60491D02*
X115256D01*
X81004Y47893D02*
X115256D01*
Y60491D01*
X81004Y47893D02*
Y60491D01*
X101425Y88453D02*
X104575D01*
X101425Y82547D02*
X104575D01*
X101025Y31926D02*
X104175D01*
X101025Y26021D02*
X104175D01*
X32000Y12398D02*
X36961Y7437D01*
X27039D02*
X32000Y12398D01*
X11921Y7398D02*
Y39957D01*
X71764Y7673D02*
Y39957D01*
X52079Y7476D02*
X71764D01*
X14421Y9681D02*
Y37752D01*
Y9681D02*
X29283D01*
X11921Y7476D02*
Y39957D01*
X71764Y7476D02*
Y39957D01*
X69264Y9839D02*
Y37752D01*
X71764Y7476D02*
Y39957D01*
X11921D02*
X71764D01*
X14461Y37752D02*
X69264D01*
X52079Y9839D02*
X69067D01*
X52079Y7476D02*
Y9445D01*
X34500Y9898D02*
X38693D01*
X11921Y7398D02*
X38772D01*
X38693Y7476D02*
Y9898D01*
X12500Y47000D02*
Y117000D01*
Y47000D02*
X22500D01*
Y117000D01*
X12500D02*
X22500D01*
X29500Y262500D02*
X89500D01*
X29500Y272500D02*
X89500D01*
X29500Y262500D02*
Y272500D01*
X89500Y262500D02*
Y272500D01*
X226524Y190417D02*
Y197504D01*
X204476Y190417D02*
Y197504D01*
X98976Y216957D02*
Y224043D01*
X121024Y216957D02*
Y224043D01*
X75125Y200753D02*
X78275D01*
X75125Y194847D02*
X78275D01*
X36925Y198953D02*
X40075D01*
X36925Y193047D02*
X40075D01*
X68953Y84025D02*
Y87175D01*
X63047Y84025D02*
Y87175D01*
X148853Y253306D02*
Y256455D01*
X142947Y253306D02*
Y256455D01*
X140053Y253306D02*
Y256455D01*
X134147Y253306D02*
Y256455D01*
X48147Y73910D02*
Y77060D01*
X54053Y73910D02*
Y77060D01*
X19953Y129925D02*
Y133075D01*
X14047Y129925D02*
Y133075D01*
X40738Y76757D02*
X45462D01*
X22638Y132500D02*
X27362D01*
X46600Y60938D02*
Y65662D01*
X45025Y56253D02*
X48175D01*
X45025Y50347D02*
X48175D01*
X112657Y161111D02*
Y165836D01*
X136253Y172425D02*
Y175575D01*
X130347Y172425D02*
Y175575D01*
X113338Y189500D02*
X118062D01*
X121638D02*
X126362D01*
X94810Y160521D02*
X97960D01*
X94810Y166426D02*
X97960D01*
X96700Y141938D02*
Y146662D01*
X81104Y105393D02*
Y117991D01*
X115356Y105393D02*
Y117991D01*
X81104Y105393D02*
X115356D01*
X81104Y117991D02*
X115356D01*
X150024Y216957D02*
Y224043D01*
X127976Y216957D02*
Y224043D01*
X181838Y171500D02*
X186562D01*
X166925Y178253D02*
X170075D01*
X166925Y172347D02*
X170075D01*
X166925Y180847D02*
X170075D01*
X166925Y186753D02*
X170075D01*
X187925Y185953D02*
X191075D01*
X187925Y180047D02*
X191075D01*
X121638Y175000D02*
X126362D01*
X113338Y174974D02*
X118062D01*
X131138Y189500D02*
X135862D01*
X198953Y195425D02*
Y198575D01*
X193047Y195425D02*
Y198575D01*
X146200Y98111D02*
Y102836D01*
Y88611D02*
Y93336D01*
X36925Y207453D02*
X40075D01*
X36925Y201547D02*
X40075D01*
X160387Y25560D02*
Y22280D01*
X161043Y21625D01*
X162355D01*
X163011Y22280D01*
Y25560D01*
X164979Y21625D02*
X166291D01*
X166947Y22280D01*
Y23592D01*
X166291Y24248D01*
X164979D01*
X164323Y23592D01*
Y22280D01*
X164979Y21625D01*
X168259D02*
Y24248D01*
X169571Y25560D01*
X170883Y24248D01*
Y21625D01*
Y23592D01*
X168259D01*
X178754Y25560D02*
X176130D01*
Y21625D01*
X178754D01*
X176130Y23592D02*
X177442D01*
X182690Y24904D02*
X182034Y25560D01*
X180722D01*
X180066Y24904D01*
Y22280D01*
X180722Y21625D01*
X182034D01*
X182690Y22280D01*
X186626Y24904D02*
X185970Y25560D01*
X184658D01*
X184002Y24904D01*
Y24248D01*
X184658Y23592D01*
X185970D01*
X186626Y22937D01*
Y22280D01*
X185970Y21625D01*
X184658D01*
X184002Y22280D01*
X190561Y25560D02*
X187937D01*
Y21625D01*
X190561D01*
X187937Y23592D02*
X189249D01*
X198433Y21625D02*
X195809D01*
X198433Y24248D01*
Y24904D01*
X197777Y25560D01*
X196465D01*
X195809Y24904D01*
X199745D02*
X200401Y25560D01*
X201713D01*
X202368Y24904D01*
Y22280D01*
X201713Y21625D01*
X200401D01*
X199745Y22280D01*
Y24904D01*
X206304Y21625D02*
X203680D01*
X206304Y24248D01*
Y24904D01*
X205648Y25560D01*
X204336D01*
X203680Y24904D01*
X207616D02*
X208272Y25560D01*
X209584D01*
X210240Y24904D01*
Y22280D01*
X209584Y21625D01*
X208272D01*
X207616Y22280D01*
Y24904D01*
X163011Y18292D02*
X162355Y18948D01*
X161043D01*
X160387Y18292D01*
Y17636D01*
X161043Y16980D01*
X162355D01*
X163011Y16324D01*
Y15668D01*
X162355Y15012D01*
X161043D01*
X160387Y15668D01*
X164323Y17636D02*
Y15668D01*
X164979Y15012D01*
X166947D01*
Y17636D01*
X168259Y15012D02*
Y17636D01*
X168915D01*
X169571Y16980D01*
Y15012D01*
Y16980D01*
X170227Y17636D01*
X170883Y16980D01*
Y15012D01*
X172195D02*
Y17636D01*
X172851D01*
X173506Y16980D01*
Y15012D01*
Y16980D01*
X174162Y17636D01*
X174818Y16980D01*
Y15012D01*
X178098D02*
X176786D01*
X176130Y15668D01*
Y16980D01*
X176786Y17636D01*
X178098D01*
X178754Y16980D01*
Y16324D01*
X176130D01*
X180066Y17636D02*
Y15012D01*
Y16324D01*
X180722Y16980D01*
X181378Y17636D01*
X182034D01*
X187937Y18948D02*
Y15012D01*
X189249Y16324D01*
X190561Y15012D01*
Y18948D01*
X192529Y15012D02*
X193841D01*
X194497Y15668D01*
Y16980D01*
X193841Y17636D01*
X192529D01*
X191873Y16980D01*
Y15668D01*
X192529Y15012D01*
X195809Y17636D02*
Y15012D01*
Y16324D01*
X196465Y16980D01*
X197121Y17636D01*
X197777D01*
X199745Y15012D02*
Y18948D01*
Y16324D02*
X201713Y17636D01*
X199745Y16324D02*
X201713Y15012D01*
X203680D02*
X205648D01*
X206304Y15668D01*
X205648Y16324D01*
X204336D01*
X203680Y16980D01*
X204336Y17636D01*
X206304D01*
X207616Y18948D02*
Y15012D01*
Y16980D01*
X208272Y17636D01*
X209584D01*
X210240Y16980D01*
Y15012D01*
X212208D02*
X213520D01*
X214176Y15668D01*
Y16980D01*
X213520Y17636D01*
X212208D01*
X211552Y16980D01*
Y15668D01*
X212208Y15012D01*
X215488Y13700D02*
Y17636D01*
X217456D01*
X218111Y16980D01*
Y15668D01*
X217456Y15012D01*
X215488D01*
X160387Y7087D02*
Y11023D01*
X161699Y9711D01*
X163011Y11023D01*
Y7087D01*
X164979D02*
X166291D01*
X166947Y7743D01*
Y9055D01*
X166291Y9711D01*
X164979D01*
X164323Y9055D01*
Y7743D01*
X164979Y7087D01*
X168915Y10367D02*
Y9711D01*
X168259D01*
X169571D01*
X168915D01*
Y7743D01*
X169571Y7087D01*
X172195D02*
X173506D01*
X174162Y7743D01*
Y9055D01*
X173506Y9711D01*
X172195D01*
X171539Y9055D01*
Y7743D01*
X172195Y7087D01*
X175474Y9711D02*
Y7087D01*
Y8399D01*
X176130Y9055D01*
X176786Y9711D01*
X177442D01*
X179410Y11023D02*
Y7087D01*
X181378D01*
X182034Y7743D01*
Y10367D01*
X181378Y11023D01*
X179410D01*
X183346Y9711D02*
Y7087D01*
Y8399D01*
X184002Y9055D01*
X184658Y9711D01*
X185314D01*
X187282Y7087D02*
X188593D01*
X187937D01*
Y9711D01*
X187282D01*
X190561D02*
X191873Y7087D01*
X193185Y9711D01*
X196465Y7087D02*
X195153D01*
X194497Y7743D01*
Y9055D01*
X195153Y9711D01*
X196465D01*
X197121Y9055D01*
Y8399D01*
X194497D01*
X198433Y9711D02*
Y7087D01*
Y8399D01*
X199089Y9055D01*
X199745Y9711D01*
X200401D01*
X206304Y11023D02*
Y8399D01*
X207616Y7087D01*
X208928Y8399D01*
Y11023D01*
X210240Y7087D02*
X211552D01*
X210896D01*
Y11023D01*
X210240Y10367D01*
X213520Y7087D02*
Y7743D01*
X214176D01*
Y7087D01*
X213520D01*
X216799Y10367D02*
X217456Y11023D01*
X218767D01*
X219423Y10367D01*
Y7743D01*
X218767Y7087D01*
X217456D01*
X216799Y7743D01*
Y10367D01*
D15*
X72441Y171437D02*
Y175949D01*
X27559D02*
X72441D01*
X27559Y171437D02*
Y175949D01*
Y157051D02*
Y161563D01*
Y157051D02*
X72441D01*
Y161563D01*
D16*
X61332Y31498D02*
X59666Y30665D01*
X58000Y28999D01*
Y27333D01*
X58833Y26500D01*
X60499D01*
X61332Y27333D01*
Y28166D01*
X60499Y28999D01*
X58000D01*
X61332Y21498D02*
X58000D01*
Y18999D01*
X59666Y19832D01*
X60499D01*
X61332Y18999D01*
Y17333D01*
X60499Y16500D01*
X58833D01*
X58000Y17333D01*
X24000Y16500D02*
X25666D01*
X24833D01*
Y21498D01*
X24000Y20665D01*
D17*
X73801Y7599D02*
X73301Y7100D01*
Y6100D01*
X73801Y5600D01*
X75800D01*
X76300Y6100D01*
Y7100D01*
X75800Y7599D01*
X74800D01*
Y6600D01*
X76300Y8599D02*
X73301D01*
X76300Y10598D01*
X73301D01*
Y11598D02*
X76300D01*
Y13098D01*
X75800Y13597D01*
X73801D01*
X73301Y13098D01*
Y11598D01*
X76300Y17596D02*
X73301D01*
Y19096D01*
X73801Y19595D01*
X74800D01*
X75300Y19096D01*
Y17596D01*
Y18596D02*
X76300Y19595D01*
X73801Y22594D02*
X73301Y22095D01*
Y21095D01*
X73801Y20595D01*
X74301D01*
X74800Y21095D01*
Y22095D01*
X75300Y22594D01*
X75800D01*
X76300Y22095D01*
Y21095D01*
X75800Y20595D01*
X73301Y23594D02*
Y25594D01*
Y24594D01*
X76300D01*
X82801Y5600D02*
X82301Y6100D01*
Y7100D01*
X82801Y7599D01*
X83301D01*
X83801Y7100D01*
Y6600D01*
Y7100D01*
X84300Y7599D01*
X84800D01*
X85300Y7100D01*
Y6100D01*
X84800Y5600D01*
X82301Y8599D02*
X84300D01*
X85300Y9599D01*
X84300Y10598D01*
X82301D01*
X82801Y11598D02*
X82301Y12098D01*
Y13098D01*
X82801Y13597D01*
X83301D01*
X83801Y13098D01*
Y12598D01*
Y13098D01*
X84300Y13597D01*
X84800D01*
X85300Y13098D01*
Y12098D01*
X84800Y11598D01*
X85300Y17596D02*
X82301D01*
X83301Y18596D01*
X82301Y19595D01*
X85300D01*
X82301Y20595D02*
Y21595D01*
Y21095D01*
X85300D01*
Y20595D01*
Y21595D01*
X82801Y25094D02*
X82301Y24594D01*
Y23594D01*
X82801Y23094D01*
X83301D01*
X83801Y23594D01*
Y24594D01*
X84300Y25094D01*
X84800D01*
X85300Y24594D01*
Y23594D01*
X84800Y23094D01*
X82301Y27593D02*
Y26593D01*
X82801Y26093D01*
X84800D01*
X85300Y26593D01*
Y27593D01*
X84800Y28093D01*
X82801D01*
X82301Y27593D01*
X80800Y5600D02*
X77801D01*
X78801Y6600D01*
X77801Y7599D01*
X80800D01*
X77801Y10099D02*
Y9099D01*
X78301Y8599D01*
X80300D01*
X80800Y9099D01*
Y10099D01*
X80300Y10598D01*
X78301D01*
X77801Y10099D01*
X78301Y13597D02*
X77801Y13098D01*
Y12098D01*
X78301Y11598D01*
X78801D01*
X79300Y12098D01*
Y13098D01*
X79800Y13597D01*
X80300D01*
X80800Y13098D01*
Y12098D01*
X80300Y11598D01*
X77801Y14597D02*
Y15597D01*
Y15097D01*
X80800D01*
Y14597D01*
Y15597D01*
X78301Y22095D02*
X77801Y21595D01*
Y20595D01*
X78301Y20095D01*
X78801D01*
X79300Y20595D01*
Y21595D01*
X79800Y22095D01*
X80300D01*
X80800Y21595D01*
Y20595D01*
X80300Y20095D01*
X78301Y25094D02*
X77801Y24594D01*
Y23594D01*
X78301Y23094D01*
X80300D01*
X80800Y23594D01*
Y24594D01*
X80300Y25094D01*
X77801Y26093D02*
X80800D01*
X79800D01*
X77801Y28093D01*
X79300Y26593D01*
X80800Y28093D01*
X158803Y145249D02*
X160802D01*
X159802D01*
Y142250D01*
X161802D02*
Y145249D01*
X163301D01*
X163801Y144750D01*
Y143750D01*
X163301Y143250D01*
X161802D01*
X164801Y141751D02*
X166800D01*
X169799Y144750D02*
X169299Y145249D01*
X168300D01*
X167800Y144750D01*
Y142750D01*
X168300Y142250D01*
X169299D01*
X169799Y142750D01*
Y143750D01*
X168799D01*
X170799Y142250D02*
Y145249D01*
X172798Y142250D01*
Y145249D01*
X173798D02*
Y142250D01*
X175297D01*
X175797Y142750D01*
Y144750D01*
X175297Y145249D01*
X173798D01*
X95704Y16599D02*
X97703D01*
X96703D01*
Y13600D01*
X98703D02*
Y16599D01*
X100202D01*
X100702Y16100D01*
Y15100D01*
X100202Y14600D01*
X98703D01*
X101702Y13101D02*
X103701D01*
X104701Y16599D02*
Y14600D01*
X105701Y13600D01*
X106700Y14600D01*
Y16599D01*
X107700Y12601D02*
Y15600D01*
X109199D01*
X109699Y15100D01*
Y14100D01*
X109199Y13600D01*
X107700D01*
X110699Y15600D02*
Y14100D01*
X111199Y13600D01*
X111699Y14100D01*
X112198Y13600D01*
X112698Y14100D01*
Y15600D01*
X113698Y13600D02*
Y15600D01*
X114198D01*
X114698Y15100D01*
Y13600D01*
Y15100D01*
X115197Y15600D01*
X115697Y15100D01*
Y13600D01*
X116697D02*
Y15600D01*
X118196D01*
X118696Y15100D01*
Y13600D01*
X82900Y72501D02*
X82401Y72001D01*
Y71001D01*
X82900Y70501D01*
X84900D01*
X85400Y71001D01*
Y72001D01*
X84900Y72501D01*
X82900Y73500D02*
X82401Y74000D01*
Y75000D01*
X82900Y75500D01*
X83400D01*
X83900Y75000D01*
Y74500D01*
Y75000D01*
X84400Y75500D01*
X84900D01*
X85400Y75000D01*
Y74000D01*
X84900Y73500D01*
X82401Y78499D02*
X82900Y77499D01*
X83900Y76499D01*
X84900D01*
X85400Y76999D01*
Y77999D01*
X84900Y78499D01*
X84400D01*
X83900Y77999D01*
Y76499D01*
X82700Y133701D02*
X82200Y133201D01*
Y132201D01*
X82700Y131701D01*
X84700D01*
X85199Y132201D01*
Y133201D01*
X84700Y133701D01*
X82700Y134700D02*
X82200Y135200D01*
Y136200D01*
X82700Y136700D01*
X83200D01*
X83700Y136200D01*
Y135700D01*
Y136200D01*
X84200Y136700D01*
X84700D01*
X85199Y136200D01*
Y135200D01*
X84700Y134700D01*
X82200Y137699D02*
Y139699D01*
X82700D01*
X84700Y137699D01*
X85199D01*
X148001Y266280D02*
X147501Y266780D01*
X146501D01*
X146001Y266280D01*
Y264281D01*
X146501Y263781D01*
X147501D01*
X148001Y264281D01*
X149000Y266280D02*
X149500Y266780D01*
X150500D01*
X151000Y266280D01*
Y265780D01*
X150500Y265280D01*
X150000D01*
X150500D01*
X151000Y264780D01*
Y264281D01*
X150500Y263781D01*
X149500D01*
X149000Y264281D01*
X153999Y266780D02*
X151999D01*
Y265280D01*
X152999Y265780D01*
X153499D01*
X153999Y265280D01*
Y264281D01*
X153499Y263781D01*
X152499D01*
X151999Y264281D01*
X6001Y36500D02*
Y39500D01*
X7500D01*
X8000Y39000D01*
Y38000D01*
X7500Y37500D01*
X6001D01*
X9000Y36500D02*
X9999D01*
X9499D01*
Y39500D01*
X9000Y39000D01*
X21251Y140000D02*
Y142999D01*
X22751D01*
X23251Y142500D01*
Y141500D01*
X22751Y141000D01*
X21251D01*
X22251D02*
X23251Y140000D01*
X24250D02*
X25250D01*
X24750D01*
Y142999D01*
X24250Y142500D01*
X28749Y142999D02*
X27749Y142500D01*
X26749Y141500D01*
Y140500D01*
X27249Y140000D01*
X28249D01*
X28749Y140500D01*
Y141000D01*
X28249Y141500D01*
X26749D01*
X130751Y197001D02*
Y199999D01*
X132251D01*
X132751Y199500D01*
Y198500D01*
X132251Y198000D01*
X130751D01*
X131751D02*
X132751Y197001D01*
X133750D02*
X134750D01*
X134250D01*
Y199999D01*
X133750Y199500D01*
X138249Y199999D02*
X136249D01*
Y198500D01*
X137249Y199000D01*
X137749D01*
X138249Y198500D01*
Y197500D01*
X137749Y197001D01*
X136749D01*
X136249Y197500D01*
X110751Y197001D02*
Y199999D01*
X112251D01*
X112751Y199500D01*
Y198500D01*
X112251Y198000D01*
X110751D01*
X111751D02*
X112751Y197001D01*
X113750D02*
X114750D01*
X114250D01*
Y199999D01*
X113750Y199500D01*
X117749Y197001D02*
Y199999D01*
X116249Y198500D01*
X118249D01*
X191700Y165488D02*
X188700D01*
Y166987D01*
X189200Y167487D01*
X190200D01*
X190700Y166987D01*
Y165488D01*
Y166488D02*
X191700Y167487D01*
Y168487D02*
Y169487D01*
Y168987D01*
X188700D01*
X189200Y168487D01*
Y170986D02*
X188700Y171486D01*
Y172486D01*
X189200Y172985D01*
X189700D01*
X190200Y172486D01*
Y171986D01*
Y172486D01*
X190700Y172985D01*
X191200D01*
X191700Y172486D01*
Y171486D01*
X191200Y170986D01*
X120251Y197001D02*
Y199999D01*
X121751D01*
X122251Y199500D01*
Y198500D01*
X121751Y198000D01*
X120251D01*
X121251D02*
X122251Y197001D01*
X123250D02*
X124250D01*
X123750D01*
Y199999D01*
X123250Y199500D01*
X127749Y197001D02*
X125749D01*
X127749Y199000D01*
Y199500D01*
X127249Y199999D01*
X126249D01*
X125749Y199500D01*
X106251Y156000D02*
Y159000D01*
X107751D01*
X108250Y158500D01*
Y157500D01*
X107751Y157000D01*
X106251D01*
X107251D02*
X108250Y156000D01*
X109250D02*
X110250D01*
X109750D01*
Y159000D01*
X109250Y158500D01*
X111749Y156000D02*
X112749D01*
X112249D01*
Y159000D01*
X111749Y158500D01*
X139151Y161801D02*
Y164799D01*
X140651D01*
X141151Y164300D01*
Y163300D01*
X140651Y162800D01*
X139151D01*
X140151D02*
X141151Y161801D01*
X142150D02*
X143150D01*
X142650D01*
Y164799D01*
X142150Y164300D01*
X144649D02*
X145149Y164799D01*
X146149D01*
X146649Y164300D01*
Y162300D01*
X146149Y161801D01*
X145149D01*
X144649Y162300D01*
Y164300D01*
X131501Y161801D02*
Y164799D01*
X133000D01*
X133500Y164300D01*
Y163300D01*
X133000Y162800D01*
X131501D01*
X132501D02*
X133500Y161801D01*
X134500Y162300D02*
X135000Y161801D01*
X135999D01*
X136499Y162300D01*
Y164300D01*
X135999Y164799D01*
X135000D01*
X134500Y164300D01*
Y163800D01*
X135000Y163300D01*
X136499D01*
X127701Y98901D02*
Y101900D01*
X129200D01*
X129700Y101400D01*
Y100400D01*
X129200Y99900D01*
X127701D01*
X128700D02*
X129700Y98901D01*
X130700Y101400D02*
X131200Y101900D01*
X132199D01*
X132699Y101400D01*
Y100900D01*
X132199Y100400D01*
X132699Y99900D01*
Y99400D01*
X132199Y98901D01*
X131200D01*
X130700Y99400D01*
Y99900D01*
X131200Y100400D01*
X130700Y100900D01*
Y101400D01*
X131200Y100400D02*
X132199D01*
X127701Y65701D02*
Y68700D01*
X129200D01*
X129700Y68200D01*
Y67200D01*
X129200Y66700D01*
X127701D01*
X128700D02*
X129700Y65701D01*
X130700Y68700D02*
X132699D01*
Y68200D01*
X130700Y66200D01*
Y65701D01*
X96201Y149100D02*
Y152100D01*
X97700D01*
X98200Y151600D01*
Y150600D01*
X97700Y150100D01*
X96201D01*
X97201D02*
X98200Y149100D01*
X101199Y152100D02*
X100199Y151600D01*
X99200Y150600D01*
Y149600D01*
X99700Y149100D01*
X100699D01*
X101199Y149600D01*
Y150100D01*
X100699Y150600D01*
X99200D01*
X69001Y45000D02*
Y48000D01*
X70500D01*
X71000Y47500D01*
Y46500D01*
X70500Y46000D01*
X69001D01*
X70000D02*
X71000Y45000D01*
X73999Y48000D02*
X72000D01*
Y46500D01*
X73000Y47000D01*
X73499D01*
X73999Y46500D01*
Y45500D01*
X73499Y45000D01*
X72500D01*
X72000Y45500D01*
X41101Y84800D02*
Y87800D01*
X42600D01*
X43100Y87300D01*
Y86300D01*
X42600Y85800D01*
X41101D01*
X42101D02*
X43100Y84800D01*
X45599D02*
Y87800D01*
X44100Y86300D01*
X46099D01*
X127701Y89801D02*
Y92800D01*
X129200D01*
X129700Y92300D01*
Y91300D01*
X129200Y90800D01*
X127701D01*
X128700D02*
X129700Y89801D01*
X130700Y92300D02*
X131200Y92800D01*
X132199D01*
X132699Y92300D01*
Y91800D01*
X132199Y91300D01*
X131700D01*
X132199D01*
X132699Y90800D01*
Y90300D01*
X132199Y89801D01*
X131200D01*
X130700Y90300D01*
X127701Y55901D02*
Y58899D01*
X129200D01*
X129700Y58400D01*
Y57400D01*
X129200Y56900D01*
X127701D01*
X128700D02*
X129700Y55901D01*
X132699D02*
X130700D01*
X132699Y57900D01*
Y58400D01*
X132199Y58899D01*
X131200D01*
X130700Y58400D01*
X34101Y61800D02*
Y64799D01*
X35600D01*
X36100Y64300D01*
Y63300D01*
X35600Y62800D01*
X34101D01*
X35100D02*
X36100Y61800D01*
X37100D02*
X38099D01*
X37600D01*
Y64799D01*
X37100Y64300D01*
X160000Y121500D02*
Y123500D01*
X159500Y124000D01*
X158501D01*
X158001Y123500D01*
Y121500D01*
X158501Y121001D01*
X159500D01*
X159001Y122000D02*
X160000Y121001D01*
X159500D02*
X160000Y121500D01*
X162499Y121001D02*
Y124000D01*
X161000Y122500D01*
X162999D01*
X160200Y34700D02*
Y36700D01*
X159700Y37200D01*
X158701D01*
X158201Y36700D01*
Y34700D01*
X158701Y34201D01*
X159700D01*
X159201Y35200D02*
X160200Y34201D01*
X159700D02*
X160200Y34700D01*
X161200Y36700D02*
X161700Y37200D01*
X162699D01*
X163199Y36700D01*
Y36200D01*
X162699Y35700D01*
X162199D01*
X162699D01*
X163199Y35200D01*
Y34700D01*
X162699Y34201D01*
X161700D01*
X161200Y34700D01*
X119300Y130200D02*
Y132200D01*
X118800Y132700D01*
X117801D01*
X117301Y132200D01*
Y130200D01*
X117801Y129701D01*
X118800D01*
X118300Y130700D02*
X119300Y129701D01*
X118800D02*
X119300Y130200D01*
X122299Y129701D02*
X120300D01*
X122299Y131700D01*
Y132200D01*
X121799Y132700D01*
X120800D01*
X120300Y132200D01*
X119200Y25900D02*
Y27900D01*
X118700Y28400D01*
X117701D01*
X117201Y27900D01*
Y25900D01*
X117701Y25401D01*
X118700D01*
X118200Y26400D02*
X119200Y25401D01*
X118700D02*
X119200Y25900D01*
X120200Y25401D02*
X121199D01*
X120700D01*
Y28400D01*
X120200Y27900D01*
X83000Y82001D02*
X86000D01*
Y83500D01*
X85500Y84000D01*
X83500D01*
X83000Y83500D01*
Y82001D01*
X83500Y85000D02*
X83000Y85500D01*
Y86499D01*
X83500Y86999D01*
X84000D01*
X84500Y86499D01*
Y86000D01*
Y86499D01*
X85000Y86999D01*
X85500D01*
X86000Y86499D01*
Y85500D01*
X85500Y85000D01*
X87801Y20300D02*
Y17300D01*
X89300D01*
X89800Y17800D01*
Y19800D01*
X89300Y20300D01*
X87801D01*
X92799Y17300D02*
X90800D01*
X92799Y19300D01*
Y19800D01*
X92299Y20300D01*
X91300D01*
X90800Y19800D01*
X64001Y97100D02*
X63501Y97600D01*
X62501D01*
X62001Y97100D01*
Y95100D01*
X62501Y94600D01*
X63501D01*
X64001Y95100D01*
X65000Y97100D02*
X65500Y97600D01*
X66500D01*
X67000Y97100D01*
Y96600D01*
X66500Y96100D01*
X66000D01*
X66500D01*
X67000Y95600D01*
Y95100D01*
X66500Y94600D01*
X65500D01*
X65000Y95100D01*
X69499Y94600D02*
Y97600D01*
X67999Y96100D01*
X69999D01*
X46601Y47800D02*
X46101Y48300D01*
X45101D01*
X44601Y47800D01*
Y45800D01*
X45101Y45300D01*
X46101D01*
X46601Y45800D01*
X47600Y47800D02*
X48100Y48300D01*
X49100D01*
X49600Y47800D01*
Y47300D01*
X49100Y46800D01*
X48600D01*
X49100D01*
X49600Y46300D01*
Y45800D01*
X49100Y45300D01*
X48100D01*
X47600Y45800D01*
X52599Y45300D02*
X50599D01*
X52599Y47300D01*
Y47800D01*
X52099Y48300D01*
X51099D01*
X50599Y47800D01*
X197201Y60326D02*
X196701Y60826D01*
X195701D01*
X195201Y60326D01*
Y58327D01*
X195701Y57827D01*
X196701D01*
X197201Y58327D01*
X200200Y57827D02*
X198200D01*
X200200Y59826D01*
Y60326D01*
X199700Y60826D01*
X198700D01*
X198200Y60326D01*
X201199Y58327D02*
X201699Y57827D01*
X202699D01*
X203199Y58327D01*
Y60326D01*
X202699Y60826D01*
X201699D01*
X201199Y60326D01*
Y59826D01*
X201699Y59326D01*
X203199D01*
X196301Y98226D02*
X195801Y98726D01*
X194801D01*
X194301Y98226D01*
Y96227D01*
X194801Y95727D01*
X195801D01*
X196301Y96227D01*
X199300Y95727D02*
X197300D01*
X199300Y97726D01*
Y98226D01*
X198800Y98726D01*
X197800D01*
X197300Y98226D01*
X200299D02*
X200799Y98726D01*
X201799D01*
X202299Y98226D01*
Y97726D01*
X201799Y97226D01*
X202299Y96727D01*
Y96227D01*
X201799Y95727D01*
X200799D01*
X200299Y96227D01*
Y96727D01*
X200799Y97226D01*
X200299Y97726D01*
Y98226D01*
X200799Y97226D02*
X201799D01*
X33001Y211500D02*
X32501Y212000D01*
X31501D01*
X31001Y211500D01*
Y209500D01*
X31501Y209000D01*
X32501D01*
X33001Y209500D01*
X36000Y209000D02*
X34000D01*
X36000Y211000D01*
Y211500D01*
X35500Y212000D01*
X34500D01*
X34000Y211500D01*
X36999Y212000D02*
X38999D01*
Y211500D01*
X36999Y209500D01*
Y209000D01*
X23501Y197000D02*
X23001Y197500D01*
X22001D01*
X21501Y197000D01*
Y195000D01*
X22001Y194501D01*
X23001D01*
X23501Y195000D01*
X26500Y194501D02*
X24500D01*
X26500Y196500D01*
Y197000D01*
X26000Y197500D01*
X25000D01*
X24500Y197000D01*
X29499Y197500D02*
X28499Y197000D01*
X27499Y196000D01*
Y195000D01*
X27999Y194501D01*
X28999D01*
X29499Y195000D01*
Y195500D01*
X28999Y196000D01*
X27499D01*
X178000Y171801D02*
X177500Y171301D01*
Y170301D01*
X178000Y169801D01*
X180000D01*
X180499Y170301D01*
Y171301D01*
X180000Y171801D01*
X180499Y174800D02*
Y172800D01*
X178500Y174800D01*
X178000D01*
X177500Y174300D01*
Y173300D01*
X178000Y172800D01*
X180499Y177299D02*
X177500D01*
X179000Y175799D01*
Y177799D01*
X13501Y142500D02*
X13001Y142999D01*
X12001D01*
X11501Y142500D01*
Y140500D01*
X12001Y140000D01*
X13001D01*
X13501Y140500D01*
X16500Y140000D02*
X14500D01*
X16500Y142000D01*
Y142500D01*
X16000Y142999D01*
X15000D01*
X14500Y142500D01*
X17499D02*
X17999Y142999D01*
X18999D01*
X19499Y142500D01*
Y142000D01*
X18999Y141500D01*
X18499D01*
X18999D01*
X19499Y141000D01*
Y140500D01*
X18999Y140000D01*
X17999D01*
X17499Y140500D01*
X16001Y256000D02*
X15501Y256500D01*
X14501D01*
X14001Y256000D01*
Y254000D01*
X14501Y253501D01*
X15501D01*
X16001Y254000D01*
X19000Y253501D02*
X17000D01*
X19000Y255500D01*
Y256000D01*
X18500Y256500D01*
X17500D01*
X17000Y256000D01*
X21999Y253501D02*
X19999D01*
X21999Y255500D01*
Y256000D01*
X21499Y256500D01*
X20499D01*
X19999Y256000D01*
X63301Y200200D02*
X62801Y200699D01*
X61801D01*
X61301Y200200D01*
Y198200D01*
X61801Y197701D01*
X62801D01*
X63301Y198200D01*
X66299Y197701D02*
X64300D01*
X66299Y199700D01*
Y200200D01*
X65800Y200699D01*
X64800D01*
X64300Y200200D01*
X67299Y197701D02*
X68299D01*
X67799D01*
Y200699D01*
X67299Y200200D01*
X99001Y244000D02*
X98501Y244499D01*
X97501D01*
X97001Y244000D01*
Y242000D01*
X97501Y241500D01*
X98501D01*
X99001Y242000D01*
X102000Y241500D02*
X100000D01*
X102000Y243500D01*
Y244000D01*
X101500Y244499D01*
X100500D01*
X100000Y244000D01*
X102999D02*
X103499Y244499D01*
X104499D01*
X104999Y244000D01*
Y242000D01*
X104499Y241500D01*
X103499D01*
X102999Y242000D01*
Y244000D01*
X131451Y266080D02*
X130951Y266580D01*
X129951D01*
X129451Y266080D01*
Y264081D01*
X129951Y263581D01*
X130951D01*
X131451Y264081D01*
X132450Y263581D02*
X133450D01*
X132950D01*
Y266580D01*
X132450Y266080D01*
X134949Y264081D02*
X135449Y263581D01*
X136449D01*
X136949Y264081D01*
Y266080D01*
X136449Y266580D01*
X135449D01*
X134949Y266080D01*
Y265580D01*
X135449Y265080D01*
X136949D01*
X141251Y169200D02*
X140751Y169700D01*
X139751D01*
X139251Y169200D01*
Y167200D01*
X139751Y166700D01*
X140751D01*
X141251Y167200D01*
X142250Y166700D02*
X143250D01*
X142750D01*
Y169700D01*
X142250Y169200D01*
X144749D02*
X145249Y169700D01*
X146249D01*
X146749Y169200D01*
Y168700D01*
X146249Y168200D01*
X146749Y167700D01*
Y167200D01*
X146249Y166700D01*
X145249D01*
X144749Y167200D01*
Y167700D01*
X145249Y168200D01*
X144749Y168700D01*
Y169200D01*
X145249Y168200D02*
X146249D01*
X128251Y244000D02*
X127751Y244499D01*
X126751D01*
X126251Y244000D01*
Y242000D01*
X126751Y241500D01*
X127751D01*
X128251Y242000D01*
X129250Y241500D02*
X130250D01*
X129750D01*
Y244499D01*
X129250Y244000D01*
X131749Y244499D02*
X133749D01*
Y244000D01*
X131749Y242000D01*
Y241500D01*
X178000Y182451D02*
X177500Y181951D01*
Y180951D01*
X178000Y180451D01*
X180000D01*
X180499Y180951D01*
Y181951D01*
X180000Y182451D01*
X180499Y183450D02*
Y184450D01*
Y183950D01*
X177500D01*
X178000Y183450D01*
X177500Y187949D02*
X178000Y186949D01*
X179000Y185949D01*
X180000D01*
X180499Y186449D01*
Y187449D01*
X180000Y187949D01*
X179500D01*
X179000Y187449D01*
Y185949D01*
X204751Y217421D02*
X204251Y217921D01*
X203251D01*
X202751Y217421D01*
Y215422D01*
X203251Y214922D01*
X204251D01*
X204751Y215422D01*
X205750Y214922D02*
X206750D01*
X206250D01*
Y217921D01*
X205750Y217421D01*
X210249Y217921D02*
X208249D01*
Y216421D01*
X209249Y216921D01*
X209749D01*
X210249Y216421D01*
Y215422D01*
X209749Y214922D01*
X208749D01*
X208249Y215422D01*
X193251Y208685D02*
X192751Y209185D01*
X191751D01*
X191251Y208685D01*
Y206685D01*
X191751Y206186D01*
X192751D01*
X193251Y206685D01*
X194250Y206186D02*
X195250D01*
X194750D01*
Y209185D01*
X194250Y208685D01*
X198249Y206186D02*
Y209185D01*
X196749Y207685D01*
X198749D01*
X183751Y190000D02*
X183251Y190499D01*
X182251D01*
X181751Y190000D01*
Y188000D01*
X182251Y187501D01*
X183251D01*
X183751Y188000D01*
X184750Y187501D02*
X185750D01*
X185250D01*
Y190499D01*
X184750Y190000D01*
X187249D02*
X187749Y190499D01*
X188749D01*
X189249Y190000D01*
Y189500D01*
X188749Y189000D01*
X188249D01*
X188749D01*
X189249Y188500D01*
Y188000D01*
X188749Y187501D01*
X187749D01*
X187249Y188000D01*
X89751Y158500D02*
X89251Y159000D01*
X88251D01*
X87751Y158500D01*
Y156500D01*
X88251Y156000D01*
X89251D01*
X89751Y156500D01*
X90750Y156000D02*
X91750D01*
X91250D01*
Y159000D01*
X90750Y158500D01*
X95249Y156000D02*
X93249D01*
X95249Y158000D01*
Y158500D01*
X94749Y159000D01*
X93749D01*
X93249Y158500D01*
X108950Y94700D02*
X108451Y95200D01*
X107451D01*
X106951Y94700D01*
Y92700D01*
X107451Y92200D01*
X108451D01*
X108950Y92700D01*
X109950Y92200D02*
X110950D01*
X110450D01*
Y95200D01*
X109950Y94700D01*
X112449Y92200D02*
X113449D01*
X112949D01*
Y95200D01*
X112449Y94700D01*
X112300Y27251D02*
X111801Y26751D01*
Y25751D01*
X112300Y25251D01*
X114300D01*
X114799Y25751D01*
Y26751D01*
X114300Y27251D01*
X114799Y28250D02*
Y29250D01*
Y28750D01*
X111801D01*
X112300Y28250D01*
Y30749D02*
X111801Y31249D01*
Y32249D01*
X112300Y32749D01*
X114300D01*
X114799Y32249D01*
Y31249D01*
X114300Y30749D01*
X112300D01*
X112300Y129027D02*
X111800Y129527D01*
X110801D01*
X110301Y129027D01*
Y127027D01*
X110801Y126528D01*
X111800D01*
X112300Y127027D01*
X113300D02*
X113800Y126528D01*
X114799D01*
X115299Y127027D01*
Y129027D01*
X114799Y129527D01*
X113800D01*
X113300Y129027D01*
Y128527D01*
X113800Y128027D01*
X115299D01*
X71400Y75800D02*
X70900Y76300D01*
X69901D01*
X69401Y75800D01*
Y73800D01*
X69901Y73300D01*
X70900D01*
X71400Y73800D01*
X72400Y75800D02*
X72900Y76300D01*
X73899D01*
X74399Y75800D01*
Y75300D01*
X73899Y74800D01*
X74399Y74300D01*
Y73800D01*
X73899Y73300D01*
X72900D01*
X72400Y73800D01*
Y74300D01*
X72900Y74800D01*
X72400Y75300D01*
Y75800D01*
X72900Y74800D02*
X73899D01*
X120100Y83200D02*
X119600Y83700D01*
X118601D01*
X118101Y83200D01*
Y81200D01*
X118601Y80700D01*
X119600D01*
X120100Y81200D01*
X121100Y83700D02*
X123099D01*
Y83200D01*
X121100Y81200D01*
Y80700D01*
X188800Y75700D02*
X188300Y76200D01*
X187301D01*
X186801Y75700D01*
Y73700D01*
X187301Y73201D01*
X188300D01*
X188800Y73700D01*
X191799Y76200D02*
X190799Y75700D01*
X189800Y74700D01*
Y73700D01*
X190300Y73201D01*
X191299D01*
X191799Y73700D01*
Y74200D01*
X191299Y74700D01*
X189800D01*
X120100Y76700D02*
X119600Y77200D01*
X118601D01*
X118101Y76700D01*
Y74700D01*
X118601Y74200D01*
X119600D01*
X120100Y74700D01*
X123099Y77200D02*
X121100D01*
Y75700D01*
X122099Y76200D01*
X122599D01*
X123099Y75700D01*
Y74700D01*
X122599Y74200D01*
X121600D01*
X121100Y74700D01*
X189000Y83900D02*
X188500Y84399D01*
X187501D01*
X187001Y83900D01*
Y81900D01*
X187501Y81401D01*
X188500D01*
X189000Y81900D01*
X191499Y81401D02*
Y84399D01*
X190000Y82900D01*
X191999D01*
X50600Y87300D02*
X50100Y87800D01*
X49101D01*
X48601Y87300D01*
Y85300D01*
X49101Y84800D01*
X50100D01*
X50600Y85300D01*
X51600Y87300D02*
X52100Y87800D01*
X53099D01*
X53599Y87300D01*
Y86800D01*
X53099Y86300D01*
X52600D01*
X53099D01*
X53599Y85800D01*
Y85300D01*
X53099Y84800D01*
X52100D01*
X51600Y85300D01*
X19500Y175500D02*
X19000Y175999D01*
X18001D01*
X17501Y175500D01*
Y173500D01*
X18001Y173001D01*
X19000D01*
X19500Y173500D01*
X22499Y173001D02*
X20500D01*
X22499Y175000D01*
Y175500D01*
X21999Y175999D01*
X21000D01*
X20500Y175500D01*
X78000Y176000D02*
X77500Y176499D01*
X76500D01*
X76001Y176000D01*
Y174000D01*
X76500Y173501D01*
X77500D01*
X78000Y174000D01*
X79000Y173501D02*
X79999D01*
X79500D01*
Y176499D01*
X79000Y176000D01*
X31001Y114499D02*
Y112000D01*
X31501Y111501D01*
X32500D01*
X33000Y112000D01*
Y114499D01*
X35999D02*
X34000D01*
Y113000D01*
X34999Y113500D01*
X35499D01*
X35999Y113000D01*
Y112000D01*
X35499Y111501D01*
X34500D01*
X34000Y112000D01*
X21001Y160500D02*
Y160000D01*
X22000Y159000D01*
X23000Y160000D01*
Y160500D01*
X22000Y159000D02*
Y157501D01*
X24000D02*
X24999D01*
X24499D01*
Y160500D01*
X24000Y160000D01*
X210501Y63999D02*
Y61500D01*
X211001Y61001D01*
X212000D01*
X212500Y61500D01*
Y63999D01*
X213500Y61500D02*
X214000Y61001D01*
X214999D01*
X215499Y61500D01*
Y63500D01*
X214999Y63999D01*
X214000D01*
X213500Y63500D01*
Y63000D01*
X214000Y62500D01*
X215499D01*
X202501Y169500D02*
Y167000D01*
X203001Y166500D01*
X204000D01*
X204500Y167000D01*
Y169500D01*
X205500Y169000D02*
X206000Y169500D01*
X206999D01*
X207499Y169000D01*
Y168500D01*
X206999Y168000D01*
X207499Y167500D01*
Y167000D01*
X206999Y166500D01*
X206000D01*
X205500Y167000D01*
Y167500D01*
X206000Y168000D01*
X205500Y168500D01*
Y169000D01*
X206000Y168000D02*
X206999D01*
X80301Y257299D02*
Y254800D01*
X80801Y254300D01*
X81800D01*
X82300Y254800D01*
Y257299D01*
X83300D02*
X85299D01*
Y256800D01*
X83300Y254800D01*
Y254300D01*
X184001Y268499D02*
Y266000D01*
X184501Y265500D01*
X185500D01*
X186000Y266000D01*
Y268499D01*
X188499Y265500D02*
Y268499D01*
X187000Y267000D01*
X188999D01*
X100501Y197000D02*
Y194500D01*
X101001Y194000D01*
X102000D01*
X102500Y194500D01*
Y197000D01*
X103500Y196500D02*
X104000Y197000D01*
X104999D01*
X105499Y196500D01*
Y196000D01*
X104999Y195500D01*
X104499D01*
X104999D01*
X105499Y195000D01*
Y194500D01*
X104999Y194000D01*
X104000D01*
X103500Y194500D01*
X74501Y109000D02*
Y106500D01*
X75001Y106000D01*
X76000D01*
X76500Y106500D01*
Y109000D01*
X79499Y106000D02*
X77500D01*
X79499Y108000D01*
Y108500D01*
X78999Y109000D01*
X78000D01*
X77500Y108500D01*
X75501Y60299D02*
Y57800D01*
X76000Y57301D01*
X77000D01*
X77500Y57800D01*
Y60299D01*
X78500Y57301D02*
X79499D01*
X79000D01*
Y60299D01*
X78500Y59800D01*
X159203Y139549D02*
X161202D01*
X160202D01*
Y136550D01*
X162202D02*
Y139549D01*
X163701D01*
X164201Y139050D01*
Y138050D01*
X163701Y137550D01*
X162202D01*
X165201Y136051D02*
X167200D01*
X168200Y139549D02*
Y137550D01*
X169200Y136550D01*
X170199Y137550D01*
Y139549D01*
X171199Y136550D02*
X172698D01*
X173198Y137050D01*
X172698Y137550D01*
X171699D01*
X171199Y138050D01*
X171699Y138550D01*
X173198D01*
X174698Y136550D02*
X175697D01*
X176197Y137050D01*
Y138050D01*
X175697Y138550D01*
X174698D01*
X174198Y138050D01*
Y137050D01*
X174698Y136550D01*
X223751Y140503D02*
Y142502D01*
Y141502D01*
X226750D01*
Y143502D02*
X223751D01*
Y145001D01*
X224250Y145501D01*
X225250D01*
X225750Y145001D01*
Y143502D01*
X227249Y146501D02*
Y148500D01*
X223751Y149500D02*
X225750D01*
X226750Y150499D01*
X225750Y151499D01*
X223751D01*
X226750Y152499D02*
Y153998D01*
X226250Y154498D01*
X225750Y153998D01*
Y152999D01*
X225250Y152499D01*
X224750Y152999D01*
Y154498D01*
X226750Y155498D02*
Y156497D01*
Y155998D01*
X224750D01*
Y155498D01*
X192504Y123499D02*
X194503D01*
X193503D01*
Y120500D01*
X195503D02*
Y123499D01*
X197002D01*
X197502Y123000D01*
Y122000D01*
X197002Y121500D01*
X195503D01*
X198502Y120001D02*
X200501D01*
X201501Y123499D02*
Y121500D01*
X202501Y120500D01*
X203500Y121500D01*
Y123499D01*
X204500Y119501D02*
Y122500D01*
X205999D01*
X206499Y122000D01*
Y121000D01*
X205999Y120500D01*
X204500D01*
X207499Y122500D02*
Y121000D01*
X207999Y120500D01*
X208499Y121000D01*
X208998Y120500D01*
X209498Y121000D01*
Y122500D01*
X210498Y120500D02*
Y122500D01*
X210998D01*
X211498Y122000D01*
Y120500D01*
Y122000D01*
X211997Y122500D01*
X212497Y122000D01*
Y120500D01*
X213497Y119501D02*
Y122500D01*
X214997D01*
X215496Y122000D01*
Y121000D01*
X214997Y120500D01*
X213497D01*
X43653Y257849D02*
X45652D01*
X44652D01*
Y254850D01*
X46652D02*
Y257849D01*
X48151D01*
X48651Y257350D01*
Y256350D01*
X48151Y255850D01*
X46652D01*
X49651Y254351D02*
X51650D01*
X52650Y254850D02*
X53649D01*
X53150D01*
Y257849D01*
X52650Y257350D01*
X57148Y254850D02*
X55149D01*
X57148Y256850D01*
Y257350D01*
X56648Y257849D01*
X55649D01*
X55149Y257350D01*
X58148Y257849D02*
Y255850D01*
X59148Y254850D01*
X60147Y255850D01*
Y257849D01*
X101003Y250749D02*
X103002D01*
X102002D01*
Y247750D01*
X104002D02*
Y250749D01*
X105501D01*
X106001Y250250D01*
Y249250D01*
X105501Y248750D01*
X104002D01*
X107001Y247251D02*
X109000D01*
X110000Y250250D02*
X110500Y250749D01*
X111499D01*
X111999Y250250D01*
Y249750D01*
X111499Y249250D01*
X111000D01*
X111499D01*
X111999Y248750D01*
Y248250D01*
X111499Y247750D01*
X110500D01*
X110000Y248250D01*
X112999Y250749D02*
Y248750D01*
X113999Y247750D01*
X114998Y248750D01*
Y250749D01*
X115998Y250250D02*
X116498Y250749D01*
X117497D01*
X117997Y250250D01*
Y249750D01*
X117497Y249250D01*
X116998D01*
X117497D01*
X117997Y248750D01*
Y248250D01*
X117497Y247750D01*
X116498D01*
X115998Y248250D01*
X92001Y265500D02*
Y268499D01*
X93500D01*
X94000Y268000D01*
Y267000D01*
X93500Y266500D01*
X92001D01*
X96999Y265500D02*
X95000D01*
X96999Y267500D01*
Y268000D01*
X96499Y268499D01*
X95500D01*
X95000Y268000D01*
X183101Y148699D02*
Y145701D01*
X184600D01*
X185100Y146200D01*
Y148200D01*
X184600Y148699D01*
X183101D01*
X186100Y145701D02*
X187099D01*
X186600D01*
Y148699D01*
X186100Y148200D01*
M02*
