G04*
G04 #@! TF.GenerationSoftware,Altium Limited,Altium Designer,21.0.9 (235)*
G04*
G04 Layer_Color=255*
%FSLAX25Y25*%
%MOIN*%
G70*
G04*
G04 #@! TF.SameCoordinates,CCBB63D4-E8DD-42B9-A150-1630AA2F812C*
G04*
G04*
G04 #@! TF.FilePolarity,Positive*
G04*
G01*
G75*
%ADD80R,0.05906X0.07874*%
%ADD81O,0.05906X0.07874*%
%ADD82C,0.05906*%
%ADD83R,0.05906X0.05906*%
%ADD84R,0.05906X0.05906*%
%ADD85C,0.16535*%
%ADD89R,0.03347X0.01181*%
%ADD90R,0.01181X0.03347*%
%ADD91R,0.03150X0.05000*%
D80*
X32000Y18500D02*
D03*
D81*
Y28500D02*
D03*
X42000Y18500D02*
D03*
Y28500D02*
D03*
X52000Y18500D02*
D03*
Y28500D02*
D03*
D82*
X17500Y112000D02*
D03*
Y102000D02*
D03*
Y92000D02*
D03*
Y82000D02*
D03*
Y62000D02*
D03*
Y72000D02*
D03*
X84500Y267500D02*
D03*
X74500D02*
D03*
X64500D02*
D03*
X54500D02*
D03*
X44500D02*
D03*
D83*
X17500Y52000D02*
D03*
D84*
X34500Y267500D02*
D03*
D85*
X213200Y73974D02*
D03*
Y93974D02*
D03*
Y138500D02*
D03*
Y158500D02*
D03*
D89*
X161209Y162891D02*
D03*
Y164859D02*
D03*
X149791D02*
D03*
Y162891D02*
D03*
D90*
X152547Y167615D02*
D03*
X158453D02*
D03*
X156484D02*
D03*
X154516D02*
D03*
D91*
X157468Y156985D02*
D03*
X153532D02*
D03*
M02*
