G04*
G04 #@! TF.GenerationSoftware,Altium Limited,Altium Designer,21.0.9 (235)*
G04*
G04 Layer_Color=16711935*
%FSLAX25Y25*%
%MOIN*%
G70*
G04*
G04 #@! TF.SameCoordinates,CCBB63D4-E8DD-42B9-A150-1630AA2F812C*
G04*
G04*
G04 #@! TF.FilePolarity,Positive*
G04*
G01*
G75*
%ADD15C,0.00500*%
%ADD95C,0.00394*%
D15*
X27559Y157051D02*
X72441D01*
X27559D02*
Y175949D01*
X72441D01*
Y157051D02*
Y175949D01*
D95*
X113681Y58523D02*
X113417Y59507D01*
X112697Y60227D01*
X111713Y60491D01*
X110728Y60227D01*
X110008Y59507D01*
X109744Y58523D01*
X110008Y57538D01*
X110728Y56818D01*
X111713Y56554D01*
X112697Y56818D01*
X113417Y57538D01*
X113681Y58523D01*
X113781Y116023D02*
X113517Y117007D01*
X112797Y117727D01*
X111813Y117991D01*
X110828Y117727D01*
X110108Y117007D01*
X109844Y116023D01*
X110108Y115038D01*
X110828Y114318D01*
X111813Y114054D01*
X112797Y114318D01*
X113517Y115038D01*
X113781Y116023D01*
X61544Y46568D02*
X67056D01*
X61544Y55032D02*
X67056D01*
X61544Y46568D02*
Y55032D01*
X67056Y46568D02*
Y55032D01*
X105493Y70957D02*
Y78043D01*
X92107Y70957D02*
Y78043D01*
Y70957D02*
X105493D01*
X92107Y78043D02*
X105493D01*
X141768Y63944D02*
X150232D01*
X141768Y69456D02*
X150232D01*
Y63944D02*
Y69456D01*
X141768Y63944D02*
Y69456D01*
X141668Y55018D02*
X150132D01*
X141668Y60530D02*
X150132D01*
Y55018D02*
Y60530D01*
X141668Y55018D02*
Y60530D01*
X139193Y79257D02*
Y86343D01*
X125807Y79257D02*
Y86343D01*
Y79257D02*
X139193D01*
X125807Y86343D02*
X139193D01*
X139093Y71157D02*
Y78243D01*
X125707Y71157D02*
Y78243D01*
Y71157D02*
X139093D01*
X125707Y78243D02*
X139093D01*
X186157Y86307D02*
X193243D01*
X186157Y99693D02*
X193243D01*
X186157Y86307D02*
Y99693D01*
X193243Y86307D02*
Y99693D01*
X194457Y80007D02*
X201543D01*
X194457Y93393D02*
X201543D01*
X194457Y80007D02*
Y93393D01*
X201543Y80007D02*
Y93393D01*
X194357Y76493D02*
X201443D01*
X194357Y63107D02*
X201443D01*
Y76493D01*
X194357Y63107D02*
Y76493D01*
X186057Y71093D02*
X193143D01*
X186057Y57707D02*
X193143D01*
Y71093D01*
X186057Y57707D02*
Y71093D01*
X100893Y131757D02*
Y138843D01*
X87507Y131757D02*
Y138843D01*
Y131757D02*
X100893D01*
X87507Y138843D02*
X100893D01*
X81004Y62066D02*
X115256D01*
X81004Y46318D02*
X115256D01*
Y62066D01*
X81004Y46318D02*
Y62066D01*
X96307Y81957D02*
Y89043D01*
X109693Y81957D02*
Y89043D01*
X96307D02*
X109693D01*
X96307Y81957D02*
X109693D01*
X95907Y25430D02*
Y32517D01*
X109293Y25430D02*
Y32517D01*
X95907D02*
X109293D01*
X95907Y25430D02*
X109293D01*
X70007Y201343D02*
X83393D01*
X70007Y194257D02*
X83393D01*
X70007D02*
Y201343D01*
X83393Y194257D02*
Y201343D01*
X31807Y192457D02*
Y199543D01*
X45193Y192457D02*
Y199543D01*
X31807D02*
X45193D01*
X31807Y192457D02*
X45193D01*
X69543Y78907D02*
Y92293D01*
X62457Y78907D02*
Y92293D01*
X69543D01*
X62457Y78907D02*
X69543D01*
X149443Y248187D02*
Y261573D01*
X142357Y248187D02*
Y261573D01*
X149443D01*
X142357Y248187D02*
X149443D01*
X133557Y261573D02*
X140643D01*
X133557Y248187D02*
X140643D01*
Y261573D01*
X133557Y248187D02*
Y261573D01*
X47557Y68792D02*
Y82178D01*
X54643Y68792D02*
Y82178D01*
X47557Y68792D02*
X54643D01*
X47557Y82178D02*
X54643D01*
X20543Y124807D02*
Y138193D01*
X13457Y124807D02*
Y138193D01*
X20543D01*
X13457Y124807D02*
X20543D01*
X40344Y80989D02*
X45856D01*
X40344Y72524D02*
X45856D01*
Y80989D01*
X40344Y72524D02*
Y80989D01*
X22244Y128268D02*
Y136732D01*
X27756Y128268D02*
Y136732D01*
X22244Y128268D02*
X27756D01*
X22244Y136732D02*
X27756D01*
X42368Y60544D02*
Y66056D01*
X50832Y60544D02*
Y66056D01*
X42368D02*
X50832D01*
X42368Y60544D02*
X50832D01*
X39907Y49757D02*
Y56843D01*
X53293Y49757D02*
Y56843D01*
X39907D02*
X53293D01*
X39907Y49757D02*
X53293D01*
X108424Y160718D02*
Y166229D01*
X116889Y160718D02*
Y166229D01*
X108424D02*
X116889D01*
X108424Y160718D02*
X116889D01*
X136843Y167307D02*
Y180693D01*
X129757Y167307D02*
Y180693D01*
X136843D01*
X129757Y167307D02*
X136843D01*
X112944Y193732D02*
X118456D01*
X112944Y185268D02*
X118456D01*
Y193732D01*
X112944Y185268D02*
Y193732D01*
X121244D02*
X126756D01*
X121244Y185268D02*
X126756D01*
Y193732D01*
X121244Y185268D02*
Y193732D01*
X89692Y159930D02*
X103078D01*
X89692Y167017D02*
X103078D01*
Y159930D02*
Y167017D01*
X89692Y159930D02*
Y167017D01*
X92468Y147056D02*
X100932D01*
X92468Y141544D02*
X100932D01*
X92468D02*
Y147056D01*
X100932Y141544D02*
Y147056D01*
X81104Y103818D02*
Y119566D01*
X115356Y103818D02*
Y119566D01*
X81104Y103818D02*
X115356D01*
X81104Y119566D02*
X115356D01*
X186956Y167268D02*
Y175732D01*
X181444Y167268D02*
Y175732D01*
X186956D01*
X181444Y167268D02*
X186956D01*
X161807Y171757D02*
Y178843D01*
X175193Y171757D02*
Y178843D01*
X161807D02*
X175193D01*
X161807Y171757D02*
X175193D01*
X161807Y180257D02*
X175193D01*
X161807Y187343D02*
X175193D01*
Y180257D02*
Y187343D01*
X161807Y180257D02*
Y187343D01*
X182807Y186543D02*
X196193D01*
X182807Y179457D02*
X196193D01*
X182807D02*
Y186543D01*
X196193Y179457D02*
Y186543D01*
X121244Y170768D02*
X126756D01*
X121244Y179232D02*
X126756D01*
X121244Y170768D02*
Y179232D01*
X126756Y170768D02*
Y179232D01*
X112944Y179206D02*
X118456D01*
X112944Y170741D02*
X118456D01*
Y179206D01*
X112944Y170741D02*
Y179206D01*
X130744Y185268D02*
Y193732D01*
X136256Y185268D02*
Y193732D01*
X130744Y185268D02*
X136256D01*
X130744Y193732D02*
X136256D01*
X199543Y190307D02*
Y203693D01*
X192457Y190307D02*
Y203693D01*
X199543D01*
X192457Y190307D02*
X199543D01*
X141968Y97718D02*
Y103229D01*
X150432Y97718D02*
Y103229D01*
X141968D02*
X150432D01*
X141968Y97718D02*
X150432D01*
X141968Y88218D02*
Y93730D01*
X150432Y88218D02*
Y93730D01*
X141968D02*
X150432D01*
X141968Y88218D02*
X150432D01*
X31807Y200957D02*
Y208043D01*
X45193Y200957D02*
Y208043D01*
X31807D02*
X45193D01*
X31807Y200957D02*
X45193D01*
M02*
