G04*
G04 #@! TF.GenerationSoftware,Altium Limited,Altium Designer,21.0.9 (235)*
G04*
G04 Layer_Color=8388736*
%FSLAX25Y25*%
%MOIN*%
G70*
G04*
G04 #@! TF.SameCoordinates,28F69A72-3BD6-4D5A-B4D2-E5632D31EE07*
G04*
G04*
G04 #@! TF.FilePolarity,Negative*
G04*
G01*
G75*
%ADD25O,0.12611X0.04147*%
%ADD26O,0.04147X0.12611*%
%ADD27R,0.04737X0.11430*%
%ADD28R,0.13792X0.11430*%
%ADD29R,0.05131X0.07493*%
%ADD30R,0.10642X0.02572*%
%ADD31R,0.10642X0.10642*%
%ADD32R,0.06312X0.05524*%
%ADD33R,0.06706X0.05131*%
%ADD34R,0.05131X0.06706*%
%ADD35R,0.05524X0.06115*%
%ADD36C,0.02572*%
%ADD37C,0.06706*%
%ADD38R,0.06706X0.06706*%
%ADD39C,0.03162*%
%ADD40C,0.04737*%
D25*
X212221Y188902D02*
D03*
Y183980D02*
D03*
Y179059D02*
D03*
Y174138D02*
D03*
Y169217D02*
D03*
Y164295D02*
D03*
Y159374D02*
D03*
Y154453D02*
D03*
Y149531D02*
D03*
X164779D02*
D03*
Y154453D02*
D03*
Y159374D02*
D03*
Y164295D02*
D03*
Y169217D02*
D03*
Y174138D02*
D03*
Y179059D02*
D03*
Y183980D02*
D03*
Y188902D02*
D03*
Y193823D02*
D03*
Y198744D02*
D03*
Y203665D02*
D03*
Y208587D02*
D03*
D26*
X205724Y140870D02*
D03*
X200803D02*
D03*
X195882D02*
D03*
X190961D02*
D03*
X186039D02*
D03*
X181118D02*
D03*
X176197D02*
D03*
X171276D02*
D03*
D27*
X120445Y157386D02*
D03*
X129500D02*
D03*
X138555D02*
D03*
D28*
X129500Y180614D02*
D03*
D29*
X131315Y193000D02*
D03*
X120685D02*
D03*
D30*
X118689Y132799D02*
D03*
Y129650D02*
D03*
Y126500D02*
D03*
Y123350D02*
D03*
Y120201D02*
D03*
D31*
Y144650D02*
D03*
Y108350D02*
D03*
X97114Y144650D02*
D03*
Y108350D02*
D03*
D32*
X163000Y126543D02*
D03*
Y119457D02*
D03*
X194000D02*
D03*
Y126543D02*
D03*
X173000D02*
D03*
Y119457D02*
D03*
D33*
X151500Y178240D02*
D03*
Y170760D02*
D03*
X137500Y133606D02*
D03*
Y141087D02*
D03*
X204500Y119260D02*
D03*
Y126740D02*
D03*
X151947Y119260D02*
D03*
Y126740D02*
D03*
X183500Y119260D02*
D03*
Y126740D02*
D03*
D34*
X144760Y193500D02*
D03*
X152240D02*
D03*
X144760Y204000D02*
D03*
X152240D02*
D03*
D35*
X216500Y128595D02*
D03*
Y115405D02*
D03*
D36*
X108807Y135161D02*
D03*
Y117839D02*
D03*
D37*
X244000Y139500D02*
D03*
Y129500D02*
D03*
Y149500D02*
D03*
Y159500D02*
D03*
Y169500D02*
D03*
Y179500D02*
D03*
D38*
Y119500D02*
D03*
D39*
X220000Y189000D02*
D03*
X154500Y211500D02*
D03*
X174102Y164398D02*
D03*
X210500Y137000D02*
D03*
X113000Y153500D02*
D03*
X146000Y123000D02*
D03*
X132500Y128500D02*
D03*
X131000Y116000D02*
D03*
X183500Y114000D02*
D03*
X118000Y199500D02*
D03*
X173500Y114000D02*
D03*
X204500Y113500D02*
D03*
X144140Y133360D02*
D03*
X137744Y211000D02*
D03*
D40*
X140500Y178500D02*
D03*
X224500Y122000D02*
D03*
M02*
