G04*
G04 #@! TF.GenerationSoftware,Altium Limited,Altium Designer,21.0.9 (235)*
G04*
G04 Layer_Physical_Order=1*
G04 Layer_Color=255*
%FSLAX25Y25*%
%MOIN*%
G70*
G04*
G04 #@! TF.SameCoordinates,28F69A72-3BD6-4D5A-B4D2-E5632D31EE07*
G04*
G04*
G04 #@! TF.FilePolarity,Positive*
G04*
G01*
G75*
%ADD14O,0.11811X0.03347*%
%ADD15O,0.03347X0.11811*%
%ADD16R,0.03937X0.10630*%
%ADD17R,0.12992X0.10630*%
%ADD18R,0.04331X0.06693*%
%ADD19R,0.09843X0.01772*%
%ADD20R,0.09843X0.09843*%
%ADD21R,0.05512X0.04724*%
%ADD22R,0.05906X0.04331*%
%ADD23R,0.04331X0.05906*%
%ADD24R,0.04724X0.05315*%
%ADD41C,0.01772*%
%ADD42C,0.01968*%
%ADD43C,0.00000*%
%ADD44C,0.02362*%
%ADD45C,0.02756*%
%ADD46C,0.01772*%
%ADD47C,0.05906*%
%ADD48R,0.05906X0.05906*%
%ADD49C,0.02362*%
%ADD50C,0.03937*%
G36*
X256786Y210790D02*
Y104419D01*
X254081Y101714D01*
X86210D01*
X83714Y104210D01*
Y211290D01*
X85710Y213286D01*
X136013D01*
X136165Y212786D01*
X136041Y212703D01*
X135519Y211922D01*
X135336Y211000D01*
X135519Y210078D01*
X135687Y209827D01*
Y208721D01*
X135855Y207876D01*
X136334Y207160D01*
X139448Y204045D01*
X140164Y203567D01*
X141009Y203399D01*
X141413D01*
Y199866D01*
X142946D01*
Y197634D01*
X141413D01*
Y190704D01*
X137559D01*
X137503Y190710D01*
X137349Y190774D01*
X137274Y190849D01*
X137210Y191003D01*
X137204Y191059D01*
Y197099D01*
X137113Y197560D01*
X137113Y197560D01*
X137113Y197560D01*
X137036Y197744D01*
X136932Y197901D01*
X136775Y198135D01*
X136635Y198275D01*
X136425Y198416D01*
X136244Y198536D01*
X136060Y198613D01*
X136060Y198613D01*
X136060Y198613D01*
X135850Y198654D01*
X135600Y198704D01*
X135600Y198704D01*
X135600Y198704D01*
X134917D01*
X134718Y198665D01*
X134517Y198636D01*
X134081Y198482D01*
X134052Y198466D01*
X134019Y198459D01*
X133851Y198346D01*
X133676Y198243D01*
X133656Y198216D01*
X133629Y198198D01*
X133516Y198029D01*
X133394Y197867D01*
X133386Y197835D01*
X133368Y197807D01*
X133328Y197608D01*
X133308Y197528D01*
X129184D01*
X129152Y197605D01*
X129067Y197690D01*
X129001Y197789D01*
X128903Y197854D01*
X128820Y197938D01*
X128321Y198272D01*
X128215Y198316D01*
X128119Y198381D01*
X128113Y198382D01*
X128110Y198383D01*
X127998Y198406D01*
X127887Y198452D01*
X127772Y198452D01*
X127658Y198475D01*
X127656Y198475D01*
X127653Y198475D01*
X127650Y198475D01*
X127534Y198452D01*
X127418Y198452D01*
X127312Y198409D01*
X127195Y198386D01*
X127192Y198384D01*
X127189Y198383D01*
X127088Y198316D01*
X126983Y198273D01*
X126905Y198195D01*
X126803Y198127D01*
X126801Y198124D01*
X126798Y198123D01*
X126377Y197701D01*
X126116Y197310D01*
X125887Y196759D01*
X125796Y196298D01*
Y188911D01*
X124031D01*
Y197528D01*
X120296D01*
Y198935D01*
X120408Y199500D01*
X120225Y200422D01*
X119703Y201203D01*
X118922Y201725D01*
X118000Y201908D01*
X117078Y201725D01*
X116297Y201203D01*
X115775Y200422D01*
X115761Y200349D01*
X115663Y200203D01*
X115479Y199281D01*
Y196515D01*
X115663Y195594D01*
X116185Y194812D01*
X117338Y193659D01*
X117339Y193659D01*
Y188472D01*
X119220D01*
X119372Y187972D01*
X119206Y187862D01*
X119122Y187778D01*
X119024Y187712D01*
X118495Y187184D01*
X118429Y187085D01*
X118345Y187001D01*
X117930Y186380D01*
X117885Y186270D01*
X117819Y186172D01*
X117533Y185481D01*
X117510Y185365D01*
X117465Y185256D01*
X117319Y184523D01*
Y184404D01*
X117296Y184288D01*
Y183914D01*
Y164702D01*
X117359Y164382D01*
X117295Y163882D01*
X117295D01*
Y157725D01*
X116317D01*
X115395Y157542D01*
X114614Y157020D01*
X113502Y155909D01*
X113000D01*
X112078Y155725D01*
X111297Y155203D01*
X110775Y154422D01*
X110591Y153500D01*
X110775Y152578D01*
X111297Y151797D01*
X112078Y151275D01*
X112459Y151199D01*
X112587Y150752D01*
X112587Y150664D01*
Y138547D01*
X124791D01*
Y150752D01*
X124037D01*
X123594Y150890D01*
X123594Y151252D01*
Y162296D01*
X126350D01*
Y150890D01*
X132650D01*
Y162533D01*
X132651Y162533D01*
X132836Y162554D01*
X132880Y162578D01*
X132929Y162588D01*
X133084Y162692D01*
X133247Y162782D01*
X133263Y162796D01*
X135406D01*
Y152094D01*
X135149Y151922D01*
X134887Y151532D01*
X134796Y151071D01*
Y146559D01*
X134790Y146503D01*
X134726Y146349D01*
X134651Y146274D01*
X134497Y146210D01*
X134441Y146204D01*
X134202D01*
X133741Y146113D01*
X133189Y145884D01*
X132799Y145623D01*
X132779Y145604D01*
X132518Y145213D01*
X132476Y145003D01*
X132426Y144752D01*
X132518Y144291D01*
X132725Y143791D01*
X132986Y143400D01*
X133366Y143147D01*
Y140775D01*
X132089Y139498D01*
X132089Y139498D01*
X127498Y134907D01*
X118689D01*
X118485Y134866D01*
X112587D01*
Y130732D01*
Y127583D01*
Y124433D01*
Y121283D01*
Y118134D01*
X118485D01*
X118689Y118093D01*
X125784D01*
X128769Y115109D01*
X128775Y115078D01*
X129297Y114297D01*
X130078Y113775D01*
X131000Y113592D01*
X131922Y113775D01*
X132703Y114297D01*
X133225Y115078D01*
X133408Y116000D01*
X133225Y116922D01*
X132703Y117703D01*
X131922Y118225D01*
X131891Y118231D01*
X128360Y121762D01*
X127644Y122240D01*
X126799Y122409D01*
X126295Y122308D01*
X124791D01*
Y124393D01*
X128127D01*
X144653Y107867D01*
X144939Y107439D01*
X145655Y106960D01*
X146500Y106792D01*
X192847D01*
X193692Y106960D01*
X194408Y107439D01*
X195561Y108592D01*
X196040Y109308D01*
X196208Y110153D01*
Y115913D01*
X197937D01*
Y122500D01*
X197937Y123000D01*
X197937D01*
Y123000D01*
X197937D01*
Y130087D01*
X195817D01*
Y130205D01*
X195649Y131050D01*
X195171Y131766D01*
X193168Y133769D01*
Y134664D01*
X193627Y134830D01*
X193671D01*
X193846Y134602D01*
X194442Y134145D01*
X195137Y133857D01*
X195882Y133759D01*
X196627Y133857D01*
X197321Y134145D01*
X197918Y134602D01*
X198142Y134894D01*
X198772D01*
X198897Y134731D01*
X199455Y134303D01*
X200105Y134033D01*
X200303Y134007D01*
Y140870D01*
Y147733D01*
X200105Y147707D01*
X199455Y147437D01*
X198897Y147009D01*
X198772Y146846D01*
X198142D01*
X197918Y147138D01*
X197321Y147596D01*
X196627Y147883D01*
X195882Y147981D01*
X195137Y147883D01*
X194442Y147596D01*
X193846Y147138D01*
X193671Y146910D01*
X193171D01*
X192996Y147138D01*
X192400Y147596D01*
X191706Y147883D01*
X190961Y147981D01*
X190216Y147883D01*
X189521Y147596D01*
X188925Y147138D01*
X188750Y146910D01*
X188250D01*
X188075Y147138D01*
X187479Y147596D01*
X186785Y147883D01*
X186039Y147981D01*
X185294Y147883D01*
X184600Y147596D01*
X184004Y147138D01*
X183829Y146910D01*
X183329D01*
X183154Y147138D01*
X182558Y147596D01*
X181863Y147883D01*
X181118Y147981D01*
X180373Y147883D01*
X179679Y147596D01*
X179082Y147138D01*
X178908Y146910D01*
X178408D01*
X178233Y147138D01*
X177636Y147596D01*
X176942Y147883D01*
X176197Y147981D01*
X175452Y147883D01*
X174757Y147596D01*
X174161Y147138D01*
X173986Y146910D01*
X173486D01*
X173311Y147138D01*
X172715Y147596D01*
X172021Y147883D01*
X171958Y147891D01*
X171648Y148437D01*
X171793Y148786D01*
X171891Y149531D01*
X171793Y150277D01*
X171505Y150971D01*
X171047Y151567D01*
X170820Y151742D01*
Y152242D01*
X171047Y152417D01*
X171505Y153013D01*
X171793Y153708D01*
X171891Y154453D01*
X171793Y155198D01*
X171505Y155892D01*
X171047Y156489D01*
X170820Y156663D01*
Y157163D01*
X171047Y157338D01*
X171505Y157934D01*
X171793Y158629D01*
X171891Y159374D01*
X171793Y160119D01*
X171505Y160813D01*
X171047Y161410D01*
X171075Y161995D01*
X171276Y162190D01*
X173155D01*
X173181Y162172D01*
X174102Y161989D01*
X175024Y162172D01*
X175805Y162695D01*
X176328Y163476D01*
X176511Y164398D01*
X176328Y165319D01*
X175805Y166101D01*
X175024Y166623D01*
X174102Y166806D01*
X173181Y166623D01*
X173155Y166605D01*
X171117D01*
X170986Y166769D01*
X170918Y167310D01*
X171347Y167868D01*
X171616Y168519D01*
X171642Y168717D01*
X157917D01*
X157943Y168519D01*
X158212Y167868D01*
X158641Y167310D01*
X158803Y167185D01*
Y166555D01*
X158511Y166331D01*
X158054Y165735D01*
X157766Y165040D01*
X157668Y164295D01*
X157766Y163550D01*
X158054Y162856D01*
X158511Y162259D01*
X158739Y162085D01*
Y162041D01*
X158573Y161582D01*
X157874D01*
X157029Y161414D01*
X156313Y160935D01*
X148939Y153561D01*
X148460Y152845D01*
X148292Y152000D01*
Y130087D01*
X147814D01*
Y125231D01*
X147314Y124963D01*
X146922Y125225D01*
X146000Y125408D01*
X145078Y125225D01*
X144297Y124703D01*
X143775Y123922D01*
X143591Y123000D01*
X143775Y122078D01*
X143792Y122052D01*
Y120950D01*
X143960Y120105D01*
X144439Y119389D01*
X145592Y118236D01*
X146308Y117757D01*
X147153Y117589D01*
X147814D01*
Y115913D01*
X156081D01*
Y122606D01*
X148724D01*
X148407Y122993D01*
X148408Y123000D01*
X148407Y123007D01*
X148724Y123394D01*
X150958D01*
X151103Y123297D01*
X151947Y123129D01*
X152792Y123297D01*
X152937Y123394D01*
X156081D01*
Y123836D01*
X158709D01*
X159063Y123482D01*
X159063Y123000D01*
X159063D01*
Y123000D01*
X159063D01*
Y115913D01*
X160792D01*
Y114415D01*
X157586Y111208D01*
X147273D01*
X132833Y125648D01*
X132997Y126190D01*
X133422Y126275D01*
X134203Y126797D01*
X134725Y127578D01*
X134908Y128500D01*
X134725Y129422D01*
X134499Y129760D01*
X134766Y130260D01*
X141634D01*
Y131091D01*
X143434D01*
X144140Y130951D01*
X145062Y131134D01*
X145844Y131657D01*
X146366Y132438D01*
X146549Y133360D01*
X146366Y134281D01*
X145844Y135063D01*
X145703Y135203D01*
X144922Y135725D01*
X144000Y135908D01*
X141634D01*
Y136672D01*
X141652Y136730D01*
X141834Y136970D01*
X142058Y137137D01*
X142084Y137134D01*
X142246Y137186D01*
X142414Y137219D01*
X142469Y137256D01*
X142532Y137276D01*
X142663Y137385D01*
X142804Y137480D01*
X143123Y137799D01*
X143384Y138189D01*
X143613Y138741D01*
X143704Y139202D01*
Y144199D01*
X143613Y144660D01*
X143460Y145027D01*
X143199Y145418D01*
X142918Y145699D01*
X142674Y145862D01*
X142527Y145960D01*
X142160Y146113D01*
X141704Y146203D01*
Y150890D01*
X141705D01*
Y162796D01*
X142398D01*
X142859Y162887D01*
X143594Y163192D01*
X143984Y163453D01*
X144547Y164016D01*
X144703Y164250D01*
X144808Y164406D01*
X145113Y165141D01*
X145204Y165602D01*
Y179919D01*
X145704Y180126D01*
X147366Y178464D01*
Y174894D01*
X155634D01*
Y181587D01*
X150488D01*
X149208Y182867D01*
Y189000D01*
X149176Y189161D01*
X149493Y189547D01*
X151740D01*
Y193000D01*
X149075D01*
Y190692D01*
X148575Y190541D01*
X148561Y190561D01*
X148149Y190973D01*
Y192032D01*
X148106Y192245D01*
Y197634D01*
X147361D01*
Y199866D01*
X148106D01*
Y208134D01*
X141604D01*
X140103Y209635D01*
Y210748D01*
X140153Y211000D01*
X139969Y211922D01*
X139447Y212703D01*
X139323Y212786D01*
X139475Y213286D01*
X152251D01*
X152518Y212786D01*
X152275Y212422D01*
X152092Y211500D01*
X152275Y210578D01*
X152797Y209797D01*
X153578Y209275D01*
X154500Y209091D01*
X155422Y209275D01*
X155448Y209292D01*
X157086D01*
X157683Y208695D01*
X157668Y208587D01*
X157766Y207841D01*
X158054Y207147D01*
X158511Y206551D01*
X158803Y206327D01*
Y205697D01*
X158641Y205572D01*
X158212Y205013D01*
X157943Y204363D01*
X157917Y204165D01*
X171642D01*
X171616Y204363D01*
X171347Y205013D01*
X170918Y205572D01*
X170756Y205697D01*
Y206327D01*
X171047Y206551D01*
X171505Y207147D01*
X171793Y207841D01*
X171891Y208587D01*
X171793Y209332D01*
X171505Y210026D01*
X171047Y210622D01*
X170451Y211080D01*
X169757Y211368D01*
X169012Y211466D01*
X161157D01*
X159836Y212786D01*
X160043Y213286D01*
X254290D01*
X256786Y210790D01*
D02*
G37*
G36*
X135783Y197424D02*
X135924Y197283D01*
X136000Y197099D01*
Y191000D01*
X136029Y190707D01*
X136253Y190167D01*
X136667Y189753D01*
X137207Y189529D01*
X137500Y189500D01*
X141413D01*
Y189366D01*
X142721D01*
X143133Y189196D01*
X143695Y188633D01*
X144000Y187898D01*
Y187500D01*
Y166000D01*
Y165602D01*
X143695Y164867D01*
X143133Y164304D01*
X142398Y164000D01*
X133000D01*
X132902Y163990D01*
X132722Y163916D01*
X132468Y163701D01*
X130000D01*
Y157386D01*
X129000D01*
Y163701D01*
X126532D01*
Y163500D01*
X123594D01*
Y163882D01*
X118997D01*
X118728Y164150D01*
X118500Y164702D01*
Y183914D01*
Y184288D01*
X118646Y185021D01*
X118932Y185711D01*
X119347Y186332D01*
X119875Y186860D01*
X120496Y187275D01*
X121186Y187561D01*
X121919Y187707D01*
X126207D01*
X126362Y187722D01*
X126648Y187841D01*
X126866Y188059D01*
X126985Y188345D01*
X127000Y188500D01*
Y196298D01*
X127228Y196850D01*
X127650Y197271D01*
X127651Y197271D01*
X128150Y196937D01*
Y193500D01*
X131315D01*
X134480D01*
Y197000D01*
X134480Y197346D01*
X134917Y197500D01*
X135600D01*
X135783Y197424D01*
D02*
G37*
G36*
X139055Y151071D02*
X140500D01*
Y146000D01*
X140519Y145805D01*
X140668Y145444D01*
X140944Y145168D01*
X141305Y145019D01*
X141500Y145000D01*
X141699D01*
X142067Y144848D01*
X142348Y144567D01*
X142500Y144199D01*
Y139202D01*
X142272Y138650D01*
X141953Y138331D01*
X141496Y138464D01*
X141453Y138494D01*
Y140587D01*
X137500D01*
Y141087D01*
X137000D01*
Y144252D01*
X133838D01*
X133631Y144752D01*
X133650Y144772D01*
X134202Y145000D01*
X134500D01*
X134793Y145029D01*
X135333Y145253D01*
X135747Y145667D01*
X135971Y146207D01*
X136000Y146500D01*
Y151071D01*
X138055D01*
Y157386D01*
X139055D01*
Y151071D01*
D02*
G37*
%LPC*%
G36*
X155405Y207953D02*
X152740D01*
Y204500D01*
X155405D01*
Y207953D01*
D02*
G37*
G36*
X151740D02*
X149075D01*
Y204500D01*
X151740D01*
Y207953D01*
D02*
G37*
G36*
X155405Y203500D02*
X152740D01*
Y200047D01*
X155405D01*
Y203500D01*
D02*
G37*
G36*
X151740D02*
X149075D01*
Y200047D01*
X151740D01*
Y203500D01*
D02*
G37*
G36*
X171642Y203165D02*
X157917D01*
X157943Y202968D01*
X158212Y202317D01*
X158641Y201759D01*
X158972Y201505D01*
X158980Y201490D01*
Y200920D01*
X158972Y200905D01*
X158641Y200651D01*
X158212Y200092D01*
X157943Y199442D01*
X157917Y199244D01*
X171642D01*
X171616Y199442D01*
X171347Y200092D01*
X170918Y200651D01*
X170588Y200905D01*
X170579Y200920D01*
Y201490D01*
X170588Y201505D01*
X170918Y201759D01*
X171347Y202317D01*
X171616Y202968D01*
X171642Y203165D01*
D02*
G37*
G36*
X155405Y197453D02*
X152740D01*
Y194000D01*
X155405D01*
Y197453D01*
D02*
G37*
G36*
X151740D02*
X149075D01*
Y194000D01*
X151740D01*
Y197453D01*
D02*
G37*
G36*
X155405Y193000D02*
X152740D01*
Y189547D01*
X155405D01*
Y193000D01*
D02*
G37*
G36*
X216453Y191780D02*
X207988D01*
X207243Y191682D01*
X206549Y191395D01*
X205953Y190937D01*
X205495Y190341D01*
X205207Y189647D01*
X205109Y188902D01*
X205207Y188156D01*
X205495Y187462D01*
X205953Y186866D01*
X206180Y186691D01*
Y186191D01*
X205953Y186016D01*
X205495Y185420D01*
X205207Y184725D01*
X205109Y183980D01*
X205207Y183235D01*
X205495Y182541D01*
X205953Y181945D01*
X206180Y181770D01*
Y181270D01*
X205953Y181095D01*
X205495Y180499D01*
X205207Y179804D01*
X205109Y179059D01*
X205207Y178314D01*
X205495Y177620D01*
X205953Y177023D01*
X206180Y176848D01*
Y176348D01*
X205953Y176173D01*
X205495Y175577D01*
X205207Y174883D01*
X205109Y174138D01*
X205207Y173393D01*
X205495Y172698D01*
X205953Y172102D01*
X206180Y171927D01*
Y171427D01*
X205953Y171252D01*
X205495Y170656D01*
X205207Y169962D01*
X205109Y169217D01*
X205207Y168471D01*
X205495Y167777D01*
X205953Y167181D01*
X206180Y167006D01*
Y166506D01*
X205953Y166331D01*
X205495Y165735D01*
X205207Y165040D01*
X205109Y164295D01*
X205207Y163550D01*
X205495Y162856D01*
X205953Y162259D01*
X206180Y162085D01*
Y161585D01*
X205953Y161410D01*
X205495Y160813D01*
X205207Y160119D01*
X205109Y159374D01*
X205207Y158629D01*
X205495Y157934D01*
X205953Y157338D01*
X206180Y157163D01*
Y156663D01*
X205953Y156489D01*
X205495Y155892D01*
X205207Y155198D01*
X205109Y154453D01*
X205207Y153708D01*
X205495Y153013D01*
X205953Y152417D01*
X206180Y152242D01*
Y151742D01*
X205953Y151567D01*
X205495Y150971D01*
X205207Y150277D01*
X205109Y149531D01*
X205207Y148786D01*
X205352Y148437D01*
X205042Y147891D01*
X204979Y147883D01*
X204285Y147596D01*
X203689Y147138D01*
X203465Y146846D01*
X202835D01*
X202710Y147009D01*
X202151Y147437D01*
X201501Y147707D01*
X201303Y147733D01*
Y140870D01*
Y134007D01*
X201501Y134033D01*
X202151Y134303D01*
X202710Y134731D01*
X202835Y134894D01*
X203465D01*
X203689Y134602D01*
X204285Y134145D01*
X204979Y133857D01*
X205724Y133759D01*
X206469Y133857D01*
X207164Y134145D01*
X207760Y134602D01*
X208218Y135198D01*
X208262Y135304D01*
X208759Y135353D01*
X208797Y135297D01*
X209578Y134775D01*
X210500Y134591D01*
X211422Y134775D01*
X212203Y135297D01*
X212725Y136078D01*
X212909Y137000D01*
X212725Y137922D01*
X212708Y137948D01*
Y138500D01*
X212540Y139345D01*
X212061Y140061D01*
X210758Y141364D01*
X210042Y141842D01*
X209197Y142010D01*
X208603D01*
Y145102D01*
X208505Y145847D01*
X208379Y146152D01*
X208713Y146652D01*
X216453D01*
X217198Y146751D01*
X217892Y147038D01*
X218489Y147496D01*
X218946Y148092D01*
X219234Y148786D01*
X219332Y149531D01*
X219234Y150277D01*
X218946Y150971D01*
X218554Y151481D01*
X218695Y151981D01*
X228396D01*
X239952Y140425D01*
X239830Y139500D01*
X239973Y138421D01*
X240389Y137415D01*
X241052Y136552D01*
X241915Y135889D01*
X242921Y135473D01*
X244000Y135330D01*
X245079Y135473D01*
X246085Y135889D01*
X246948Y136552D01*
X247611Y137415D01*
X248027Y138421D01*
X248169Y139500D01*
X248027Y140579D01*
X247611Y141585D01*
X246948Y142448D01*
X246085Y143111D01*
X245079Y143527D01*
X244000Y143669D01*
X243075Y143548D01*
X230872Y155750D01*
X230156Y156229D01*
X229311Y156397D01*
X218602D01*
X218363Y156692D01*
X218554Y157166D01*
X232712D01*
X239894Y149984D01*
X239830Y149500D01*
X239973Y148421D01*
X240389Y147415D01*
X241052Y146552D01*
X241915Y145889D01*
X242921Y145473D01*
X244000Y145331D01*
X245079Y145473D01*
X246085Y145889D01*
X246948Y146552D01*
X247611Y147415D01*
X248027Y148421D01*
X248169Y149500D01*
X248027Y150579D01*
X247611Y151585D01*
X246948Y152448D01*
X246085Y153111D01*
X245079Y153527D01*
X244000Y153670D01*
X242921Y153527D01*
X242690Y153432D01*
X235187Y160935D01*
X234471Y161414D01*
X233626Y161582D01*
X219006D01*
X218864Y161835D01*
X219006Y162088D01*
X238290D01*
X239952Y160425D01*
X239830Y159500D01*
X239973Y158421D01*
X240389Y157415D01*
X241052Y156552D01*
X241915Y155889D01*
X242921Y155473D01*
X244000Y155331D01*
X245079Y155473D01*
X246085Y155889D01*
X246948Y156552D01*
X247611Y157415D01*
X248027Y158421D01*
X248169Y159500D01*
X248027Y160579D01*
X247611Y161585D01*
X246948Y162448D01*
X246085Y163111D01*
X245079Y163527D01*
X244000Y163670D01*
X243075Y163548D01*
X240766Y165856D01*
X240050Y166335D01*
X239205Y166503D01*
X218487D01*
X218310Y166955D01*
X218447Y167123D01*
X218642Y167292D01*
X240483D01*
X241052Y166552D01*
X241915Y165889D01*
X242921Y165473D01*
X244000Y165331D01*
X245079Y165473D01*
X246085Y165889D01*
X246948Y166552D01*
X247611Y167415D01*
X248027Y168421D01*
X248169Y169500D01*
X248027Y170579D01*
X247611Y171585D01*
X246948Y172448D01*
X246085Y173111D01*
X245079Y173527D01*
X244000Y173670D01*
X242921Y173527D01*
X241915Y173111D01*
X241052Y172448D01*
X240483Y171708D01*
X218729D01*
X218570Y172208D01*
X218946Y172698D01*
X219234Y173393D01*
X219332Y174138D01*
X219234Y174883D01*
X218946Y175577D01*
X218489Y176173D01*
X218261Y176348D01*
Y176848D01*
X218489Y177023D01*
X218946Y177620D01*
X219234Y178314D01*
X219312Y178912D01*
X219787Y179145D01*
X220993Y177939D01*
X221709Y177460D01*
X222554Y177292D01*
X240483D01*
X241052Y176552D01*
X241915Y175889D01*
X242921Y175473D01*
X244000Y175330D01*
X245079Y175473D01*
X246085Y175889D01*
X246948Y176552D01*
X247611Y177415D01*
X248027Y178421D01*
X248169Y179500D01*
X248027Y180579D01*
X247611Y181585D01*
X246948Y182448D01*
X246085Y183111D01*
X245079Y183527D01*
X244000Y183669D01*
X242921Y183527D01*
X241915Y183111D01*
X241052Y182448D01*
X240483Y181708D01*
X223468D01*
X219930Y185246D01*
X219214Y185725D01*
X218622Y185843D01*
X218489Y186016D01*
X218520Y186600D01*
X218719Y186792D01*
X219052D01*
X219078Y186775D01*
X220000Y186591D01*
X220922Y186775D01*
X221703Y187297D01*
X222225Y188078D01*
X222409Y189000D01*
X222225Y189922D01*
X221703Y190703D01*
X220922Y191225D01*
X220000Y191409D01*
X219078Y191225D01*
X219052Y191208D01*
X218136D01*
X217892Y191395D01*
X217198Y191682D01*
X216453Y191780D01*
D02*
G37*
G36*
X155453Y173925D02*
X152000D01*
Y171260D01*
X155453D01*
Y173925D01*
D02*
G37*
G36*
X151000D02*
X147547D01*
Y171260D01*
X151000D01*
Y173925D01*
D02*
G37*
G36*
X171642Y198244D02*
X157917D01*
X157943Y198046D01*
X158212Y197396D01*
X158641Y196837D01*
X158803Y196713D01*
Y196082D01*
X158511Y195859D01*
X158054Y195262D01*
X157766Y194568D01*
X157668Y193823D01*
X157766Y193078D01*
X158054Y192383D01*
X158511Y191787D01*
X158739Y191612D01*
Y191112D01*
X158511Y190937D01*
X158054Y190341D01*
X157766Y189647D01*
X157668Y188902D01*
X157766Y188156D01*
X158054Y187462D01*
X158511Y186866D01*
X158739Y186691D01*
Y186191D01*
X158511Y186016D01*
X158054Y185420D01*
X157766Y184725D01*
X157668Y183980D01*
X157766Y183235D01*
X158054Y182541D01*
X158511Y181945D01*
X158739Y181770D01*
Y181270D01*
X158511Y181095D01*
X158054Y180499D01*
X157766Y179804D01*
X157668Y179059D01*
X157766Y178314D01*
X158054Y177620D01*
X158511Y177023D01*
X158739Y176848D01*
Y176348D01*
X158511Y176173D01*
X158054Y175577D01*
X157766Y174883D01*
X157668Y174138D01*
X157766Y173393D01*
X158054Y172698D01*
X158511Y172102D01*
X158803Y171878D01*
Y171248D01*
X158641Y171123D01*
X158212Y170565D01*
X157943Y169914D01*
X157917Y169717D01*
X171642D01*
X171616Y169914D01*
X171347Y170565D01*
X170918Y171123D01*
X170756Y171248D01*
Y171878D01*
X171047Y172102D01*
X171505Y172698D01*
X171793Y173393D01*
X171891Y174138D01*
X171793Y174883D01*
X171505Y175577D01*
X171047Y176173D01*
X170820Y176348D01*
Y176848D01*
X171047Y177023D01*
X171505Y177620D01*
X171793Y178314D01*
X171891Y179059D01*
X171793Y179804D01*
X171505Y180499D01*
X171047Y181095D01*
X170820Y181270D01*
Y181770D01*
X171047Y181945D01*
X171505Y182541D01*
X171793Y183235D01*
X171891Y183980D01*
X171793Y184725D01*
X171505Y185420D01*
X171047Y186016D01*
X170820Y186191D01*
Y186691D01*
X171047Y186866D01*
X171505Y187462D01*
X171793Y188156D01*
X171891Y188902D01*
X171793Y189647D01*
X171505Y190341D01*
X171047Y190937D01*
X170820Y191112D01*
Y191612D01*
X171047Y191787D01*
X171505Y192383D01*
X171793Y193078D01*
X171891Y193823D01*
X171793Y194568D01*
X171505Y195262D01*
X171047Y195859D01*
X170756Y196082D01*
Y196713D01*
X170918Y196837D01*
X171347Y197396D01*
X171616Y198046D01*
X171642Y198244D01*
D02*
G37*
G36*
X155453Y170260D02*
X152000D01*
Y167595D01*
X155453D01*
Y170260D01*
D02*
G37*
G36*
X151000D02*
X147547D01*
Y167595D01*
X151000D01*
Y170260D01*
D02*
G37*
G36*
X103217Y150752D02*
X91012D01*
Y138547D01*
X103217D01*
Y150752D01*
D02*
G37*
G36*
X108807Y138140D02*
X108036Y138038D01*
X107318Y137741D01*
X106701Y137267D01*
X106228Y136651D01*
X105930Y135932D01*
X105829Y135161D01*
X105930Y134391D01*
X106228Y133672D01*
X106701Y133055D01*
X107318Y132582D01*
X108036Y132285D01*
X108807Y132183D01*
X109578Y132285D01*
X110296Y132582D01*
X110913Y133055D01*
X111386Y133672D01*
X111684Y134391D01*
X111785Y135161D01*
X111684Y135932D01*
X111386Y136651D01*
X110913Y137267D01*
X110296Y137741D01*
X109578Y138038D01*
X108807Y138140D01*
D02*
G37*
G36*
X219862Y132252D02*
X217000D01*
Y129095D01*
X219862D01*
Y132252D01*
D02*
G37*
G36*
X216000D02*
X213138D01*
Y129095D01*
X216000D01*
Y132252D01*
D02*
G37*
G36*
X208453Y129905D02*
X205000D01*
Y127240D01*
X208453D01*
Y129905D01*
D02*
G37*
G36*
X204000D02*
X200547D01*
Y127240D01*
X204000D01*
Y129905D01*
D02*
G37*
G36*
X244000Y133669D02*
X242921Y133527D01*
X241915Y133111D01*
X241052Y132448D01*
X240389Y131585D01*
X239973Y130579D01*
X239830Y129500D01*
X239973Y128421D01*
X240389Y127415D01*
X241052Y126552D01*
X241915Y125889D01*
X242921Y125473D01*
X244000Y125330D01*
X245079Y125473D01*
X246085Y125889D01*
X246948Y126552D01*
X247611Y127415D01*
X248027Y128421D01*
X248169Y129500D01*
X248027Y130579D01*
X247611Y131585D01*
X246948Y132448D01*
X246085Y133111D01*
X245079Y133527D01*
X244000Y133669D01*
D02*
G37*
G36*
X219862Y128094D02*
X217000D01*
Y124937D01*
X219862D01*
Y128094D01*
D02*
G37*
G36*
X216000D02*
X213138D01*
Y124937D01*
X216000D01*
Y128094D01*
D02*
G37*
G36*
X208453Y126240D02*
X205000D01*
Y123575D01*
X208453D01*
Y126240D01*
D02*
G37*
G36*
X204000D02*
X200547D01*
Y123575D01*
X204000D01*
Y126240D01*
D02*
G37*
G36*
X224500Y125177D02*
X223678Y125068D01*
X222912Y124751D01*
X222254Y124246D01*
X221749Y123588D01*
X221431Y122822D01*
X221323Y122000D01*
X221390Y121491D01*
X221175Y121325D01*
X219116Y119266D01*
X217484D01*
X217317Y119244D01*
X212957D01*
Y111567D01*
X220043D01*
Y114104D01*
X220185D01*
X220853Y114192D01*
X221476Y114450D01*
X222010Y114860D01*
X224069Y116919D01*
X239866D01*
Y115366D01*
X248134D01*
Y123634D01*
X239866D01*
Y122081D01*
X227666D01*
X227569Y122822D01*
X227251Y123588D01*
X226746Y124246D01*
X226088Y124751D01*
X225322Y125068D01*
X224500Y125177D01*
D02*
G37*
G36*
X108807Y120817D02*
X108036Y120715D01*
X107318Y120418D01*
X106701Y119945D01*
X106228Y119328D01*
X105930Y118609D01*
X105829Y117839D01*
X105930Y117068D01*
X106228Y116349D01*
X106701Y115733D01*
X107318Y115259D01*
X108036Y114962D01*
X108807Y114860D01*
X109578Y114962D01*
X110296Y115259D01*
X110913Y115733D01*
X111386Y116349D01*
X111684Y117068D01*
X111785Y117839D01*
X111684Y118609D01*
X111386Y119328D01*
X110913Y119945D01*
X110296Y120418D01*
X109578Y120715D01*
X108807Y120817D01*
D02*
G37*
G36*
X208634Y122606D02*
X200366D01*
Y115913D01*
X202292D01*
Y114448D01*
X202275Y114422D01*
X202092Y113500D01*
X202275Y112578D01*
X202797Y111797D01*
X203578Y111275D01*
X204500Y111091D01*
X205422Y111275D01*
X206203Y111797D01*
X206725Y112578D01*
X206908Y113500D01*
X206725Y114422D01*
X206708Y114448D01*
Y115913D01*
X208634D01*
Y122606D01*
D02*
G37*
G36*
X124791Y114453D02*
X112587D01*
Y102248D01*
X124791D01*
Y114453D01*
D02*
G37*
G36*
X103217D02*
X91012D01*
Y102248D01*
X103217D01*
Y114453D01*
D02*
G37*
G36*
X134480Y192500D02*
X131815D01*
Y188654D01*
X134480D01*
Y192500D01*
D02*
G37*
G36*
X130815D02*
X128150D01*
Y188654D01*
X130815D01*
Y192500D01*
D02*
G37*
G36*
X136996Y186929D02*
X130000D01*
Y181114D01*
X136996D01*
Y186929D01*
D02*
G37*
G36*
X129000D02*
X122004D01*
Y181114D01*
X129000D01*
Y186929D01*
D02*
G37*
G36*
X141000Y181428D02*
Y179000D01*
X143428D01*
X143392Y179275D01*
X143093Y179997D01*
X142617Y180617D01*
X141997Y181093D01*
X141275Y181392D01*
X141000Y181428D01*
D02*
G37*
G36*
X140000D02*
X139725Y181392D01*
X139003Y181093D01*
X138383Y180617D01*
X137907Y179997D01*
X137608Y179275D01*
X137572Y179000D01*
X140000D01*
Y181428D01*
D02*
G37*
G36*
X143428Y178000D02*
X141000D01*
Y175572D01*
X141275Y175608D01*
X141997Y175907D01*
X142617Y176383D01*
X143093Y177003D01*
X143392Y177725D01*
X143428Y178000D01*
D02*
G37*
G36*
X140000D02*
X137572D01*
X137608Y177725D01*
X137907Y177003D01*
X138383Y176383D01*
X139003Y175907D01*
X139725Y175608D01*
X140000Y175572D01*
Y178000D01*
D02*
G37*
G36*
X136996Y180114D02*
X130000D01*
Y174299D01*
X136996D01*
Y180114D01*
D02*
G37*
G36*
X129000D02*
X122004D01*
Y174299D01*
X129000D01*
Y180114D01*
D02*
G37*
G36*
X141453Y144252D02*
X138000D01*
Y141587D01*
X141453D01*
Y144252D01*
D02*
G37*
%LPD*%
D14*
X212221Y188902D02*
D03*
Y183980D02*
D03*
Y179059D02*
D03*
Y174138D02*
D03*
Y169217D02*
D03*
Y164295D02*
D03*
Y159374D02*
D03*
Y154453D02*
D03*
Y149531D02*
D03*
X164779D02*
D03*
Y154453D02*
D03*
Y159374D02*
D03*
Y164295D02*
D03*
Y169217D02*
D03*
Y174138D02*
D03*
Y179059D02*
D03*
Y183980D02*
D03*
Y188902D02*
D03*
Y193823D02*
D03*
Y198744D02*
D03*
Y203665D02*
D03*
Y208587D02*
D03*
D15*
X205724Y140870D02*
D03*
X200803D02*
D03*
X195882D02*
D03*
X190961D02*
D03*
X186039D02*
D03*
X181118D02*
D03*
X176197D02*
D03*
X171276D02*
D03*
D16*
X120445Y157386D02*
D03*
X129500D02*
D03*
X138555D02*
D03*
D17*
X129500Y180614D02*
D03*
D18*
X131315Y193000D02*
D03*
X120685D02*
D03*
D19*
X118689Y132799D02*
D03*
Y129650D02*
D03*
Y126500D02*
D03*
Y123350D02*
D03*
Y120201D02*
D03*
D20*
Y144650D02*
D03*
Y108350D02*
D03*
X97114Y144650D02*
D03*
Y108350D02*
D03*
D21*
X163000Y126543D02*
D03*
Y119457D02*
D03*
X194000D02*
D03*
Y126543D02*
D03*
X173000D02*
D03*
Y119457D02*
D03*
D22*
X151500Y178240D02*
D03*
Y170760D02*
D03*
X137500Y133606D02*
D03*
Y141087D02*
D03*
X204500Y119260D02*
D03*
Y126740D02*
D03*
X151947Y119260D02*
D03*
Y126740D02*
D03*
X183500Y119260D02*
D03*
Y126740D02*
D03*
D23*
X144760Y193500D02*
D03*
X152240D02*
D03*
X144760Y204000D02*
D03*
X152240D02*
D03*
D24*
X216500Y128595D02*
D03*
Y115405D02*
D03*
D41*
X137819Y141625D02*
X138358Y142180D01*
X138555Y142929D01*
X137031Y141405D02*
X137819Y141625D01*
X129500Y157386D02*
Y161000D01*
X131315Y182429D02*
X132496D01*
X129500Y180614D02*
X131315Y182429D01*
X216500Y115701D02*
X217484Y116685D01*
X216500Y115405D02*
Y115701D01*
X138555Y142929D02*
Y157386D01*
X118689Y129650D02*
X131191D01*
X132340Y128500D01*
X118689Y126500D02*
X129000D01*
X146500Y109000D01*
X132340Y128500D02*
X132500D01*
X118689Y132799D02*
X128513D01*
X118689Y120201D02*
X126799D01*
D42*
X160913Y208587D02*
X164779D01*
X158000Y211500D02*
X160913Y208587D01*
X154500Y211500D02*
X158000D01*
X212122Y189000D02*
X220000D01*
X205724Y140439D02*
Y140870D01*
X212122Y189000D02*
X212221Y188902D01*
X211878Y189000D02*
X212122D01*
X212000Y189122D02*
X212122Y189000D01*
X164779Y164295D02*
X164882Y164398D01*
X174102D01*
X209197Y139803D02*
X210500Y138500D01*
X205724Y140439D02*
X206361Y139803D01*
X164779Y154453D02*
X164803Y154476D01*
X210500Y137000D02*
Y138500D01*
X206361Y139803D02*
X209197D01*
X211878Y189000D02*
X212000Y189122D01*
X135531Y139906D02*
X137031Y141405D01*
X147000Y181953D02*
Y189000D01*
Y181953D02*
X149531Y179421D01*
X146000Y190000D02*
X147000Y189000D01*
X146000Y190000D02*
Y190378D01*
X145941Y190437D02*
X146000Y190378D01*
X145941Y190437D02*
Y192032D01*
X145260Y192713D02*
X145941Y192032D01*
X218369Y183685D02*
X222554Y179500D01*
X244000D01*
X229311Y154189D02*
X244000Y139500D01*
X212484Y154189D02*
X229311D01*
X212221Y159374D02*
X233626D01*
X243500Y149500D02*
X244000D01*
X233626Y159374D02*
X243500Y149500D01*
X239205Y164295D02*
X244000Y159500D01*
X212221Y164295D02*
X239205D01*
X244000Y159500D02*
Y159500D01*
X212221Y169217D02*
X212484Y169480D01*
X217711Y169500D02*
X244000D01*
X212484Y169480D02*
X217691D01*
X217711Y169500D01*
X217691Y183717D02*
X217722Y183685D01*
X218369D01*
X133650Y137937D02*
X133650D01*
X135531Y139818D01*
Y139906D01*
X128513Y132799D02*
X133650Y137937D01*
X146000Y120950D02*
Y123000D01*
X147153Y119797D02*
X150794D01*
X146000Y120950D02*
X147153Y119797D01*
X131000Y116000D02*
X131000D01*
X126799Y120201D02*
X131000Y116000D01*
X183500Y114000D02*
Y119153D01*
X152181Y203665D02*
X164779D01*
X151847Y204000D02*
X152181Y203665D01*
X119504Y195362D02*
X120685Y194181D01*
X119041Y195362D02*
X119504D01*
X117888Y199281D02*
X118000Y199393D01*
X120685Y193000D02*
Y194181D01*
X118000Y199393D02*
Y199500D01*
X212221Y154453D02*
X212484Y154189D01*
X173500Y114000D02*
Y118457D01*
X173000Y118957D02*
X173500Y118457D01*
X204500Y113500D02*
Y119653D01*
X153421Y195452D02*
X155645D01*
X152740Y194771D02*
X153421Y195452D01*
X152740Y193970D02*
Y194771D01*
X158674Y198480D02*
X164516D01*
X155645Y195452D02*
X158674Y198480D01*
X164516D02*
X164779Y198744D01*
X149925Y179421D02*
X151500Y177847D01*
X149531Y179421D02*
X149925D01*
X145153Y195740D02*
X145500Y195394D01*
X146500Y109000D02*
X158500D01*
X150500Y126784D02*
Y152000D01*
X157874Y159374D01*
X150500Y126784D02*
X151947Y125337D01*
X171228Y127421D02*
X172606Y126043D01*
X155758Y143242D02*
Y151284D01*
Y143242D02*
X171228Y127772D01*
X172606Y126043D02*
X173000D01*
X171228Y127421D02*
Y127772D01*
X154893Y126043D02*
X163000D01*
X154893Y126043D02*
X154893D01*
X154893Y126043D01*
X200803Y129650D02*
Y140870D01*
Y129650D02*
X204106Y126347D01*
X204500D01*
X151500Y171153D02*
X157405D01*
X159079Y169480D01*
X164516D01*
X164779Y169217D01*
X172606Y126043D02*
X181232D01*
X192847Y109000D02*
X194000Y110153D01*
Y118957D01*
X158500Y109000D02*
X192847D01*
X158500D02*
X163000Y113500D01*
X145153Y195740D02*
Y204032D01*
X143579Y205606D02*
X145153Y204032D01*
X137895Y208721D02*
Y210849D01*
X141009Y205606D02*
X143579D01*
X137895Y208721D02*
X141009Y205606D01*
X181232Y126043D02*
X182819Y127630D01*
X184000D01*
X159278Y154157D02*
X159309Y154189D01*
X155758Y151284D02*
X158631Y154157D01*
X159278D01*
X159309Y154189D02*
X160717D01*
X163000Y113500D02*
Y118957D01*
X190961Y132854D02*
Y140870D01*
X193610Y126434D02*
X194000Y126043D01*
X193610Y126434D02*
Y130205D01*
X190961Y132854D02*
X193610Y130205D01*
X157874Y159374D02*
X164779D01*
X160717Y154189D02*
X160981Y154453D01*
X212221Y183980D02*
X212484Y183717D01*
X217691D01*
X243595Y129095D02*
X244000Y129500D01*
X137744Y211000D02*
X137895Y210849D01*
D43*
X129500Y161000D02*
Y180614D01*
D44*
X119658Y155317D02*
X120445Y156104D01*
X113000Y153500D02*
X114500D01*
X116317Y155317D01*
X119658D01*
X120445Y156104D02*
Y157386D01*
X137500Y133606D02*
X137606Y133500D01*
X144000D02*
X144140Y133360D01*
X137606Y133500D02*
X144000D01*
X117888Y196515D02*
X119041Y195362D01*
X117888Y196515D02*
Y199281D01*
D45*
X136567Y186500D02*
X140500Y182567D01*
X132496Y182429D02*
X136567Y186500D01*
X140500Y178500D02*
Y182567D01*
X223000Y119500D02*
X244000D01*
X217484Y116685D02*
X220185D01*
X223000Y119500D01*
X131315Y182429D02*
Y193000D01*
D46*
X108807Y135161D02*
D03*
Y117839D02*
D03*
D47*
X244000Y139500D02*
D03*
Y129500D02*
D03*
Y149500D02*
D03*
Y159500D02*
D03*
Y169500D02*
D03*
Y179500D02*
D03*
D48*
Y119500D02*
D03*
D49*
X220000Y189000D02*
D03*
X154500Y211500D02*
D03*
X174102Y164398D02*
D03*
X210500Y137000D02*
D03*
X113000Y153500D02*
D03*
X146000Y123000D02*
D03*
X132500Y128500D02*
D03*
X131000Y116000D02*
D03*
X183500Y114000D02*
D03*
X118000Y199500D02*
D03*
X173500Y114000D02*
D03*
X204500Y113500D02*
D03*
X144140Y133360D02*
D03*
X137744Y211000D02*
D03*
D50*
X140500Y178500D02*
D03*
X224500Y122000D02*
D03*
M02*
