G04*
G04 #@! TF.GenerationSoftware,Altium Limited,Altium Designer,21.0.9 (235)*
G04*
G04 Layer_Color=32768*
%FSLAX25Y25*%
%MOIN*%
G70*
G04*
G04 #@! TF.SameCoordinates,28F69A72-3BD6-4D5A-B4D2-E5632D31EE07*
G04*
G04*
G04 #@! TF.FilePolarity,Positive*
G04*
G01*
G75*
%ADD12C,0.00394*%
%ADD53C,0.00197*%
D12*
X188500Y174531D02*
Y178469D01*
X186531Y176500D02*
X190469D01*
X114342Y150102D02*
X144658D01*
X114342Y187898D02*
X144658D01*
X114342Y150102D02*
Y187898D01*
X144658Y150102D02*
Y187898D01*
X129500Y167032D02*
Y170968D01*
X127532Y169000D02*
X131468D01*
X126000Y191032D02*
Y194968D01*
X124031Y193000D02*
X127969D01*
X118126Y189260D02*
X133874D01*
X118126Y196740D02*
X133874D01*
Y189260D02*
Y196740D01*
X118126Y189260D02*
Y196740D01*
X129516Y99492D02*
Y153508D01*
X81484Y99492D02*
X129516D01*
X81484D02*
Y153508D01*
X129516D01*
X159260Y129890D02*
X166740D01*
X159260Y116110D02*
X166740D01*
Y129890D01*
X159260Y116110D02*
Y129890D01*
X163000Y121031D02*
Y124969D01*
X161031Y123000D02*
X164969D01*
X190260Y116110D02*
X197740D01*
X190260Y129890D02*
X197740D01*
X190260Y116110D02*
Y129890D01*
X197740Y116110D02*
Y129890D01*
X194000Y121031D02*
Y124969D01*
X192032Y123000D02*
X195968D01*
X169260Y129890D02*
X176740D01*
X169260Y116110D02*
X176740D01*
Y129890D01*
X169260Y116110D02*
Y129890D01*
X173000Y121031D02*
Y124969D01*
X171031Y123000D02*
X174969D01*
X147563Y181390D02*
X155437D01*
X147563Y167610D02*
X155437D01*
Y181390D01*
X147563Y167610D02*
Y181390D01*
X151500Y172531D02*
Y176469D01*
X149531Y174500D02*
X153469D01*
X133563Y130457D02*
X141437D01*
X133563Y144236D02*
X141437D01*
X133563Y130457D02*
Y144236D01*
X141437Y130457D02*
Y144236D01*
X137500Y135378D02*
Y139315D01*
X135531Y137346D02*
X139469D01*
X141610Y189563D02*
Y197437D01*
X155390Y189563D02*
Y197437D01*
X141610D02*
X155390D01*
X141610Y189563D02*
X155390D01*
X146531Y193500D02*
X150469D01*
X148500Y191532D02*
Y195468D01*
X200563Y116110D02*
X208437D01*
X200563Y129890D02*
X208437D01*
X200563Y116110D02*
Y129890D01*
X208437Y116110D02*
Y129890D01*
X204500Y121031D02*
Y124969D01*
X202532Y123000D02*
X206469D01*
X141610Y200063D02*
Y207937D01*
X155390Y200063D02*
Y207937D01*
X141610D02*
X155390D01*
X141610Y200063D02*
X155390D01*
X146531Y204000D02*
X150469D01*
X148500Y202031D02*
Y205968D01*
X148011Y116110D02*
X155885D01*
X148011Y129890D02*
X155885D01*
X148011Y116110D02*
Y129890D01*
X155885Y116110D02*
Y129890D01*
X151947Y121031D02*
Y124969D01*
X149979Y123000D02*
X153916D01*
X179563Y116110D02*
X187437D01*
X179563Y129890D02*
X187437D01*
X179563Y116110D02*
Y129890D01*
X187437Y116110D02*
Y129890D01*
X183500Y121031D02*
Y124969D01*
X181532Y123000D02*
X185468D01*
X214531Y122000D02*
X218468D01*
X216500Y120031D02*
Y123969D01*
X221028Y111764D02*
Y132236D01*
X211972Y111764D02*
Y132236D01*
X221028D01*
X211972Y111764D02*
X221028D01*
D53*
X158480Y212524D02*
X218520D01*
Y134571D02*
Y212524D01*
X158480Y134571D02*
X218520D01*
X158480D02*
Y212524D01*
M02*
