G04*
G04 #@! TF.GenerationSoftware,Altium Limited,Altium Designer,21.0.9 (235)*
G04*
G04 Layer_Color=65535*
%FSLAX25Y25*%
%MOIN*%
G70*
G04*
G04 #@! TF.SameCoordinates,28F69A72-3BD6-4D5A-B4D2-E5632D31EE07*
G04*
G04*
G04 #@! TF.FilePolarity,Positive*
G04*
G01*
G75*
%ADD10C,0.00984*%
%ADD11C,0.00787*%
%ADD12C,0.00394*%
%ADD13C,0.00591*%
G36*
X249000Y209288D02*
Y209221D01*
Y209155D01*
Y209089D01*
Y209023D01*
Y208957D01*
Y208890D01*
Y208824D01*
Y208758D01*
Y208692D01*
Y208626D01*
Y208559D01*
Y208493D01*
Y208427D01*
Y208361D01*
Y208294D01*
Y208228D01*
Y208162D01*
Y208096D01*
Y208030D01*
Y207963D01*
Y207897D01*
Y207831D01*
Y207765D01*
Y207699D01*
Y207632D01*
Y207566D01*
Y207500D01*
Y207434D01*
Y207368D01*
Y207301D01*
Y207235D01*
Y207169D01*
Y207103D01*
Y207037D01*
Y206970D01*
Y206904D01*
Y206838D01*
Y206772D01*
Y206706D01*
Y206639D01*
Y206573D01*
Y206507D01*
Y206441D01*
Y206375D01*
Y206308D01*
Y206242D01*
Y206176D01*
Y206110D01*
Y206044D01*
Y205977D01*
Y205911D01*
Y205845D01*
Y205779D01*
Y205713D01*
Y205646D01*
Y205580D01*
Y205514D01*
Y205448D01*
Y205381D01*
Y205315D01*
Y205249D01*
Y205183D01*
Y205117D01*
Y205050D01*
Y204984D01*
Y204918D01*
Y204852D01*
Y204786D01*
Y204719D01*
Y204653D01*
Y204587D01*
Y204521D01*
Y204455D01*
Y204388D01*
Y204322D01*
Y204256D01*
Y204190D01*
Y204124D01*
Y204057D01*
Y203991D01*
Y203925D01*
Y203859D01*
Y203793D01*
Y203726D01*
Y203660D01*
Y203594D01*
Y203528D01*
Y203462D01*
Y203395D01*
Y203329D01*
Y203263D01*
Y203197D01*
Y203131D01*
Y203064D01*
Y202998D01*
Y202932D01*
Y202866D01*
Y202800D01*
Y202733D01*
Y202667D01*
Y202601D01*
Y202535D01*
Y202469D01*
Y202402D01*
Y202336D01*
Y202270D01*
Y202204D01*
Y202138D01*
Y202071D01*
Y202005D01*
Y201939D01*
Y201873D01*
Y201806D01*
Y201740D01*
Y201674D01*
Y201608D01*
Y201542D01*
Y201476D01*
Y201409D01*
Y201343D01*
Y201277D01*
Y201211D01*
Y201145D01*
Y201078D01*
Y201012D01*
Y200946D01*
Y200880D01*
Y200814D01*
Y200747D01*
Y200681D01*
Y200615D01*
Y200549D01*
Y200483D01*
Y200416D01*
Y200350D01*
Y200284D01*
Y200218D01*
Y200151D01*
Y200085D01*
Y200019D01*
Y199953D01*
Y199887D01*
Y199820D01*
Y199754D01*
Y199688D01*
Y199622D01*
Y199556D01*
Y199489D01*
Y199423D01*
Y199357D01*
Y199291D01*
Y199225D01*
Y199158D01*
Y199092D01*
Y199026D01*
Y198960D01*
Y198894D01*
Y198827D01*
Y198761D01*
Y198695D01*
Y198629D01*
Y198563D01*
Y198496D01*
Y198430D01*
Y198364D01*
Y198298D01*
Y198232D01*
Y198165D01*
Y198099D01*
Y198033D01*
Y197967D01*
Y197901D01*
Y197834D01*
Y197768D01*
Y197702D01*
Y197636D01*
Y197570D01*
Y197503D01*
Y197437D01*
Y197371D01*
Y197305D01*
Y197239D01*
Y197172D01*
Y197106D01*
Y197040D01*
Y196974D01*
Y196907D01*
Y196841D01*
Y196775D01*
Y196709D01*
Y196643D01*
Y196576D01*
Y196510D01*
Y196444D01*
Y196378D01*
Y196312D01*
Y196246D01*
Y196179D01*
Y196113D01*
Y196047D01*
Y195981D01*
Y195914D01*
Y195848D01*
Y195782D01*
Y195716D01*
Y195650D01*
Y195583D01*
Y195517D01*
Y195451D01*
Y195385D01*
Y195319D01*
Y195253D01*
Y195186D01*
Y195120D01*
Y195054D01*
Y194988D01*
Y194922D01*
Y194855D01*
Y194789D01*
Y194723D01*
Y194657D01*
Y194590D01*
Y194524D01*
Y194458D01*
Y194392D01*
Y194326D01*
Y194259D01*
Y194193D01*
Y194127D01*
Y194061D01*
Y193995D01*
Y193928D01*
Y193862D01*
Y193796D01*
Y193730D01*
Y193664D01*
Y193597D01*
Y193531D01*
Y193465D01*
Y193399D01*
Y193333D01*
Y193266D01*
Y193200D01*
Y193134D01*
Y193068D01*
Y193002D01*
Y192935D01*
Y192869D01*
Y192803D01*
Y192737D01*
Y192671D01*
Y192604D01*
Y192538D01*
Y192472D01*
Y192406D01*
Y192340D01*
Y192273D01*
Y192207D01*
Y192141D01*
Y192075D01*
Y192008D01*
Y191942D01*
Y191876D01*
Y191810D01*
Y191744D01*
Y191677D01*
Y191611D01*
Y191545D01*
Y191479D01*
Y191413D01*
Y191347D01*
Y191280D01*
Y191214D01*
Y191148D01*
Y191082D01*
X248934D01*
Y191016D01*
X248868D01*
Y190949D01*
X248801D01*
Y190883D01*
X248735D01*
Y190817D01*
X248669D01*
Y190751D01*
X248603D01*
Y190684D01*
X248537D01*
Y190618D01*
X248470D01*
Y190552D01*
X248404D01*
Y190486D01*
X248338D01*
Y190420D01*
X248272D01*
Y190353D01*
X248206D01*
Y190287D01*
X248139D01*
Y190221D01*
X248073D01*
Y190155D01*
X248007D01*
Y190089D01*
X247941D01*
Y190022D01*
X247874D01*
Y189956D01*
X247808D01*
Y189890D01*
X247742D01*
Y189824D01*
X247676D01*
Y189758D01*
X247610D01*
Y189691D01*
X247544D01*
Y189625D01*
X247477D01*
Y189559D01*
X247411D01*
Y189493D01*
X247345D01*
Y189427D01*
X247279D01*
Y189360D01*
X247213D01*
Y189294D01*
X247146D01*
Y189228D01*
X247080D01*
Y189162D01*
X247014D01*
Y189096D01*
X246948D01*
Y189029D01*
X246882D01*
Y188963D01*
X246815D01*
Y188897D01*
X246749D01*
Y188831D01*
X246683D01*
Y188765D01*
X246617D01*
Y188698D01*
X246550D01*
Y188632D01*
X246484D01*
Y188566D01*
X246418D01*
Y188500D01*
X246352D01*
Y188434D01*
X246286D01*
Y188367D01*
X246219D01*
Y188301D01*
X246153D01*
Y188235D01*
X246087D01*
Y188169D01*
X246021D01*
Y188102D01*
X245955D01*
Y188036D01*
X245888D01*
Y187970D01*
X245822D01*
Y187904D01*
X226690D01*
Y187970D01*
Y188036D01*
Y188102D01*
Y188169D01*
Y188235D01*
Y188301D01*
Y188367D01*
Y188434D01*
Y188500D01*
Y188566D01*
Y188632D01*
Y188698D01*
Y188765D01*
Y188831D01*
Y188897D01*
Y188963D01*
Y189029D01*
Y189096D01*
Y189162D01*
Y189228D01*
Y189294D01*
Y189360D01*
Y189427D01*
Y189493D01*
Y189559D01*
Y189625D01*
Y189691D01*
Y189758D01*
Y189824D01*
Y189890D01*
Y189956D01*
Y190022D01*
Y190089D01*
Y190155D01*
Y190221D01*
Y190287D01*
Y190353D01*
Y190420D01*
Y190486D01*
Y190552D01*
Y190618D01*
Y190684D01*
Y190751D01*
Y190817D01*
Y190883D01*
Y190949D01*
Y191016D01*
Y191082D01*
Y191148D01*
Y191214D01*
Y191280D01*
Y191347D01*
Y191413D01*
Y191479D01*
Y191545D01*
Y191611D01*
Y191677D01*
Y191744D01*
Y191810D01*
Y191876D01*
Y191942D01*
Y192008D01*
Y192075D01*
Y192141D01*
Y192207D01*
Y192273D01*
Y192340D01*
Y192406D01*
Y192472D01*
Y192538D01*
Y192604D01*
Y192671D01*
Y192737D01*
Y192803D01*
Y192869D01*
Y192935D01*
Y193002D01*
Y193068D01*
Y193134D01*
Y193200D01*
Y193266D01*
Y193333D01*
Y193399D01*
Y193465D01*
Y193531D01*
Y193597D01*
Y193664D01*
Y193730D01*
Y193796D01*
Y193862D01*
Y193928D01*
Y193995D01*
Y194061D01*
Y194127D01*
Y194193D01*
Y194259D01*
Y194326D01*
Y194392D01*
Y194458D01*
Y194524D01*
Y194590D01*
Y194657D01*
Y194723D01*
Y194789D01*
Y194855D01*
Y194922D01*
Y194988D01*
Y195054D01*
Y195120D01*
Y195186D01*
Y195253D01*
Y195319D01*
Y195385D01*
Y195451D01*
Y195517D01*
Y195583D01*
Y195650D01*
Y195716D01*
Y195782D01*
Y195848D01*
Y195914D01*
Y195981D01*
Y196047D01*
Y196113D01*
Y196179D01*
Y196246D01*
Y196312D01*
Y196378D01*
Y196444D01*
Y196510D01*
Y196576D01*
Y196643D01*
Y196709D01*
Y196775D01*
Y196841D01*
Y196907D01*
Y196974D01*
Y197040D01*
Y197106D01*
Y197172D01*
Y197239D01*
Y197305D01*
Y197371D01*
Y197437D01*
Y197503D01*
Y197570D01*
Y197636D01*
Y197702D01*
Y197768D01*
Y197834D01*
Y197901D01*
Y197967D01*
Y198033D01*
Y198099D01*
Y198165D01*
Y198232D01*
Y198298D01*
Y198364D01*
Y198430D01*
Y198496D01*
Y198563D01*
Y198629D01*
Y198695D01*
Y198761D01*
Y198827D01*
Y198894D01*
Y198960D01*
Y199026D01*
Y199092D01*
Y199158D01*
Y199225D01*
Y199291D01*
Y199357D01*
Y199423D01*
Y199489D01*
Y199556D01*
Y199622D01*
Y199688D01*
Y199754D01*
Y199820D01*
Y199887D01*
Y199953D01*
Y200019D01*
Y200085D01*
Y200151D01*
Y200218D01*
Y200284D01*
Y200350D01*
Y200416D01*
Y200483D01*
Y200549D01*
Y200615D01*
Y200681D01*
Y200747D01*
Y200814D01*
Y200880D01*
Y200946D01*
Y201012D01*
Y201078D01*
Y201145D01*
Y201211D01*
Y201277D01*
Y201343D01*
Y201409D01*
Y201476D01*
Y201542D01*
Y201608D01*
Y201674D01*
Y201740D01*
Y201806D01*
Y201873D01*
Y201939D01*
Y202005D01*
Y202071D01*
Y202138D01*
Y202204D01*
Y202270D01*
Y202336D01*
Y202402D01*
Y202469D01*
Y202535D01*
Y202601D01*
Y202667D01*
Y202733D01*
Y202800D01*
Y202866D01*
Y202932D01*
Y202998D01*
Y203064D01*
Y203131D01*
Y203197D01*
Y203263D01*
Y203329D01*
Y203395D01*
Y203462D01*
Y203528D01*
Y203594D01*
Y203660D01*
Y203726D01*
Y203793D01*
Y203859D01*
Y203925D01*
Y203991D01*
Y204057D01*
Y204124D01*
Y204190D01*
Y204256D01*
Y204322D01*
Y204388D01*
Y204455D01*
X226623D01*
Y204521D01*
Y204587D01*
Y204653D01*
Y204719D01*
Y204786D01*
Y204852D01*
Y204918D01*
Y204984D01*
Y205050D01*
Y205117D01*
Y205183D01*
Y205249D01*
Y205315D01*
Y205381D01*
Y205448D01*
Y205514D01*
Y205580D01*
Y205646D01*
Y205713D01*
Y205779D01*
Y205845D01*
Y205911D01*
Y205977D01*
Y206044D01*
Y206110D01*
Y206176D01*
X226690D01*
Y206242D01*
X226756D01*
Y206308D01*
X226822D01*
Y206375D01*
X226888D01*
Y206441D01*
X226954D01*
Y206507D01*
X227021D01*
Y206573D01*
X227087D01*
Y206639D01*
X227153D01*
Y206706D01*
X227219D01*
Y206772D01*
X227285D01*
Y206838D01*
X227352D01*
Y206904D01*
X227418D01*
Y206970D01*
X227484D01*
Y207037D01*
X227550D01*
Y207103D01*
X227617D01*
Y207169D01*
X227683D01*
Y207235D01*
X227749D01*
Y207301D01*
X227815D01*
Y207368D01*
X227881D01*
Y207434D01*
X227947D01*
Y207500D01*
X228014D01*
Y207566D01*
X228080D01*
Y207632D01*
X228146D01*
Y207699D01*
X228212D01*
Y207765D01*
X228278D01*
Y207831D01*
X228345D01*
Y207897D01*
X228411D01*
Y207963D01*
X228477D01*
Y208030D01*
X228543D01*
Y208096D01*
X228609D01*
Y208162D01*
X228676D01*
Y208228D01*
X228742D01*
Y208294D01*
X228808D01*
Y208361D01*
X228874D01*
Y208427D01*
X228941D01*
Y208493D01*
X229007D01*
Y208559D01*
X229073D01*
Y208626D01*
X229139D01*
Y208692D01*
X229205D01*
Y208758D01*
X229272D01*
Y208824D01*
X229338D01*
Y208890D01*
X229404D01*
Y208957D01*
X229470D01*
Y209023D01*
X229536D01*
Y209089D01*
X229603D01*
Y209155D01*
X229669D01*
Y209221D01*
X229735D01*
Y209288D01*
X229801D01*
Y209354D01*
X249000D01*
Y209288D01*
D02*
G37*
%LPC*%
G36*
X241122Y206242D02*
X234568D01*
Y206176D01*
Y206110D01*
Y206044D01*
Y205977D01*
Y205911D01*
Y205845D01*
Y205779D01*
Y205713D01*
Y205646D01*
Y205580D01*
Y205514D01*
Y205448D01*
Y205381D01*
Y205315D01*
Y205249D01*
Y205183D01*
Y205117D01*
Y205050D01*
Y204984D01*
Y204918D01*
Y204852D01*
Y204786D01*
Y204719D01*
Y204653D01*
Y204587D01*
Y204521D01*
Y204455D01*
Y204388D01*
Y204322D01*
Y204256D01*
Y204190D01*
Y204124D01*
Y204057D01*
Y203991D01*
Y203925D01*
Y203859D01*
Y203793D01*
Y203726D01*
Y203660D01*
Y203594D01*
Y203528D01*
Y203462D01*
Y203395D01*
Y203329D01*
Y203263D01*
Y203197D01*
Y203131D01*
Y203064D01*
Y202998D01*
Y202932D01*
Y202866D01*
Y202800D01*
Y202733D01*
X234634D01*
Y202667D01*
Y202601D01*
Y202535D01*
Y202469D01*
Y202402D01*
Y202336D01*
X234700D01*
Y202270D01*
Y202204D01*
Y202138D01*
Y202071D01*
X234766D01*
Y202005D01*
Y201939D01*
Y201873D01*
X234833D01*
Y201806D01*
Y201740D01*
Y201674D01*
X234899D01*
Y201608D01*
Y201542D01*
X234965D01*
Y201476D01*
Y201409D01*
Y201343D01*
X235031D01*
Y201277D01*
Y201211D01*
X235097D01*
Y201145D01*
X235164D01*
Y201078D01*
Y201012D01*
X235230D01*
Y200946D01*
Y200880D01*
X235296D01*
Y200814D01*
X235362D01*
Y200747D01*
Y200681D01*
X235428D01*
Y200615D01*
X235495D01*
Y200549D01*
Y200483D01*
X235561D01*
Y200416D01*
X235627D01*
Y200350D01*
X235693D01*
Y200284D01*
X235759D01*
Y200218D01*
X235826D01*
Y200151D01*
X235892D01*
Y200085D01*
X235958D01*
Y200019D01*
X236024D01*
Y199953D01*
X236090D01*
Y199887D01*
X236157D01*
Y199820D01*
X236223D01*
Y199754D01*
X236289D01*
Y199688D01*
X236355D01*
Y199622D01*
X236421D01*
Y199556D01*
X236554D01*
Y199489D01*
X236620D01*
Y199423D01*
X236753D01*
Y199357D01*
X236819D01*
Y199291D01*
X236951D01*
Y199225D01*
X237017D01*
Y199158D01*
X237150D01*
Y199092D01*
X237282D01*
Y199026D01*
X237415D01*
Y198960D01*
X237547D01*
Y198894D01*
X237679D01*
Y198827D01*
X238010D01*
Y198894D01*
X238143D01*
Y198960D01*
X238275D01*
Y199026D01*
X238407D01*
Y199092D01*
X238540D01*
Y199158D01*
X238672D01*
Y199225D01*
X238738D01*
Y199291D01*
X238871D01*
Y199357D01*
X239003D01*
Y199423D01*
X239070D01*
Y199489D01*
X239136D01*
Y199556D01*
X239268D01*
Y199622D01*
X239334D01*
Y199688D01*
X239401D01*
Y199754D01*
X239467D01*
Y199820D01*
X239533D01*
Y199887D01*
X239599D01*
Y199953D01*
X239732D01*
Y200019D01*
X239798D01*
Y200085D01*
Y200151D01*
X239864D01*
Y200218D01*
X239930D01*
Y200284D01*
X239996D01*
Y200350D01*
X240063D01*
Y200416D01*
X240129D01*
Y200483D01*
X240195D01*
Y200549D01*
Y200615D01*
X240261D01*
Y200681D01*
X240327D01*
Y200747D01*
Y200814D01*
X240394D01*
Y200880D01*
X240460D01*
Y200946D01*
Y201012D01*
X240526D01*
Y201078D01*
X240592D01*
Y201145D01*
Y201211D01*
X240658D01*
Y201277D01*
Y201343D01*
X240725D01*
Y201409D01*
Y201476D01*
Y201542D01*
X240791D01*
Y201608D01*
Y201674D01*
X240857D01*
Y201740D01*
Y201806D01*
Y201873D01*
X240923D01*
Y201939D01*
Y202005D01*
Y202071D01*
X240989D01*
Y202138D01*
Y202204D01*
Y202270D01*
Y202336D01*
X241056D01*
Y202402D01*
Y202469D01*
Y202535D01*
Y202601D01*
Y202667D01*
Y202733D01*
X241122D01*
Y202800D01*
Y202866D01*
Y202932D01*
Y202998D01*
Y203064D01*
Y203131D01*
Y203197D01*
Y203263D01*
Y203329D01*
Y203395D01*
Y203462D01*
Y203528D01*
Y203594D01*
Y203660D01*
Y203726D01*
Y203793D01*
Y203859D01*
Y203925D01*
Y203991D01*
Y204057D01*
Y204124D01*
Y204190D01*
Y204256D01*
Y204322D01*
Y204388D01*
Y204455D01*
Y204521D01*
Y204587D01*
Y204653D01*
Y204719D01*
Y204786D01*
Y204852D01*
Y204918D01*
Y204984D01*
Y205050D01*
Y205117D01*
Y205183D01*
Y205249D01*
Y205315D01*
Y205381D01*
Y205448D01*
Y205514D01*
Y205580D01*
Y205646D01*
Y205713D01*
Y205779D01*
Y205845D01*
Y205911D01*
Y205977D01*
Y206044D01*
Y206110D01*
Y206176D01*
Y206242D01*
D02*
G37*
G36*
X243373Y197834D02*
X243042D01*
Y197768D01*
X242975D01*
Y197702D01*
X242909D01*
Y197636D01*
X242843D01*
Y197570D01*
Y197503D01*
X242777D01*
Y197570D01*
Y197636D01*
X242711D01*
Y197702D01*
X242645D01*
Y197768D01*
Y197834D01*
X241254D01*
Y197768D01*
Y197702D01*
Y197636D01*
Y197570D01*
X241652D01*
Y197503D01*
Y197437D01*
Y197371D01*
Y197305D01*
Y197239D01*
Y197172D01*
Y197106D01*
Y197040D01*
Y196974D01*
Y196907D01*
Y196841D01*
Y196775D01*
Y196709D01*
Y196643D01*
Y196576D01*
X241916D01*
Y196643D01*
Y196709D01*
Y196775D01*
Y196841D01*
Y196907D01*
Y196974D01*
Y197040D01*
Y197106D01*
Y197172D01*
Y197239D01*
Y197305D01*
Y197371D01*
Y197437D01*
Y197503D01*
Y197570D01*
X242247D01*
Y197636D01*
Y197702D01*
Y197768D01*
X242314D01*
Y197702D01*
X242380D01*
Y197636D01*
Y197570D01*
X242446D01*
Y197503D01*
X242512D01*
Y197437D01*
X242578D01*
Y197371D01*
Y197305D01*
X242645D01*
Y197239D01*
X242711D01*
Y197172D01*
Y197106D01*
Y197040D01*
Y196974D01*
Y196907D01*
Y196841D01*
Y196775D01*
Y196709D01*
Y196643D01*
Y196576D01*
X242975D01*
Y196643D01*
Y196709D01*
Y196775D01*
Y196841D01*
Y196907D01*
Y196974D01*
Y197040D01*
Y197106D01*
Y197172D01*
Y197239D01*
Y197305D01*
X243042D01*
Y197371D01*
X243108D01*
Y197437D01*
Y197503D01*
X243174D01*
Y197570D01*
X243240D01*
Y197636D01*
Y197702D01*
X243307D01*
Y197768D01*
X243373D01*
Y197834D01*
D02*
G37*
G36*
X240460D02*
X239996D01*
Y197768D01*
X239930D01*
Y197702D01*
X239864D01*
Y197636D01*
Y197570D01*
Y197503D01*
Y197437D01*
Y197371D01*
Y197305D01*
X239930D01*
Y197239D01*
X239996D01*
Y197172D01*
X240063D01*
Y197106D01*
X240129D01*
Y197040D01*
X240261D01*
Y196974D01*
X240327D01*
Y196907D01*
Y196841D01*
X240063D01*
Y196907D01*
X239996D01*
Y196974D01*
X239930D01*
Y197040D01*
X239864D01*
Y196974D01*
Y196907D01*
Y196841D01*
Y196775D01*
Y196709D01*
Y196643D01*
X239930D01*
Y196576D01*
X240460D01*
Y196643D01*
X240526D01*
Y196709D01*
Y196775D01*
Y196841D01*
X240592D01*
Y196907D01*
Y196974D01*
Y197040D01*
X240526D01*
Y197106D01*
Y197172D01*
X240460D01*
Y197239D01*
X240394D01*
Y197305D01*
X240327D01*
Y197371D01*
X240195D01*
Y197437D01*
X240129D01*
Y197503D01*
Y197570D01*
X240394D01*
Y197503D01*
X240460D01*
Y197437D01*
X240526D01*
Y197503D01*
Y197570D01*
Y197636D01*
Y197702D01*
Y197768D01*
X240460D01*
Y197834D01*
D02*
G37*
G36*
X231920D02*
X231655D01*
Y197768D01*
Y197702D01*
Y197636D01*
Y197570D01*
Y197503D01*
Y197437D01*
Y197371D01*
X231191D01*
Y197437D01*
Y197503D01*
Y197570D01*
Y197636D01*
Y197702D01*
Y197768D01*
Y197834D01*
X230927D01*
Y197768D01*
Y197702D01*
Y197636D01*
Y197570D01*
Y197503D01*
Y197437D01*
Y197371D01*
Y197305D01*
Y197239D01*
Y197172D01*
Y197106D01*
Y197040D01*
Y196974D01*
Y196907D01*
Y196841D01*
Y196775D01*
Y196709D01*
Y196643D01*
Y196576D01*
X231191D01*
Y196643D01*
Y196709D01*
Y196775D01*
Y196841D01*
Y196907D01*
Y196974D01*
Y197040D01*
Y197106D01*
X231655D01*
Y197040D01*
Y196974D01*
Y196907D01*
Y196841D01*
Y196775D01*
Y196709D01*
Y196643D01*
Y196576D01*
X231920D01*
Y196643D01*
Y196709D01*
Y196775D01*
Y196841D01*
Y196907D01*
Y196974D01*
Y197040D01*
Y197106D01*
Y197172D01*
Y197239D01*
Y197305D01*
Y197371D01*
Y197437D01*
Y197503D01*
Y197570D01*
Y197636D01*
Y197702D01*
Y197768D01*
Y197834D01*
D02*
G37*
G36*
X237613D02*
X237348D01*
Y197768D01*
Y197702D01*
X237282D01*
Y197636D01*
Y197570D01*
Y197503D01*
X237216D01*
Y197437D01*
Y197371D01*
X237150D01*
Y197305D01*
Y197239D01*
Y197172D01*
X237084D01*
Y197239D01*
Y197305D01*
X237017D01*
Y197371D01*
Y197437D01*
Y197503D01*
X236951D01*
Y197570D01*
Y197636D01*
X236885D01*
Y197702D01*
Y197768D01*
Y197834D01*
X236554D01*
Y197768D01*
X236620D01*
Y197702D01*
Y197636D01*
Y197570D01*
X236686D01*
Y197503D01*
Y197437D01*
X236753D01*
Y197371D01*
Y197305D01*
Y197239D01*
X236819D01*
Y197172D01*
Y197106D01*
X236885D01*
Y197040D01*
Y196974D01*
Y196907D01*
X236951D01*
Y196841D01*
Y196775D01*
Y196709D01*
X237017D01*
Y196643D01*
Y196576D01*
X237216D01*
Y196643D01*
Y196709D01*
Y196775D01*
X237282D01*
Y196841D01*
Y196907D01*
X237348D01*
Y196974D01*
Y197040D01*
Y197106D01*
X237415D01*
Y197172D01*
Y197239D01*
Y197305D01*
X237481D01*
Y197371D01*
Y197437D01*
X237547D01*
Y197503D01*
Y197570D01*
Y197636D01*
X237613D01*
Y197702D01*
Y197768D01*
Y197834D01*
D02*
G37*
G36*
X235892D02*
X235627D01*
Y197768D01*
Y197702D01*
Y197636D01*
Y197570D01*
Y197503D01*
Y197437D01*
Y197371D01*
Y197305D01*
Y197239D01*
Y197172D01*
Y197106D01*
X235561D01*
Y197172D01*
Y197239D01*
X235495D01*
Y197305D01*
X235428D01*
Y197371D01*
X235362D01*
Y197437D01*
X235296D01*
Y197503D01*
Y197570D01*
X235230D01*
Y197636D01*
X235164D01*
Y197702D01*
X235097D01*
Y197768D01*
X235031D01*
Y197834D01*
X234766D01*
Y197768D01*
Y197702D01*
Y197636D01*
Y197570D01*
Y197503D01*
Y197437D01*
Y197371D01*
Y197305D01*
Y197239D01*
Y197172D01*
Y197106D01*
Y197040D01*
Y196974D01*
Y196907D01*
Y196841D01*
Y196775D01*
Y196709D01*
Y196643D01*
Y196576D01*
X235031D01*
Y196643D01*
Y196709D01*
Y196775D01*
Y196841D01*
Y196907D01*
Y196974D01*
Y197040D01*
Y197106D01*
Y197172D01*
Y197239D01*
Y197305D01*
Y197371D01*
X235097D01*
Y197305D01*
Y197239D01*
X235164D01*
Y197172D01*
X235230D01*
Y197106D01*
X235296D01*
Y197040D01*
Y196974D01*
X235362D01*
Y196907D01*
X235428D01*
Y196841D01*
X235495D01*
Y196775D01*
X235561D01*
Y196709D01*
Y196643D01*
X235627D01*
Y196576D01*
X235892D01*
Y196643D01*
Y196709D01*
Y196775D01*
Y196841D01*
Y196907D01*
Y196974D01*
Y197040D01*
Y197106D01*
Y197172D01*
Y197239D01*
Y197305D01*
Y197371D01*
Y197437D01*
Y197503D01*
Y197570D01*
Y197636D01*
Y197702D01*
Y197768D01*
Y197834D01*
D02*
G37*
G36*
X234568D02*
X234303D01*
Y197768D01*
Y197702D01*
Y197636D01*
Y197570D01*
Y197503D01*
Y197437D01*
Y197371D01*
Y197305D01*
Y197239D01*
Y197172D01*
Y197106D01*
Y197040D01*
Y196974D01*
Y196907D01*
X234237D01*
Y196841D01*
X233906D01*
Y196907D01*
X233840D01*
Y196974D01*
Y197040D01*
Y197106D01*
Y197172D01*
Y197239D01*
Y197305D01*
Y197371D01*
Y197437D01*
Y197503D01*
Y197570D01*
Y197636D01*
Y197702D01*
Y197768D01*
Y197834D01*
X233575D01*
Y197768D01*
Y197702D01*
Y197636D01*
Y197570D01*
Y197503D01*
Y197437D01*
Y197371D01*
Y197305D01*
Y197239D01*
Y197172D01*
Y197106D01*
Y197040D01*
Y196974D01*
Y196907D01*
Y196841D01*
X233641D01*
Y196775D01*
Y196709D01*
X233707D01*
Y196643D01*
X233840D01*
Y196576D01*
X234369D01*
Y196643D01*
X234435D01*
Y196709D01*
X234502D01*
Y196775D01*
X234568D01*
Y196841D01*
Y196907D01*
Y196974D01*
Y197040D01*
Y197106D01*
Y197172D01*
Y197239D01*
Y197305D01*
Y197371D01*
Y197437D01*
Y197503D01*
Y197570D01*
Y197636D01*
Y197702D01*
Y197768D01*
Y197834D01*
D02*
G37*
G36*
X245756D02*
X245094D01*
Y197768D01*
Y197702D01*
Y197636D01*
Y197570D01*
Y197503D01*
Y197437D01*
Y197371D01*
Y197305D01*
Y197239D01*
Y197172D01*
Y197106D01*
Y197040D01*
Y196974D01*
Y196907D01*
Y196841D01*
Y196775D01*
Y196709D01*
Y196643D01*
Y196576D01*
X245359D01*
Y196643D01*
Y196709D01*
Y196775D01*
Y196841D01*
Y196907D01*
Y196974D01*
Y197040D01*
Y197106D01*
X245756D01*
Y197172D01*
Y197239D01*
Y197305D01*
Y197371D01*
X245359D01*
Y197437D01*
Y197503D01*
Y197570D01*
Y197636D01*
X245756D01*
Y197702D01*
Y197768D01*
Y197834D01*
D02*
G37*
G36*
X244564D02*
X244035D01*
Y197768D01*
X243902D01*
Y197702D01*
X243836D01*
Y197636D01*
X243770D01*
Y197570D01*
Y197503D01*
X243704D01*
Y197437D01*
Y197371D01*
Y197305D01*
Y197239D01*
Y197172D01*
Y197106D01*
Y197040D01*
Y196974D01*
Y196907D01*
X243770D01*
Y196841D01*
Y196775D01*
X243836D01*
Y196709D01*
X243902D01*
Y196643D01*
X244035D01*
Y196576D01*
X244564D01*
Y196643D01*
X244697D01*
Y196709D01*
X244763D01*
Y196775D01*
X244829D01*
Y196841D01*
Y196907D01*
X244895D01*
Y196974D01*
Y197040D01*
Y197106D01*
Y197172D01*
Y197239D01*
Y197305D01*
Y197371D01*
Y197437D01*
Y197503D01*
X244829D01*
Y197570D01*
Y197636D01*
X244763D01*
Y197702D01*
X244697D01*
Y197768D01*
X244564D01*
Y197834D01*
D02*
G37*
G36*
X241122D02*
X240857D01*
Y197768D01*
Y197702D01*
Y197636D01*
Y197570D01*
Y197503D01*
Y197437D01*
Y197371D01*
Y197305D01*
Y197239D01*
Y197172D01*
Y197106D01*
Y197040D01*
Y196974D01*
Y196907D01*
Y196841D01*
Y196775D01*
Y196709D01*
Y196643D01*
Y196576D01*
X241122D01*
Y196643D01*
Y196709D01*
Y196775D01*
Y196841D01*
Y196907D01*
Y196974D01*
Y197040D01*
Y197106D01*
Y197172D01*
Y197239D01*
Y197305D01*
Y197371D01*
Y197437D01*
Y197503D01*
Y197570D01*
Y197636D01*
Y197702D01*
Y197768D01*
Y197834D01*
D02*
G37*
G36*
X239401D02*
X238805D01*
Y197768D01*
Y197702D01*
Y197636D01*
Y197570D01*
Y197503D01*
Y197437D01*
Y197371D01*
Y197305D01*
Y197239D01*
Y197172D01*
Y197106D01*
Y197040D01*
Y196974D01*
Y196907D01*
Y196841D01*
Y196775D01*
Y196709D01*
Y196643D01*
Y196576D01*
X239070D01*
Y196643D01*
Y196709D01*
Y196775D01*
Y196841D01*
Y196907D01*
Y196974D01*
Y197040D01*
Y197106D01*
X239136D01*
Y197040D01*
X239202D01*
Y196974D01*
X239268D01*
Y196907D01*
Y196841D01*
X239334D01*
Y196775D01*
X239401D01*
Y196709D01*
Y196643D01*
X239467D01*
Y196576D01*
X239798D01*
Y196643D01*
X239732D01*
Y196709D01*
Y196775D01*
X239665D01*
Y196841D01*
X239599D01*
Y196907D01*
Y196974D01*
X239533D01*
Y197040D01*
Y197106D01*
X239467D01*
Y197172D01*
Y197239D01*
X239533D01*
Y197305D01*
Y197371D01*
Y197437D01*
Y197503D01*
Y197570D01*
Y197636D01*
Y197702D01*
X239467D01*
Y197768D01*
X239401D01*
Y197834D01*
D02*
G37*
G36*
X238540D02*
X237812D01*
Y197768D01*
Y197702D01*
Y197636D01*
Y197570D01*
Y197503D01*
Y197437D01*
Y197371D01*
Y197305D01*
Y197239D01*
Y197172D01*
Y197106D01*
Y197040D01*
Y196974D01*
Y196907D01*
Y196841D01*
Y196775D01*
Y196709D01*
Y196643D01*
Y196576D01*
X238540D01*
Y196643D01*
Y196709D01*
Y196775D01*
Y196841D01*
X238076D01*
Y196907D01*
Y196974D01*
Y197040D01*
Y197106D01*
X238540D01*
Y197172D01*
Y197239D01*
Y197305D01*
Y197371D01*
X238076D01*
Y197437D01*
Y197503D01*
Y197570D01*
X238540D01*
Y197636D01*
Y197702D01*
Y197768D01*
Y197834D01*
D02*
G37*
G36*
X236421D02*
X236157D01*
Y197768D01*
Y197702D01*
Y197636D01*
Y197570D01*
Y197503D01*
Y197437D01*
Y197371D01*
Y197305D01*
Y197239D01*
Y197172D01*
Y197106D01*
Y197040D01*
Y196974D01*
Y196907D01*
Y196841D01*
Y196775D01*
Y196709D01*
Y196643D01*
Y196576D01*
X236421D01*
Y196643D01*
Y196709D01*
Y196775D01*
Y196841D01*
Y196907D01*
Y196974D01*
Y197040D01*
Y197106D01*
Y197172D01*
Y197239D01*
Y197305D01*
Y197371D01*
Y197437D01*
Y197503D01*
Y197570D01*
Y197636D01*
Y197702D01*
Y197768D01*
Y197834D01*
D02*
G37*
G36*
X232913D02*
X232185D01*
Y197768D01*
Y197702D01*
Y197636D01*
Y197570D01*
Y197503D01*
Y197437D01*
Y197371D01*
Y197305D01*
Y197239D01*
Y197172D01*
Y197106D01*
Y197040D01*
Y196974D01*
Y196907D01*
Y196841D01*
Y196775D01*
Y196709D01*
Y196643D01*
Y196576D01*
X232913D01*
Y196643D01*
Y196709D01*
Y196775D01*
Y196841D01*
X232449D01*
Y196907D01*
Y196974D01*
Y197040D01*
Y197106D01*
X232913D01*
Y197172D01*
Y197239D01*
Y197305D01*
Y197371D01*
X232449D01*
Y197437D01*
Y197503D01*
Y197570D01*
X232913D01*
Y197636D01*
Y197702D01*
Y197768D01*
Y197834D01*
D02*
G37*
G36*
X230860D02*
X229867D01*
Y197768D01*
Y197702D01*
Y197636D01*
Y197570D01*
X230198D01*
Y197503D01*
Y197437D01*
Y197371D01*
Y197305D01*
Y197239D01*
Y197172D01*
Y197106D01*
Y197040D01*
Y196974D01*
Y196907D01*
Y196841D01*
Y196775D01*
Y196709D01*
Y196643D01*
Y196576D01*
X230463D01*
Y196643D01*
Y196709D01*
Y196775D01*
Y196841D01*
Y196907D01*
Y196974D01*
Y197040D01*
Y197106D01*
Y197172D01*
Y197239D01*
Y197305D01*
Y197371D01*
Y197437D01*
Y197503D01*
Y197570D01*
X230860D01*
Y197636D01*
Y197702D01*
Y197768D01*
Y197834D01*
D02*
G37*
G36*
X235230Y196179D02*
X234700D01*
Y196113D01*
X234502D01*
Y196047D01*
X234369D01*
Y195981D01*
X234303D01*
Y195914D01*
X234237D01*
Y195848D01*
X234171D01*
Y195782D01*
X234104D01*
Y195716D01*
Y195650D01*
X234038D01*
Y195583D01*
Y195517D01*
X233972D01*
Y195451D01*
Y195385D01*
Y195319D01*
Y195253D01*
X233906D01*
Y195186D01*
Y195120D01*
Y195054D01*
Y194988D01*
Y194922D01*
Y194855D01*
X233972D01*
Y194789D01*
Y194723D01*
Y194657D01*
X234038D01*
Y194590D01*
Y194524D01*
Y194458D01*
X234104D01*
Y194392D01*
X234171D01*
Y194326D01*
X234237D01*
Y194259D01*
X234303D01*
Y194193D01*
X234369D01*
Y194127D01*
X234435D01*
Y194061D01*
X234634D01*
Y193995D01*
X235362D01*
Y194061D01*
X235561D01*
Y194127D01*
X235627D01*
Y194193D01*
X235693D01*
Y194259D01*
Y194326D01*
Y194392D01*
Y194458D01*
Y194524D01*
Y194590D01*
Y194657D01*
X235561D01*
Y194590D01*
X235495D01*
Y194524D01*
X235362D01*
Y194458D01*
X235230D01*
Y194392D01*
X234766D01*
Y194458D01*
X234634D01*
Y194524D01*
X234568D01*
Y194590D01*
X234502D01*
Y194657D01*
X234435D01*
Y194723D01*
Y194789D01*
X234369D01*
Y194855D01*
Y194922D01*
Y194988D01*
Y195054D01*
X234303D01*
Y195120D01*
X234369D01*
Y195186D01*
Y195253D01*
Y195319D01*
Y195385D01*
X234435D01*
Y195451D01*
Y195517D01*
X234502D01*
Y195583D01*
X234568D01*
Y195650D01*
X234700D01*
Y195716D01*
X234833D01*
Y195782D01*
X235164D01*
Y195716D01*
X235362D01*
Y195650D01*
X235495D01*
Y195583D01*
X235561D01*
Y195517D01*
X235693D01*
Y195583D01*
Y195650D01*
Y195716D01*
Y195782D01*
Y195848D01*
X235627D01*
Y195914D01*
Y195981D01*
Y196047D01*
X235495D01*
Y196113D01*
X235230D01*
Y196179D01*
D02*
G37*
G36*
X237613D02*
X237150D01*
Y196113D01*
X237084D01*
Y196047D01*
X237017D01*
Y195981D01*
Y195914D01*
X236951D01*
Y195848D01*
X236885D01*
Y195782D01*
X236819D01*
Y195716D01*
X236753D01*
Y195650D01*
X236686D01*
Y195583D01*
Y195517D01*
X236620D01*
Y195451D01*
X236554D01*
Y195385D01*
X236488D01*
Y195451D01*
Y195517D01*
Y195583D01*
Y195650D01*
Y195716D01*
Y195782D01*
Y195848D01*
Y195914D01*
Y195981D01*
Y196047D01*
Y196113D01*
Y196179D01*
X236090D01*
Y196113D01*
Y196047D01*
Y195981D01*
Y195914D01*
Y195848D01*
Y195782D01*
Y195716D01*
Y195650D01*
Y195583D01*
Y195517D01*
Y195451D01*
Y195385D01*
Y195319D01*
Y195253D01*
Y195186D01*
Y195120D01*
Y195054D01*
Y194988D01*
Y194922D01*
Y194855D01*
Y194789D01*
Y194723D01*
Y194657D01*
Y194590D01*
Y194524D01*
Y194458D01*
Y194392D01*
Y194326D01*
Y194259D01*
Y194193D01*
Y194127D01*
Y194061D01*
Y193995D01*
X236488D01*
Y194061D01*
Y194127D01*
Y194193D01*
Y194259D01*
Y194326D01*
Y194392D01*
Y194458D01*
Y194524D01*
Y194590D01*
Y194657D01*
Y194723D01*
Y194789D01*
Y194855D01*
X236554D01*
Y194789D01*
X236620D01*
Y194723D01*
X236686D01*
Y194657D01*
X236753D01*
Y194590D01*
X236819D01*
Y194524D01*
X236885D01*
Y194458D01*
X236951D01*
Y194392D01*
X237017D01*
Y194326D01*
X237084D01*
Y194259D01*
Y194193D01*
X237150D01*
Y194127D01*
X237216D01*
Y194061D01*
X237282D01*
Y193995D01*
X237812D01*
Y194061D01*
Y194127D01*
X237745D01*
Y194193D01*
X237679D01*
Y194259D01*
X237613D01*
Y194326D01*
X237547D01*
Y194392D01*
X237481D01*
Y194458D01*
Y194524D01*
X237415D01*
Y194590D01*
X237348D01*
Y194657D01*
X237282D01*
Y194723D01*
X237216D01*
Y194789D01*
X237150D01*
Y194855D01*
X237084D01*
Y194922D01*
X237017D01*
Y194988D01*
X236951D01*
Y195054D01*
X236885D01*
Y195120D01*
Y195186D01*
X236951D01*
Y195253D01*
Y195319D01*
X237017D01*
Y195385D01*
X237084D01*
Y195451D01*
X237150D01*
Y195517D01*
X237216D01*
Y195583D01*
Y195650D01*
X237282D01*
Y195716D01*
X237348D01*
Y195782D01*
X237415D01*
Y195848D01*
X237481D01*
Y195914D01*
X237547D01*
Y195981D01*
Y196047D01*
X237613D01*
Y196113D01*
Y196179D01*
D02*
G37*
G36*
X243571D02*
X243174D01*
Y196113D01*
Y196047D01*
Y195981D01*
Y195914D01*
Y195848D01*
Y195782D01*
Y195716D01*
Y195650D01*
Y195583D01*
Y195517D01*
Y195451D01*
Y195385D01*
Y195319D01*
Y195253D01*
Y195186D01*
Y195120D01*
Y195054D01*
Y194988D01*
Y194922D01*
Y194855D01*
X243108D01*
Y194922D01*
X243042D01*
Y194988D01*
X242975D01*
Y195054D01*
X242909D01*
Y195120D01*
Y195186D01*
X242843D01*
Y195253D01*
X242777D01*
Y195319D01*
X242711D01*
Y195385D01*
X242645D01*
Y195451D01*
Y195517D01*
X242578D01*
Y195583D01*
X242512D01*
Y195650D01*
X242446D01*
Y195716D01*
Y195782D01*
X242380D01*
Y195848D01*
X242314D01*
Y195914D01*
X242247D01*
Y195981D01*
X242181D01*
Y196047D01*
Y196113D01*
X242115D01*
Y196179D01*
X241784D01*
Y196113D01*
Y196047D01*
Y195981D01*
Y195914D01*
Y195848D01*
Y195782D01*
Y195716D01*
Y195650D01*
Y195583D01*
Y195517D01*
Y195451D01*
Y195385D01*
Y195319D01*
Y195253D01*
Y195186D01*
Y195120D01*
Y195054D01*
Y194988D01*
Y194922D01*
Y194855D01*
Y194789D01*
Y194723D01*
Y194657D01*
Y194590D01*
Y194524D01*
Y194458D01*
Y194392D01*
Y194326D01*
Y194259D01*
Y194193D01*
Y194127D01*
Y194061D01*
Y193995D01*
X242181D01*
Y194061D01*
Y194127D01*
Y194193D01*
Y194259D01*
Y194326D01*
Y194392D01*
Y194458D01*
Y194524D01*
Y194590D01*
Y194657D01*
Y194723D01*
Y194789D01*
Y194855D01*
Y194922D01*
Y194988D01*
Y195054D01*
Y195120D01*
Y195186D01*
Y195253D01*
Y195319D01*
X242247D01*
Y195253D01*
X242314D01*
Y195186D01*
X242380D01*
Y195120D01*
Y195054D01*
X242446D01*
Y194988D01*
X242512D01*
Y194922D01*
X242578D01*
Y194855D01*
Y194789D01*
X242645D01*
Y194723D01*
X242711D01*
Y194657D01*
X242777D01*
Y194590D01*
X242843D01*
Y194524D01*
Y194458D01*
X242909D01*
Y194392D01*
X242975D01*
Y194326D01*
X243042D01*
Y194259D01*
Y194193D01*
X243108D01*
Y194127D01*
X243174D01*
Y194061D01*
X243240D01*
Y193995D01*
X243571D01*
Y194061D01*
Y194127D01*
Y194193D01*
Y194259D01*
Y194326D01*
Y194392D01*
Y194458D01*
Y194524D01*
Y194590D01*
Y194657D01*
Y194723D01*
Y194789D01*
Y194855D01*
Y194922D01*
Y194988D01*
Y195054D01*
Y195120D01*
Y195186D01*
Y195253D01*
Y195319D01*
Y195385D01*
Y195451D01*
Y195517D01*
Y195583D01*
Y195650D01*
Y195716D01*
Y195782D01*
Y195848D01*
Y195914D01*
Y195981D01*
Y196047D01*
Y196113D01*
Y196179D01*
D02*
G37*
G36*
X233641D02*
X233244D01*
Y196113D01*
Y196047D01*
Y195981D01*
Y195914D01*
Y195848D01*
Y195782D01*
Y195716D01*
Y195650D01*
Y195583D01*
Y195517D01*
Y195451D01*
Y195385D01*
Y195319D01*
Y195253D01*
Y195186D01*
Y195120D01*
Y195054D01*
Y194988D01*
Y194922D01*
Y194855D01*
Y194789D01*
X233177D01*
Y194723D01*
Y194657D01*
Y194590D01*
X233111D01*
Y194524D01*
X233045D01*
Y194458D01*
X232913D01*
Y194392D01*
X232582D01*
Y194458D01*
X232449D01*
Y194524D01*
X232383D01*
Y194590D01*
Y194657D01*
X232317D01*
Y194723D01*
Y194789D01*
Y194855D01*
Y194922D01*
Y194988D01*
Y195054D01*
Y195120D01*
Y195186D01*
Y195253D01*
Y195319D01*
Y195385D01*
Y195451D01*
Y195517D01*
Y195583D01*
Y195650D01*
Y195716D01*
Y195782D01*
Y195848D01*
Y195914D01*
Y195981D01*
Y196047D01*
Y196113D01*
Y196179D01*
X231920D01*
Y196113D01*
Y196047D01*
Y195981D01*
Y195914D01*
Y195848D01*
Y195782D01*
Y195716D01*
Y195650D01*
Y195583D01*
Y195517D01*
Y195451D01*
Y195385D01*
Y195319D01*
Y195253D01*
Y195186D01*
Y195120D01*
Y195054D01*
Y194988D01*
Y194922D01*
Y194855D01*
Y194789D01*
Y194723D01*
Y194657D01*
Y194590D01*
X231986D01*
Y194524D01*
Y194458D01*
Y194392D01*
X232052D01*
Y194326D01*
Y194259D01*
X232118D01*
Y194193D01*
X232185D01*
Y194127D01*
X232317D01*
Y194061D01*
X232449D01*
Y193995D01*
X233111D01*
Y194061D01*
X233244D01*
Y194127D01*
X233310D01*
Y194193D01*
X233442D01*
Y194259D01*
Y194326D01*
X233508D01*
Y194392D01*
Y194458D01*
X233575D01*
Y194524D01*
Y194590D01*
Y194657D01*
Y194723D01*
X233641D01*
Y194789D01*
Y194855D01*
Y194922D01*
Y194988D01*
Y195054D01*
Y195120D01*
Y195186D01*
Y195253D01*
Y195319D01*
Y195385D01*
Y195451D01*
Y195517D01*
Y195583D01*
Y195650D01*
Y195716D01*
Y195782D01*
Y195848D01*
Y195914D01*
Y195981D01*
Y196047D01*
Y196113D01*
Y196179D01*
D02*
G37*
G36*
X244895D02*
X244035D01*
Y196113D01*
Y196047D01*
Y195981D01*
Y195914D01*
Y195848D01*
Y195782D01*
Y195716D01*
Y195650D01*
Y195583D01*
Y195517D01*
Y195451D01*
Y195385D01*
Y195319D01*
Y195253D01*
Y195186D01*
Y195120D01*
Y195054D01*
Y194988D01*
Y194922D01*
Y194855D01*
Y194789D01*
Y194723D01*
Y194657D01*
Y194590D01*
Y194524D01*
Y194458D01*
Y194392D01*
Y194326D01*
Y194259D01*
Y194193D01*
Y194127D01*
Y194061D01*
Y193995D01*
X245028D01*
Y194061D01*
X245293D01*
Y194127D01*
X245359D01*
Y194193D01*
X245491D01*
Y194259D01*
X245557D01*
Y194326D01*
X245624D01*
Y194392D01*
X245690D01*
Y194458D01*
Y194524D01*
X245756D01*
Y194590D01*
Y194657D01*
Y194723D01*
X245822D01*
Y194789D01*
Y194855D01*
Y194922D01*
Y194988D01*
Y195054D01*
Y195120D01*
Y195186D01*
Y195253D01*
Y195319D01*
Y195385D01*
Y195451D01*
X245756D01*
Y195517D01*
Y195583D01*
Y195650D01*
X245690D01*
Y195716D01*
Y195782D01*
X245624D01*
Y195848D01*
X245557D01*
Y195914D01*
X245491D01*
Y195981D01*
X245359D01*
Y196047D01*
X245226D01*
Y196113D01*
X244895D01*
Y196179D01*
D02*
G37*
G36*
X240592D02*
X240327D01*
Y196113D01*
X240261D01*
Y196047D01*
Y195981D01*
Y195914D01*
X240195D01*
Y195848D01*
Y195782D01*
Y195716D01*
X240129D01*
Y195650D01*
Y195583D01*
X240063D01*
Y195517D01*
Y195451D01*
Y195385D01*
X239996D01*
Y195319D01*
Y195253D01*
X239930D01*
Y195186D01*
Y195120D01*
Y195054D01*
X239864D01*
Y194988D01*
Y194922D01*
Y194855D01*
X239798D01*
Y194789D01*
Y194723D01*
X239732D01*
Y194657D01*
Y194590D01*
Y194524D01*
X239665D01*
Y194458D01*
Y194392D01*
X239599D01*
Y194326D01*
Y194259D01*
Y194193D01*
X239533D01*
Y194127D01*
Y194061D01*
Y193995D01*
X239930D01*
Y194061D01*
Y194127D01*
X239996D01*
Y194193D01*
Y194259D01*
X240063D01*
Y194326D01*
Y194392D01*
Y194458D01*
X240129D01*
Y194524D01*
Y194590D01*
X240791D01*
Y194524D01*
X240857D01*
Y194458D01*
Y194392D01*
X240923D01*
Y194326D01*
Y194259D01*
X240989D01*
Y194193D01*
Y194127D01*
Y194061D01*
X241056D01*
Y193995D01*
X241453D01*
Y194061D01*
Y194127D01*
X241387D01*
Y194193D01*
Y194259D01*
Y194326D01*
X241320D01*
Y194392D01*
Y194458D01*
X241254D01*
Y194524D01*
Y194590D01*
Y194657D01*
X241188D01*
Y194723D01*
Y194789D01*
X241122D01*
Y194855D01*
Y194922D01*
Y194988D01*
X241056D01*
Y195054D01*
Y195120D01*
X240989D01*
Y195186D01*
Y195253D01*
Y195319D01*
X240923D01*
Y195385D01*
Y195451D01*
X240857D01*
Y195517D01*
Y195583D01*
Y195650D01*
X240791D01*
Y195716D01*
Y195782D01*
X240725D01*
Y195848D01*
Y195914D01*
Y195981D01*
X240658D01*
Y196047D01*
Y196113D01*
X240592D01*
Y196179D01*
D02*
G37*
G36*
X238474D02*
X238076D01*
Y196113D01*
Y196047D01*
Y195981D01*
Y195914D01*
Y195848D01*
Y195782D01*
Y195716D01*
Y195650D01*
Y195583D01*
Y195517D01*
Y195451D01*
Y195385D01*
Y195319D01*
Y195253D01*
Y195186D01*
Y195120D01*
Y195054D01*
Y194988D01*
Y194922D01*
Y194855D01*
Y194789D01*
Y194723D01*
Y194657D01*
Y194590D01*
Y194524D01*
Y194458D01*
Y194392D01*
Y194326D01*
Y194259D01*
Y194193D01*
Y194127D01*
Y194061D01*
Y193995D01*
X239268D01*
Y194061D01*
Y194127D01*
Y194193D01*
Y194259D01*
Y194326D01*
Y194392D01*
X238474D01*
Y194458D01*
Y194524D01*
Y194590D01*
Y194657D01*
Y194723D01*
Y194789D01*
Y194855D01*
Y194922D01*
Y194988D01*
Y195054D01*
Y195120D01*
Y195186D01*
Y195253D01*
Y195319D01*
Y195385D01*
Y195451D01*
Y195517D01*
Y195583D01*
Y195650D01*
Y195716D01*
Y195782D01*
Y195848D01*
Y195914D01*
Y195981D01*
Y196047D01*
Y196113D01*
Y196179D01*
D02*
G37*
G36*
X230927D02*
X230596D01*
Y196113D01*
Y196047D01*
Y195981D01*
X230529D01*
Y195914D01*
Y195848D01*
Y195782D01*
X230463D01*
Y195716D01*
Y195650D01*
X230397D01*
Y195583D01*
Y195517D01*
Y195451D01*
X230331D01*
Y195385D01*
Y195319D01*
X230265D01*
Y195253D01*
Y195186D01*
Y195120D01*
X230198D01*
Y195054D01*
Y194988D01*
Y194922D01*
X230132D01*
Y194855D01*
Y194789D01*
X230066D01*
Y194723D01*
Y194657D01*
Y194590D01*
X230000D01*
Y194524D01*
Y194458D01*
X229934D01*
Y194392D01*
Y194326D01*
Y194259D01*
X229867D01*
Y194193D01*
Y194127D01*
X229801D01*
Y194061D01*
Y193995D01*
X230265D01*
Y194061D01*
Y194127D01*
Y194193D01*
X230331D01*
Y194259D01*
Y194326D01*
X230397D01*
Y194392D01*
Y194458D01*
Y194524D01*
X230463D01*
Y194590D01*
X231125D01*
Y194524D01*
Y194458D01*
X231191D01*
Y194392D01*
Y194326D01*
X231258D01*
Y194259D01*
Y194193D01*
X231324D01*
Y194127D01*
Y194061D01*
Y193995D01*
X231787D01*
Y194061D01*
X231721D01*
Y194127D01*
Y194193D01*
Y194259D01*
X231655D01*
Y194326D01*
Y194392D01*
X231589D01*
Y194458D01*
Y194524D01*
Y194590D01*
X231522D01*
Y194657D01*
Y194723D01*
X231456D01*
Y194789D01*
Y194855D01*
Y194922D01*
X231390D01*
Y194988D01*
Y195054D01*
X231324D01*
Y195120D01*
Y195186D01*
Y195253D01*
X231258D01*
Y195319D01*
Y195385D01*
X231191D01*
Y195451D01*
Y195517D01*
Y195583D01*
X231125D01*
Y195650D01*
Y195716D01*
X231059D01*
Y195782D01*
Y195848D01*
Y195914D01*
X230993D01*
Y195981D01*
Y196047D01*
X230927D01*
Y196113D01*
Y196179D01*
D02*
G37*
G36*
X242446Y193597D02*
X242247D01*
Y193531D01*
X242181D01*
Y193465D01*
X242115D01*
Y193399D01*
X242049D01*
Y193465D01*
Y193531D01*
X241983D01*
Y193597D01*
X241784D01*
Y193531D01*
Y193465D01*
Y193399D01*
Y193333D01*
Y193266D01*
Y193200D01*
Y193134D01*
Y193068D01*
Y193002D01*
Y192935D01*
Y192869D01*
X241916D01*
Y192935D01*
Y193002D01*
Y193068D01*
Y193134D01*
Y193200D01*
Y193266D01*
X241983D01*
Y193200D01*
X242049D01*
Y193134D01*
X242181D01*
Y193200D01*
Y193266D01*
X242247D01*
Y193200D01*
Y193134D01*
Y193068D01*
Y193002D01*
Y192935D01*
Y192869D01*
X242446D01*
Y192935D01*
Y193002D01*
Y193068D01*
Y193134D01*
Y193200D01*
Y193266D01*
Y193333D01*
Y193399D01*
Y193465D01*
Y193531D01*
Y193597D01*
D02*
G37*
G36*
X233575Y193399D02*
X233310D01*
Y193333D01*
X233177D01*
Y193399D01*
X232846D01*
Y193333D01*
Y193266D01*
Y193200D01*
Y193134D01*
Y193068D01*
Y193002D01*
Y192935D01*
Y192869D01*
X232979D01*
Y192935D01*
Y193002D01*
Y193068D01*
Y193134D01*
Y193200D01*
X233177D01*
Y193266D01*
X233244D01*
Y193200D01*
Y193134D01*
Y193068D01*
Y193002D01*
Y192935D01*
X233310D01*
Y192869D01*
X233575D01*
Y192935D01*
X233641D01*
Y193002D01*
Y193068D01*
Y193134D01*
Y193200D01*
Y193266D01*
Y193333D01*
X233575D01*
Y193399D01*
D02*
G37*
G36*
X234833Y193597D02*
X234634D01*
Y193531D01*
Y193465D01*
Y193399D01*
X234568D01*
Y193333D01*
Y193266D01*
X234502D01*
Y193333D01*
Y193399D01*
Y193465D01*
X234435D01*
Y193531D01*
Y193597D01*
X234237D01*
Y193531D01*
Y193465D01*
X234171D01*
Y193399D01*
Y193333D01*
Y193266D01*
X234104D01*
Y193333D01*
Y193399D01*
X234038D01*
Y193465D01*
Y193531D01*
Y193597D01*
X233840D01*
Y193531D01*
Y193465D01*
X233906D01*
Y193399D01*
Y193333D01*
Y193266D01*
X233972D01*
Y193200D01*
Y193134D01*
Y193068D01*
X234038D01*
Y193002D01*
Y192935D01*
Y192869D01*
X234171D01*
Y192935D01*
Y193002D01*
X234237D01*
Y193068D01*
Y193134D01*
X234303D01*
Y193200D01*
Y193266D01*
Y193333D01*
X234369D01*
Y193266D01*
Y193200D01*
Y193134D01*
X234435D01*
Y193068D01*
Y193002D01*
Y192935D01*
X234502D01*
Y192869D01*
X234568D01*
Y192935D01*
X234634D01*
Y193002D01*
Y193068D01*
Y193134D01*
X234700D01*
Y193200D01*
Y193266D01*
X234766D01*
Y193200D01*
X234899D01*
Y193134D01*
X234766D01*
Y193068D01*
Y193002D01*
Y192935D01*
X234833D01*
Y192869D01*
X235164D01*
Y192935D01*
Y193002D01*
Y193068D01*
Y193134D01*
Y193200D01*
Y193266D01*
X235097D01*
Y193333D01*
Y193399D01*
Y193465D01*
Y193531D01*
X234833D01*
Y193597D01*
D02*
G37*
G36*
X232052D02*
X231721D01*
Y193531D01*
Y193465D01*
X231655D01*
Y193399D01*
Y193333D01*
Y193266D01*
X231589D01*
Y193333D01*
Y193399D01*
X231522D01*
Y193465D01*
Y193531D01*
Y193597D01*
X231324D01*
Y193531D01*
X231258D01*
Y193465D01*
Y193399D01*
Y193333D01*
X231125D01*
Y193399D01*
Y193465D01*
Y193531D01*
X231059D01*
Y193597D01*
X230927D01*
Y193531D01*
Y193465D01*
Y193399D01*
X230993D01*
Y193333D01*
Y193266D01*
Y193200D01*
X231059D01*
Y193134D01*
Y193068D01*
Y193002D01*
X231125D01*
Y192935D01*
Y192869D01*
X231258D01*
Y192935D01*
Y193002D01*
Y193068D01*
X231324D01*
Y193134D01*
Y193200D01*
X231390D01*
Y193266D01*
X231456D01*
Y193200D01*
Y193134D01*
Y193068D01*
X231522D01*
Y193002D01*
Y192935D01*
Y192869D01*
X231655D01*
Y192935D01*
Y193002D01*
X231721D01*
Y193068D01*
Y193134D01*
X231787D01*
Y193200D01*
Y193266D01*
Y193333D01*
X231854D01*
Y193399D01*
Y193465D01*
Y193531D01*
X231920D01*
Y193465D01*
Y193399D01*
Y193333D01*
Y193266D01*
Y193200D01*
Y193134D01*
Y193068D01*
Y193002D01*
Y192935D01*
Y192869D01*
X232052D01*
Y192935D01*
Y193002D01*
Y193068D01*
Y193134D01*
Y193200D01*
X232118D01*
Y193266D01*
X232185D01*
Y193200D01*
Y193134D01*
Y193068D01*
Y193002D01*
Y192935D01*
Y192869D01*
X232317D01*
Y192935D01*
Y193002D01*
Y193068D01*
Y193134D01*
Y193200D01*
Y193266D01*
Y193333D01*
Y193399D01*
X232052D01*
Y193465D01*
Y193531D01*
Y193597D01*
D02*
G37*
G36*
X245756Y193399D02*
X245624D01*
Y193333D01*
Y193266D01*
Y193200D01*
Y193134D01*
Y193068D01*
Y193002D01*
X245557D01*
Y193068D01*
X245491D01*
Y193134D01*
Y193200D01*
Y193266D01*
Y193333D01*
Y193399D01*
X245359D01*
Y193333D01*
Y193266D01*
Y193200D01*
Y193134D01*
Y193068D01*
Y193002D01*
Y192935D01*
X245425D01*
Y192869D01*
X245756D01*
Y192935D01*
Y193002D01*
Y193068D01*
Y193134D01*
Y193200D01*
Y193266D01*
Y193333D01*
Y193399D01*
D02*
G37*
G36*
X244366D02*
X244233D01*
Y193333D01*
Y193266D01*
Y193200D01*
Y193134D01*
Y193068D01*
X244167D01*
Y193002D01*
X244101D01*
Y193068D01*
Y193134D01*
Y193200D01*
Y193266D01*
Y193333D01*
Y193399D01*
X243969D01*
Y193333D01*
Y193266D01*
Y193200D01*
Y193134D01*
Y193068D01*
Y193002D01*
Y192935D01*
X244035D01*
Y192869D01*
X244366D01*
Y192935D01*
Y193002D01*
Y193068D01*
Y193134D01*
Y193200D01*
Y193266D01*
Y193333D01*
Y193399D01*
D02*
G37*
G36*
X245160D02*
X244895D01*
Y193333D01*
Y193266D01*
Y193200D01*
X244962D01*
Y193134D01*
X244895D01*
Y193068D01*
Y193002D01*
Y192935D01*
Y192869D01*
X245293D01*
Y192935D01*
Y193002D01*
X245226D01*
Y193068D01*
Y193134D01*
Y193200D01*
Y193266D01*
Y193333D01*
X245160D01*
Y193399D01*
D02*
G37*
G36*
X244829D02*
X244498D01*
Y193333D01*
Y193266D01*
Y193200D01*
Y193134D01*
Y193068D01*
Y193002D01*
Y192935D01*
Y192869D01*
X244631D01*
Y192935D01*
Y193002D01*
Y193068D01*
Y193134D01*
Y193200D01*
X244829D01*
Y193266D01*
Y193333D01*
Y193399D01*
D02*
G37*
G36*
X243770D02*
X243505D01*
Y193333D01*
Y193266D01*
Y193200D01*
X243571D01*
Y193134D01*
X243505D01*
Y193068D01*
Y193002D01*
Y192935D01*
Y192869D01*
X243902D01*
Y192935D01*
Y193002D01*
X243836D01*
Y193068D01*
Y193134D01*
Y193200D01*
Y193266D01*
Y193333D01*
X243770D01*
Y193399D01*
D02*
G37*
G36*
X243174Y193597D02*
X242975D01*
Y193531D01*
Y193465D01*
Y193399D01*
Y193333D01*
Y193266D01*
Y193200D01*
Y193134D01*
Y193068D01*
Y193002D01*
Y192935D01*
Y192869D01*
X243174D01*
Y192935D01*
Y193002D01*
X243240D01*
Y192935D01*
Y192869D01*
X243439D01*
Y192935D01*
Y193002D01*
X243373D01*
Y193068D01*
X243307D01*
Y193134D01*
Y193200D01*
X243373D01*
Y193266D01*
Y193333D01*
X243439D01*
Y193399D01*
X243240D01*
Y193333D01*
X243174D01*
Y193399D01*
Y193465D01*
Y193531D01*
Y193597D01*
D02*
G37*
G36*
X242843Y193399D02*
X242578D01*
Y193333D01*
X242512D01*
Y193266D01*
Y193200D01*
X242578D01*
Y193134D01*
X242512D01*
Y193068D01*
Y193002D01*
Y192935D01*
Y192869D01*
X242909D01*
Y192935D01*
Y193002D01*
X242843D01*
Y193068D01*
Y193134D01*
Y193200D01*
Y193266D01*
Y193333D01*
Y193399D01*
D02*
G37*
G36*
X241320Y193597D02*
X241188D01*
Y193531D01*
Y193465D01*
Y193399D01*
Y193333D01*
Y193266D01*
Y193200D01*
Y193134D01*
Y193068D01*
Y193002D01*
Y192935D01*
Y192869D01*
X241320D01*
Y192935D01*
Y193002D01*
Y193068D01*
Y193134D01*
Y193200D01*
Y193266D01*
Y193333D01*
Y193399D01*
Y193465D01*
Y193531D01*
Y193597D01*
D02*
G37*
G36*
X240791D02*
X240658D01*
Y193531D01*
Y193465D01*
Y193399D01*
Y193333D01*
Y193266D01*
Y193200D01*
Y193134D01*
Y193068D01*
Y193002D01*
Y192935D01*
Y192869D01*
X240791D01*
Y192935D01*
Y193002D01*
X240857D01*
Y192935D01*
X240923D01*
Y192869D01*
X241122D01*
Y192935D01*
Y193002D01*
X241056D01*
Y193068D01*
X240989D01*
Y193134D01*
Y193200D01*
Y193266D01*
X241056D01*
Y193333D01*
X241122D01*
Y193399D01*
X240923D01*
Y193333D01*
X240857D01*
Y193266D01*
X240791D01*
Y193333D01*
Y193399D01*
Y193465D01*
Y193531D01*
Y193597D01*
D02*
G37*
G36*
X240460Y193399D02*
X240195D01*
Y193333D01*
Y193266D01*
Y193200D01*
X240261D01*
Y193134D01*
X240195D01*
Y193068D01*
Y193002D01*
Y192935D01*
Y192869D01*
X240592D01*
Y192935D01*
Y193002D01*
X240526D01*
Y193068D01*
Y193134D01*
Y193200D01*
Y193266D01*
Y193333D01*
X240460D01*
Y193399D01*
D02*
G37*
G36*
X240063D02*
X239467D01*
Y193333D01*
Y193266D01*
Y193200D01*
Y193134D01*
Y193068D01*
Y193002D01*
Y192935D01*
Y192869D01*
X239599D01*
Y192935D01*
Y193002D01*
Y193068D01*
Y193134D01*
Y193200D01*
Y193266D01*
X239665D01*
Y193200D01*
X239732D01*
Y193134D01*
Y193068D01*
Y193002D01*
Y192935D01*
Y192869D01*
X239864D01*
Y192935D01*
Y193002D01*
Y193068D01*
Y193134D01*
Y193200D01*
Y193266D01*
X239930D01*
Y193200D01*
Y193134D01*
Y193068D01*
Y193002D01*
Y192935D01*
Y192869D01*
X240129D01*
Y192935D01*
Y193002D01*
Y193068D01*
Y193134D01*
Y193200D01*
Y193266D01*
X240063D01*
Y193333D01*
Y193399D01*
D02*
G37*
G36*
X239070Y193597D02*
X238474D01*
Y193531D01*
Y193465D01*
X238672D01*
Y193399D01*
Y193333D01*
Y193266D01*
Y193200D01*
Y193134D01*
Y193068D01*
Y193002D01*
Y192935D01*
Y192869D01*
X238871D01*
Y192935D01*
Y193002D01*
Y193068D01*
Y193134D01*
Y193200D01*
Y193266D01*
Y193333D01*
Y193399D01*
Y193465D01*
X239003D01*
Y193399D01*
Y193333D01*
X238937D01*
Y193266D01*
Y193200D01*
X239070D01*
Y193134D01*
X239003D01*
Y193068D01*
X238937D01*
Y193002D01*
Y192935D01*
X239003D01*
Y192869D01*
X239334D01*
Y192935D01*
X239401D01*
Y193002D01*
X239334D01*
Y193068D01*
Y193134D01*
Y193200D01*
Y193266D01*
Y193333D01*
X239268D01*
Y193399D01*
Y193465D01*
Y193531D01*
X239070D01*
Y193597D01*
D02*
G37*
G36*
X238143Y193399D02*
X237878D01*
Y193333D01*
X237812D01*
Y193266D01*
Y193200D01*
X237745D01*
Y193134D01*
Y193068D01*
X237812D01*
Y193002D01*
Y192935D01*
X237878D01*
Y192869D01*
X238143D01*
Y192935D01*
X238209D01*
Y193002D01*
X238275D01*
Y193068D01*
Y193134D01*
Y193200D01*
Y193266D01*
X238209D01*
Y193333D01*
X238143D01*
Y193399D01*
D02*
G37*
G36*
X237348D02*
X237084D01*
Y193333D01*
Y193266D01*
Y193200D01*
X237150D01*
Y193134D01*
X237084D01*
Y193068D01*
X237017D01*
Y193002D01*
Y192935D01*
X237084D01*
Y192869D01*
X237481D01*
Y192935D01*
Y193002D01*
X237415D01*
Y193068D01*
Y193134D01*
Y193200D01*
Y193266D01*
Y193333D01*
X237348D01*
Y193399D01*
D02*
G37*
G36*
X236488D02*
X236157D01*
Y193333D01*
Y193266D01*
Y193200D01*
Y193134D01*
Y193068D01*
Y193002D01*
Y192935D01*
Y192869D01*
X236289D01*
Y192935D01*
Y193002D01*
Y193068D01*
Y193134D01*
Y193200D01*
X236355D01*
Y193266D01*
X236421D01*
Y193200D01*
Y193134D01*
Y193068D01*
Y193002D01*
Y192935D01*
Y192869D01*
X236554D01*
Y192935D01*
Y193002D01*
Y193068D01*
Y193134D01*
Y193200D01*
Y193266D01*
Y193333D01*
X236488D01*
Y193399D01*
D02*
G37*
G36*
X236024D02*
X235759D01*
Y193333D01*
X235693D01*
Y193266D01*
Y193200D01*
X235759D01*
Y193134D01*
X235693D01*
Y193068D01*
Y193002D01*
Y192935D01*
X235759D01*
Y192869D01*
X236090D01*
Y192935D01*
Y193002D01*
X236024D01*
Y193068D01*
Y193134D01*
Y193200D01*
Y193266D01*
Y193333D01*
Y193399D01*
D02*
G37*
G36*
X235561D02*
X235230D01*
Y193333D01*
Y193266D01*
Y193200D01*
Y193134D01*
Y193068D01*
Y193002D01*
Y192935D01*
Y192869D01*
X235362D01*
Y192935D01*
Y193002D01*
Y193068D01*
Y193134D01*
Y193200D01*
X235428D01*
Y193266D01*
X235495D01*
Y193200D01*
Y193134D01*
Y193068D01*
Y193002D01*
Y192935D01*
Y192869D01*
X235627D01*
Y192935D01*
Y193002D01*
Y193068D01*
Y193134D01*
Y193200D01*
Y193266D01*
Y193333D01*
X235561D01*
Y193399D01*
D02*
G37*
G36*
X232714D02*
X232449D01*
Y193333D01*
X232383D01*
Y193266D01*
Y193200D01*
X232516D01*
Y193134D01*
X232383D01*
Y193068D01*
Y193002D01*
Y192935D01*
X232449D01*
Y192869D01*
X232780D01*
Y192935D01*
Y193002D01*
X232714D01*
Y193068D01*
Y193134D01*
Y193200D01*
Y193266D01*
Y193333D01*
Y193399D01*
D02*
G37*
G36*
X230662D02*
X230397D01*
Y193333D01*
X230331D01*
Y193266D01*
X230265D01*
Y193200D01*
Y193134D01*
Y193068D01*
Y193002D01*
X230331D01*
Y192935D01*
X230397D01*
Y192869D01*
X230662D01*
Y192935D01*
X230728D01*
Y193002D01*
Y193068D01*
Y193134D01*
Y193200D01*
Y193266D01*
X230662D01*
Y193333D01*
Y193399D01*
D02*
G37*
G36*
X230397Y193597D02*
X229801D01*
Y193531D01*
Y193465D01*
X230000D01*
Y193399D01*
Y193333D01*
Y193266D01*
Y193200D01*
Y193134D01*
Y193068D01*
Y193002D01*
Y192935D01*
Y192869D01*
X230198D01*
Y192935D01*
Y193002D01*
Y193068D01*
Y193134D01*
Y193200D01*
Y193266D01*
Y193333D01*
Y193399D01*
Y193465D01*
X230397D01*
Y193531D01*
Y193597D01*
D02*
G37*
G36*
X237017Y193399D02*
X236686D01*
Y193333D01*
X236620D01*
Y193266D01*
Y193200D01*
Y193134D01*
Y193068D01*
X236686D01*
Y193002D01*
Y192935D01*
X236620D01*
Y192869D01*
Y192803D01*
Y192737D01*
Y192671D01*
X237017D01*
Y192737D01*
Y192803D01*
Y192869D01*
Y192935D01*
X236951D01*
Y193002D01*
Y193068D01*
Y193134D01*
X237017D01*
Y193200D01*
Y193266D01*
Y193333D01*
Y193399D01*
D02*
G37*
G36*
X245822Y192406D02*
X229867D01*
Y192340D01*
Y192273D01*
X245822D01*
Y192340D01*
Y192406D01*
D02*
G37*
G36*
X234171Y192008D02*
X233972D01*
Y191942D01*
X233906D01*
Y191876D01*
Y191810D01*
Y191744D01*
X233840D01*
Y191677D01*
Y191611D01*
X233773D01*
Y191677D01*
X233707D01*
Y191744D01*
Y191810D01*
X233641D01*
Y191876D01*
Y191942D01*
X233575D01*
Y192008D01*
X233376D01*
Y191942D01*
Y191876D01*
X233310D01*
Y191810D01*
Y191744D01*
X233244D01*
Y191677D01*
Y191611D01*
Y191545D01*
X233177D01*
Y191611D01*
Y191677D01*
X233111D01*
Y191744D01*
Y191810D01*
Y191876D01*
X233045D01*
Y191942D01*
Y192008D01*
X232780D01*
Y191942D01*
Y191876D01*
X232846D01*
Y191810D01*
Y191744D01*
X232913D01*
Y191677D01*
Y191611D01*
Y191545D01*
X232979D01*
Y191479D01*
Y191413D01*
X233045D01*
Y191347D01*
Y191280D01*
Y191214D01*
X233111D01*
Y191148D01*
Y191082D01*
X233310D01*
Y191148D01*
Y191214D01*
Y191280D01*
X233376D01*
Y191347D01*
Y191413D01*
X233442D01*
Y191479D01*
Y191545D01*
X233508D01*
Y191479D01*
X233575D01*
Y191413D01*
Y191347D01*
X233641D01*
Y191280D01*
Y191214D01*
X233707D01*
Y191148D01*
Y191082D01*
X233840D01*
Y191148D01*
X233906D01*
Y191214D01*
Y191280D01*
X233972D01*
Y191347D01*
Y191413D01*
Y191479D01*
X234038D01*
Y191545D01*
Y191611D01*
X234104D01*
Y191677D01*
Y191744D01*
X234171D01*
Y191810D01*
Y191876D01*
Y191942D01*
Y192008D01*
D02*
G37*
G36*
X244101D02*
X243902D01*
Y191942D01*
Y191876D01*
Y191810D01*
Y191744D01*
Y191677D01*
Y191611D01*
Y191545D01*
X243836D01*
Y191611D01*
X243770D01*
Y191677D01*
X243704D01*
Y191744D01*
X243638D01*
Y191810D01*
X243571D01*
Y191876D01*
Y191942D01*
X243505D01*
Y192008D01*
X243240D01*
Y191942D01*
Y191876D01*
Y191810D01*
Y191744D01*
Y191677D01*
Y191611D01*
Y191545D01*
Y191479D01*
Y191413D01*
Y191347D01*
Y191280D01*
Y191214D01*
Y191148D01*
Y191082D01*
X243505D01*
Y191148D01*
Y191214D01*
Y191280D01*
Y191347D01*
Y191413D01*
Y191479D01*
Y191545D01*
X243571D01*
Y191479D01*
X243638D01*
Y191413D01*
X243704D01*
Y191347D01*
Y191280D01*
X243770D01*
Y191214D01*
X243836D01*
Y191148D01*
X243902D01*
Y191082D01*
X244101D01*
Y191148D01*
Y191214D01*
Y191280D01*
Y191347D01*
Y191413D01*
Y191479D01*
Y191545D01*
Y191611D01*
Y191677D01*
Y191744D01*
Y191810D01*
Y191876D01*
Y191942D01*
Y192008D01*
D02*
G37*
G36*
X230728D02*
X230463D01*
Y191942D01*
Y191876D01*
Y191810D01*
Y191744D01*
Y191677D01*
Y191611D01*
Y191545D01*
X230397D01*
Y191611D01*
X230331D01*
Y191677D01*
X230265D01*
Y191744D01*
Y191810D01*
X230198D01*
Y191876D01*
X230132D01*
Y191942D01*
X230066D01*
Y192008D01*
X229867D01*
Y191942D01*
Y191876D01*
Y191810D01*
Y191744D01*
Y191677D01*
Y191611D01*
Y191545D01*
Y191479D01*
Y191413D01*
Y191347D01*
Y191280D01*
Y191214D01*
Y191148D01*
Y191082D01*
X230066D01*
Y191148D01*
Y191214D01*
Y191280D01*
Y191347D01*
Y191413D01*
Y191479D01*
Y191545D01*
X230132D01*
Y191479D01*
X230198D01*
Y191413D01*
X230265D01*
Y191347D01*
X230331D01*
Y191280D01*
X230397D01*
Y191214D01*
Y191148D01*
X230463D01*
Y191082D01*
X230728D01*
Y191148D01*
Y191214D01*
Y191280D01*
Y191347D01*
Y191413D01*
Y191479D01*
Y191545D01*
Y191611D01*
Y191677D01*
Y191744D01*
Y191810D01*
Y191876D01*
Y191942D01*
Y192008D01*
D02*
G37*
G36*
X245491D02*
X244895D01*
Y191942D01*
Y191876D01*
Y191810D01*
Y191744D01*
Y191677D01*
Y191611D01*
Y191545D01*
Y191479D01*
Y191413D01*
Y191347D01*
Y191280D01*
Y191214D01*
Y191148D01*
Y191082D01*
X245557D01*
Y191148D01*
X245624D01*
Y191214D01*
X245690D01*
Y191280D01*
X245756D01*
Y191347D01*
Y191413D01*
X245822D01*
Y191479D01*
Y191545D01*
Y191611D01*
X245756D01*
Y191677D01*
Y191744D01*
Y191810D01*
X245690D01*
Y191876D01*
X245624D01*
Y191942D01*
X245491D01*
Y192008D01*
D02*
G37*
G36*
X242181D02*
X241983D01*
Y191942D01*
X241916D01*
Y191876D01*
Y191810D01*
X241850D01*
Y191744D01*
Y191677D01*
X241784D01*
Y191611D01*
Y191545D01*
Y191479D01*
X241718D01*
Y191413D01*
Y191347D01*
X241652D01*
Y191280D01*
Y191214D01*
Y191148D01*
X241585D01*
Y191082D01*
X241850D01*
Y191148D01*
X241916D01*
Y191214D01*
Y191280D01*
X242247D01*
Y191214D01*
Y191148D01*
X242314D01*
Y191082D01*
X242578D01*
Y191148D01*
Y191214D01*
X242512D01*
Y191280D01*
Y191347D01*
X242446D01*
Y191413D01*
Y191479D01*
X242380D01*
Y191545D01*
Y191611D01*
X242314D01*
Y191677D01*
Y191744D01*
Y191810D01*
X242247D01*
Y191876D01*
Y191942D01*
X242181D01*
Y192008D01*
D02*
G37*
G36*
X240592D02*
X240327D01*
Y191942D01*
Y191876D01*
Y191810D01*
Y191744D01*
Y191677D01*
Y191611D01*
Y191545D01*
Y191479D01*
Y191413D01*
Y191347D01*
Y191280D01*
Y191214D01*
Y191148D01*
Y191082D01*
X240989D01*
Y191148D01*
Y191214D01*
Y191280D01*
X240592D01*
Y191347D01*
Y191413D01*
Y191479D01*
Y191545D01*
Y191611D01*
Y191677D01*
Y191744D01*
Y191810D01*
Y191876D01*
Y191942D01*
Y192008D01*
D02*
G37*
G36*
X239268D02*
X239003D01*
Y191942D01*
Y191876D01*
Y191810D01*
X238937D01*
Y191744D01*
Y191677D01*
X238871D01*
Y191611D01*
Y191545D01*
Y191479D01*
X238805D01*
Y191413D01*
Y191347D01*
X238738D01*
Y191280D01*
Y191214D01*
X238672D01*
Y191148D01*
Y191082D01*
X238937D01*
Y191148D01*
Y191214D01*
X239003D01*
Y191280D01*
X239334D01*
Y191214D01*
Y191148D01*
X239401D01*
Y191082D01*
X239665D01*
Y191148D01*
X239599D01*
Y191214D01*
Y191280D01*
X239533D01*
Y191347D01*
Y191413D01*
Y191479D01*
X239467D01*
Y191545D01*
Y191611D01*
X239401D01*
Y191677D01*
Y191744D01*
X239334D01*
Y191810D01*
Y191876D01*
Y191942D01*
X239268D01*
Y192008D01*
D02*
G37*
G36*
X238010D02*
X237415D01*
Y191942D01*
Y191876D01*
Y191810D01*
Y191744D01*
Y191677D01*
Y191611D01*
Y191545D01*
Y191479D01*
Y191413D01*
Y191347D01*
Y191280D01*
Y191214D01*
Y191148D01*
Y191082D01*
X238010D01*
Y191148D01*
Y191214D01*
Y191280D01*
X237613D01*
Y191347D01*
Y191413D01*
X238010D01*
Y191479D01*
Y191545D01*
Y191611D01*
X237613D01*
Y191677D01*
Y191744D01*
Y191810D01*
X238010D01*
Y191876D01*
Y191942D01*
Y192008D01*
D02*
G37*
G36*
X236686D02*
X235892D01*
Y191942D01*
Y191876D01*
Y191810D01*
X236289D01*
Y191744D01*
X236223D01*
Y191677D01*
X236157D01*
Y191611D01*
Y191545D01*
X236090D01*
Y191479D01*
X236024D01*
Y191413D01*
Y191347D01*
X235958D01*
Y191280D01*
X235892D01*
Y191214D01*
X235826D01*
Y191148D01*
Y191082D01*
X236686D01*
Y191148D01*
Y191214D01*
Y191280D01*
X236223D01*
Y191347D01*
X236289D01*
Y191413D01*
X236355D01*
Y191479D01*
Y191545D01*
X236421D01*
Y191611D01*
X236488D01*
Y191677D01*
X236554D01*
Y191744D01*
Y191810D01*
X236620D01*
Y191876D01*
X236686D01*
Y191942D01*
Y192008D01*
D02*
G37*
G36*
X232118D02*
X231522D01*
Y191942D01*
Y191876D01*
Y191810D01*
Y191744D01*
Y191677D01*
Y191611D01*
Y191545D01*
Y191479D01*
Y191413D01*
Y191347D01*
Y191280D01*
Y191214D01*
Y191148D01*
Y191082D01*
X232118D01*
Y191148D01*
Y191214D01*
Y191280D01*
X231721D01*
Y191347D01*
Y191413D01*
X232118D01*
Y191479D01*
Y191545D01*
Y191611D01*
X231721D01*
Y191677D01*
Y191744D01*
Y191810D01*
X232118D01*
Y191876D01*
Y191942D01*
Y192008D01*
D02*
G37*
%LPD*%
G36*
X239003Y204852D02*
Y204786D01*
X238937D01*
Y204852D01*
Y204918D01*
X239003D01*
Y204852D01*
D02*
G37*
G36*
X237017D02*
Y204786D01*
X236951D01*
Y204852D01*
Y204918D01*
X237017D01*
Y204852D01*
D02*
G37*
G36*
X236289Y205646D02*
X236421D01*
Y205580D01*
X236488D01*
Y205514D01*
X236554D01*
Y205448D01*
X236620D01*
Y205381D01*
Y205315D01*
X236686D01*
Y205249D01*
Y205183D01*
Y205117D01*
Y205050D01*
Y204984D01*
X236620D01*
Y204918D01*
Y204852D01*
X236554D01*
Y204786D01*
X236421D01*
Y204719D01*
Y204653D01*
Y204587D01*
Y204521D01*
Y204455D01*
Y204388D01*
X236289D01*
Y204455D01*
X236355D01*
Y204521D01*
Y204587D01*
Y204653D01*
X236289D01*
Y204719D01*
X236223D01*
Y204653D01*
X236090D01*
Y204587D01*
Y204521D01*
X235892D01*
Y204587D01*
X235958D01*
Y204653D01*
X236024D01*
Y204719D01*
X236157D01*
Y204786D01*
X236223D01*
Y204852D01*
Y204918D01*
X236355D01*
Y204984D01*
X236421D01*
Y205050D01*
X236488D01*
Y205117D01*
Y205183D01*
Y205249D01*
Y205315D01*
Y205381D01*
Y205448D01*
X236421D01*
Y205514D01*
X236355D01*
Y205580D01*
X236289D01*
Y205646D01*
X236090D01*
Y205713D01*
X236289D01*
Y205646D01*
D02*
G37*
G36*
X240327D02*
X240460D01*
Y205580D01*
X240526D01*
Y205514D01*
X240592D01*
Y205448D01*
X240658D01*
Y205381D01*
Y205315D01*
Y205249D01*
X240725D01*
Y205183D01*
Y205117D01*
Y205050D01*
X240658D01*
Y204984D01*
Y204918D01*
Y204852D01*
X240592D01*
Y204786D01*
X240460D01*
Y204719D01*
X240394D01*
Y204653D01*
X240460D01*
Y204587D01*
Y204521D01*
Y204455D01*
Y204388D01*
Y204322D01*
X240394D01*
Y204388D01*
X240327D01*
Y204455D01*
X240394D01*
Y204521D01*
Y204587D01*
X240327D01*
Y204653D01*
Y204719D01*
X240195D01*
Y204653D01*
X240129D01*
Y204587D01*
X240063D01*
Y204521D01*
X239930D01*
Y204587D01*
X239996D01*
Y204653D01*
X240063D01*
Y204719D01*
X240129D01*
Y204786D01*
X240261D01*
Y204852D01*
Y204918D01*
X240394D01*
Y204984D01*
X240460D01*
Y205050D01*
X240526D01*
Y205117D01*
Y205183D01*
Y205249D01*
Y205315D01*
Y205381D01*
X240460D01*
Y205448D01*
Y205514D01*
X240394D01*
Y205580D01*
X240261D01*
Y205646D01*
X240129D01*
Y205713D01*
X240327D01*
Y205646D01*
D02*
G37*
G36*
X239930Y204455D02*
X239864D01*
Y204388D01*
X239732D01*
Y204322D01*
X239665D01*
Y204388D01*
Y204455D01*
X239798D01*
Y204521D01*
X239930D01*
Y204455D01*
D02*
G37*
G36*
X238341Y205646D02*
X238474D01*
Y205580D01*
X238540D01*
Y205514D01*
X238606D01*
Y205448D01*
Y205381D01*
X238672D01*
Y205315D01*
Y205249D01*
Y205183D01*
Y205117D01*
Y205050D01*
Y204984D01*
Y204918D01*
X238606D01*
Y204852D01*
X238540D01*
Y204786D01*
X238474D01*
Y204719D01*
X238407D01*
Y204653D01*
Y204587D01*
X238474D01*
Y204521D01*
Y204455D01*
X238407D01*
Y204388D01*
X238341D01*
Y204322D01*
X238275D01*
Y204388D01*
Y204455D01*
X238341D01*
Y204521D01*
Y204587D01*
Y204653D01*
Y204719D01*
X238209D01*
Y204653D01*
X238143D01*
Y204587D01*
X238076D01*
Y204521D01*
X237944D01*
Y204455D01*
X237812D01*
Y204521D01*
X237878D01*
Y204587D01*
X237944D01*
Y204653D01*
X238076D01*
Y204719D01*
X238143D01*
Y204786D01*
X238209D01*
Y204852D01*
X238275D01*
Y204918D01*
X238341D01*
Y204984D01*
X238474D01*
Y205050D01*
Y205117D01*
X238540D01*
Y205183D01*
Y205249D01*
Y205315D01*
X238474D01*
Y205381D01*
Y205448D01*
Y205514D01*
X238341D01*
Y205580D01*
X238275D01*
Y205646D01*
X238143D01*
Y205713D01*
X238341D01*
Y205646D01*
D02*
G37*
G36*
X237812Y204388D02*
X237745D01*
Y204322D01*
X237679D01*
Y204388D01*
X237613D01*
Y204455D01*
X237812D01*
Y204388D01*
D02*
G37*
G36*
X235826D02*
X235759D01*
Y204322D01*
X235693D01*
Y204388D01*
X235627D01*
Y204455D01*
X235826D01*
Y204388D01*
D02*
G37*
G36*
X234833Y204124D02*
X235164D01*
Y204057D01*
X235296D01*
Y203991D01*
X235428D01*
Y203925D01*
X235693D01*
Y203859D01*
X235958D01*
Y203925D01*
X236223D01*
Y203991D01*
X236355D01*
Y204057D01*
X236488D01*
Y204124D01*
X237150D01*
Y204057D01*
X237282D01*
Y203991D01*
X237415D01*
Y203925D01*
X237679D01*
Y203859D01*
X238010D01*
Y203925D01*
X238275D01*
Y203991D01*
X238407D01*
Y204057D01*
X238540D01*
Y204124D01*
X239202D01*
Y204057D01*
X239334D01*
Y203991D01*
X239467D01*
Y203925D01*
X239732D01*
Y203859D01*
X239996D01*
Y203925D01*
X240261D01*
Y203991D01*
X240394D01*
Y204057D01*
X240526D01*
Y204124D01*
X240923D01*
Y204057D01*
Y203991D01*
Y203925D01*
Y203859D01*
Y203793D01*
Y203726D01*
Y203660D01*
Y203594D01*
Y203528D01*
Y203462D01*
Y203395D01*
Y203329D01*
Y203263D01*
Y203197D01*
Y203131D01*
Y203064D01*
Y202998D01*
Y202932D01*
Y202866D01*
Y202800D01*
Y202733D01*
X240857D01*
Y202667D01*
Y202601D01*
Y202535D01*
Y202469D01*
Y202402D01*
X240791D01*
Y202336D01*
Y202270D01*
Y202204D01*
Y202138D01*
X240725D01*
Y202071D01*
Y202005D01*
Y201939D01*
X240658D01*
Y201873D01*
Y201806D01*
Y201740D01*
X240592D01*
Y201674D01*
Y201608D01*
X240526D01*
Y201542D01*
Y201476D01*
X240460D01*
Y201409D01*
Y201343D01*
X240394D01*
Y201277D01*
Y201211D01*
X240327D01*
Y201145D01*
Y201078D01*
X240261D01*
Y201012D01*
Y200946D01*
X240195D01*
Y200880D01*
X240129D01*
Y200814D01*
Y200747D01*
X240063D01*
Y200681D01*
X239996D01*
Y200615D01*
X239930D01*
Y200549D01*
Y200483D01*
X239864D01*
Y200416D01*
X239798D01*
Y200350D01*
X239732D01*
Y200284D01*
X239665D01*
Y200218D01*
X239599D01*
Y200151D01*
X239533D01*
Y200085D01*
X239467D01*
Y200019D01*
X239401D01*
Y199953D01*
X239334D01*
Y199887D01*
X239268D01*
Y199820D01*
X239136D01*
Y199754D01*
X239070D01*
Y199688D01*
X239003D01*
Y199622D01*
X238871D01*
Y199556D01*
X238805D01*
Y199489D01*
X238672D01*
Y199423D01*
X238606D01*
Y199357D01*
X238474D01*
Y199291D01*
X238341D01*
Y199225D01*
X238275D01*
Y199291D01*
Y199357D01*
X238209D01*
Y199423D01*
Y199489D01*
Y199556D01*
X238143D01*
Y199622D01*
Y199688D01*
Y199754D01*
X238209D01*
Y199820D01*
X238341D01*
Y199887D01*
X238407D01*
Y199953D01*
X238474D01*
Y200019D01*
X238010D01*
Y200085D01*
Y200151D01*
Y200218D01*
X237944D01*
Y200284D01*
Y200350D01*
Y200416D01*
X237878D01*
Y200483D01*
X237812D01*
Y200416D01*
X237745D01*
Y200350D01*
Y200284D01*
Y200218D01*
X237679D01*
Y200151D01*
Y200085D01*
Y200019D01*
X237216D01*
Y199953D01*
X237282D01*
Y199887D01*
X237348D01*
Y199820D01*
X237481D01*
Y199754D01*
X237547D01*
Y199688D01*
Y199622D01*
Y199556D01*
X237481D01*
Y199489D01*
Y199423D01*
Y199357D01*
X237415D01*
Y199291D01*
Y199225D01*
X237348D01*
Y199291D01*
X237216D01*
Y199357D01*
X237084D01*
Y199423D01*
X237017D01*
Y199489D01*
X236885D01*
Y199556D01*
X236819D01*
Y199622D01*
X236686D01*
Y199688D01*
X236620D01*
Y199754D01*
X236554D01*
Y199820D01*
X236421D01*
Y199887D01*
X236355D01*
Y199953D01*
X236289D01*
Y200019D01*
X236223D01*
Y200085D01*
X236157D01*
Y200151D01*
X236090D01*
Y200218D01*
X236024D01*
Y200284D01*
X235958D01*
Y200350D01*
X235892D01*
Y200416D01*
X235826D01*
Y200483D01*
Y200549D01*
X235759D01*
Y200615D01*
X235693D01*
Y200681D01*
X235627D01*
Y200747D01*
X235561D01*
Y200814D01*
Y200880D01*
X235495D01*
Y200946D01*
X235428D01*
Y201012D01*
Y201078D01*
X235362D01*
Y201145D01*
Y201211D01*
X235296D01*
Y201277D01*
Y201343D01*
X235230D01*
Y201409D01*
Y201476D01*
X235164D01*
Y201542D01*
Y201608D01*
X235097D01*
Y201674D01*
Y201740D01*
X235031D01*
Y201806D01*
Y201873D01*
Y201939D01*
X234965D01*
Y202005D01*
Y202071D01*
Y202138D01*
X234899D01*
Y202204D01*
Y202270D01*
Y202336D01*
Y202402D01*
X234833D01*
Y202469D01*
Y202535D01*
Y202601D01*
Y202667D01*
Y202733D01*
Y202800D01*
X234766D01*
Y202866D01*
Y202932D01*
Y202998D01*
Y203064D01*
Y203131D01*
Y203197D01*
Y203263D01*
Y203329D01*
Y203395D01*
Y203462D01*
Y203528D01*
Y203594D01*
Y203660D01*
Y203726D01*
Y203793D01*
Y203859D01*
Y203925D01*
Y203991D01*
Y204057D01*
Y204124D01*
Y204190D01*
X234833D01*
Y204124D01*
D02*
G37*
G36*
X237944Y199423D02*
X238010D01*
Y199357D01*
X238076D01*
Y199291D01*
X238209D01*
Y199225D01*
Y199158D01*
X238076D01*
Y199092D01*
X237944D01*
Y199026D01*
X237745D01*
Y199092D01*
X237613D01*
Y199158D01*
X237481D01*
Y199225D01*
X237547D01*
Y199291D01*
X237613D01*
Y199357D01*
X237679D01*
Y199423D01*
X237812D01*
Y199489D01*
X237944D01*
Y199423D01*
D02*
G37*
%LPC*%
G36*
X239136Y204057D02*
X239003D01*
Y203991D01*
Y203925D01*
Y203859D01*
X238937D01*
Y203793D01*
Y203726D01*
Y203660D01*
Y203594D01*
X238407D01*
Y203528D01*
X238474D01*
Y203462D01*
X238606D01*
Y203395D01*
X238672D01*
Y203329D01*
X238738D01*
Y203263D01*
X238805D01*
Y203197D01*
X238738D01*
Y203131D01*
Y203064D01*
Y202998D01*
X238672D01*
Y202932D01*
Y202866D01*
Y202800D01*
X238805D01*
Y202866D01*
X238871D01*
Y202932D01*
X238937D01*
Y202998D01*
X239003D01*
Y203064D01*
X239136D01*
Y202998D01*
X239202D01*
Y202932D01*
X239268D01*
Y202866D01*
X239401D01*
Y202800D01*
X239467D01*
Y202866D01*
Y202932D01*
Y202998D01*
Y203064D01*
X239401D01*
Y203131D01*
Y203197D01*
Y203263D01*
Y203329D01*
X239467D01*
Y203395D01*
X239599D01*
Y203462D01*
X239665D01*
Y203528D01*
X239732D01*
Y203594D01*
X239268D01*
Y203660D01*
X239202D01*
Y203726D01*
Y203793D01*
Y203859D01*
X239136D01*
Y203925D01*
Y203991D01*
Y204057D01*
D02*
G37*
G36*
X236686D02*
X236554D01*
Y203991D01*
Y203925D01*
Y203859D01*
X236488D01*
Y203793D01*
Y203726D01*
Y203660D01*
X236421D01*
Y203594D01*
X235958D01*
Y203528D01*
X236024D01*
Y203462D01*
X236090D01*
Y203395D01*
X236223D01*
Y203329D01*
X236289D01*
Y203263D01*
Y203197D01*
Y203131D01*
Y203064D01*
Y202998D01*
X236223D01*
Y202932D01*
Y202866D01*
Y202800D01*
X236289D01*
Y202866D01*
X236421D01*
Y202932D01*
X236488D01*
Y202998D01*
X236554D01*
Y203064D01*
X236620D01*
Y202998D01*
X236753D01*
Y202932D01*
X236819D01*
Y202866D01*
X236885D01*
Y202800D01*
X237017D01*
Y202866D01*
Y202932D01*
Y202998D01*
X236951D01*
Y203064D01*
Y203131D01*
Y203197D01*
X236885D01*
Y203263D01*
X236951D01*
Y203329D01*
X237017D01*
Y203395D01*
X237150D01*
Y203462D01*
X237216D01*
Y203528D01*
X237282D01*
Y203594D01*
X236819D01*
Y203660D01*
X236753D01*
Y203726D01*
Y203793D01*
Y203859D01*
X236686D01*
Y203925D01*
Y203991D01*
Y204057D01*
D02*
G37*
G36*
X238738Y202733D02*
X238076D01*
Y202667D01*
X237944D01*
Y202601D01*
X237745D01*
Y202667D01*
X237613D01*
Y202733D01*
X236951D01*
Y202667D01*
X236753D01*
Y202601D01*
X236157D01*
Y202535D01*
X236024D01*
Y202469D01*
X235826D01*
Y202535D01*
X235759D01*
Y202469D01*
X235693D01*
Y202402D01*
Y202336D01*
Y202270D01*
Y202204D01*
Y202138D01*
Y202071D01*
Y202005D01*
Y201939D01*
Y201873D01*
Y201806D01*
Y201740D01*
Y201674D01*
X235958D01*
Y201608D01*
X235693D01*
Y201542D01*
Y201476D01*
Y201409D01*
Y201343D01*
Y201277D01*
Y201211D01*
Y201145D01*
Y201078D01*
Y201012D01*
X236024D01*
Y200946D01*
X236090D01*
Y200880D01*
X236289D01*
Y200814D01*
X236819D01*
Y200880D01*
X236951D01*
Y200946D01*
X237084D01*
Y201012D01*
X237481D01*
Y200946D01*
X237547D01*
Y200880D01*
X237481D01*
Y200814D01*
Y200747D01*
X237547D01*
Y200681D01*
X238143D01*
Y200747D01*
X238209D01*
Y200814D01*
Y200880D01*
X238143D01*
Y200946D01*
X238209D01*
Y201012D01*
X238606D01*
Y200946D01*
X238738D01*
Y200880D01*
X238871D01*
Y200814D01*
X239401D01*
Y200880D01*
X239599D01*
Y200946D01*
X239732D01*
Y201012D01*
X239996D01*
Y201078D01*
Y201145D01*
Y201211D01*
Y201277D01*
Y201343D01*
Y201409D01*
Y201476D01*
Y201542D01*
Y201608D01*
X239732D01*
Y201674D01*
X239996D01*
Y201740D01*
Y201806D01*
Y201873D01*
Y201939D01*
Y202005D01*
Y202071D01*
Y202138D01*
Y202204D01*
Y202270D01*
Y202336D01*
Y202402D01*
Y202469D01*
X239930D01*
Y202535D01*
X239864D01*
Y202469D01*
X239732D01*
Y202535D01*
X239599D01*
Y202601D01*
X238937D01*
Y202667D01*
X238738D01*
Y202733D01*
D02*
G37*
%LPD*%
G36*
X239798Y202071D02*
Y202005D01*
X239732D01*
Y202071D01*
Y202138D01*
X239798D01*
Y202071D01*
D02*
G37*
G36*
X235958D02*
Y202005D01*
X235892D01*
Y202071D01*
Y202138D01*
X235958D01*
Y202071D01*
D02*
G37*
G36*
X239798Y201211D02*
Y201145D01*
X239732D01*
Y201211D01*
Y201277D01*
X239798D01*
Y201211D01*
D02*
G37*
G36*
X235958D02*
Y201145D01*
X235892D01*
Y201211D01*
Y201277D01*
X235958D01*
Y201211D01*
D02*
G37*
G36*
X244498Y197503D02*
X244564D01*
Y197437D01*
Y197371D01*
X244631D01*
Y197305D01*
Y197239D01*
Y197172D01*
Y197106D01*
Y197040D01*
X244564D01*
Y196974D01*
Y196907D01*
X244432D01*
Y196841D01*
X244167D01*
Y196907D01*
X244035D01*
Y196974D01*
Y197040D01*
X243969D01*
Y197106D01*
Y197172D01*
Y197239D01*
Y197305D01*
Y197371D01*
Y197437D01*
X244035D01*
Y197503D01*
X244101D01*
Y197570D01*
X244498D01*
Y197503D01*
D02*
G37*
G36*
X239136Y197570D02*
X239268D01*
Y197503D01*
Y197437D01*
Y197371D01*
X239070D01*
Y197437D01*
Y197503D01*
Y197570D01*
Y197636D01*
X239136D01*
Y197570D01*
D02*
G37*
G36*
X244829Y195716D02*
X245094D01*
Y195650D01*
X245226D01*
Y195583D01*
X245293D01*
Y195517D01*
Y195451D01*
X245359D01*
Y195385D01*
Y195319D01*
X245425D01*
Y195253D01*
Y195186D01*
Y195120D01*
Y195054D01*
Y194988D01*
Y194922D01*
Y194855D01*
X245359D01*
Y194789D01*
Y194723D01*
X245293D01*
Y194657D01*
Y194590D01*
X245226D01*
Y194524D01*
X245094D01*
Y194458D01*
X244962D01*
Y194392D01*
X244432D01*
Y194458D01*
Y194524D01*
Y194590D01*
Y194657D01*
Y194723D01*
Y194789D01*
Y194855D01*
Y194922D01*
Y194988D01*
Y195054D01*
Y195120D01*
Y195186D01*
Y195253D01*
Y195319D01*
Y195385D01*
Y195451D01*
Y195517D01*
Y195583D01*
Y195650D01*
Y195716D01*
Y195782D01*
X244829D01*
Y195716D01*
D02*
G37*
G36*
X240526Y195319D02*
Y195253D01*
Y195186D01*
X240592D01*
Y195120D01*
Y195054D01*
X240658D01*
Y194988D01*
X240327D01*
Y195054D01*
Y195120D01*
X240394D01*
Y195186D01*
Y195253D01*
Y195319D01*
X240460D01*
Y195385D01*
X240526D01*
Y195319D01*
D02*
G37*
G36*
X230794D02*
X230860D01*
Y195253D01*
Y195186D01*
Y195120D01*
X230927D01*
Y195054D01*
Y194988D01*
X230596D01*
Y195054D01*
X230662D01*
Y195120D01*
Y195186D01*
X230728D01*
Y195253D01*
Y195319D01*
Y195385D01*
X230794D01*
Y195319D01*
D02*
G37*
G36*
X238076Y193200D02*
X238143D01*
Y193134D01*
Y193068D01*
X238076D01*
Y193002D01*
X238010D01*
Y193068D01*
X237944D01*
Y193134D01*
Y193200D01*
X238010D01*
Y193266D01*
X238076D01*
Y193200D01*
D02*
G37*
G36*
X245359Y191744D02*
X245491D01*
Y191677D01*
X245557D01*
Y191611D01*
Y191545D01*
Y191479D01*
Y191413D01*
X245491D01*
Y191347D01*
X245425D01*
Y191280D01*
X245160D01*
Y191347D01*
Y191413D01*
Y191479D01*
Y191545D01*
Y191611D01*
Y191677D01*
Y191744D01*
Y191810D01*
X245359D01*
Y191744D01*
D02*
G37*
G36*
X242115Y191545D02*
Y191479D01*
X242049D01*
Y191545D01*
Y191611D01*
X242115D01*
Y191545D01*
D02*
G37*
G36*
X239202D02*
Y191479D01*
X239070D01*
Y191545D01*
X239136D01*
Y191611D01*
X239202D01*
Y191545D01*
D02*
G37*
D10*
X157201Y208587D02*
X156463Y209013D01*
Y208160D01*
X157201Y208587D01*
X116803Y157386D02*
X116065Y157812D01*
Y156960D01*
X116803Y157386D01*
D11*
X125185Y132405D02*
Y133193D01*
Y132405D01*
X164779Y211835D02*
Y212130D01*
X208972Y140870D02*
X212221D01*
Y146283D01*
X164779Y140870D02*
X168028D01*
X164779D02*
Y146283D01*
X212221Y192150D02*
Y212130D01*
X164779D02*
X212221D01*
X116311Y163882D02*
X142689D01*
X116311Y174118D02*
X142689D01*
X116311Y163882D02*
Y174118D01*
X142689Y163882D02*
Y174118D01*
X124425Y190047D02*
X127575D01*
X124425Y195953D02*
X127575D01*
X160638Y123000D02*
X165362D01*
X191638Y123000D02*
X196362D01*
X170638Y123000D02*
X175362D01*
X219650Y120622D02*
Y123378D01*
X213350Y120622D02*
Y123378D01*
X239000Y184500D02*
X249000D01*
Y114500D02*
Y184500D01*
X239000Y114500D02*
X249000D01*
X239000D02*
Y184500D01*
D12*
X85421Y141697D02*
X89358D01*
X85421Y111303D02*
Y141697D01*
Y111303D02*
X89358D01*
X103138Y141697D02*
X112980D01*
X103138Y111303D02*
X112980D01*
D13*
X105910Y155590D02*
X103154D01*
Y156968D01*
X103614Y157427D01*
X104532D01*
X104991Y156968D01*
Y155590D01*
Y156509D02*
X105910Y157427D01*
Y159723D02*
Y158805D01*
X105450Y158346D01*
X104532D01*
X104073Y158805D01*
Y159723D01*
X104532Y160182D01*
X104991D01*
Y158346D01*
X104073Y161101D02*
X105910Y162019D01*
X104073Y162937D01*
X105910Y163856D02*
Y164774D01*
Y164315D01*
X104073D01*
Y163856D01*
X105910Y166151D02*
Y167529D01*
X105450Y167988D01*
X104991Y167529D01*
Y166611D01*
X104532Y166151D01*
X104073Y166611D01*
Y167988D01*
X105910Y168906D02*
Y169825D01*
Y169366D01*
X104073D01*
Y168906D01*
X105910Y171661D02*
Y172580D01*
X105450Y173039D01*
X104532D01*
X104073Y172580D01*
Y171661D01*
X104532Y171202D01*
X105450D01*
X105910Y171661D01*
Y173957D02*
X104073D01*
Y175335D01*
X104532Y175794D01*
X105910D01*
X104073Y176712D02*
Y177172D01*
X104532D01*
Y176712D01*
X104073D01*
X105450D02*
Y177172D01*
X105910D01*
Y176712D01*
X105450D01*
X105910Y181763D02*
Y182682D01*
Y182222D01*
X103154D01*
X103614Y181763D01*
X105910Y184059D02*
X103154D01*
Y185437D01*
X103614Y185896D01*
X104532D01*
X104991Y185437D01*
Y184059D01*
Y184977D02*
X105910Y185896D01*
Y186814D02*
Y187732D01*
Y187273D01*
X103154D01*
X103614Y186814D01*
X97154Y155590D02*
X99910D01*
X98532D01*
Y157427D01*
X97154D01*
X99910D01*
X98073Y158805D02*
Y159723D01*
X98532Y160182D01*
X99910D01*
Y158805D01*
X99450Y158346D01*
X98991Y158805D01*
Y160182D01*
X98073Y161101D02*
X99910D01*
X98991D01*
X98532Y161560D01*
X98073Y162019D01*
Y162478D01*
Y163856D02*
X99910D01*
X98991D01*
X98532Y164315D01*
X98073Y164774D01*
Y165233D01*
X99910Y166611D02*
Y167529D01*
Y167070D01*
X98073D01*
Y166611D01*
X99910Y168906D02*
Y170284D01*
X99450Y170743D01*
X98991Y170284D01*
Y169366D01*
X98532Y168906D01*
X98073Y169366D01*
Y170743D01*
X97154Y174416D02*
Y176253D01*
Y175335D01*
X99910D01*
Y177172D02*
X99450D01*
Y177631D01*
X99910D01*
Y177172D01*
X98073Y182682D02*
Y183600D01*
X98532Y184059D01*
X99910D01*
Y182682D01*
X99450Y182222D01*
X98991Y182682D01*
Y184059D01*
X99910Y184977D02*
X98073D01*
Y186355D01*
X98532Y186814D01*
X99910D01*
X97154Y189569D02*
X99910D01*
Y188192D01*
X99450Y187732D01*
X98532D01*
X98073Y188192D01*
Y189569D01*
X99910Y193243D02*
X97154D01*
X99910Y195079D01*
X97154D01*
X99910Y197375D02*
Y196457D01*
X99450Y195998D01*
X98532D01*
X98073Y196457D01*
Y197375D01*
X98532Y197834D01*
X98991D01*
Y195998D01*
X99910Y198752D02*
Y199671D01*
Y199212D01*
X98073D01*
Y198752D01*
X99910Y201048D02*
Y201967D01*
Y201507D01*
X97154D01*
Y201048D01*
X99910Y206099D02*
X97154D01*
Y207477D01*
X97614Y207936D01*
X98532D01*
X98991Y207477D01*
Y206099D01*
X99910Y208854D02*
X99450D01*
Y209313D01*
X99910D01*
Y208854D01*
X91154Y155590D02*
X93910D01*
Y156968D01*
X93450Y157427D01*
X92991D01*
X92532Y156968D01*
Y155590D01*
Y156968D01*
X92073Y157427D01*
X91614D01*
X91154Y156968D01*
Y155590D01*
Y158346D02*
X93910D01*
Y160182D01*
X91154Y162937D02*
Y161101D01*
X93910D01*
Y162937D01*
X92532Y161101D02*
Y162019D01*
X93910Y163856D02*
Y164774D01*
Y164315D01*
X91154D01*
X91614Y163856D01*
X93910Y166151D02*
Y167070D01*
Y166611D01*
X91154D01*
X91614Y166151D01*
X93910Y170284D02*
Y168447D01*
X92073Y170284D01*
X91614D01*
X91154Y169825D01*
Y168906D01*
X91614Y168447D01*
X91154Y173957D02*
X93910D01*
Y175335D01*
X93450Y175794D01*
X91614D01*
X91154Y175335D01*
Y173957D01*
X93910Y178090D02*
Y177172D01*
X93450Y176712D01*
X92532D01*
X92073Y177172D01*
Y178090D01*
X92532Y178549D01*
X92991D01*
Y176712D01*
X92073Y179467D02*
X93910Y180386D01*
X92073Y181304D01*
X91154Y184977D02*
X93910D01*
Y186355D01*
X93450Y186814D01*
X92991D01*
X92532Y186355D01*
Y184977D01*
Y186355D01*
X92073Y186814D01*
X91614D01*
X91154Y186355D01*
Y184977D01*
X93910Y188192D02*
Y189110D01*
X93450Y189569D01*
X92532D01*
X92073Y189110D01*
Y188192D01*
X92532Y187732D01*
X93450D01*
X93910Y188192D01*
X92073Y190947D02*
Y191865D01*
X92532Y192324D01*
X93910D01*
Y190947D01*
X93450Y190488D01*
X92991Y190947D01*
Y192324D01*
X92073Y193243D02*
X93910D01*
X92991D01*
X92532Y193702D01*
X92073Y194161D01*
Y194620D01*
X91154Y197834D02*
X93910D01*
Y196457D01*
X93450Y195998D01*
X92532D01*
X92073Y196457D01*
Y197834D01*
X222091Y178091D02*
Y181239D01*
X223665D01*
X224190Y180714D01*
Y179665D01*
X223665Y179140D01*
X222091D01*
X223140D02*
X224190Y178091D01*
X227338Y181239D02*
X225239D01*
Y178091D01*
X227338D01*
X225239Y179665D02*
X226289D01*
X230487Y180714D02*
X229962Y181239D01*
X228912D01*
X228388Y180714D01*
Y180190D01*
X228912Y179665D01*
X229962D01*
X230487Y179140D01*
Y178615D01*
X229962Y178091D01*
X228912D01*
X228388Y178615D01*
X233635Y181239D02*
X231536D01*
Y178091D01*
X233635D01*
X231536Y179665D02*
X232586D01*
X234685Y181239D02*
X236784D01*
X235734D01*
Y178091D01*
X221590Y138115D02*
Y141264D01*
X223165D01*
X223690Y140739D01*
Y139690D01*
X223165Y139165D01*
X221590D01*
X222640D02*
X223690Y138115D01*
X224739Y141264D02*
X226838D01*
X225789D01*
Y138115D01*
X229987Y140739D02*
X229462Y141264D01*
X228413D01*
X227888Y140739D01*
Y140214D01*
X228413Y139690D01*
X229462D01*
X229987Y139165D01*
Y138640D01*
X229462Y138115D01*
X228413D01*
X227888Y138640D01*
X231036Y137591D02*
X233135D01*
X234185Y140739D02*
X234710Y141264D01*
X235759D01*
X236284Y140739D01*
Y138640D01*
X235759Y138115D01*
X234710D01*
X234185Y138640D01*
Y140739D01*
X223690Y150739D02*
X223165Y151264D01*
X222115D01*
X221590Y150739D01*
Y148640D01*
X222115Y148115D01*
X223165D01*
X223690Y148640D01*
X224739Y151264D02*
X226838D01*
X225789D01*
Y148115D01*
X229987Y150739D02*
X229462Y151264D01*
X228413D01*
X227888Y150739D01*
Y150214D01*
X228413Y149690D01*
X229462D01*
X229987Y149165D01*
Y148640D01*
X229462Y148115D01*
X228413D01*
X227888Y148640D01*
X231036Y147590D02*
X233135D01*
X234185Y150739D02*
X234710Y151264D01*
X235759D01*
X236284Y150739D01*
Y148640D01*
X235759Y148115D01*
X234710D01*
X234185Y148640D01*
Y150739D01*
X228091Y120214D02*
X228615Y120739D01*
X229665D01*
X230190Y120214D01*
Y119690D01*
X229665Y119165D01*
X229140D01*
X229665D01*
X230190Y118640D01*
Y118115D01*
X229665Y117590D01*
X228615D01*
X228091Y118115D01*
X231239Y120739D02*
Y118640D01*
X232289Y117590D01*
X233338Y118640D01*
Y120739D01*
X234388Y120214D02*
X234912Y120739D01*
X235962D01*
X236487Y120214D01*
Y119690D01*
X235962Y119165D01*
X235437D01*
X235962D01*
X236487Y118640D01*
Y118115D01*
X235962Y117590D01*
X234912D01*
X234388Y118115D01*
X229690Y130214D02*
X229165Y130739D01*
X228115D01*
X227590Y130214D01*
Y128115D01*
X228115Y127591D01*
X229165D01*
X229690Y128115D01*
Y129165D01*
X228640D01*
X230739Y127591D02*
Y130739D01*
X232838Y127591D01*
Y130739D01*
X233888D02*
Y127591D01*
X235462D01*
X235987Y128115D01*
Y130214D01*
X235462Y130739D01*
X233888D01*
X224590Y168615D02*
Y171764D01*
X226165D01*
X226690Y171239D01*
Y170190D01*
X226165Y169665D01*
X224590D01*
X225640D02*
X226690Y168615D01*
X227739Y171764D02*
X229838Y168615D01*
Y171764D02*
X227739Y168615D01*
X230888Y168090D02*
X232987D01*
X234036Y171239D02*
X234561Y171764D01*
X235611D01*
X236135Y171239D01*
Y169140D01*
X235611Y168615D01*
X234561D01*
X234036Y169140D01*
Y171239D01*
X224590Y161764D02*
X226690D01*
X225640D01*
Y158615D01*
X227739Y161764D02*
X229838Y158615D01*
Y161764D02*
X227739Y158615D01*
X230888Y158090D02*
X232987D01*
X234036Y161239D02*
X234561Y161764D01*
X235611D01*
X236135Y161239D01*
Y159140D01*
X235611Y158615D01*
X234561D01*
X234036Y159140D01*
Y161239D01*
X216401Y198574D02*
Y195950D01*
X216926Y195426D01*
X217975D01*
X218500Y195950D01*
Y198574D01*
X219549Y195426D02*
X220599D01*
X220074D01*
Y198574D01*
X219549Y198049D01*
X182975Y111049D02*
X182450Y111574D01*
X181401D01*
X180876Y111049D01*
Y108950D01*
X181401Y108426D01*
X182450D01*
X182975Y108950D01*
X184025Y111049D02*
X184549Y111574D01*
X185599D01*
X186124Y111049D01*
Y110525D01*
X185599Y110000D01*
X186124Y109475D01*
Y108950D01*
X185599Y108426D01*
X184549D01*
X184025Y108950D01*
Y109475D01*
X184549Y110000D01*
X184025Y110525D01*
Y111049D01*
X184549Y110000D02*
X185599D01*
X151475Y111049D02*
X150951Y111574D01*
X149901D01*
X149376Y111049D01*
Y108950D01*
X149901Y108426D01*
X150951D01*
X151475Y108950D01*
X152525Y111574D02*
X154624D01*
Y111049D01*
X152525Y108950D01*
Y108426D01*
X137475Y205049D02*
X136951Y205574D01*
X135901D01*
X135376Y205049D01*
Y202951D01*
X135901Y202426D01*
X136951D01*
X137475Y202951D01*
X140624Y205574D02*
X139574Y205049D01*
X138525Y204000D01*
Y202951D01*
X139049Y202426D01*
X140099D01*
X140624Y202951D01*
Y203475D01*
X140099Y204000D01*
X138525D01*
X203975Y110549D02*
X203450Y111074D01*
X202401D01*
X201876Y110549D01*
Y108450D01*
X202401Y107926D01*
X203450D01*
X203975Y108450D01*
X207124Y111074D02*
X205025D01*
Y109500D01*
X206074Y110025D01*
X206599D01*
X207124Y109500D01*
Y108450D01*
X206599Y107926D01*
X205550D01*
X205025Y108450D01*
X137475Y194550D02*
X136951Y195074D01*
X135901D01*
X135376Y194550D01*
Y192450D01*
X135901Y191926D01*
X136951D01*
X137475Y192450D01*
X138525Y194550D02*
X139049Y195074D01*
X140099D01*
X140624Y194550D01*
Y194025D01*
X140099Y193500D01*
X139574D01*
X140099D01*
X140624Y192975D01*
Y192450D01*
X140099Y191926D01*
X139049D01*
X138525Y192450D01*
X145500Y139049D02*
X144975Y139574D01*
X143926D01*
X143401Y139049D01*
Y136951D01*
X143926Y136426D01*
X144975D01*
X145500Y136951D01*
X146549Y136426D02*
X147599D01*
X147074D01*
Y139574D01*
X146549Y139049D01*
X127252Y111074D02*
Y108450D01*
X127777Y107926D01*
X128827D01*
X129351Y108450D01*
Y111074D01*
X132500Y110549D02*
X131975Y111074D01*
X130926D01*
X130401Y110549D01*
Y110025D01*
X130926Y109500D01*
X131975D01*
X132500Y108975D01*
Y108450D01*
X131975Y107926D01*
X130926D01*
X130401Y108450D01*
X133549Y111074D02*
Y107926D01*
X135124D01*
X135649Y108450D01*
Y108975D01*
X135124Y109500D01*
X133549D01*
X135124D01*
X135649Y110025D01*
Y110549D01*
X135124Y111074D01*
X133549D01*
X136698Y107926D02*
X137748D01*
X137223D01*
Y111074D01*
X136698Y110549D01*
X213901Y110074D02*
Y106926D01*
X216000D01*
X217050D02*
X218099D01*
X217574D01*
Y110074D01*
X217050Y109549D01*
X147376Y166574D02*
Y163951D01*
X147901Y163426D01*
X148951D01*
X149475Y163951D01*
Y166574D01*
X152624Y163426D02*
X150525D01*
X152624Y165525D01*
Y166050D01*
X152099Y166574D01*
X151049D01*
X150525Y166050D01*
X170876Y108426D02*
Y111574D01*
X172450D01*
X172975Y111049D01*
Y110000D01*
X172450Y109475D01*
X170876D01*
X171926D02*
X172975Y108426D01*
X174025Y111049D02*
X174549Y111574D01*
X175599D01*
X176124Y111049D01*
Y110525D01*
X175599Y110000D01*
X175074D01*
X175599D01*
X176124Y109475D01*
Y108950D01*
X175599Y108426D01*
X174549D01*
X174025Y108950D01*
X191876Y108426D02*
Y111574D01*
X193450D01*
X193975Y111049D01*
Y110000D01*
X193450Y109475D01*
X191876D01*
X192926D02*
X193975Y108426D01*
X197124D02*
X195025D01*
X197124Y110525D01*
Y111049D01*
X196599Y111574D01*
X195549D01*
X195025Y111049D01*
X160901Y108426D02*
Y111574D01*
X162475D01*
X163000Y111049D01*
Y110000D01*
X162475Y109475D01*
X160901D01*
X161951D02*
X163000Y108426D01*
X164049D02*
X165099D01*
X164574D01*
Y111574D01*
X164049Y111049D01*
X241901Y108426D02*
Y111574D01*
X243475D01*
X244000Y111049D01*
Y110000D01*
X243475Y109475D01*
X241901D01*
X245050Y108426D02*
X246099D01*
X245574D01*
Y111574D01*
X245050Y111049D01*
X124975Y202049D02*
X124451Y202574D01*
X123401D01*
X122876Y202049D01*
Y199951D01*
X123401Y199426D01*
X124451D01*
X124975Y199951D01*
X127599Y199426D02*
Y202574D01*
X126025Y201000D01*
X128124D01*
X151475Y186049D02*
X150951Y186574D01*
X149901D01*
X149376Y186049D01*
Y183950D01*
X149901Y183426D01*
X150951D01*
X151475Y183950D01*
X154624Y183426D02*
X152525D01*
X154624Y185525D01*
Y186049D01*
X154099Y186574D01*
X153050D01*
X152525Y186049D01*
M02*
