M48
;Layer_Color=9474304
;FILE_FORMAT=2:4
INCH,TZ
;TYPE=PLATED
T1F00S00C0.0157
T2F00S00C0.0236
T3F00S00C0.0354
;TYPE=NON_PLATED
T4F00S00C0.0354
%
T01
X13100Y11600
X13250Y12850
X14414Y13336
X14600Y12300
X11300Y15350
X17350Y11400
X18350
X20450Y11350
X21050Y13700
X22000Y18900
X17410Y16440
X15450Y21150
X13774Y21100
X11800Y19950
T02
X22450Y12200
X14050Y17850
T03
X24400Y11950
Y12950
Y13950
Y14950
Y15950
Y16950
Y17950
T04
X10881Y11784
Y13516
M30
