G04*
G04 #@! TF.GenerationSoftware,Altium Limited,Altium Designer,21.0.9 (235)*
G04*
G04 Layer_Physical_Order=2*
G04 Layer_Color=16711680*
%FSLAX25Y25*%
%MOIN*%
G70*
G04*
G04 #@! TF.SameCoordinates,28F69A72-3BD6-4D5A-B4D2-E5632D31EE07*
G04*
G04*
G04 #@! TF.FilePolarity,Positive*
G04*
G01*
G75*
%ADD42C,0.01968*%
%ADD46C,0.01772*%
%ADD47C,0.05906*%
%ADD48R,0.05906X0.05906*%
%ADD49C,0.02362*%
%ADD50C,0.03937*%
%ADD51C,0.03543*%
G36*
X256786Y210790D02*
Y104419D01*
X254081Y101714D01*
X86210D01*
X83714Y104210D01*
Y211290D01*
X85710Y213286D01*
X136339D01*
X136491Y212786D01*
X136172Y212573D01*
X135689Y211851D01*
X135620Y211500D01*
X139868D01*
X139799Y211851D01*
X139317Y212573D01*
X138997Y212786D01*
X139149Y213286D01*
X152469D01*
X152736Y212786D01*
X152445Y212351D01*
X152376Y212000D01*
X156624D01*
X156554Y212351D01*
X156264Y212786D01*
X156531Y213286D01*
X254290D01*
X256786Y210790D01*
D02*
G37*
%LPC*%
G36*
X156624Y211000D02*
X155000D01*
Y209376D01*
X155351Y209445D01*
X156072Y209928D01*
X156554Y210649D01*
X156624Y211000D01*
D02*
G37*
G36*
X154000D02*
X152376D01*
X152445Y210649D01*
X152927Y209928D01*
X153649Y209445D01*
X154000Y209376D01*
Y211000D01*
D02*
G37*
G36*
X139868Y210500D02*
X138244D01*
Y208876D01*
X138595Y208945D01*
X139317Y209427D01*
X139799Y210149D01*
X139868Y210500D01*
D02*
G37*
G36*
X137244D02*
X135620D01*
X135689Y210149D01*
X136172Y209427D01*
X136893Y208945D01*
X137244Y208876D01*
Y210500D01*
D02*
G37*
G36*
X118500Y201624D02*
Y200000D01*
X120124D01*
X120054Y200351D01*
X119572Y201073D01*
X118851Y201554D01*
X118500Y201624D01*
D02*
G37*
G36*
X117500D02*
X117149Y201554D01*
X116428Y201073D01*
X115945Y200351D01*
X115876Y200000D01*
X117500D01*
Y201624D01*
D02*
G37*
G36*
X120124Y199000D02*
X118500D01*
Y197376D01*
X118851Y197445D01*
X119572Y197927D01*
X120054Y198649D01*
X120124Y199000D01*
D02*
G37*
G36*
X117500D02*
X115876D01*
X115945Y198649D01*
X116428Y197927D01*
X117149Y197445D01*
X117500Y197376D01*
Y199000D01*
D02*
G37*
G36*
X220500Y191124D02*
Y189500D01*
X222124D01*
X222055Y189851D01*
X221572Y190573D01*
X220851Y191054D01*
X220500Y191124D01*
D02*
G37*
G36*
X219500D02*
X219149Y191054D01*
X218427Y190573D01*
X217945Y189851D01*
X217876Y189500D01*
X219500D01*
Y191124D01*
D02*
G37*
G36*
X222124Y188500D02*
X220500D01*
Y186876D01*
X220851Y186945D01*
X221572Y187427D01*
X222055Y188149D01*
X222124Y188500D01*
D02*
G37*
G36*
X219500D02*
X217876D01*
X217945Y188149D01*
X218427Y187427D01*
X219149Y186945D01*
X219500Y186876D01*
Y188500D01*
D02*
G37*
G36*
X244000Y183669D02*
X242921Y183527D01*
X241915Y183111D01*
X241052Y182448D01*
X240389Y181585D01*
X239973Y180579D01*
X239830Y179500D01*
X239973Y178421D01*
X240389Y177415D01*
X241052Y176552D01*
X241915Y175889D01*
X242921Y175473D01*
X244000Y175330D01*
X245079Y175473D01*
X246085Y175889D01*
X246948Y176552D01*
X247611Y177415D01*
X248027Y178421D01*
X248169Y179500D01*
X248027Y180579D01*
X247611Y181585D01*
X246948Y182448D01*
X246085Y183111D01*
X245079Y183527D01*
X244000Y183669D01*
D02*
G37*
G36*
Y173670D02*
X242921Y173527D01*
X241915Y173111D01*
X241052Y172448D01*
X240389Y171585D01*
X239973Y170579D01*
X239830Y169500D01*
X239973Y168421D01*
X240389Y167415D01*
X241052Y166552D01*
X241915Y165889D01*
X242921Y165473D01*
X244000Y165331D01*
X245079Y165473D01*
X246085Y165889D01*
X246948Y166552D01*
X247611Y167415D01*
X248027Y168421D01*
X248169Y169500D01*
X248027Y170579D01*
X247611Y171585D01*
X246948Y172448D01*
X246085Y173111D01*
X245079Y173527D01*
X244000Y173670D01*
D02*
G37*
G36*
X174602Y166522D02*
Y164898D01*
X176227D01*
X176157Y165249D01*
X175675Y165970D01*
X174953Y166452D01*
X174602Y166522D01*
D02*
G37*
G36*
X173602D02*
X173251Y166452D01*
X172530Y165970D01*
X172048Y165249D01*
X171978Y164898D01*
X173602D01*
Y166522D01*
D02*
G37*
G36*
X176227Y163898D02*
X174602D01*
Y162273D01*
X174953Y162343D01*
X175675Y162825D01*
X176157Y163547D01*
X176227Y163898D01*
D02*
G37*
G36*
X173602D02*
X171978D01*
X172048Y163547D01*
X172530Y162825D01*
X173251Y162343D01*
X173602Y162273D01*
Y163898D01*
D02*
G37*
G36*
X244000Y163670D02*
X242921Y163527D01*
X241915Y163111D01*
X241052Y162448D01*
X240389Y161585D01*
X239973Y160579D01*
X239830Y159500D01*
X239973Y158421D01*
X240389Y157415D01*
X241052Y156552D01*
X241915Y155889D01*
X242921Y155473D01*
X244000Y155331D01*
X245079Y155473D01*
X246085Y155889D01*
X246948Y156552D01*
X247611Y157415D01*
X248027Y158421D01*
X248169Y159500D01*
X248027Y160579D01*
X247611Y161585D01*
X246948Y162448D01*
X246085Y163111D01*
X245079Y163527D01*
X244000Y163670D01*
D02*
G37*
G36*
X113500Y155624D02*
Y154000D01*
X115124D01*
X115055Y154351D01*
X114573Y155072D01*
X113851Y155554D01*
X113500Y155624D01*
D02*
G37*
G36*
X112500D02*
X112149Y155554D01*
X111427Y155072D01*
X110945Y154351D01*
X110876Y154000D01*
X112500D01*
Y155624D01*
D02*
G37*
G36*
X115124Y153000D02*
X113500D01*
Y151376D01*
X113851Y151445D01*
X114573Y151927D01*
X115055Y152649D01*
X115124Y153000D01*
D02*
G37*
G36*
X112500D02*
X110876D01*
X110945Y152649D01*
X111427Y151927D01*
X112149Y151445D01*
X112500Y151376D01*
Y153000D01*
D02*
G37*
G36*
X244000Y153670D02*
X242921Y153527D01*
X241915Y153111D01*
X241052Y152448D01*
X240389Y151585D01*
X239973Y150579D01*
X239830Y149500D01*
X239973Y148421D01*
X240389Y147415D01*
X241052Y146552D01*
X241915Y145889D01*
X242921Y145473D01*
X244000Y145331D01*
X245079Y145473D01*
X246085Y145889D01*
X246948Y146552D01*
X247611Y147415D01*
X248027Y148421D01*
X248169Y149500D01*
X248027Y150579D01*
X247611Y151585D01*
X246948Y152448D01*
X246085Y153111D01*
X245079Y153527D01*
X244000Y153670D01*
D02*
G37*
G36*
X211000Y139124D02*
Y137500D01*
X212624D01*
X212555Y137851D01*
X212072Y138573D01*
X211351Y139055D01*
X211000Y139124D01*
D02*
G37*
G36*
X210000D02*
X209649Y139055D01*
X208927Y138573D01*
X208445Y137851D01*
X208376Y137500D01*
X210000D01*
Y139124D01*
D02*
G37*
G36*
X244000Y143669D02*
X242921Y143527D01*
X241915Y143111D01*
X241052Y142448D01*
X240389Y141585D01*
X239973Y140579D01*
X239830Y139500D01*
X239973Y138421D01*
X240389Y137415D01*
X241052Y136552D01*
X241915Y135889D01*
X242921Y135473D01*
X244000Y135330D01*
X245079Y135473D01*
X246085Y135889D01*
X246948Y136552D01*
X247611Y137415D01*
X248027Y138421D01*
X248169Y139500D01*
X248027Y140579D01*
X247611Y141585D01*
X246948Y142448D01*
X246085Y143111D01*
X245079Y143527D01*
X244000Y143669D01*
D02*
G37*
G36*
X212624Y136500D02*
X211000D01*
Y134876D01*
X211351Y134945D01*
X212072Y135427D01*
X212555Y136149D01*
X212624Y136500D01*
D02*
G37*
G36*
X210000D02*
X208376D01*
X208445Y136149D01*
X208927Y135427D01*
X209649Y134945D01*
X210000Y134876D01*
Y136500D01*
D02*
G37*
G36*
X144640Y135484D02*
Y133860D01*
X146265D01*
X146195Y134211D01*
X145713Y134932D01*
X144992Y135414D01*
X144640Y135484D01*
D02*
G37*
G36*
X143640D02*
X143289Y135414D01*
X142568Y134932D01*
X142086Y134211D01*
X142016Y133860D01*
X143640D01*
Y135484D01*
D02*
G37*
G36*
X108807Y138140D02*
X108036Y138038D01*
X107318Y137741D01*
X106701Y137267D01*
X106228Y136651D01*
X105930Y135932D01*
X105829Y135161D01*
X105930Y134391D01*
X106228Y133672D01*
X106701Y133055D01*
X107318Y132582D01*
X108036Y132285D01*
X108807Y132183D01*
X109578Y132285D01*
X110296Y132582D01*
X110913Y133055D01*
X111386Y133672D01*
X111684Y134391D01*
X111785Y135161D01*
X111684Y135932D01*
X111386Y136651D01*
X110913Y137267D01*
X110296Y137741D01*
X109578Y138038D01*
X108807Y138140D01*
D02*
G37*
G36*
X146265Y132860D02*
X144640D01*
Y131235D01*
X144992Y131305D01*
X145713Y131787D01*
X146195Y132509D01*
X146265Y132860D01*
D02*
G37*
G36*
X143640D02*
X142016D01*
X142086Y132509D01*
X142568Y131787D01*
X143289Y131305D01*
X143640Y131235D01*
Y132860D01*
D02*
G37*
G36*
X244500Y133421D02*
Y130000D01*
X247921D01*
X247851Y130532D01*
X247453Y131493D01*
X246819Y132319D01*
X245993Y132953D01*
X245032Y133351D01*
X244500Y133421D01*
D02*
G37*
G36*
X243500D02*
X242968Y133351D01*
X242007Y132953D01*
X241181Y132319D01*
X240547Y131493D01*
X240149Y130532D01*
X240079Y130000D01*
X243500D01*
Y133421D01*
D02*
G37*
G36*
X247921Y129000D02*
X244500D01*
Y125579D01*
X245032Y125649D01*
X245993Y126047D01*
X246819Y126681D01*
X247453Y127507D01*
X247851Y128468D01*
X247921Y129000D01*
D02*
G37*
G36*
X243500D02*
X240079D01*
X240149Y128468D01*
X240547Y127507D01*
X241181Y126681D01*
X242007Y126047D01*
X242968Y125649D01*
X243500Y125579D01*
Y129000D01*
D02*
G37*
G36*
X146500Y125124D02*
Y123500D01*
X148124D01*
X148055Y123851D01*
X147573Y124573D01*
X146851Y125055D01*
X146500Y125124D01*
D02*
G37*
G36*
X145500D02*
X145149Y125055D01*
X144428Y124573D01*
X143946Y123851D01*
X143876Y123500D01*
X145500D01*
Y125124D01*
D02*
G37*
G36*
X148124Y122500D02*
X146500D01*
Y120876D01*
X146851Y120946D01*
X147573Y121428D01*
X148055Y122149D01*
X148124Y122500D01*
D02*
G37*
G36*
X145500D02*
X143876D01*
X143946Y122149D01*
X144428Y121428D01*
X145149Y120946D01*
X145500Y120876D01*
Y122500D01*
D02*
G37*
G36*
X140500Y181677D02*
X139678Y181569D01*
X138912Y181251D01*
X138254Y180746D01*
X137749Y180088D01*
X137432Y179322D01*
X137323Y178500D01*
X137432Y177678D01*
X137522Y177460D01*
Y155500D01*
X137623Y154729D01*
X137921Y154011D01*
X138394Y153394D01*
X171894Y119894D01*
X171894Y119894D01*
X172511Y119421D01*
X173229Y119123D01*
X174000Y119022D01*
X223460D01*
X223678Y118931D01*
X224500Y118823D01*
X225322Y118931D01*
X226088Y119249D01*
X226746Y119754D01*
X227251Y120412D01*
X227569Y121178D01*
X227677Y122000D01*
X227569Y122822D01*
X227251Y123588D01*
X226746Y124246D01*
X226088Y124751D01*
X225322Y125068D01*
X224500Y125177D01*
X223678Y125068D01*
X223460Y124978D01*
X175234D01*
X143478Y156734D01*
Y177460D01*
X143569Y177678D01*
X143677Y178500D01*
X143569Y179322D01*
X143251Y180088D01*
X142746Y180746D01*
X142088Y181251D01*
X141322Y181569D01*
X140500Y181677D01*
D02*
G37*
G36*
X131500Y118124D02*
Y116500D01*
X133124D01*
X133054Y116851D01*
X132572Y117572D01*
X131851Y118054D01*
X131500Y118124D01*
D02*
G37*
G36*
X130500D02*
X130149Y118054D01*
X129428Y117572D01*
X128946Y116851D01*
X128876Y116500D01*
X130500D01*
Y118124D01*
D02*
G37*
G36*
X248134Y123634D02*
X239866D01*
Y115366D01*
X248134D01*
Y123634D01*
D02*
G37*
G36*
X108807Y120817D02*
X108036Y120715D01*
X107318Y120418D01*
X106701Y119945D01*
X106228Y119328D01*
X105930Y118609D01*
X105829Y117839D01*
X105930Y117068D01*
X106228Y116349D01*
X106701Y115733D01*
X107318Y115259D01*
X108036Y114962D01*
X108807Y114860D01*
X109578Y114962D01*
X110296Y115259D01*
X110913Y115733D01*
X111386Y116349D01*
X111684Y117068D01*
X111785Y117839D01*
X111684Y118609D01*
X111386Y119328D01*
X110913Y119945D01*
X110296Y120418D01*
X109578Y120715D01*
X108807Y120817D01*
D02*
G37*
G36*
X184000Y116124D02*
Y114500D01*
X185624D01*
X185555Y114851D01*
X185073Y115573D01*
X184351Y116054D01*
X184000Y116124D01*
D02*
G37*
G36*
X183000D02*
X182649Y116054D01*
X181928Y115573D01*
X181446Y114851D01*
X181376Y114500D01*
X183000D01*
Y116124D01*
D02*
G37*
G36*
X205000Y115624D02*
Y114000D01*
X206624D01*
X206555Y114351D01*
X206072Y115073D01*
X205351Y115554D01*
X205000Y115624D01*
D02*
G37*
G36*
X204000D02*
X203649Y115554D01*
X202927Y115073D01*
X202446Y114351D01*
X202376Y114000D01*
X204000D01*
Y115624D01*
D02*
G37*
G36*
X133124Y115500D02*
X131500D01*
Y113876D01*
X131851Y113945D01*
X132572Y114427D01*
X133054Y115149D01*
X133124Y115500D01*
D02*
G37*
G36*
X130500D02*
X128876D01*
X128946Y115149D01*
X129428Y114427D01*
X130149Y113945D01*
X130500Y113876D01*
Y115500D01*
D02*
G37*
G36*
X185624Y113500D02*
X184000D01*
Y111876D01*
X184351Y111945D01*
X185073Y112427D01*
X185555Y113149D01*
X185624Y113500D01*
D02*
G37*
G36*
X183000D02*
X181376D01*
X181446Y113149D01*
X181928Y112427D01*
X182649Y111945D01*
X183000Y111876D01*
Y113500D01*
D02*
G37*
G36*
X132500Y130909D02*
X131578Y130725D01*
X130797Y130203D01*
X130275Y129422D01*
X130092Y128500D01*
X130275Y127578D01*
X130797Y126797D01*
X131578Y126275D01*
X131609Y126269D01*
X145439Y112439D01*
X146155Y111960D01*
X147000Y111792D01*
X172552D01*
X172578Y111775D01*
X173500Y111591D01*
X174422Y111775D01*
X175203Y112297D01*
X175725Y113078D01*
X175909Y114000D01*
X175725Y114922D01*
X175203Y115703D01*
X174422Y116225D01*
X173500Y116409D01*
X172578Y116225D01*
X172552Y116208D01*
X147915D01*
X134731Y129391D01*
X134725Y129422D01*
X134203Y130203D01*
X133422Y130725D01*
X132500Y130909D01*
D02*
G37*
G36*
X206624Y113000D02*
X205000D01*
Y111376D01*
X205351Y111445D01*
X206072Y111927D01*
X206555Y112649D01*
X206624Y113000D01*
D02*
G37*
G36*
X204000D02*
X202376D01*
X202446Y112649D01*
X202927Y111927D01*
X203649Y111445D01*
X204000Y111376D01*
Y113000D01*
D02*
G37*
%LPD*%
D42*
X147000Y114000D02*
X173500D01*
X132500Y128500D02*
X147000Y114000D01*
D46*
X108807Y135161D02*
D03*
Y117839D02*
D03*
D47*
X244000Y139500D02*
D03*
Y129500D02*
D03*
Y149500D02*
D03*
Y159500D02*
D03*
Y169500D02*
D03*
Y179500D02*
D03*
D48*
Y119500D02*
D03*
D49*
X220000Y189000D02*
D03*
X154500Y211500D02*
D03*
X174102Y164398D02*
D03*
X210500Y137000D02*
D03*
X113000Y153500D02*
D03*
X146000Y123000D02*
D03*
X132500Y128500D02*
D03*
X131000Y116000D02*
D03*
X183500Y114000D02*
D03*
X118000Y199500D02*
D03*
X173500Y114000D02*
D03*
X204500Y113500D02*
D03*
X144140Y133360D02*
D03*
X137744Y211000D02*
D03*
D50*
X140500Y178500D02*
D03*
X224500Y122000D02*
D03*
D51*
X140500Y155500D02*
Y178500D01*
Y155500D02*
X174000Y122000D01*
X224500D01*
M02*
