G04*
G04 #@! TF.GenerationSoftware,Altium Limited,Altium Designer,21.0.9 (235)*
G04*
G04 Layer_Color=32896*
%FSLAX25Y25*%
%MOIN*%
G70*
G04*
G04 #@! TF.SameCoordinates,E5C10B9F-721F-4CD3-8270-1C0E1EB20485*
G04*
G04*
G04 #@! TF.FilePolarity,Positive*
G04*
G01*
G75*
%ADD11C,0.00787*%
%ADD14C,0.01000*%
D11*
X562016Y621067D02*
X563984D01*
X562016Y641933D02*
X563984D01*
X518957Y594067D02*
X520925D01*
X518957Y614933D02*
X520925D01*
X519016Y641933D02*
X520984D01*
X519016Y621067D02*
X520984D01*
X477016D02*
X478984D01*
X477016Y641933D02*
X478984D01*
D14*
X548811Y242504D02*
Y305496D01*
X525189Y242504D02*
Y305496D01*
Y242504D02*
X548811D01*
X525189Y305496D02*
X548811D01*
X572436Y616468D02*
X573420Y617452D01*
X575387D01*
X576371Y616468D01*
Y612532D01*
X575387Y611548D01*
X573420D01*
X572436Y612532D01*
X567516Y611548D02*
Y617452D01*
X570468Y614500D01*
X566532D01*
X564564Y616468D02*
X563580Y617452D01*
X561613D01*
X560629Y616468D01*
Y612532D01*
X561613Y611548D01*
X563580D01*
X564564Y612532D01*
Y616468D01*
X524436Y650468D02*
X525420Y651452D01*
X527388D01*
X528371Y650468D01*
Y646532D01*
X527388Y645548D01*
X525420D01*
X524436Y646532D01*
X522468Y650468D02*
X521484Y651452D01*
X519516D01*
X518532Y650468D01*
Y649484D01*
X519516Y648500D01*
X520500D01*
X519516D01*
X518532Y647516D01*
Y646532D01*
X519516Y645548D01*
X521484D01*
X522468Y646532D01*
X516564D02*
X515580Y645548D01*
X513613D01*
X512629Y646532D01*
Y650468D01*
X513613Y651452D01*
X515580D01*
X516564Y650468D01*
Y649484D01*
X515580Y648500D01*
X512629D01*
X547936Y592968D02*
X548920Y593952D01*
X550887D01*
X551871Y592968D01*
Y589032D01*
X550887Y588048D01*
X548920D01*
X547936Y589032D01*
X545968Y592968D02*
X544984Y593952D01*
X543016D01*
X542032Y592968D01*
Y591984D01*
X543016Y591000D01*
X544000D01*
X543016D01*
X542032Y590016D01*
Y589032D01*
X543016Y588048D01*
X544984D01*
X545968Y589032D01*
X536129Y593952D02*
X538096Y592968D01*
X540064Y591000D01*
Y589032D01*
X539080Y588048D01*
X537113D01*
X536129Y589032D01*
Y590016D01*
X537113Y591000D01*
X540064D01*
X548499Y313499D02*
Y312499D01*
X546499Y310500D01*
X544500Y312499D01*
Y313499D01*
X546499Y310500D02*
Y307501D01*
X542501D02*
X540501D01*
X541501D01*
Y313499D01*
X542501Y312499D01*
X479484Y649968D02*
X480468Y650952D01*
X482436D01*
X483420Y649968D01*
Y646032D01*
X482436Y645048D01*
X480468D01*
X479484Y646032D01*
X474564Y645048D02*
Y650952D01*
X477516Y648000D01*
X473580D01*
M02*
