G04*
G04 #@! TF.GenerationSoftware,Altium Limited,Altium Designer,21.0.9 (235)*
G04*
G04 Layer_Color=8421504*
%FSLAX25Y25*%
%MOIN*%
G70*
G04*
G04 #@! TF.SameCoordinates,E5C10B9F-721F-4CD3-8270-1C0E1EB20485*
G04*
G04*
G04 #@! TF.FilePolarity,Positive*
G04*
G01*
G75*
%ADD17R,0.10630X0.05118*%
%ADD18R,0.05512X0.04724*%
%ADD19R,0.08661X0.21654*%
%ADD20R,0.05906X0.04331*%
%ADD21R,0.06693X0.04331*%
%ADD22R,0.05906X0.05118*%
%ADD23R,0.22047X0.09055*%
%ADD24R,0.04134X0.02165*%
%ADD25R,0.05118X0.05906*%
%ADD26R,0.04331X0.06693*%
%ADD27R,0.02560X0.06890*%
%ADD28R,0.17362X0.15354*%
%ADD29R,0.06500X0.02787*%
%ADD30R,0.02394X0.06500*%
%ADD31R,0.01575X0.09449*%
%ADD32R,0.09449X0.01575*%
%ADD33O,0.05709X0.02362*%
%ADD34R,0.04724X0.05512*%
%ADD35R,0.07284X0.07284*%
%ADD36R,0.07874X0.04331*%
%ADD37R,0.03150X0.03150*%
%ADD38R,0.05118X0.10630*%
D17*
X444000Y368299D02*
D03*
Y355701D02*
D03*
X545000Y352299D02*
D03*
Y339701D02*
D03*
X587402Y355701D02*
D03*
Y368299D02*
D03*
X578000Y475299D02*
D03*
Y462701D02*
D03*
X592000Y475299D02*
D03*
Y462701D02*
D03*
X434000Y475299D02*
D03*
Y462701D02*
D03*
X449000Y475299D02*
D03*
Y462701D02*
D03*
X401520Y339701D02*
D03*
Y352299D02*
D03*
D18*
X501000Y339543D02*
D03*
Y332457D02*
D03*
X492000Y339543D02*
D03*
Y332457D02*
D03*
X476000Y221543D02*
D03*
Y214457D02*
D03*
X458000Y221543D02*
D03*
Y214457D02*
D03*
X439000Y221543D02*
D03*
Y214457D02*
D03*
Y237457D02*
D03*
Y244543D02*
D03*
X476000Y237457D02*
D03*
Y244543D02*
D03*
X467000Y237457D02*
D03*
Y244543D02*
D03*
X533000Y270543D02*
D03*
Y263457D02*
D03*
X415000Y230543D02*
D03*
Y223457D02*
D03*
X621000Y389543D02*
D03*
Y382457D02*
D03*
X611000Y382457D02*
D03*
Y389543D02*
D03*
X457346Y298000D02*
D03*
Y305087D02*
D03*
D19*
X529941Y604500D02*
D03*
X510059D02*
D03*
X468059Y631500D02*
D03*
X487941D02*
D03*
X510059D02*
D03*
X529941D02*
D03*
X553059D02*
D03*
X572941D02*
D03*
D20*
X648365Y380260D02*
D03*
Y387740D02*
D03*
D21*
X649000Y401385D02*
D03*
Y412015D02*
D03*
D22*
X655000Y439347D02*
D03*
Y432654D02*
D03*
X485000Y237653D02*
D03*
Y244346D02*
D03*
X439000Y286347D02*
D03*
Y279654D02*
D03*
X458000Y237653D02*
D03*
Y244346D02*
D03*
X448000D02*
D03*
Y237653D02*
D03*
X525000Y270346D02*
D03*
Y263653D02*
D03*
X424000Y230346D02*
D03*
Y223654D02*
D03*
X439000Y265653D02*
D03*
Y272346D02*
D03*
X468000Y302346D02*
D03*
Y295654D02*
D03*
X525000Y297654D02*
D03*
Y304346D02*
D03*
X547000Y279654D02*
D03*
Y286347D02*
D03*
D23*
X676000Y514933D02*
D03*
Y544067D02*
D03*
D24*
X429413Y279740D02*
D03*
Y272260D02*
D03*
X418587D02*
D03*
Y276000D02*
D03*
Y279740D02*
D03*
D25*
X426346Y288000D02*
D03*
X419654D02*
D03*
X587055Y340000D02*
D03*
X593748D02*
D03*
X444654D02*
D03*
X451346D02*
D03*
X524847Y228000D02*
D03*
X518153D02*
D03*
X516653Y197000D02*
D03*
X523347D02*
D03*
X385653Y261000D02*
D03*
X392347D02*
D03*
X450654Y289724D02*
D03*
X457346D02*
D03*
X533347Y282000D02*
D03*
X526653D02*
D03*
D26*
X557685Y459500D02*
D03*
X568315D02*
D03*
X414685D02*
D03*
X425315D02*
D03*
D27*
X654500Y454976D02*
D03*
X649500D02*
D03*
X644500D02*
D03*
X654500Y477024D02*
D03*
X639500D02*
D03*
X649500D02*
D03*
X644500D02*
D03*
X639500Y454976D02*
D03*
D28*
X580400Y435274D02*
D03*
X547000Y441326D02*
D03*
X438000Y435274D02*
D03*
X404600Y441326D02*
D03*
D29*
X589200Y439800D02*
D03*
X571600D02*
D03*
X555800Y436800D02*
D03*
X538200D02*
D03*
X446800Y439800D02*
D03*
X429200D02*
D03*
X395800Y436800D02*
D03*
X413400D02*
D03*
D30*
X587800Y426000D02*
D03*
X582900D02*
D03*
X577900D02*
D03*
X573000D02*
D03*
X587800Y450600D02*
D03*
X582900D02*
D03*
X578000D02*
D03*
X572900D02*
D03*
X554500Y426000D02*
D03*
X549400D02*
D03*
X544500D02*
D03*
X539600D02*
D03*
X554400Y450600D02*
D03*
X549500D02*
D03*
X544500D02*
D03*
X539600D02*
D03*
X445400Y426000D02*
D03*
X440500D02*
D03*
X435500D02*
D03*
X430600D02*
D03*
X445400Y450600D02*
D03*
X440500D02*
D03*
X435600D02*
D03*
X430500D02*
D03*
X397200D02*
D03*
X402100D02*
D03*
X407100D02*
D03*
X412000D02*
D03*
X397200Y426000D02*
D03*
X402100D02*
D03*
X407000D02*
D03*
X412100D02*
D03*
D31*
X508024Y266890D02*
D03*
X504874D02*
D03*
X501724D02*
D03*
X498575D02*
D03*
X495425D02*
D03*
X492276D02*
D03*
X489126D02*
D03*
X485976D02*
D03*
X485976Y303110D02*
D03*
X489126D02*
D03*
X492276D02*
D03*
X495425D02*
D03*
X498575D02*
D03*
X501724D02*
D03*
X504874D02*
D03*
X508024D02*
D03*
D32*
X478890Y273976D02*
D03*
Y277126D02*
D03*
Y280276D02*
D03*
X478890Y286575D02*
D03*
X478890Y289724D02*
D03*
Y292874D02*
D03*
Y296024D02*
D03*
X515110Y296024D02*
D03*
Y292874D02*
D03*
Y289724D02*
D03*
Y283425D02*
D03*
Y280276D02*
D03*
Y277126D02*
D03*
Y273976D02*
D03*
Y286575D02*
D03*
X478890Y283425D02*
D03*
D33*
X576402Y337000D02*
D03*
Y342000D02*
D03*
Y347000D02*
D03*
Y352000D02*
D03*
Y357000D02*
D03*
Y362000D02*
D03*
Y367000D02*
D03*
X554945Y337000D02*
D03*
Y342000D02*
D03*
Y347000D02*
D03*
Y352000D02*
D03*
Y357000D02*
D03*
Y362000D02*
D03*
Y367000D02*
D03*
X434000Y337000D02*
D03*
Y342000D02*
D03*
Y347000D02*
D03*
Y352000D02*
D03*
Y357000D02*
D03*
Y362000D02*
D03*
Y367000D02*
D03*
X412543Y337000D02*
D03*
Y342000D02*
D03*
Y347000D02*
D03*
Y352000D02*
D03*
Y357000D02*
D03*
Y362000D02*
D03*
Y367000D02*
D03*
D34*
X586543Y329000D02*
D03*
X579457D02*
D03*
X451543Y330000D02*
D03*
X444457D02*
D03*
X491457Y197000D02*
D03*
X498543D02*
D03*
D35*
X559402Y393216D02*
D03*
Y382784D02*
D03*
X571402Y393216D02*
D03*
Y382784D02*
D03*
X417000D02*
D03*
Y393216D02*
D03*
X429000D02*
D03*
Y382784D02*
D03*
D36*
X543921Y330000D02*
D03*
X401520D02*
D03*
D37*
X551402D02*
D03*
X409000D02*
D03*
D38*
X687299Y423000D02*
D03*
X674701D02*
D03*
X662000Y361700D02*
D03*
X649402D02*
D03*
M02*
