G04*
G04 #@! TF.GenerationSoftware,Altium Limited,Altium Designer,21.0.9 (235)*
G04*
G04 Layer_Color=16711935*
%FSLAX25Y25*%
%MOIN*%
G70*
G04*
G04 #@! TF.SameCoordinates,E5C10B9F-721F-4CD3-8270-1C0E1EB20485*
G04*
G04*
G04 #@! TF.FilePolarity,Negative*
G04*
G01*
G75*
%ADD41R,0.09461X0.22453*%
%ADD57R,0.08083X0.08083*%
%ADD61C,0.20485*%
%ADD62O,0.08674X0.12611*%
%ADD63R,0.08674X0.12611*%
%ADD64C,0.04800*%
%ADD65C,0.06706*%
%ADD66R,0.06706X0.06706*%
%ADD67C,0.16548*%
%ADD68C,0.08083*%
%ADD69C,0.04343*%
%ADD70C,0.04737*%
%ADD71C,0.03556*%
%ADD92R,0.08674X0.22453*%
D41*
X553059Y631500D02*
D03*
X572941D02*
D03*
X510000Y604500D02*
D03*
X529882D02*
D03*
X529941Y631500D02*
D03*
X510059D02*
D03*
X468059D02*
D03*
X487941D02*
D03*
D57*
X517000Y186000D02*
D03*
D61*
X602000Y652000D02*
D03*
X437500D02*
D03*
X635827Y562000D02*
D03*
Y511000D02*
D03*
X396850Y562000D02*
D03*
Y511000D02*
D03*
D62*
X479343Y573449D02*
D03*
X459657D02*
D03*
X479343Y504551D02*
D03*
X459657D02*
D03*
X439972Y573449D02*
D03*
X499028D02*
D03*
Y504551D02*
D03*
X595870Y504500D02*
D03*
Y573398D02*
D03*
X536815D02*
D03*
X556500Y504500D02*
D03*
X576185D02*
D03*
X556500Y573398D02*
D03*
X576185D02*
D03*
D63*
X439972Y504551D02*
D03*
X536815Y504500D02*
D03*
D64*
X662000Y401700D02*
D03*
Y381700D02*
D03*
Y391700D02*
D03*
D65*
X486000Y212000D02*
D03*
X467000D02*
D03*
X449000D02*
D03*
X391000Y296000D02*
D03*
Y282000D02*
D03*
X415000Y240000D02*
D03*
X405000Y250000D02*
D03*
Y240000D02*
D03*
X395000Y250000D02*
D03*
X415000D02*
D03*
X545000Y239000D02*
D03*
X535000D02*
D03*
X525000D02*
D03*
X535000Y217000D02*
D03*
X545000D02*
D03*
X555000D02*
D03*
X565000D02*
D03*
X575000D02*
D03*
X525000D02*
D03*
D66*
X449000Y222000D02*
D03*
X486000D02*
D03*
X467000D02*
D03*
X395000Y240000D02*
D03*
X515000Y239000D02*
D03*
Y217000D02*
D03*
D67*
X677000Y587500D02*
D03*
Y607500D02*
D03*
D68*
X497000Y186000D02*
D03*
D69*
X396551Y575750D02*
D03*
X443795Y604097D02*
D03*
X387102Y575750D02*
D03*
X472142Y604097D02*
D03*
X481591Y594648D02*
D03*
X387102Y604097D02*
D03*
X443795Y594648D02*
D03*
X500488Y622994D02*
D03*
X410500Y518250D02*
D03*
X453244Y594648D02*
D03*
X387102D02*
D03*
X410500Y503750D02*
D03*
X406000Y594648D02*
D03*
X491039D02*
D03*
X396551D02*
D03*
X500488D02*
D03*
Y632443D02*
D03*
X415449Y594648D02*
D03*
X462693Y604097D02*
D03*
Y594648D02*
D03*
X472142D02*
D03*
X434346D02*
D03*
X424898D02*
D03*
X500488Y604097D02*
D03*
X623500Y511000D02*
D03*
X406000Y575750D02*
D03*
Y604097D02*
D03*
X623500Y518250D02*
D03*
X406000Y585199D02*
D03*
X500488Y613545D02*
D03*
X396551Y604097D02*
D03*
X387102Y585199D02*
D03*
X491039Y604097D02*
D03*
X424898D02*
D03*
X481591D02*
D03*
X415449D02*
D03*
X396551Y585199D02*
D03*
X410500Y511000D02*
D03*
X453244Y604097D02*
D03*
X491039Y613545D02*
D03*
X623500Y503750D02*
D03*
X434346Y604097D02*
D03*
X554331Y597638D02*
D03*
X640945Y580315D02*
D03*
X632284D02*
D03*
X545670Y597638D02*
D03*
Y614961D02*
D03*
X537008Y623622D02*
D03*
Y606299D02*
D03*
X545670Y632284D02*
D03*
Y606299D02*
D03*
Y623622D02*
D03*
X554331Y614961D02*
D03*
X537008Y597638D02*
D03*
Y614961D02*
D03*
Y632284D02*
D03*
X554331Y606299D02*
D03*
X614961Y666929D02*
D03*
Y658268D02*
D03*
Y649607D02*
D03*
Y640945D02*
D03*
Y632284D02*
D03*
X606299Y666929D02*
D03*
Y632284D02*
D03*
X597638Y666929D02*
D03*
Y632284D02*
D03*
X588977Y666929D02*
D03*
Y658268D02*
D03*
Y649607D02*
D03*
Y640945D02*
D03*
Y632284D02*
D03*
Y623622D02*
D03*
X580315Y640945D02*
D03*
Y632284D02*
D03*
Y623622D02*
D03*
X459055Y640945D02*
D03*
Y632284D02*
D03*
Y623622D02*
D03*
X450394Y666929D02*
D03*
Y658268D02*
D03*
Y649607D02*
D03*
Y640945D02*
D03*
Y632284D02*
D03*
X441732Y666929D02*
D03*
Y632284D02*
D03*
X433071Y666929D02*
D03*
Y632284D02*
D03*
X424410Y666929D02*
D03*
Y658268D02*
D03*
Y649607D02*
D03*
Y640945D02*
D03*
Y632284D02*
D03*
X640945Y597638D02*
D03*
Y588977D02*
D03*
X632284Y597638D02*
D03*
Y588977D02*
D03*
X623622Y597638D02*
D03*
X614961D02*
D03*
X606299D02*
D03*
X597638D02*
D03*
X588977D02*
D03*
X580315D02*
D03*
X571654D02*
D03*
X562992D02*
D03*
D70*
X565500Y406500D02*
D03*
X619000Y401000D02*
D03*
X654000Y392000D02*
D03*
X649000Y417700D02*
D03*
X687000Y432000D02*
D03*
X627000Y430000D02*
D03*
Y401000D02*
D03*
X550402Y397672D02*
D03*
X559402D02*
D03*
X571402D02*
D03*
X417000Y426000D02*
D03*
X433574Y372415D02*
D03*
X565522Y333703D02*
D03*
X569400Y448000D02*
D03*
X667685Y361700D02*
D03*
X619000Y414000D02*
D03*
X580402Y456000D02*
D03*
X452801Y354050D02*
D03*
X559400Y426000D02*
D03*
X576275Y372858D02*
D03*
X585402Y350000D02*
D03*
X591402D02*
D03*
X595402Y354000D02*
D03*
X550402Y419000D02*
D03*
X449000Y350000D02*
D03*
X443000D02*
D03*
X408000Y400000D02*
D03*
X417000D02*
D03*
X429000Y399727D02*
D03*
X422845Y404845D02*
D03*
X408000Y419000D02*
D03*
X427000Y448000D02*
D03*
X438000Y456000D02*
D03*
X415000Y330000D02*
D03*
D71*
X573000Y457500D02*
D03*
X385653Y268847D02*
D03*
X431500Y223500D02*
D03*
X486425Y283425D02*
D03*
X458543Y273543D02*
D03*
X459500Y280276D02*
D03*
X446000Y265982D02*
D03*
X433000Y266000D02*
D03*
X437778Y255276D02*
D03*
X474346Y302346D02*
D03*
X450500Y296500D02*
D03*
X494000Y254500D02*
D03*
X509000Y253000D02*
D03*
X491638Y258362D02*
D03*
X497958Y230000D02*
D03*
Y250500D02*
D03*
X529500Y252500D02*
D03*
X547000Y267000D02*
D03*
X565000Y251000D02*
D03*
X555000D02*
D03*
X529500Y244500D02*
D03*
X509000Y212000D02*
D03*
X485000Y249000D02*
D03*
X487000Y324000D02*
D03*
X492022Y280000D02*
D03*
X517000Y320000D02*
D03*
X533000Y318000D02*
D03*
X465000Y324000D02*
D03*
X520000Y315000D02*
D03*
X507773Y311000D02*
D03*
X516000D02*
D03*
X518000Y304000D02*
D03*
X505000Y315000D02*
D03*
X567000Y467000D02*
D03*
X643000Y431969D02*
D03*
X646000Y442000D02*
D03*
X637472Y401000D02*
D03*
X660000Y433000D02*
D03*
X633000Y401000D02*
D03*
X453000Y234000D02*
D03*
X491000Y237000D02*
D03*
X547000Y291898D02*
D03*
X528000Y197000D02*
D03*
X426000Y240000D02*
D03*
X422000Y236000D02*
D03*
X448000Y253000D02*
D03*
X471071Y266929D02*
D03*
X443000Y252000D02*
D03*
X470000Y272000D02*
D03*
X480000Y230000D02*
D03*
X435000D02*
D03*
X433000Y288000D02*
D03*
X413035Y276000D02*
D03*
X538000Y272262D02*
D03*
X530000Y288000D02*
D03*
X530979Y296021D02*
D03*
X517000Y270000D02*
D03*
X568962Y276962D02*
D03*
X516000Y265000D02*
D03*
X467000Y251000D02*
D03*
X480000Y259000D02*
D03*
X565000D02*
D03*
X555000D02*
D03*
X465000Y315140D02*
D03*
X486000Y311000D02*
D03*
X585500Y457500D02*
D03*
X591500Y451000D02*
D03*
Y457500D02*
D03*
X507000Y332000D02*
D03*
X598000Y432411D02*
D03*
Y423706D02*
D03*
Y415000D02*
D03*
X611000Y432411D02*
D03*
Y423706D02*
D03*
Y415000D02*
D03*
X604500Y428059D02*
D03*
Y419353D02*
D03*
X624353Y457500D02*
D03*
X628706Y464000D02*
D03*
X620000D02*
D03*
X628706Y451000D02*
D03*
X620000D02*
D03*
X476294Y457000D02*
D03*
X485000D02*
D03*
X480647Y450500D02*
D03*
X471941D02*
D03*
X489353D02*
D03*
X480647Y463500D02*
D03*
X471941D02*
D03*
X489353D02*
D03*
X462000Y422000D02*
D03*
X468500Y426353D02*
D03*
Y435059D02*
D03*
X462000Y430706D02*
D03*
X468500Y417647D02*
D03*
X455500Y426353D02*
D03*
Y435059D02*
D03*
Y417647D02*
D03*
D92*
X537000Y292701D02*
D03*
Y255299D02*
D03*
M02*
