G04*
G04 #@! TF.GenerationSoftware,Altium Limited,Altium Designer,21.0.9 (235)*
G04*
G04 Layer_Color=16711935*
%FSLAX25Y25*%
%MOIN*%
G70*
G04*
G04 #@! TF.SameCoordinates,E5C10B9F-721F-4CD3-8270-1C0E1EB20485*
G04*
G04*
G04 #@! TF.FilePolarity,Positive*
G04*
G01*
G75*
%ADD93C,0.00394*%
D93*
X396000Y296000D02*
X395898Y297007D01*
X395595Y297972D01*
X395104Y298856D01*
X394445Y299624D01*
X393645Y300243D01*
X392737Y300689D01*
X391757Y300942D01*
X390747Y300994D01*
X389747Y300840D01*
X388798Y300489D01*
X387940Y299954D01*
X387206Y299257D01*
X386628Y298427D01*
X386229Y297497D01*
X386026Y296506D01*
Y295494D01*
X386229Y294503D01*
X386628Y293573D01*
X387206Y292743D01*
X387940Y292046D01*
X388798Y291511D01*
X389747Y291160D01*
X390747Y291006D01*
X391757Y291058D01*
X392737Y291311D01*
X393645Y291757D01*
X394445Y292376D01*
X395104Y293144D01*
X395595Y294028D01*
X395898Y294993D01*
X396000Y296000D01*
Y282000D02*
X395898Y283007D01*
X395595Y283972D01*
X395104Y284856D01*
X394445Y285624D01*
X393645Y286243D01*
X392737Y286689D01*
X391757Y286942D01*
X390747Y286994D01*
X389747Y286840D01*
X388798Y286489D01*
X387940Y285954D01*
X387206Y285257D01*
X386628Y284426D01*
X386229Y283497D01*
X386026Y282506D01*
Y281494D01*
X386229Y280503D01*
X386628Y279573D01*
X387206Y278743D01*
X387940Y278046D01*
X388798Y277511D01*
X389747Y277160D01*
X390747Y277006D01*
X391757Y277058D01*
X392737Y277311D01*
X393645Y277757D01*
X394445Y278376D01*
X395104Y279144D01*
X395595Y280028D01*
X395898Y280994D01*
X396000Y282000D01*
X571972Y338417D02*
X571709Y339402D01*
X570988Y340122D01*
X570004Y340386D01*
X569020Y340122D01*
X568299Y339402D01*
X568035Y338417D01*
X568299Y337433D01*
X569020Y336713D01*
X570004Y336449D01*
X570988Y336713D01*
X571709Y337433D01*
X571972Y338417D01*
X429571D02*
X429307Y339402D01*
X428587Y340122D01*
X427602Y340386D01*
X426618Y340122D01*
X425898Y339402D01*
X425634Y338417D01*
X425898Y337433D01*
X426618Y336713D01*
X427602Y336449D01*
X428587Y336713D01*
X429307Y337433D01*
X429571Y338417D01*
X550992Y620870D02*
X575008D01*
X550992Y642130D02*
X575008D01*
X550992Y620870D02*
Y642130D01*
X575008Y620870D02*
Y642130D01*
X507933Y593870D02*
X531949D01*
X507933Y615130D02*
X531949D01*
X507933Y593870D02*
Y615130D01*
X531949Y593870D02*
Y615130D01*
X532008Y620870D02*
Y642130D01*
X507992Y620870D02*
Y642130D01*
X532008D01*
X507992Y620870D02*
X532008D01*
X498244Y331768D02*
Y340232D01*
X503756Y331768D02*
Y340232D01*
X498244Y331768D02*
X503756D01*
X498244Y340232D02*
X503756D01*
X489244D02*
X494756D01*
X489244Y331768D02*
X494756D01*
Y340232D01*
X489244Y331768D02*
Y340232D01*
X532008Y593870D02*
Y615130D01*
X507992Y593870D02*
Y615130D01*
Y593870D02*
X532008D01*
X507992Y615130D02*
X532008D01*
X465992Y620870D02*
Y642130D01*
X490008Y620870D02*
Y642130D01*
X465992D02*
X490008D01*
X465992Y620870D02*
X490008D01*
X507992Y642130D02*
X532008D01*
X507992Y620870D02*
X532008D01*
X507992D02*
Y642130D01*
X532008Y620870D02*
Y642130D01*
X645511Y379669D02*
Y388331D01*
X651220Y379669D02*
Y388331D01*
X645511Y379669D02*
X651220D01*
X645511Y388331D02*
X651220D01*
X645457Y400007D02*
Y413393D01*
X652543Y400007D02*
Y413393D01*
X645457Y400007D02*
X652543D01*
X645457Y413393D02*
X652543D01*
X657854Y431669D02*
Y440331D01*
X652146Y431669D02*
Y440331D01*
X657854D01*
X652146Y431669D02*
X657854D01*
X465992Y620870D02*
Y642130D01*
X490008Y620870D02*
Y642130D01*
X465992Y620870D02*
X490008D01*
X465992Y642130D02*
X490008D01*
X420653Y269898D02*
X427347D01*
X420653Y282102D02*
X427347D01*
Y269898D02*
Y282102D01*
X420653Y269898D02*
Y282102D01*
X418669Y285146D02*
X427331D01*
X418669Y290854D02*
X427331D01*
Y285146D02*
Y290854D01*
X418669Y285146D02*
Y290854D01*
X482146Y236669D02*
Y245331D01*
X487854Y236669D02*
Y245331D01*
X482146Y236669D02*
X487854D01*
X482146Y245331D02*
X487854D01*
X550992Y642130D02*
X575008D01*
X550992Y620870D02*
X575008D01*
X550992D02*
Y642130D01*
X575008Y620870D02*
Y642130D01*
X436146Y287331D02*
X441854D01*
X436146Y278669D02*
X441854D01*
Y287331D01*
X436146Y278669D02*
Y287331D01*
X473244Y222232D02*
X478756D01*
X473244Y213768D02*
X478756D01*
Y222232D01*
X473244Y213768D02*
Y222232D01*
X455244D02*
X460756D01*
X455244Y213768D02*
X460756D01*
Y222232D01*
X455244Y213768D02*
Y222232D01*
X436244D02*
X441756D01*
X436244Y213768D02*
X441756D01*
Y222232D01*
X436244Y213768D02*
Y222232D01*
Y236768D02*
Y245232D01*
X441756Y236768D02*
Y245232D01*
X436244Y236768D02*
X441756D01*
X436244Y245232D02*
X441756D01*
X455146Y236669D02*
Y245331D01*
X460854Y236669D02*
Y245331D01*
X455146Y236669D02*
X460854D01*
X455146Y245331D02*
X460854D01*
X473244Y236768D02*
Y245232D01*
X478756Y236768D02*
Y245232D01*
X473244Y236768D02*
X478756D01*
X473244Y245232D02*
X478756D01*
X464244Y236768D02*
Y245232D01*
X469756Y236768D02*
Y245232D01*
X464244Y236768D02*
X469756D01*
X464244Y245232D02*
X469756D01*
X445146Y245331D02*
X450854D01*
X445146Y236669D02*
X450854D01*
Y245331D01*
X445146Y236669D02*
Y245331D01*
X527854Y262669D02*
Y271331D01*
X522146Y262669D02*
Y271331D01*
X527854D01*
X522146Y262669D02*
X527854D01*
X535756Y262768D02*
Y271232D01*
X530244Y262768D02*
Y271232D01*
X535756D01*
X530244Y262768D02*
X535756D01*
X556307Y463043D02*
X569693D01*
X556307Y455957D02*
X569693D01*
X556307D02*
Y463043D01*
X569693Y455957D02*
Y463043D01*
X573547Y334874D02*
Y369126D01*
X557799Y334874D02*
Y369126D01*
Y334874D02*
X573547D01*
X557799Y369126D02*
X573547D01*
X587232Y326244D02*
Y331756D01*
X578768Y326244D02*
Y331756D01*
Y326244D02*
X587232D01*
X578768Y331756D02*
X587232D01*
X562847Y381307D02*
Y394693D01*
X555957Y381307D02*
Y394693D01*
X562847D01*
X555957Y381307D02*
X562847D01*
X574847D02*
Y394693D01*
X567957Y381307D02*
Y394693D01*
X574847D01*
X567957Y381307D02*
X574847D01*
X594732Y337146D02*
Y342854D01*
X586071Y337146D02*
Y342854D01*
Y337146D02*
X594732D01*
X586071Y342854D02*
X594732D01*
X413555Y381307D02*
X420445D01*
X413555Y394693D02*
X420445D01*
X413555Y381307D02*
Y394693D01*
X420445Y381307D02*
Y394693D01*
X452331Y337146D02*
Y342854D01*
X443669Y337146D02*
Y342854D01*
Y337146D02*
X452331D01*
X443669Y342854D02*
X452331D01*
X443768Y327244D02*
X452232D01*
X443768Y332756D02*
X452232D01*
Y327244D02*
Y332756D01*
X443768Y327244D02*
Y332756D01*
X413307Y463043D02*
X426693D01*
X413307Y455957D02*
X426693D01*
X413307D02*
Y463043D01*
X426693Y455957D02*
Y463043D01*
X525831Y225146D02*
Y230854D01*
X517169Y225146D02*
Y230854D01*
Y225146D02*
X525831D01*
X517169Y230854D02*
X525831D01*
X524331Y194146D02*
Y199854D01*
X515669Y194146D02*
Y199854D01*
Y194146D02*
X524331D01*
X515669Y199854D02*
X524331D01*
X490768Y199756D02*
X499232D01*
X490768Y194244D02*
X499232D01*
X490768D02*
Y199756D01*
X499232Y194244D02*
Y199756D01*
X412244Y231232D02*
X417756D01*
X412244Y222768D02*
X417756D01*
Y231232D01*
X412244Y222768D02*
Y231232D01*
X421146Y222669D02*
X426854D01*
X421146Y231331D02*
X426854D01*
X421146Y222669D02*
Y231331D01*
X426854Y222669D02*
Y231331D01*
X441854Y264669D02*
Y273331D01*
X436146Y264669D02*
Y273331D01*
X441854D01*
X436146Y264669D02*
X441854D01*
X384669Y263854D02*
X393331D01*
X384669Y258146D02*
X393331D01*
X384669D02*
Y263854D01*
X393331Y258146D02*
Y263854D01*
X618244Y390232D02*
X623756D01*
X618244Y381768D02*
X623756D01*
Y390232D01*
X618244Y381768D02*
Y390232D01*
X608244Y381768D02*
X613756D01*
X608244Y390232D02*
X613756D01*
X608244Y381768D02*
Y390232D01*
X613756Y381768D02*
Y390232D01*
X465146Y303331D02*
X470854D01*
X465146Y294669D02*
X470854D01*
Y303331D01*
X465146Y294669D02*
Y303331D01*
X454591Y297311D02*
Y305776D01*
X460102Y297311D02*
Y305776D01*
X454591Y297311D02*
X460102D01*
X454591Y305776D02*
X460102D01*
X449669Y292579D02*
X458331D01*
X449669Y286870D02*
X458331D01*
X449669D02*
Y292579D01*
X458331Y286870D02*
Y292579D01*
X534331Y279146D02*
Y284854D01*
X525669Y279146D02*
Y284854D01*
Y279146D02*
X534331D01*
X525669Y284854D02*
X534331D01*
X432445Y381307D02*
Y394693D01*
X425555Y381307D02*
Y394693D01*
X432445D01*
X425555Y381307D02*
X432445D01*
X431146Y334874D02*
Y369126D01*
X415398Y334874D02*
Y369126D01*
Y334874D02*
X431146D01*
X415398Y369126D02*
X431146D01*
X522146Y305331D02*
X527854D01*
X522146Y296669D02*
X527854D01*
Y305331D01*
X522146Y296669D02*
Y305331D01*
X544146Y287331D02*
X549854D01*
X544146Y278669D02*
X549854D01*
Y287331D01*
X544146Y278669D02*
Y287331D01*
M02*
