G04*
G04 #@! TF.GenerationSoftware,Altium Limited,Altium Designer,21.0.9 (235)*
G04*
G04 Layer_Physical_Order=1*
G04 Layer_Color=255*
%FSLAX25Y25*%
%MOIN*%
G70*
G04*
G04 #@! TF.SameCoordinates,E5C10B9F-721F-4CD3-8270-1C0E1EB20485*
G04*
G04*
G04 #@! TF.FilePolarity,Positive*
G04*
G01*
G75*
%ADD13C,0.02362*%
%ADD17R,0.10630X0.05118*%
%ADD18R,0.05512X0.04724*%
%ADD19R,0.08661X0.21654*%
%ADD20R,0.05906X0.04331*%
%ADD21R,0.06693X0.04331*%
%ADD22R,0.05906X0.05118*%
%ADD23R,0.22047X0.09055*%
%ADD24R,0.04134X0.02165*%
%ADD25R,0.05118X0.05906*%
%ADD26R,0.04331X0.06693*%
%ADD27R,0.02560X0.06890*%
%ADD28R,0.17362X0.15354*%
%ADD29R,0.06500X0.02787*%
%ADD30R,0.02394X0.06500*%
%ADD31R,0.01575X0.09449*%
%ADD32R,0.09449X0.01575*%
%ADD33O,0.05709X0.02362*%
%ADD34R,0.04724X0.05512*%
%ADD35R,0.07284X0.07284*%
%ADD36R,0.07874X0.04331*%
%ADD37R,0.03150X0.03150*%
%ADD38R,0.05118X0.10630*%
%ADD72C,0.03150*%
%ADD73C,0.01571*%
%ADD74C,0.01570*%
%ADD75C,0.02165*%
%ADD76C,0.01575*%
%ADD77C,0.01968*%
%ADD78C,0.02756*%
%ADD79C,0.03937*%
%ADD80C,0.19685*%
%ADD81O,0.07874X0.11811*%
%ADD82R,0.07874X0.11811*%
%ADD83C,0.04000*%
%ADD84C,0.05906*%
%ADD85R,0.05906X0.05906*%
%ADD86C,0.15748*%
%ADD87C,0.07284*%
%ADD88C,0.03543*%
%ADD89C,0.03937*%
%ADD90C,0.02756*%
G36*
X620500Y670000D02*
Y627500D01*
X615500Y622500D01*
X593000Y622500D01*
X590000Y619500D01*
X569000Y619500D01*
X567000Y621500D01*
X567000Y643000D01*
X569000Y645000D01*
X583000Y645000D01*
X585500Y647500D01*
X585500Y670000D01*
X589385Y673885D01*
X616615D01*
X620500Y670000D01*
D02*
G37*
G36*
X455500Y669500D02*
X455500Y647500D01*
X457000Y646000D01*
X472500D01*
X475000Y643500D01*
X475000Y625000D01*
X475000Y622000D01*
X472500Y619500D01*
X454500D01*
X451500Y622500D01*
X425500D01*
X420500Y627500D01*
X420500Y669000D01*
X425385Y673885D01*
X451116D01*
X455500Y669500D01*
D02*
G37*
G36*
X558500Y643000D02*
X558500Y611500D01*
X561500Y608500D01*
X650500D01*
X653500Y605500D01*
X653500Y593031D01*
X653496Y593013D01*
X653394Y592500D01*
X653394Y592500D01*
X653394Y552894D01*
X651000Y550500D01*
X627000D01*
X526485Y550500D01*
X523595Y553419D01*
X524500Y643000D01*
X526500Y645000D01*
X556500D01*
X558500Y643000D01*
D02*
G37*
G36*
X516000D02*
X516000Y553500D01*
X513000Y550500D01*
X406000Y550500D01*
X383000Y550500D01*
X381116Y552385D01*
Y606115D01*
X383500Y608500D01*
X479500D01*
X482000Y611000D01*
Y643000D01*
X484000Y645000D01*
X514000D01*
X516000Y643000D01*
D02*
G37*
G36*
X690884Y593116D02*
X690884Y539385D01*
X687500Y536000D01*
X659500Y536000D01*
X655000Y540500D01*
X655000Y592500D01*
X659500Y597000D01*
X687000Y597000D01*
X690884Y593116D01*
D02*
G37*
G36*
X653000Y521000D02*
X653000Y499000D01*
X648000Y494000D01*
X527000Y494000D01*
X524000Y497000D01*
X524000Y521500D01*
X527500Y525000D01*
X649000Y525000D01*
X653000Y521000D01*
D02*
G37*
G36*
X515500Y521000D02*
X515500Y497500D01*
X512000Y494000D01*
X383500Y494000D01*
X381116Y496385D01*
Y521615D01*
X384000Y524500D01*
X512000Y524500D01*
X515500Y521000D01*
D02*
G37*
G36*
X581000Y490000D02*
X612000D01*
X644000Y490000D01*
X646000Y488000D01*
X646000Y474000D01*
X644000Y472000D01*
X563000Y472000D01*
X560000Y469000D01*
Y436000D01*
X558000Y434000D01*
X536000D01*
X534000Y436000D01*
X534000Y469000D01*
X531000Y472000D01*
X495000Y472000D01*
X420000Y472000D01*
X418000Y470000D01*
Y437000D01*
X415000Y434000D01*
X394000Y434000D01*
X391000Y437000D01*
X391000Y487000D01*
X394000Y490000D01*
X581000Y490000D01*
D02*
G37*
G36*
X632000Y470000D02*
X634000Y468000D01*
X634000Y449000D01*
X632000Y447000D01*
X578000Y447000D01*
X577400Y447000D01*
X575672Y448728D01*
Y455425D01*
X570128D01*
Y455000D01*
X563000Y455000D01*
X563000Y468000D01*
X565000Y470000D01*
X632000Y470000D01*
D02*
G37*
G36*
X490000Y467000D02*
X492000Y465000D01*
Y449000D01*
X492000Y449000D01*
X490000Y447000D01*
X434500D01*
X433272Y448228D01*
Y455425D01*
X432575D01*
X432000Y456000D01*
X423500Y456000D01*
X422000Y457500D01*
X422000D01*
X422000Y465500D01*
X422000D01*
X423500Y467000D01*
X490000Y467000D01*
D02*
G37*
G36*
X613000Y443000D02*
X615000Y441000D01*
Y413000D01*
X613000Y411000D01*
X536000Y411000D01*
X535600Y411000D01*
X533600Y413000D01*
X533600Y429000D01*
X534600Y430000D01*
X535000Y430000D01*
X550000Y430000D01*
X551728Y428272D01*
Y421175D01*
X552825D01*
X553000Y421000D01*
X563000Y421000D01*
X564000Y422000D01*
X564000Y441000D01*
X566000Y443000D01*
X613000Y443000D01*
D02*
G37*
G36*
X470000Y443000D02*
X472000Y441000D01*
X472000Y413000D01*
X470000Y411000D01*
X393000Y411000D01*
X391000Y413000D01*
X391000Y428000D01*
X393000Y430000D01*
X407000Y430000D01*
X409000Y428000D01*
X409000Y423000D01*
X409328Y422672D01*
Y421175D01*
X410825D01*
X411000Y421000D01*
X419000D01*
X421000Y423000D01*
Y441000D01*
X423000Y443000D01*
X470000Y443000D01*
D02*
G37*
G36*
X688500Y522500D02*
X690884Y520116D01*
X690884Y445884D01*
X682000Y437000D01*
X682000Y402000D01*
X678000Y398000D01*
X647000Y398000D01*
X645500Y399500D01*
Y405500D01*
X647000Y407000D01*
X651000Y407000D01*
X660000Y407000D01*
X663000Y410000D01*
X663000Y458000D01*
X648000Y473000D01*
Y488500D01*
X655000Y495500D01*
X655000Y518000D01*
X659500Y522500D01*
X688500Y522500D01*
D02*
G37*
G36*
X668000Y395000D02*
Y390000D01*
X667000Y389000D01*
X658500D01*
X655106Y385606D01*
X645394Y385606D01*
X645177Y385823D01*
Y395177D01*
X646000Y396000D01*
X667000Y396000D01*
X668000Y395000D01*
D02*
G37*
G36*
Y385000D02*
Y372000D01*
X666000Y370000D01*
X658000D01*
X655000Y367000D01*
Y356000D01*
X653000Y354000D01*
X645000D01*
X643000Y356000D01*
Y383000D01*
X644000Y384000D01*
X656000Y384000D01*
X659000Y387000D01*
X666000D01*
X668000Y385000D01*
D02*
G37*
G36*
X597402Y346000D02*
X581574D01*
X581562Y346016D01*
X576402D01*
Y347984D01*
X581076D01*
X580826Y348588D01*
X580321Y349246D01*
X580316Y349250D01*
Y349750D01*
X580321Y349754D01*
X580826Y350412D01*
X581076Y351016D01*
X576402D01*
Y352984D01*
X581076D01*
X580826Y353588D01*
X580321Y354246D01*
X580316Y354250D01*
Y354750D01*
X580321Y354754D01*
X580826Y355412D01*
X581076Y356016D01*
X576402D01*
Y357984D01*
X581562D01*
X581574Y358000D01*
X597402D01*
Y346000D01*
D02*
G37*
G36*
X455000D02*
X439173D01*
X439160Y346016D01*
X434000D01*
Y347984D01*
X438675D01*
X438424Y348588D01*
X437920Y349246D01*
X437915Y349250D01*
Y349750D01*
X437920Y349754D01*
X438424Y350412D01*
X438675Y351016D01*
X434000D01*
Y352984D01*
X438675D01*
X438424Y353588D01*
X437920Y354246D01*
X437915Y354250D01*
Y354750D01*
X437920Y354754D01*
X438424Y355412D01*
X438675Y356016D01*
X434000D01*
Y357984D01*
X439160D01*
X439173Y358000D01*
X455000D01*
Y346000D01*
D02*
G37*
G36*
X530257Y319094D02*
X530123Y318771D01*
X530022Y318000D01*
X530123Y317229D01*
X530257Y316906D01*
X529923Y316406D01*
X522614D01*
X522579Y316489D01*
X522106Y317106D01*
X521489Y317579D01*
X520771Y317877D01*
X520000Y317978D01*
X519778Y317949D01*
X519508Y318418D01*
X519579Y318511D01*
X519877Y319229D01*
X519914Y319511D01*
X519997Y319594D01*
X529923D01*
X530257Y319094D01*
D02*
G37*
G36*
X509592Y322000D02*
X509593Y321999D01*
Y313902D01*
X509093Y313649D01*
X508544Y313877D01*
X508286Y313911D01*
X507877Y314229D01*
X507902Y314422D01*
X507978Y315000D01*
X507877Y315771D01*
X507579Y316489D01*
X507106Y317106D01*
X506489Y317579D01*
X505771Y317877D01*
X505000Y317978D01*
X504229Y317877D01*
X503511Y317579D01*
X503285Y317406D01*
X503000D01*
X502079Y317223D01*
X501299Y316701D01*
X500023Y315426D01*
X499502Y314645D01*
X499318Y313724D01*
Y309409D01*
X497831D01*
Y319080D01*
X497648Y320001D01*
X497126Y320782D01*
X496408Y321500D01*
X496616Y322000D01*
X509592Y322000D01*
D02*
G37*
G36*
X489163Y321875D02*
X489594Y321734D01*
Y320920D01*
X489777Y319999D01*
X490299Y319218D01*
X491218Y318299D01*
X491999Y317777D01*
X492920Y317594D01*
X493019D01*
Y309409D01*
X489078D01*
X488744Y309910D01*
X488877Y310229D01*
X488978Y311000D01*
X488877Y311771D01*
X488579Y312489D01*
X488406Y312715D01*
Y319080D01*
X488223Y320001D01*
X487807Y320624D01*
X487800Y320726D01*
X487897Y321082D01*
X487980Y321210D01*
X488489Y321421D01*
X489094Y321885D01*
X489163Y321875D01*
D02*
G37*
G36*
X517299Y308299D02*
X518079Y307777D01*
X519000Y307594D01*
X520472D01*
Y306780D01*
X519005D01*
X518771Y306877D01*
X518000Y306978D01*
X517229Y306877D01*
X516511Y306579D01*
X515894Y306106D01*
X515421Y305489D01*
X515123Y304771D01*
X515022Y304000D01*
X515123Y303229D01*
X515421Y302511D01*
X515894Y301894D01*
X516511Y301421D01*
X517229Y301123D01*
X518000Y301022D01*
X518771Y301123D01*
X519005Y301220D01*
X520472D01*
Y298427D01*
X515122D01*
X515110Y298430D01*
X514890Y298386D01*
X510386D01*
Y302890D01*
X510396Y302939D01*
X511254Y303110D01*
X512034Y303632D01*
X513700Y305298D01*
X514222Y306078D01*
X514405Y306999D01*
Y307924D01*
X514905Y308258D01*
X515229Y308123D01*
X516000Y308022D01*
X516771Y308123D01*
X517268Y308329D01*
X517299Y308299D01*
D02*
G37*
G36*
X570827Y314758D02*
X570035Y313966D01*
X569593Y313390D01*
X569315Y312719D01*
X569220Y312000D01*
Y280167D01*
X568962Y279941D01*
X568191Y279839D01*
X567906Y279721D01*
X567406Y280055D01*
Y313000D01*
X567223Y313921D01*
X566701Y314701D01*
X566644Y314758D01*
X566836Y315220D01*
X570636D01*
X570827Y314758D01*
D02*
G37*
G36*
X552594Y260715D02*
X552421Y260489D01*
X552123Y259771D01*
X552022Y259000D01*
X552123Y258229D01*
X552257Y257906D01*
X551923Y257406D01*
X544997D01*
X544406Y257997D01*
Y264709D01*
X544849Y264877D01*
X544906Y264885D01*
X545511Y264421D01*
X546229Y264123D01*
X547000Y264022D01*
X547771Y264123D01*
X548489Y264421D01*
X549106Y264894D01*
X549579Y265511D01*
X549877Y266229D01*
X549978Y267000D01*
X549877Y267771D01*
X549579Y268489D01*
X549406Y268715D01*
Y275520D01*
X551528D01*
Y282213D01*
Y290480D01*
X550150D01*
X549816Y290980D01*
X549877Y291127D01*
X549978Y291898D01*
X549877Y292668D01*
X549579Y293387D01*
X549106Y294004D01*
X548489Y294477D01*
X547771Y294774D01*
X547000Y294876D01*
X546229Y294774D01*
X545511Y294477D01*
X544894Y294004D01*
X544421Y293387D01*
X544123Y292668D01*
X544022Y291898D01*
X544123Y291127D01*
X544184Y290980D01*
X543906Y290564D01*
X543406Y290617D01*
Y291080D01*
X543223Y292001D01*
X542701Y292782D01*
X541782Y293701D01*
X541001Y294223D01*
X540080Y294406D01*
X534047D01*
X533713Y294906D01*
X533855Y295250D01*
X533957Y296021D01*
X533855Y296792D01*
X533558Y297510D01*
X533085Y298127D01*
X532468Y298601D01*
X531750Y298898D01*
X530979Y299000D01*
X530208Y298898D01*
X529943Y298788D01*
X529528Y299066D01*
Y300213D01*
Y307594D01*
X552594D01*
Y260715D01*
D02*
G37*
G36*
X562594D02*
X562421Y260489D01*
X562123Y259771D01*
X562022Y259000D01*
X562123Y258229D01*
X562257Y257906D01*
X561923Y257406D01*
X558077D01*
X557743Y257906D01*
X557877Y258229D01*
X557978Y259000D01*
X557877Y259771D01*
X557579Y260489D01*
X557406Y260715D01*
Y309000D01*
X557223Y309921D01*
X556701Y310701D01*
X556271Y311132D01*
X556462Y311594D01*
X562594D01*
Y260715D01*
D02*
G37*
G36*
X514248Y271073D02*
X514123Y270771D01*
X514022Y270000D01*
X514123Y269229D01*
X514421Y268511D01*
X514670Y268186D01*
X514514Y267580D01*
X514511Y267579D01*
X513894Y267106D01*
X513421Y266489D01*
X513123Y265771D01*
X513022Y265000D01*
X513123Y264229D01*
X513421Y263511D01*
X513894Y262894D01*
X514511Y262421D01*
X515229Y262123D01*
X516000Y262022D01*
X516771Y262123D01*
X517268Y262329D01*
X518299Y261299D01*
X519079Y260777D01*
X520000Y260594D01*
X520472D01*
Y259520D01*
X537331D01*
Y266606D01*
Y268945D01*
X537356D01*
X538075Y269040D01*
X538745Y269317D01*
X538909Y269443D01*
X539094Y269519D01*
X539594Y269185D01*
Y257000D01*
X539777Y256079D01*
X540227Y255406D01*
X540055Y254906D01*
X531215D01*
X530989Y255079D01*
X530271Y255377D01*
X529500Y255478D01*
X528729Y255377D01*
X528011Y255079D01*
X527394Y254606D01*
X526921Y253989D01*
X526623Y253271D01*
X526522Y252500D01*
X526623Y251729D01*
X526756Y251409D01*
X526422Y250908D01*
X511682D01*
X511461Y251357D01*
X511579Y251511D01*
X511877Y252229D01*
X511978Y253000D01*
X511877Y253771D01*
X511579Y254489D01*
X511106Y255106D01*
X510489Y255579D01*
X510430Y255604D01*
Y266890D01*
X510386Y267110D01*
Y271231D01*
X510706Y271573D01*
X513914D01*
X514248Y271073D01*
D02*
G37*
G36*
X473594Y225480D02*
X471669Y225480D01*
X471527Y225922D01*
Y226528D01*
X469406D01*
Y233520D01*
X471169D01*
X471669Y233520D01*
X471831Y233520D01*
X473594D01*
Y225480D01*
D02*
G37*
G36*
X464594Y226528D02*
X462472D01*
Y225922D01*
X462331Y225480D01*
X453669D01*
X453527Y225922D01*
Y226528D01*
X444473D01*
Y224406D01*
X443331D01*
Y225480D01*
X441406D01*
Y233520D01*
X443331D01*
X443331Y233520D01*
X443472D01*
Y233520D01*
X443831Y233520D01*
X445957D01*
X446034Y233418D01*
X447343Y232110D01*
X447919Y231668D01*
X448589Y231390D01*
X449308Y231296D01*
X451813D01*
X452229Y231123D01*
X453000Y231022D01*
X453771Y231123D01*
X454187Y231296D01*
X457075D01*
X457795Y231390D01*
X458465Y231668D01*
X459041Y232110D01*
X459966Y233034D01*
X460338Y233520D01*
X462169D01*
X462528Y233520D01*
Y233520D01*
X462669D01*
Y233520D01*
X464594D01*
Y226528D01*
D02*
G37*
G36*
X412419Y322000D02*
Y302000D01*
X412507Y301332D01*
X412765Y300709D01*
X413175Y300175D01*
X416006Y297344D01*
Y292528D01*
X415520D01*
Y283472D01*
X416006D01*
Y282398D01*
X414945D01*
Y278680D01*
X414280D01*
X413806Y278877D01*
X413035Y278978D01*
X412265Y278877D01*
X411546Y278579D01*
X410929Y278106D01*
X410456Y277489D01*
X410159Y276771D01*
X410057Y276000D01*
X410159Y275229D01*
X410456Y274511D01*
X410929Y273894D01*
X411546Y273421D01*
X412265Y273123D01*
X413035Y273022D01*
X413806Y273123D01*
X414280Y273320D01*
X414945D01*
Y269602D01*
X422228D01*
Y269777D01*
X422536D01*
X423204Y269865D01*
X423827Y270123D01*
X424361Y270533D01*
X425310Y271482D01*
X425772Y271290D01*
Y269602D01*
X433055D01*
Y269623D01*
X434473D01*
Y269106D01*
X433972Y268793D01*
X433771Y268877D01*
X433000Y268978D01*
X432229Y268877D01*
X431511Y268579D01*
X430894Y268106D01*
X430421Y267489D01*
X430123Y266771D01*
X430022Y266000D01*
X430123Y265229D01*
X430421Y264511D01*
X430894Y263894D01*
X431511Y263421D01*
X432229Y263123D01*
X433000Y263022D01*
X433771Y263123D01*
X433972Y263207D01*
X434473Y262894D01*
Y261901D01*
X433579Y261723D01*
X432799Y261201D01*
X431003Y259406D01*
X406000D01*
X405079Y259223D01*
X404299Y258701D01*
X403299Y257701D01*
X402777Y256921D01*
X402594Y256000D01*
Y253861D01*
X401771Y253229D01*
X401045Y252283D01*
X400589Y251182D01*
X400433Y250000D01*
X400589Y248818D01*
X401045Y247717D01*
X401771Y246771D01*
X402717Y246045D01*
X403818Y245589D01*
X405000Y245433D01*
X406182Y245589D01*
X407283Y246045D01*
X408229Y246771D01*
X408955Y247717D01*
X409411Y248818D01*
X409567Y250000D01*
X409411Y251182D01*
X408955Y252283D01*
X408229Y253229D01*
X407406Y253861D01*
Y254594D01*
X412953D01*
X413053Y254094D01*
X412717Y253955D01*
X411771Y253229D01*
X411045Y252283D01*
X410589Y251182D01*
X410433Y250000D01*
X410589Y248818D01*
X411045Y247717D01*
X411771Y246771D01*
X412717Y246045D01*
X413818Y245589D01*
X415000Y245433D01*
X416182Y245589D01*
X417283Y246045D01*
X418229Y246771D01*
X418955Y247717D01*
X419411Y248818D01*
X419567Y250000D01*
X419411Y251182D01*
X418955Y252283D01*
X418229Y253229D01*
X417283Y253955D01*
X416947Y254094D01*
X417047Y254594D01*
X429484D01*
X429691Y254094D01*
X428369Y252771D01*
X428299Y252725D01*
X427777Y251944D01*
X427594Y251023D01*
Y246406D01*
X427000D01*
X426079Y246223D01*
X425299Y245701D01*
X424368Y244771D01*
X423847Y243990D01*
X423664Y243070D01*
Y241806D01*
X423421Y241489D01*
X423123Y240771D01*
X423022Y240000D01*
X423117Y239274D01*
X422947Y239054D01*
X422726Y238883D01*
X422000Y238978D01*
X421229Y238877D01*
X420511Y238579D01*
X419894Y238106D01*
X419421Y237489D01*
X419123Y236771D01*
X419022Y236000D01*
X419123Y235229D01*
X419226Y234980D01*
X418892Y234480D01*
X417406D01*
Y236139D01*
X418229Y236771D01*
X418955Y237717D01*
X419411Y238818D01*
X419567Y240000D01*
X419411Y241182D01*
X418955Y242283D01*
X418229Y243229D01*
X417283Y243955D01*
X416182Y244411D01*
X415000Y244567D01*
X413818Y244411D01*
X412717Y243955D01*
X411771Y243229D01*
X411045Y242283D01*
X410589Y241182D01*
X410433Y240000D01*
X410589Y238818D01*
X411045Y237717D01*
X411771Y236771D01*
X412594Y236139D01*
Y234480D01*
X410669D01*
Y226606D01*
X419331D01*
X419473Y226165D01*
Y219520D01*
X428527D01*
Y221094D01*
X429786D01*
X430011Y220921D01*
X430729Y220623D01*
X431500Y220522D01*
X432271Y220623D01*
X432989Y220921D01*
X433606Y221394D01*
X434079Y222011D01*
X434169Y222228D01*
X434669Y222129D01*
Y217606D01*
X443331D01*
Y219594D01*
X444473D01*
Y217472D01*
X453527D01*
Y217472D01*
X453669Y217606D01*
X462331D01*
X462472Y217472D01*
Y217472D01*
X471225D01*
X471527Y217472D01*
X471972Y217606D01*
X480331D01*
Y219594D01*
X481472D01*
Y217472D01*
X490527D01*
Y226528D01*
X481472D01*
Y224406D01*
X480331D01*
Y225480D01*
X478406D01*
Y226923D01*
X478906Y227257D01*
X479229Y227123D01*
X480000Y227022D01*
X480771Y227123D01*
X481489Y227421D01*
X481762Y227630D01*
X496196D01*
X496469Y227421D01*
X497188Y227123D01*
X497958Y227022D01*
X498729Y227123D01*
X499447Y227421D01*
X500064Y227894D01*
X500538Y228511D01*
X500835Y229229D01*
X500937Y230000D01*
X500835Y230771D01*
X500538Y231489D01*
X500064Y232106D01*
X499447Y232579D01*
X498729Y232877D01*
X497958Y232978D01*
X497188Y232877D01*
X496469Y232579D01*
X496291Y232442D01*
X481667D01*
X481489Y232579D01*
X480771Y232877D01*
X480000Y232978D01*
X479229Y232877D01*
X478906Y232743D01*
X478492Y233020D01*
X478548Y233520D01*
X480331D01*
X480331Y233520D01*
X480473D01*
Y233520D01*
X480831Y233520D01*
X489528D01*
Y233928D01*
X490028Y234207D01*
X490229Y234123D01*
X491000Y234022D01*
X491771Y234123D01*
X492489Y234421D01*
X493106Y234894D01*
X493579Y235511D01*
X493877Y236229D01*
X493978Y237000D01*
X493877Y237771D01*
X493579Y238489D01*
X493106Y239106D01*
X492489Y239579D01*
X491771Y239877D01*
X491000Y239978D01*
X490229Y239877D01*
X490177Y239855D01*
X489528D01*
Y248480D01*
X488289D01*
X487959Y248856D01*
X487978Y249000D01*
X487877Y249771D01*
X487579Y250489D01*
X487106Y251106D01*
X486489Y251579D01*
X485771Y251877D01*
X485000Y251978D01*
X484229Y251877D01*
X483511Y251579D01*
X482894Y251106D01*
X482421Y250489D01*
X482123Y249771D01*
X482022Y249000D01*
X482041Y248856D01*
X481711Y248480D01*
X480473D01*
Y248480D01*
X480331D01*
Y248480D01*
X471831D01*
X471331Y248480D01*
X471169Y248480D01*
X469406D01*
Y249285D01*
X469579Y249511D01*
X469877Y250229D01*
X469978Y251000D01*
X469877Y251771D01*
X469579Y252489D01*
X469106Y253106D01*
X468489Y253579D01*
X467771Y253877D01*
X467000Y253978D01*
X466229Y253877D01*
X465511Y253579D01*
X464894Y253106D01*
X464421Y252489D01*
X464123Y251771D01*
X464022Y251000D01*
X464123Y250229D01*
X464421Y249511D01*
X464594Y249285D01*
Y248480D01*
X462669D01*
Y248480D01*
X462528D01*
Y248480D01*
X453473D01*
Y240213D01*
Y237295D01*
X453096Y236965D01*
X453000Y236978D01*
X452904Y236965D01*
X452528Y237295D01*
Y240213D01*
Y248480D01*
X450406D01*
Y251285D01*
X450579Y251511D01*
X450877Y252229D01*
X450978Y253000D01*
X450877Y253771D01*
X450579Y254489D01*
X450106Y255106D01*
X449489Y255579D01*
X448771Y255877D01*
X448000Y255978D01*
X447229Y255877D01*
X446511Y255579D01*
X445894Y255106D01*
X445421Y254489D01*
X445420Y254486D01*
X444814Y254330D01*
X444489Y254579D01*
X443771Y254877D01*
X443000Y254978D01*
X442229Y254877D01*
X441511Y254579D01*
X441095Y254260D01*
X440779Y254436D01*
X440662Y254558D01*
X440757Y255276D01*
X440655Y256046D01*
X440428Y256594D01*
X440681Y257094D01*
X444000D01*
X444921Y257277D01*
X445701Y257799D01*
X447701Y259799D01*
X448223Y260579D01*
X448406Y261500D01*
Y264267D01*
X448579Y264493D01*
X448877Y265211D01*
X448978Y265982D01*
X448877Y266753D01*
X448579Y267471D01*
X448106Y268088D01*
X447489Y268561D01*
X446771Y268859D01*
X446000Y268960D01*
X445229Y268859D01*
X444511Y268561D01*
X444028Y268191D01*
X443984Y268192D01*
X443597Y268349D01*
X443528Y268410D01*
Y276480D01*
X434473D01*
Y274984D01*
X429457D01*
X428954Y274917D01*
X426581D01*
Y278178D01*
X426493Y278846D01*
X426235Y279468D01*
X425825Y280003D01*
X424263Y281565D01*
X423728Y281976D01*
X423105Y282233D01*
X422437Y282321D01*
X422228D01*
Y282398D01*
X421168D01*
Y283472D01*
X430480D01*
Y285220D01*
X431849D01*
X433035Y284034D01*
X433610Y283593D01*
X434281Y283315D01*
X434473Y283290D01*
Y282213D01*
X443528D01*
Y290480D01*
X434618D01*
X434489Y290579D01*
X433771Y290877D01*
X433000Y290978D01*
X432229Y290877D01*
X431995Y290780D01*
X430480D01*
Y292528D01*
X421168D01*
Y298413D01*
X421080Y299081D01*
X420822Y299704D01*
X420412Y300238D01*
X417581Y303069D01*
Y322000D01*
X449137Y322000D01*
Y320920D01*
X449320Y319999D01*
X449842Y319218D01*
X450762Y318299D01*
X451542Y317777D01*
X452463Y317594D01*
X462573D01*
X462777Y317094D01*
X462421Y316629D01*
X462123Y315911D01*
X462022Y315140D01*
X462069Y314782D01*
X461739Y314406D01*
X458266D01*
X457345Y314223D01*
X456565Y313701D01*
X455645Y312782D01*
X455124Y312001D01*
X454940Y311080D01*
Y309024D01*
X453016D01*
Y301150D01*
Y298820D01*
X452516Y298675D01*
X451989Y299079D01*
X451271Y299377D01*
X450500Y299478D01*
X449729Y299377D01*
X449011Y299079D01*
X448394Y298606D01*
X447921Y297989D01*
X447623Y297271D01*
X447522Y296500D01*
X447623Y295729D01*
X447921Y295011D01*
X448094Y294786D01*
Y294252D01*
X446520D01*
Y285197D01*
X461480D01*
Y287318D01*
X478890D01*
X479110Y287362D01*
X485189D01*
Y292087D01*
X479110D01*
X478890Y292130D01*
X461480D01*
Y294063D01*
X461677D01*
Y301150D01*
Y309024D01*
X459753D01*
Y309594D01*
X464080D01*
X465001Y309777D01*
X465782Y310299D01*
X466701Y311218D01*
X467223Y311999D01*
X467406Y312920D01*
Y313425D01*
X467579Y313651D01*
X467877Y314369D01*
X467978Y315140D01*
X467877Y315911D01*
X467579Y316629D01*
X467223Y317094D01*
X467427Y317594D01*
X483594D01*
Y312715D01*
X483421Y312489D01*
X483123Y311771D01*
X483022Y311000D01*
X483123Y310229D01*
X483421Y309511D01*
X483614Y309259D01*
Y298386D01*
X473028D01*
X472590Y298386D01*
X472528Y298860D01*
Y299390D01*
X472612Y299486D01*
X473028Y299697D01*
X473576Y299470D01*
X474346Y299368D01*
X475117Y299470D01*
X475836Y299767D01*
X476452Y300240D01*
X476926Y300857D01*
X477223Y301576D01*
X477325Y302346D01*
X477223Y303117D01*
X476926Y303836D01*
X476452Y304452D01*
X475836Y304926D01*
X475117Y305223D01*
X474346Y305325D01*
X473576Y305223D01*
X473028Y304996D01*
X472612Y305207D01*
X472528Y305303D01*
Y306480D01*
X463473D01*
Y298213D01*
X472090D01*
X472528Y298213D01*
X472590Y297739D01*
Y293661D01*
X485189D01*
Y296811D01*
X508811D01*
Y293661D01*
Y290512D01*
Y287362D01*
Y284213D01*
X514878D01*
X515110Y284166D01*
X522376D01*
X523298Y284350D01*
X524079Y284872D01*
X524799Y285592D01*
X528288D01*
X528511Y285421D01*
X529213Y285130D01*
Y278419D01*
X523134D01*
X522729Y278825D01*
X521948Y279346D01*
X521410Y279454D01*
Y282638D01*
X508811D01*
Y282229D01*
X508311Y281962D01*
X507921Y282223D01*
X507000Y282406D01*
X493737D01*
X493511Y282579D01*
X492793Y282877D01*
X492022Y282978D01*
X491251Y282877D01*
X490533Y282579D01*
X489916Y282106D01*
X489443Y281489D01*
X489145Y280771D01*
X489044Y280000D01*
X489145Y279229D01*
X489443Y278511D01*
X489916Y277894D01*
X490533Y277421D01*
X491251Y277123D01*
X492022Y277022D01*
X492793Y277123D01*
X493511Y277421D01*
X493737Y277594D01*
X505620D01*
Y275361D01*
X505803Y274440D01*
X506305Y273689D01*
X506258Y273468D01*
X506142Y273189D01*
X485189D01*
Y277913D01*
Y280291D01*
X485549Y280532D01*
X485689Y280544D01*
X486425Y280447D01*
X487196Y280549D01*
X487914Y280846D01*
X488531Y281319D01*
X489004Y281936D01*
X489302Y282654D01*
X489403Y283425D01*
X489302Y284196D01*
X489004Y284914D01*
X488531Y285531D01*
X487914Y286004D01*
X487196Y286302D01*
X486425Y286403D01*
X485654Y286302D01*
X484936Y286004D01*
X484711Y285832D01*
X478890D01*
X478667Y285787D01*
X472590D01*
Y282682D01*
X461215D01*
X460989Y282855D01*
X460271Y283152D01*
X459500Y283254D01*
X458729Y283152D01*
X458011Y282855D01*
X457394Y282382D01*
X456921Y281765D01*
X456623Y281046D01*
X456522Y280276D01*
X456623Y279505D01*
X456921Y278786D01*
X457394Y278170D01*
X458011Y277696D01*
X458418Y277528D01*
X458535Y276938D01*
X458054Y276456D01*
X457772Y276419D01*
X457053Y276122D01*
X456437Y275648D01*
X455963Y275032D01*
X455666Y274313D01*
X455564Y273543D01*
X455666Y272772D01*
X455963Y272053D01*
X456437Y271437D01*
X457053Y270963D01*
X457772Y270666D01*
X458543Y270564D01*
X459313Y270666D01*
X460032Y270963D01*
X460648Y271437D01*
X461122Y272053D01*
X461419Y272772D01*
X461456Y273054D01*
X463123Y274720D01*
X467873D01*
X468043Y274220D01*
X467894Y274106D01*
X467421Y273489D01*
X467123Y272771D01*
X467022Y272000D01*
X467123Y271229D01*
X467421Y270511D01*
X467894Y269894D01*
X468511Y269421D01*
X468626Y269373D01*
X468764Y268775D01*
X468491Y268419D01*
X468194Y267700D01*
X468092Y266929D01*
X468194Y266159D01*
X468491Y265440D01*
X468965Y264824D01*
X469582Y264350D01*
X470300Y264053D01*
X471071Y263951D01*
X471841Y264053D01*
X472560Y264350D01*
X472785Y264523D01*
X483614D01*
Y261406D01*
X481715D01*
X481489Y261579D01*
X480771Y261877D01*
X480000Y261978D01*
X479229Y261877D01*
X478511Y261579D01*
X477894Y261106D01*
X477421Y260489D01*
X477123Y259771D01*
X477022Y259000D01*
X477123Y258229D01*
X477421Y257511D01*
X477894Y256894D01*
X478511Y256421D01*
X479229Y256123D01*
X480000Y256022D01*
X480771Y256123D01*
X481489Y256421D01*
X481715Y256594D01*
X487000D01*
X487921Y256777D01*
X488419Y257110D01*
X489026Y256953D01*
X489059Y256873D01*
X489532Y256256D01*
X490149Y255783D01*
X490700Y255555D01*
X491123Y255271D01*
X491022Y254500D01*
X491123Y253729D01*
X491421Y253011D01*
X491894Y252394D01*
X492511Y251921D01*
X493229Y251623D01*
X494000Y251522D01*
X494682Y251611D01*
X494938Y251393D01*
X495073Y251207D01*
X494980Y250500D01*
X495082Y249729D01*
X495379Y249011D01*
X495852Y248394D01*
X496469Y247921D01*
X497188Y247623D01*
X497958Y247522D01*
X498729Y247623D01*
X498905Y247696D01*
X499321Y247418D01*
Y246696D01*
X499504Y245776D01*
X500026Y244995D01*
X502222Y242799D01*
X503002Y242277D01*
X503923Y242094D01*
X521102D01*
X521323Y241646D01*
X521045Y241283D01*
X520589Y240182D01*
X520433Y239000D01*
X520589Y237818D01*
X521045Y236717D01*
X521771Y235771D01*
X522220Y235426D01*
Y232528D01*
X520713D01*
Y223472D01*
X528980D01*
Y232528D01*
X527780D01*
Y235426D01*
X528229Y235771D01*
X528955Y236717D01*
X529411Y237818D01*
X529567Y239000D01*
X529411Y240182D01*
X529040Y241078D01*
X529337Y241523D01*
X529364Y241540D01*
X529500Y241522D01*
X530271Y241623D01*
X530864Y241869D01*
X531180Y241459D01*
X531045Y241283D01*
X530589Y240182D01*
X530433Y239000D01*
X530589Y237818D01*
X531045Y236717D01*
X531771Y235771D01*
X532591Y235141D01*
Y220859D01*
X531771Y220229D01*
X531045Y219283D01*
X530589Y218182D01*
X530433Y217000D01*
X530589Y215818D01*
X531045Y214717D01*
X531771Y213771D01*
X532717Y213045D01*
X533818Y212589D01*
X535000Y212433D01*
X536182Y212589D01*
X537283Y213045D01*
X538229Y213771D01*
X538955Y214717D01*
X539411Y215818D01*
X539567Y217000D01*
X539411Y218182D01*
X538955Y219283D01*
X538229Y220229D01*
X537408Y220859D01*
Y235141D01*
X538229Y235771D01*
X538955Y236717D01*
X539411Y237818D01*
X539567Y239000D01*
X539411Y240182D01*
X538955Y241283D01*
X538229Y242229D01*
X537408Y242859D01*
Y248500D01*
X537225Y249422D01*
X537071Y249653D01*
X537306Y250094D01*
X540503D01*
X542594Y248003D01*
Y242861D01*
X541771Y242229D01*
X541045Y241283D01*
X540589Y240182D01*
X540433Y239000D01*
X540589Y237818D01*
X541045Y236717D01*
X541771Y235771D01*
X542594Y235139D01*
Y220861D01*
X541771Y220229D01*
X541045Y219283D01*
X540589Y218182D01*
X540433Y217000D01*
X540589Y215818D01*
X541045Y214717D01*
X541771Y213771D01*
X542717Y213045D01*
X543818Y212589D01*
X545000Y212433D01*
X546182Y212589D01*
X547283Y213045D01*
X548229Y213771D01*
X548955Y214717D01*
X549411Y215818D01*
X549567Y217000D01*
X549411Y218182D01*
X548955Y219283D01*
X548229Y220229D01*
X547406Y220861D01*
Y235139D01*
X548229Y235771D01*
X548955Y236717D01*
X549411Y237818D01*
X549567Y239000D01*
X549411Y240182D01*
X548955Y241283D01*
X548229Y242229D01*
X547406Y242861D01*
Y249000D01*
X547223Y249921D01*
X546701Y250701D01*
X545271Y252132D01*
X545462Y252594D01*
X551923D01*
X552257Y252094D01*
X552123Y251771D01*
X552022Y251000D01*
X552123Y250229D01*
X552421Y249511D01*
X552594Y249285D01*
Y220861D01*
X551771Y220229D01*
X551045Y219283D01*
X550589Y218182D01*
X550433Y217000D01*
X550589Y215818D01*
X551045Y214717D01*
X551771Y213771D01*
X552717Y213045D01*
X553818Y212589D01*
X555000Y212433D01*
X556182Y212589D01*
X557283Y213045D01*
X558229Y213771D01*
X558955Y214717D01*
X559411Y215818D01*
X559567Y217000D01*
X559411Y218182D01*
X558955Y219283D01*
X558229Y220229D01*
X557406Y220861D01*
Y249285D01*
X557579Y249511D01*
X557877Y250229D01*
X557978Y251000D01*
X557877Y251771D01*
X557743Y252094D01*
X558077Y252594D01*
X561923D01*
X562257Y252094D01*
X562123Y251771D01*
X562022Y251000D01*
X562123Y250229D01*
X562421Y249511D01*
X562594Y249285D01*
Y220861D01*
X561771Y220229D01*
X561045Y219283D01*
X560589Y218182D01*
X560433Y217000D01*
X560589Y215818D01*
X561045Y214717D01*
X561771Y213771D01*
X562717Y213045D01*
X563818Y212589D01*
X565000Y212433D01*
X566182Y212589D01*
X567283Y213045D01*
X568229Y213771D01*
X568955Y214717D01*
X569411Y215818D01*
X569567Y217000D01*
X569411Y218182D01*
X568955Y219283D01*
X568229Y220229D01*
X567406Y220861D01*
Y249285D01*
X567579Y249511D01*
X567877Y250229D01*
X567978Y251000D01*
X567877Y251771D01*
X567743Y252094D01*
X568077Y252594D01*
X572003D01*
X572594Y252003D01*
Y220861D01*
X571771Y220229D01*
X571045Y219283D01*
X570589Y218182D01*
X570433Y217000D01*
X570589Y215818D01*
X571045Y214717D01*
X571771Y213771D01*
X572717Y213045D01*
X573818Y212589D01*
X575000Y212433D01*
X576182Y212589D01*
X577283Y213045D01*
X578229Y213771D01*
X578955Y214717D01*
X579411Y215818D01*
X579567Y217000D01*
X579411Y218182D01*
X578955Y219283D01*
X578229Y220229D01*
X577406Y220861D01*
Y253000D01*
X577223Y253921D01*
X576701Y254701D01*
X574701Y256701D01*
X573921Y257223D01*
X573000Y257406D01*
X568077D01*
X567743Y257906D01*
X567877Y258229D01*
X567978Y259000D01*
X567877Y259771D01*
X567579Y260489D01*
X567406Y260715D01*
Y273870D01*
X567906Y274204D01*
X568191Y274086D01*
X568962Y273984D01*
X569733Y274086D01*
X570149Y274258D01*
X570616D01*
X571336Y274353D01*
X572006Y274630D01*
X572582Y275072D01*
X573966Y276456D01*
X574407Y277032D01*
X574685Y277702D01*
X574780Y278421D01*
Y310849D01*
X575151Y311220D01*
X602681D01*
X603401Y311315D01*
X604071Y311593D01*
X604647Y312035D01*
X614612Y321999D01*
X690884Y321999D01*
X690885Y183000D01*
X690894Y182953D01*
X690801Y182249D01*
X690512Y181550D01*
X690051Y180949D01*
X689450Y180489D01*
X688751Y180199D01*
X688047Y180106D01*
X688000Y180115D01*
X384000D01*
X383953Y180106D01*
X383249Y180199D01*
X382550Y180489D01*
X381949Y180949D01*
X381488Y181550D01*
X381199Y182249D01*
X381163Y182520D01*
X381116Y183000D01*
X381115Y183495D01*
X381115Y256241D01*
X381520Y256472D01*
X381615Y256472D01*
X389787D01*
Y265528D01*
X388060D01*
Y267132D01*
X388233Y267357D01*
X388530Y268076D01*
X388632Y268847D01*
X388530Y269617D01*
X388233Y270336D01*
X387759Y270952D01*
X387143Y271426D01*
X386424Y271723D01*
X385653Y271825D01*
X384883Y271723D01*
X384164Y271426D01*
X383548Y270952D01*
X383074Y270336D01*
X382777Y269617D01*
X382675Y268847D01*
X382777Y268076D01*
X383074Y267357D01*
X383247Y267132D01*
Y265528D01*
X381615D01*
X381115Y265759D01*
Y322000D01*
X412419Y322000D01*
D02*
G37*
%LPC*%
G36*
X391000Y300567D02*
X389818Y300411D01*
X388717Y299955D01*
X387771Y299229D01*
X387045Y298283D01*
X386589Y297182D01*
X386433Y296000D01*
X386589Y294818D01*
X387045Y293717D01*
X387771Y292771D01*
X388717Y292045D01*
X389818Y291589D01*
X391000Y291433D01*
X392182Y291589D01*
X393283Y292045D01*
X394229Y292771D01*
X394955Y293717D01*
X395411Y294818D01*
X395567Y296000D01*
X395411Y297182D01*
X394955Y298283D01*
X394229Y299229D01*
X393283Y299955D01*
X392182Y300411D01*
X391000Y300567D01*
D02*
G37*
G36*
X399528Y244528D02*
X390472D01*
Y235472D01*
X399528D01*
Y244528D01*
D02*
G37*
G36*
X405000Y244567D02*
X403818Y244411D01*
X402717Y243955D01*
X401771Y243229D01*
X401045Y242283D01*
X400589Y241182D01*
X400433Y240000D01*
X400589Y238818D01*
X401045Y237717D01*
X401771Y236771D01*
X402717Y236045D01*
X403818Y235589D01*
X405000Y235433D01*
X406182Y235589D01*
X407283Y236045D01*
X408229Y236771D01*
X408955Y237717D01*
X409411Y238818D01*
X409567Y240000D01*
X409411Y241182D01*
X408955Y242283D01*
X408229Y243229D01*
X407283Y243955D01*
X406182Y244411D01*
X405000Y244567D01*
D02*
G37*
G36*
X525000Y221567D02*
X523818Y221411D01*
X522717Y220955D01*
X521771Y220229D01*
X521045Y219283D01*
X520589Y218182D01*
X520433Y217000D01*
X520589Y215818D01*
X521045Y214717D01*
X521771Y213771D01*
X522717Y213045D01*
X523818Y212589D01*
X525000Y212433D01*
X526182Y212589D01*
X527283Y213045D01*
X528229Y213771D01*
X528955Y214717D01*
X529411Y215818D01*
X529567Y217000D01*
X529411Y218182D01*
X528955Y219283D01*
X528229Y220229D01*
X527283Y220955D01*
X526182Y221411D01*
X525000Y221567D01*
D02*
G37*
G36*
X486000Y216567D02*
X484818Y216411D01*
X483717Y215955D01*
X482771Y215229D01*
X482045Y214283D01*
X481589Y213182D01*
X481433Y212000D01*
X481589Y210818D01*
X482045Y209717D01*
X482771Y208771D01*
X483717Y208045D01*
X484818Y207589D01*
X486000Y207433D01*
X487182Y207589D01*
X488283Y208045D01*
X489229Y208771D01*
X489955Y209717D01*
X490411Y210818D01*
X490567Y212000D01*
X490411Y213182D01*
X489955Y214283D01*
X489229Y215229D01*
X488283Y215955D01*
X487182Y216411D01*
X486000Y216567D01*
D02*
G37*
G36*
X467000D02*
X465818Y216411D01*
X464717Y215955D01*
X463771Y215229D01*
X463045Y214283D01*
X462589Y213182D01*
X462433Y212000D01*
X462589Y210818D01*
X463045Y209717D01*
X463771Y208771D01*
X464717Y208045D01*
X465818Y207589D01*
X467000Y207433D01*
X468182Y207589D01*
X469283Y208045D01*
X470229Y208771D01*
X470955Y209717D01*
X471411Y210818D01*
X471567Y212000D01*
X471411Y213182D01*
X470955Y214283D01*
X470229Y215229D01*
X469283Y215955D01*
X468182Y216411D01*
X467000Y216567D01*
D02*
G37*
G36*
X449000D02*
X447818Y216411D01*
X446717Y215955D01*
X445771Y215229D01*
X445045Y214283D01*
X444589Y213182D01*
X444433Y212000D01*
X444589Y210818D01*
X445045Y209717D01*
X445771Y208771D01*
X446717Y208045D01*
X447818Y207589D01*
X449000Y207433D01*
X450182Y207589D01*
X451283Y208045D01*
X452229Y208771D01*
X452955Y209717D01*
X453411Y210818D01*
X453567Y212000D01*
X453411Y213182D01*
X452955Y214283D01*
X452229Y215229D01*
X451283Y215955D01*
X450182Y216411D01*
X449000Y216567D01*
D02*
G37*
G36*
X509000Y214978D02*
X508229Y214877D01*
X507511Y214579D01*
X506894Y214106D01*
X506421Y213489D01*
X506123Y212771D01*
X506022Y212000D01*
X506123Y211229D01*
X506421Y210511D01*
X506594Y210285D01*
Y199406D01*
X502480D01*
Y201331D01*
X494606D01*
Y192669D01*
X494747D01*
X494983Y192228D01*
X494777Y191921D01*
X494594Y191000D01*
Y190650D01*
X494369Y190557D01*
X493280Y189720D01*
X492443Y188631D01*
X491918Y187362D01*
X491739Y186000D01*
X491918Y184638D01*
X492443Y183369D01*
X493280Y182280D01*
X494369Y181443D01*
X495638Y180918D01*
X497000Y180738D01*
X498362Y180918D01*
X499631Y181443D01*
X500721Y182280D01*
X501557Y183369D01*
X502082Y184638D01*
X502261Y186000D01*
X502082Y187362D01*
X501557Y188631D01*
X500721Y189720D01*
X500117Y190183D01*
X500085Y190682D01*
X500245Y190842D01*
X500766Y191623D01*
X500949Y192543D01*
Y192669D01*
X502480D01*
Y194594D01*
X512520D01*
Y192473D01*
X527480D01*
Y193711D01*
X527856Y194041D01*
X528000Y194022D01*
X528771Y194123D01*
X529489Y194421D01*
X530106Y194894D01*
X530579Y195511D01*
X530877Y196229D01*
X530978Y197000D01*
X530877Y197771D01*
X530579Y198489D01*
X530106Y199106D01*
X529489Y199579D01*
X528771Y199877D01*
X528000Y199978D01*
X527856Y199959D01*
X527480Y200289D01*
Y201528D01*
X512520D01*
Y199406D01*
X511406D01*
Y210285D01*
X511579Y210511D01*
X511877Y211229D01*
X511978Y212000D01*
X511877Y212771D01*
X511579Y213489D01*
X511106Y214106D01*
X510489Y214579D01*
X509771Y214877D01*
X509000Y214978D01*
D02*
G37*
G36*
X522217Y191217D02*
X511784D01*
Y180783D01*
X522217D01*
Y191217D01*
D02*
G37*
%LPD*%
D13*
X524346Y228000D02*
X525000Y228654D01*
Y239000D01*
X607000Y312000D02*
X637500Y342500D01*
X637472Y401000D02*
X637500Y400972D01*
Y342500D02*
Y400972D01*
X599000Y318000D02*
X627000Y346000D01*
X533000Y318000D02*
X599000D01*
X584000Y310063D02*
X604312D01*
X574000Y314000D02*
X602681D01*
X584000Y209384D02*
Y310063D01*
X572000Y312000D02*
X574000Y314000D01*
X627000Y346000D02*
Y389000D01*
X518000Y304000D02*
X525026D01*
X572000Y278421D02*
Y312000D01*
X602681Y314000D02*
X633000Y344319D01*
X606249Y312000D02*
X607000D01*
X604312Y310063D02*
X606249Y312000D01*
X627000Y389000D02*
Y401000D01*
X621000Y389543D02*
X621543Y389000D01*
X627000D01*
X610213Y389937D02*
Y398213D01*
X613000Y401000D02*
X619000D01*
X610213Y398213D02*
X613000Y401000D01*
X655000Y432654D02*
X655346Y433000D01*
X660000D01*
X650378Y439347D02*
X655000D01*
X643000Y431969D02*
X650378Y439347D01*
X646000Y442000D02*
X649500Y445500D01*
Y454976D01*
X653515Y392000D02*
X654000D01*
X651817Y393699D02*
X653515Y392000D01*
X649699Y393699D02*
X651817D01*
X648183Y392182D02*
X649699Y393699D01*
X648183Y387923D02*
Y392182D01*
X629000Y424000D02*
X674110D01*
X619000Y414000D02*
X629000Y424000D01*
X654500Y439563D02*
Y454976D01*
X639500Y442500D02*
Y454976D01*
X627000Y430000D02*
X639500Y442500D01*
X687150Y423150D02*
X687299Y423000D01*
X687150Y423150D02*
Y431850D01*
X687000Y432000D02*
X687150Y431850D01*
X633000Y344319D02*
Y401000D01*
X485000Y237653D02*
X485578Y237075D01*
X490925D01*
X491000Y237000D01*
X458000Y235000D02*
Y237653D01*
X457075Y234075D02*
X458000Y235000D01*
X453075Y234075D02*
X457075D01*
X453000Y234000D02*
X453075Y234075D01*
X448000Y235384D02*
Y237653D01*
X452925Y234075D02*
X453000Y234000D01*
X449308Y234075D02*
X452925D01*
X448000Y235384D02*
X449308Y234075D01*
X438957Y272303D02*
X439000Y272346D01*
X438654Y286000D02*
X439000Y286347D01*
X435000Y286000D02*
X438654D01*
X433000Y288000D02*
X435000Y286000D01*
X426346Y288000D02*
X433000D01*
X567000Y208000D02*
X582616D01*
X584000Y209384D01*
X566000Y209000D02*
X567000Y208000D01*
X537893Y272262D02*
X538000D01*
X537356Y271724D02*
X537893Y272262D01*
X534181Y271724D02*
X537356D01*
X533000Y270543D02*
X534181Y271724D01*
X517000Y270000D02*
X524653D01*
X525000Y270346D01*
X569038Y277038D02*
X570616D01*
X572000Y278421D01*
X568962Y276962D02*
X569038Y277038D01*
X525000Y304346D02*
X525052Y304294D01*
X492000Y339543D02*
X501000D01*
X433787Y367000D02*
X434000D01*
X433574Y372415D02*
X433787Y372202D01*
Y367000D02*
Y372202D01*
X545299Y352000D02*
X554945D01*
X545000Y352299D02*
X545299Y352000D01*
X501457Y332000D02*
X507000D01*
X501000Y332457D02*
X501457Y332000D01*
X576402Y367000D02*
Y372731D01*
X568402Y364000D02*
Y374000D01*
X571402Y377000D02*
Y382784D01*
X568402Y374000D02*
X571402Y377000D01*
X570402Y362000D02*
X576402D01*
X568402Y364000D02*
X570402Y362000D01*
X543921Y339701D02*
X549171D01*
X551470Y342000D02*
X554945D01*
X549171Y339701D02*
X551470Y342000D01*
X401520Y339701D02*
X406770D01*
X409069Y342000D02*
X412543D01*
X406770Y339701D02*
X409069Y342000D01*
X401819Y352000D02*
X412543D01*
X426000Y364000D02*
Y374000D01*
X429000Y377000D02*
Y382784D01*
X426000Y374000D02*
X429000Y377000D01*
X428000Y362000D02*
X434000D01*
X426000Y364000D02*
X428000Y362000D01*
X401520Y352299D02*
X401819Y352000D01*
D17*
X444000Y368299D02*
D03*
Y355701D02*
D03*
X545000Y352299D02*
D03*
Y339701D02*
D03*
X587402Y355701D02*
D03*
Y368299D02*
D03*
X578000Y475299D02*
D03*
Y462701D02*
D03*
X592000Y475299D02*
D03*
Y462701D02*
D03*
X434000Y475299D02*
D03*
Y462701D02*
D03*
X449000Y475299D02*
D03*
Y462701D02*
D03*
X401520Y339701D02*
D03*
Y352299D02*
D03*
D18*
X501000Y339543D02*
D03*
Y332457D02*
D03*
X492000Y339543D02*
D03*
Y332457D02*
D03*
X476000Y221543D02*
D03*
Y214457D02*
D03*
X458000Y221543D02*
D03*
Y214457D02*
D03*
X439000Y221543D02*
D03*
Y214457D02*
D03*
Y237457D02*
D03*
Y244543D02*
D03*
X476000Y237457D02*
D03*
Y244543D02*
D03*
X467000Y237457D02*
D03*
Y244543D02*
D03*
X533000Y270543D02*
D03*
Y263457D02*
D03*
X415000Y230543D02*
D03*
Y223457D02*
D03*
X621000Y389543D02*
D03*
Y382457D02*
D03*
X611000Y382457D02*
D03*
Y389543D02*
D03*
X457346Y298000D02*
D03*
Y305087D02*
D03*
D19*
X529941Y604500D02*
D03*
X510059D02*
D03*
X468059Y631500D02*
D03*
X487941D02*
D03*
X510059D02*
D03*
X529941D02*
D03*
X553059D02*
D03*
X572941D02*
D03*
D20*
X648365Y380260D02*
D03*
Y387740D02*
D03*
D21*
X649000Y401385D02*
D03*
Y412015D02*
D03*
D22*
X655000Y439347D02*
D03*
Y432654D02*
D03*
X485000Y237653D02*
D03*
Y244346D02*
D03*
X439000Y286347D02*
D03*
Y279654D02*
D03*
X458000Y237653D02*
D03*
Y244346D02*
D03*
X448000D02*
D03*
Y237653D02*
D03*
X525000Y270346D02*
D03*
Y263653D02*
D03*
X424000Y230346D02*
D03*
Y223654D02*
D03*
X439000Y265653D02*
D03*
Y272346D02*
D03*
X468000Y302346D02*
D03*
Y295654D02*
D03*
X525000Y297654D02*
D03*
Y304346D02*
D03*
X547000Y279654D02*
D03*
Y286347D02*
D03*
D23*
X676000Y514933D02*
D03*
Y544067D02*
D03*
D24*
X429413Y279740D02*
D03*
Y272260D02*
D03*
X418587D02*
D03*
Y276000D02*
D03*
Y279740D02*
D03*
D25*
X426346Y288000D02*
D03*
X419654D02*
D03*
X587055Y340000D02*
D03*
X593748D02*
D03*
X444654D02*
D03*
X451346D02*
D03*
X524847Y228000D02*
D03*
X518153D02*
D03*
X516653Y197000D02*
D03*
X523347D02*
D03*
X385653Y261000D02*
D03*
X392347D02*
D03*
X450654Y289724D02*
D03*
X457346D02*
D03*
X533347Y282000D02*
D03*
X526653D02*
D03*
D26*
X557685Y459500D02*
D03*
X568315D02*
D03*
X414685D02*
D03*
X425315D02*
D03*
D27*
X654500Y454976D02*
D03*
X649500D02*
D03*
X644500D02*
D03*
X654500Y477024D02*
D03*
X639500D02*
D03*
X649500D02*
D03*
X644500D02*
D03*
X639500Y454976D02*
D03*
D28*
X580400Y435274D02*
D03*
X547000Y441326D02*
D03*
X438000Y435274D02*
D03*
X404600Y441326D02*
D03*
D29*
X589200Y439800D02*
D03*
X571600D02*
D03*
X555800Y436800D02*
D03*
X538200D02*
D03*
X446800Y439800D02*
D03*
X429200D02*
D03*
X395800Y436800D02*
D03*
X413400D02*
D03*
D30*
X587800Y426000D02*
D03*
X582900D02*
D03*
X577900D02*
D03*
X573000D02*
D03*
X587800Y450600D02*
D03*
X582900D02*
D03*
X578000D02*
D03*
X572900D02*
D03*
X554500Y426000D02*
D03*
X549400D02*
D03*
X544500D02*
D03*
X539600D02*
D03*
X554400Y450600D02*
D03*
X549500D02*
D03*
X544500D02*
D03*
X539600D02*
D03*
X445400Y426000D02*
D03*
X440500D02*
D03*
X435500D02*
D03*
X430600D02*
D03*
X445400Y450600D02*
D03*
X440500D02*
D03*
X435600D02*
D03*
X430500D02*
D03*
X397200D02*
D03*
X402100D02*
D03*
X407100D02*
D03*
X412000D02*
D03*
X397200Y426000D02*
D03*
X402100D02*
D03*
X407000D02*
D03*
X412100D02*
D03*
D31*
X508024Y266890D02*
D03*
X504874D02*
D03*
X501724D02*
D03*
X498575D02*
D03*
X495425D02*
D03*
X492276D02*
D03*
X489126D02*
D03*
X485976D02*
D03*
X485976Y303110D02*
D03*
X489126D02*
D03*
X492276D02*
D03*
X495425D02*
D03*
X498575D02*
D03*
X501724D02*
D03*
X504874D02*
D03*
X508024D02*
D03*
D32*
X478890Y273976D02*
D03*
Y277126D02*
D03*
Y280276D02*
D03*
X478890Y286575D02*
D03*
X478890Y289724D02*
D03*
Y292874D02*
D03*
Y296024D02*
D03*
X515110Y296024D02*
D03*
Y292874D02*
D03*
Y289724D02*
D03*
Y283425D02*
D03*
Y280276D02*
D03*
Y277126D02*
D03*
Y273976D02*
D03*
Y286575D02*
D03*
X478890Y283425D02*
D03*
D33*
X576402Y337000D02*
D03*
Y342000D02*
D03*
Y347000D02*
D03*
Y352000D02*
D03*
Y357000D02*
D03*
Y362000D02*
D03*
Y367000D02*
D03*
X554945Y337000D02*
D03*
Y342000D02*
D03*
Y347000D02*
D03*
Y352000D02*
D03*
Y357000D02*
D03*
Y362000D02*
D03*
Y367000D02*
D03*
X434000Y337000D02*
D03*
Y342000D02*
D03*
Y347000D02*
D03*
Y352000D02*
D03*
Y357000D02*
D03*
Y362000D02*
D03*
Y367000D02*
D03*
X412543Y337000D02*
D03*
Y342000D02*
D03*
Y347000D02*
D03*
Y352000D02*
D03*
Y357000D02*
D03*
Y362000D02*
D03*
Y367000D02*
D03*
D34*
X586543Y329000D02*
D03*
X579457D02*
D03*
X451543Y330000D02*
D03*
X444457D02*
D03*
X491457Y197000D02*
D03*
X498543D02*
D03*
D35*
X559402Y393216D02*
D03*
Y382784D02*
D03*
X571402Y393216D02*
D03*
Y382784D02*
D03*
X417000D02*
D03*
Y393216D02*
D03*
X429000D02*
D03*
Y382784D02*
D03*
X517000Y186000D02*
D03*
D36*
X543921Y330000D02*
D03*
X401520D02*
D03*
D37*
X551402D02*
D03*
X409000D02*
D03*
D38*
X687299Y423000D02*
D03*
X674701D02*
D03*
X662000Y361700D02*
D03*
X649402D02*
D03*
D72*
X565500Y406500D02*
X564870Y406761D01*
X649575Y382425D02*
X651150Y380850D01*
X642000Y384270D02*
Y404500D01*
X565645Y406645D02*
X639855D01*
X642000Y404500D01*
X565500Y406500D02*
X565645Y406645D01*
X447239Y406761D02*
X564870D01*
X642000Y384270D02*
X643845Y382425D01*
X649575D01*
X651150Y380850D02*
X653819D01*
X655000Y379669D01*
X422845Y404845D02*
X423058D01*
X424974Y406761D02*
X447000D01*
X423058Y404845D02*
X424974Y406761D01*
X441244Y368299D02*
X445000D01*
X433725Y372265D02*
X437279D01*
X441244Y368299D01*
X433574Y372415D02*
X433725Y372265D01*
X565371Y333552D02*
X565522Y333703D01*
X551402Y330000D02*
X563283D01*
X565371Y332088D01*
Y333552D01*
X576275Y372858D02*
X585544D01*
X587402Y371000D01*
Y368299D02*
Y371000D01*
X576275Y372858D02*
X576402Y372731D01*
X409000Y330000D02*
X415000D01*
D73*
X385653Y261000D02*
Y268847D01*
X424000Y223654D02*
X424154Y223500D01*
X431500D01*
X478890Y283425D02*
X486425D01*
X468000Y302346D02*
X474346D01*
X450500Y289878D02*
Y296500D01*
Y289878D02*
X450654Y289724D01*
D74*
X515113Y296021D02*
X530979D01*
X458543Y273543D02*
X462126Y277126D01*
X478890D01*
X444000Y259500D02*
X446000Y261500D01*
Y265982D01*
X434500Y259500D02*
X444000D01*
X432000Y257000D02*
X434500Y259500D01*
X494000Y254500D02*
X495425Y255925D01*
X498570Y258112D02*
X498575Y258116D01*
X497958Y250500D02*
Y254011D01*
X498570Y254623D01*
Y258112D01*
X495425Y255925D02*
Y266890D01*
X501724Y247983D02*
Y266890D01*
X508024Y253976D02*
Y266890D01*
X501727Y246696D02*
X503923Y244500D01*
X508024Y253976D02*
X509000Y253000D01*
X492273Y258998D02*
Y266887D01*
X487900Y259910D02*
X489123Y261134D01*
X491638Y258362D02*
X492273Y258998D01*
X489123Y261134D02*
Y266887D01*
X480036Y230036D02*
X497958D01*
X415543Y230000D02*
X435000D01*
X529500Y252500D02*
X541500D01*
X545000Y249000D01*
Y239000D02*
Y249000D01*
X542000Y257000D02*
X544000Y255000D01*
X573000D01*
X542000Y257000D02*
Y275080D01*
X522137Y276013D02*
X541067D01*
X542000Y275080D01*
X573000Y255000D02*
X575000Y253000D01*
Y217000D02*
Y253000D01*
X565000Y217000D02*
Y251000D01*
X555000Y217000D02*
Y251000D01*
X503923Y244500D02*
X529500D01*
X501724Y247983D02*
X501727Y247981D01*
Y246696D02*
Y247981D01*
X498575Y258116D02*
Y266890D01*
X492273Y266887D02*
X492276Y266890D01*
X487900Y259900D02*
Y259910D01*
X487000Y259000D02*
X487900Y259900D01*
X509000Y197000D02*
Y212000D01*
X498543Y197000D02*
X509000D01*
X516653D01*
X480000Y230000D02*
X480036Y230036D01*
X480000Y259000D02*
X487000D01*
X485000Y244346D02*
Y249000D01*
X518227Y264773D02*
X520000Y263000D01*
X532543D01*
X492022Y280000D02*
X507000D01*
X517000Y320000D02*
X519000Y322000D01*
X564000Y314000D02*
X565000Y313000D01*
X521000Y314000D02*
X564000D01*
X519000Y322000D02*
X597000Y322000D01*
X565145Y325145D02*
X569000Y329000D01*
X511999Y321999D02*
X515145Y325145D01*
X565145D01*
X597000Y322000D02*
X621000Y346000D01*
X511999Y308737D02*
Y321999D01*
X465000Y324000D02*
X487000D01*
X621000Y346000D02*
Y382457D01*
X565000Y259000D02*
Y313000D01*
X519000Y310000D02*
X554000D01*
X555000Y309000D01*
Y259000D02*
Y309000D01*
X520000Y315000D02*
X521000Y314000D01*
X518000Y311000D02*
X519000Y310000D01*
X516000Y311000D02*
X518000D01*
X505819D02*
X507773D01*
X511999Y306999D02*
Y308737D01*
X508026Y305333D02*
X510333D01*
X511999Y306999D01*
X508024Y303110D02*
Y305331D01*
X508026Y305333D01*
X501724Y303110D02*
Y313724D01*
X503000Y315000D02*
X505000D01*
X501724Y313724D02*
X503000Y315000D01*
X504876Y303113D02*
Y310057D01*
X505819Y311000D01*
X621000Y382457D02*
X621000Y382457D01*
X611000Y382457D02*
X621000D01*
X569000Y329000D02*
X579457D01*
X484803Y244543D02*
X485000Y244346D01*
X476000Y244543D02*
X484803D01*
X437551Y255049D02*
X437778Y255276D01*
X436378Y252698D02*
X437551Y253871D01*
Y255049D01*
X431698Y252698D02*
X436378D01*
X430000Y245000D02*
Y251023D01*
X429000Y244000D02*
X430000Y245000D01*
X427000Y244000D02*
X429000D01*
X426070Y243070D02*
X427000Y244000D01*
X426000Y240000D02*
X426070Y240070D01*
Y243070D01*
X432000Y236000D02*
X433168Y237168D01*
Y248168D01*
X434553Y249553D01*
X440232D01*
X430023Y251023D02*
X431698Y252698D01*
X422000Y236000D02*
X432000D01*
X406000Y257000D02*
X432000D01*
X405000Y256000D02*
X406000Y257000D01*
X405000Y250000D02*
Y256000D01*
X440232Y249553D02*
X442679Y252000D01*
X443000D01*
X448000Y244346D02*
Y253000D01*
X485974Y266929D02*
X485976Y266927D01*
X471071Y266929D02*
X485974D01*
X485976Y266890D02*
Y266927D01*
X471976Y273976D02*
X478890D01*
X470000Y272000D02*
X471976Y273976D01*
X459500Y280276D02*
X478890D01*
X415000Y230543D02*
Y240000D01*
Y230543D02*
X415543Y230000D01*
X519514Y277124D02*
X521027D01*
X515110Y277126D02*
X515113Y277124D01*
X519514D01*
X521027Y277124D02*
X522137Y276013D01*
X519514Y277124D02*
X519514Y277124D01*
X520933Y292872D02*
X521805Y292000D01*
X541000Y281190D02*
Y291080D01*
X521805Y292000D02*
X540080D01*
X541000Y291080D01*
X515113Y292872D02*
X520933D01*
X515110Y292874D02*
X515113Y292872D01*
X541000Y281190D02*
X542191Y280000D01*
X546654D01*
X532543Y263000D02*
X533000Y263457D01*
X516000Y265000D02*
X516227Y264773D01*
X518227D01*
X547000Y267000D02*
Y279654D01*
X546654Y280000D02*
X547000Y279654D01*
X466803Y244346D02*
X467000Y244543D01*
Y251000D01*
X489123Y266887D02*
X489126Y266890D01*
X458000Y244346D02*
X466803D01*
X439000Y244543D02*
X447803D01*
X448000Y244346D01*
X439457Y222000D02*
X449000D01*
X439000Y221543D02*
X439457Y222000D01*
X439000Y221543D02*
Y237457D01*
X458457Y222000D02*
X467000D01*
X458000Y221543D02*
X458457Y222000D01*
X467000D02*
Y237457D01*
X476457Y222000D02*
X486000D01*
X476000Y221543D02*
X476457Y222000D01*
X476000Y221543D02*
Y237457D01*
X497000Y186000D02*
Y191000D01*
X498543Y192543D01*
Y197000D01*
X545000Y217000D02*
Y239000D01*
X504874Y303110D02*
X504876Y303113D01*
X494506Y320000D02*
X495425Y319080D01*
X492000Y320920D02*
Y332457D01*
X495425Y303110D02*
Y319080D01*
X492000Y320920D02*
X492920Y320000D01*
X494506D01*
X515110Y296024D02*
X515113Y296021D01*
X457346Y289724D02*
Y298000D01*
Y289724D02*
X478890D01*
X457346Y311080D02*
X458266Y312000D01*
X464080D01*
X457346Y305087D02*
Y311080D01*
X465000Y312920D02*
Y315140D01*
X464080Y312000D02*
X465000Y312920D01*
X510706Y273979D02*
X515108D01*
X508026Y275361D02*
X509408Y273979D01*
X510706D02*
X510706Y273979D01*
X507000Y280000D02*
X508026Y278974D01*
X509408Y273979D02*
X510706D01*
X515108Y273979D02*
X515110Y273976D01*
X508026Y275361D02*
Y278974D01*
X451543Y320920D02*
Y330000D01*
X485080Y320000D02*
X486000Y319080D01*
Y311000D02*
Y319080D01*
X452463Y320000D02*
X485080D01*
X451543Y320920D02*
X452463Y320000D01*
D75*
X433000Y266000D02*
X439347D01*
X547000Y286347D02*
Y291898D01*
X523347Y197000D02*
X528000D01*
X439000Y265653D02*
X439347Y266000D01*
X429457Y272303D02*
X438957D01*
X413035Y276000D02*
X418587D01*
D76*
X504874Y248500D02*
X535000D01*
X504874D02*
Y266890D01*
X535000Y239000D02*
Y248500D01*
Y217000D02*
Y239000D01*
X530000Y288000D02*
X532000D01*
X533347Y282000D02*
Y286653D01*
X532000Y288000D02*
X533347Y286653D01*
X515110Y286575D02*
X522376D01*
X523801Y288000D01*
X530000D01*
X515110Y283425D02*
X525228D01*
X526653Y282000D01*
X569400Y448000D02*
X569852Y448452D01*
Y450130D01*
X570323Y450600D01*
X572900D01*
X427922D02*
X430500D01*
X427452Y450130D02*
X427922Y450600D01*
X427000Y448000D02*
X427452Y448452D01*
Y450130D01*
D77*
X418685Y272358D02*
X422536D01*
X424000Y273822D02*
Y278178D01*
X422536Y272358D02*
X424000Y273822D01*
X418587Y272260D02*
X418685Y272358D01*
X422437Y279740D02*
X424000Y278178D01*
X418587Y279740D02*
X422437D01*
X418587D02*
Y288000D01*
Y298413D01*
X415000Y302000D02*
Y330000D01*
Y302000D02*
X418587Y298413D01*
X412100Y426000D02*
X417000D01*
X586858Y330000D02*
X587055Y330197D01*
Y340000D01*
X576402Y339500D02*
Y342000D01*
Y337000D02*
Y339500D01*
X586555D02*
X587055Y340000D01*
X576402Y339500D02*
X586555D01*
X555020Y347075D02*
X560477D01*
X562402Y349000D02*
Y374000D01*
X560477Y347075D02*
X562402Y349000D01*
X554945Y347000D02*
X555020Y347075D01*
X559402Y377000D02*
Y382784D01*
Y377000D02*
X562402Y374000D01*
X554500Y426000D02*
X559400D01*
X444457Y330000D02*
X444654Y330197D01*
Y340000D01*
X434000Y339500D02*
Y342000D01*
Y337000D02*
Y339500D01*
X444153D02*
X444654Y340000D01*
X434000Y339500D02*
X444153D01*
X401520Y352299D02*
X402000Y352780D01*
X412619Y347075D02*
X418075D01*
X420000Y349000D02*
Y374000D01*
X418075Y347075D02*
X420000Y349000D01*
X412543Y347000D02*
X412619Y347075D01*
X417000Y377000D02*
Y382784D01*
Y377000D02*
X420000Y374000D01*
D78*
X649000Y412015D02*
Y417700D01*
X550402Y378402D02*
Y397672D01*
X545000Y352299D02*
Y373000D01*
X550402Y378402D01*
X662000Y361700D02*
X667685D01*
D79*
X674701Y423000D02*
Y423410D01*
X674110Y424000D02*
X674701Y423410D01*
X559402Y393216D02*
Y397672D01*
X571402Y393216D02*
Y397672D01*
X610606Y389543D02*
X611000D01*
X610213Y389937D02*
X610606Y389543D01*
X543921Y330000D02*
Y339701D01*
X593748Y340000D02*
Y349346D01*
X451346Y340000D02*
Y349346D01*
X408000Y373000D02*
Y400000D01*
X417000Y393216D02*
Y400000D01*
X429000Y393216D02*
Y399727D01*
X402000Y367000D02*
X408000Y373000D01*
X402000Y352780D02*
Y367000D01*
X401520Y330000D02*
Y339701D01*
D80*
X602000Y652000D02*
D03*
X437500D02*
D03*
X635827Y562000D02*
D03*
Y511000D02*
D03*
X396850Y562000D02*
D03*
Y511000D02*
D03*
D81*
X479343Y573449D02*
D03*
X459657D02*
D03*
X479343Y504551D02*
D03*
X459657D02*
D03*
X439972Y573449D02*
D03*
X499028D02*
D03*
Y504551D02*
D03*
X595870Y504500D02*
D03*
Y573398D02*
D03*
X536815D02*
D03*
X556500Y504500D02*
D03*
X576185D02*
D03*
X556500Y573398D02*
D03*
X576185D02*
D03*
D82*
X439972Y504551D02*
D03*
X536815Y504500D02*
D03*
D83*
X662000Y401700D02*
D03*
Y381700D02*
D03*
Y391700D02*
D03*
D84*
X486000Y212000D02*
D03*
X467000D02*
D03*
X449000D02*
D03*
X391000Y296000D02*
D03*
Y282000D02*
D03*
X415000Y240000D02*
D03*
X405000Y250000D02*
D03*
Y240000D02*
D03*
X395000Y250000D02*
D03*
X415000D02*
D03*
X545000Y239000D02*
D03*
X535000D02*
D03*
X525000D02*
D03*
X535000Y217000D02*
D03*
X545000D02*
D03*
X555000D02*
D03*
X565000D02*
D03*
X575000D02*
D03*
X525000D02*
D03*
D85*
X449000Y222000D02*
D03*
X486000D02*
D03*
X467000D02*
D03*
X395000Y240000D02*
D03*
X515000Y239000D02*
D03*
Y217000D02*
D03*
D86*
X677000Y587500D02*
D03*
Y607500D02*
D03*
D87*
X497000Y186000D02*
D03*
D88*
X396551Y575750D02*
D03*
X443795Y604097D02*
D03*
X387102Y575750D02*
D03*
X472142Y604097D02*
D03*
X481591Y594648D02*
D03*
X387102Y604097D02*
D03*
X443795Y594648D02*
D03*
X500488Y622994D02*
D03*
X410500Y518250D02*
D03*
X453244Y594648D02*
D03*
X387102D02*
D03*
X410500Y503750D02*
D03*
X406000Y594648D02*
D03*
X491039D02*
D03*
X396551D02*
D03*
X500488D02*
D03*
Y632443D02*
D03*
X415449Y594648D02*
D03*
X462693Y604097D02*
D03*
Y594648D02*
D03*
X472142D02*
D03*
X434346D02*
D03*
X424898D02*
D03*
X500488Y604097D02*
D03*
X623500Y511000D02*
D03*
X406000Y575750D02*
D03*
Y604097D02*
D03*
X623500Y518250D02*
D03*
X406000Y585199D02*
D03*
X500488Y613545D02*
D03*
X396551Y604097D02*
D03*
X387102Y585199D02*
D03*
X491039Y604097D02*
D03*
X424898D02*
D03*
X481591D02*
D03*
X415449D02*
D03*
X396551Y585199D02*
D03*
X410500Y511000D02*
D03*
X453244Y604097D02*
D03*
X491039Y613545D02*
D03*
X623500Y503750D02*
D03*
X434346Y604097D02*
D03*
X554331Y597638D02*
D03*
X640945Y580315D02*
D03*
X632284D02*
D03*
X545670Y597638D02*
D03*
Y614961D02*
D03*
X537008Y623622D02*
D03*
Y606299D02*
D03*
X545670Y632284D02*
D03*
Y606299D02*
D03*
Y623622D02*
D03*
X554331Y614961D02*
D03*
X537008Y597638D02*
D03*
Y614961D02*
D03*
Y632284D02*
D03*
X554331Y606299D02*
D03*
X614961Y666929D02*
D03*
Y658268D02*
D03*
Y649607D02*
D03*
Y640945D02*
D03*
Y632284D02*
D03*
X606299Y666929D02*
D03*
Y632284D02*
D03*
X597638Y666929D02*
D03*
Y632284D02*
D03*
X588977Y666929D02*
D03*
Y658268D02*
D03*
Y649607D02*
D03*
Y640945D02*
D03*
Y632284D02*
D03*
Y623622D02*
D03*
X580315Y640945D02*
D03*
Y632284D02*
D03*
Y623622D02*
D03*
X459055Y640945D02*
D03*
Y632284D02*
D03*
Y623622D02*
D03*
X450394Y666929D02*
D03*
Y658268D02*
D03*
Y649607D02*
D03*
Y640945D02*
D03*
Y632284D02*
D03*
X441732Y666929D02*
D03*
Y632284D02*
D03*
X433071Y666929D02*
D03*
Y632284D02*
D03*
X424410Y666929D02*
D03*
Y658268D02*
D03*
Y649607D02*
D03*
Y640945D02*
D03*
Y632284D02*
D03*
X640945Y597638D02*
D03*
Y588977D02*
D03*
X632284Y597638D02*
D03*
Y588977D02*
D03*
X623622Y597638D02*
D03*
X614961D02*
D03*
X606299D02*
D03*
X597638D02*
D03*
X588977D02*
D03*
X580315D02*
D03*
X571654D02*
D03*
X562992D02*
D03*
D89*
X565500Y406500D02*
D03*
X619000Y401000D02*
D03*
X654000Y392000D02*
D03*
X649000Y417700D02*
D03*
X687000Y432000D02*
D03*
X627000Y430000D02*
D03*
Y401000D02*
D03*
X550402Y397672D02*
D03*
X559402D02*
D03*
X571402D02*
D03*
X417000Y426000D02*
D03*
X433574Y372415D02*
D03*
X565522Y333703D02*
D03*
X569400Y448000D02*
D03*
X667685Y361700D02*
D03*
X619000Y414000D02*
D03*
X580402Y456000D02*
D03*
X452801Y354050D02*
D03*
X559400Y426000D02*
D03*
X576275Y372858D02*
D03*
X585402Y350000D02*
D03*
X591402D02*
D03*
X595402Y354000D02*
D03*
X550402Y419000D02*
D03*
X449000Y350000D02*
D03*
X443000D02*
D03*
X408000Y400000D02*
D03*
X417000D02*
D03*
X429000Y399727D02*
D03*
X422845Y404845D02*
D03*
X408000Y419000D02*
D03*
X427000Y448000D02*
D03*
X438000Y456000D02*
D03*
X415000Y330000D02*
D03*
D90*
X573000Y457500D02*
D03*
X385653Y268847D02*
D03*
X431500Y223500D02*
D03*
X486425Y283425D02*
D03*
X458543Y273543D02*
D03*
X459500Y280276D02*
D03*
X446000Y265982D02*
D03*
X433000Y266000D02*
D03*
X437778Y255276D02*
D03*
X474346Y302346D02*
D03*
X450500Y296500D02*
D03*
X494000Y254500D02*
D03*
X509000Y253000D02*
D03*
X491638Y258362D02*
D03*
X497958Y230000D02*
D03*
Y250500D02*
D03*
X529500Y252500D02*
D03*
X547000Y267000D02*
D03*
X565000Y251000D02*
D03*
X555000D02*
D03*
X529500Y244500D02*
D03*
X509000Y212000D02*
D03*
X485000Y249000D02*
D03*
X487000Y324000D02*
D03*
X492022Y280000D02*
D03*
X517000Y320000D02*
D03*
X533000Y318000D02*
D03*
X465000Y324000D02*
D03*
X520000Y315000D02*
D03*
X507773Y311000D02*
D03*
X516000D02*
D03*
X518000Y304000D02*
D03*
X505000Y315000D02*
D03*
X567000Y467000D02*
D03*
X643000Y431969D02*
D03*
X646000Y442000D02*
D03*
X637472Y401000D02*
D03*
X660000Y433000D02*
D03*
X633000Y401000D02*
D03*
X453000Y234000D02*
D03*
X491000Y237000D02*
D03*
X547000Y291898D02*
D03*
X528000Y197000D02*
D03*
X426000Y240000D02*
D03*
X422000Y236000D02*
D03*
X448000Y253000D02*
D03*
X471071Y266929D02*
D03*
X443000Y252000D02*
D03*
X470000Y272000D02*
D03*
X480000Y230000D02*
D03*
X435000D02*
D03*
X433000Y288000D02*
D03*
X413035Y276000D02*
D03*
X538000Y272262D02*
D03*
X530000Y288000D02*
D03*
X530979Y296021D02*
D03*
X517000Y270000D02*
D03*
X568962Y276962D02*
D03*
X516000Y265000D02*
D03*
X467000Y251000D02*
D03*
X480000Y259000D02*
D03*
X565000D02*
D03*
X555000D02*
D03*
X465000Y315140D02*
D03*
X486000Y311000D02*
D03*
X585500Y457500D02*
D03*
X591500Y451000D02*
D03*
Y457500D02*
D03*
X507000Y332000D02*
D03*
X598000Y432411D02*
D03*
Y423706D02*
D03*
Y415000D02*
D03*
X611000Y432411D02*
D03*
Y423706D02*
D03*
Y415000D02*
D03*
X604500Y428059D02*
D03*
Y419353D02*
D03*
X624353Y457500D02*
D03*
X628706Y464000D02*
D03*
X620000D02*
D03*
X628706Y451000D02*
D03*
X620000D02*
D03*
X476294Y457000D02*
D03*
X485000D02*
D03*
X480647Y450500D02*
D03*
X471941D02*
D03*
X489353D02*
D03*
X480647Y463500D02*
D03*
X471941D02*
D03*
X489353D02*
D03*
X462000Y422000D02*
D03*
X468500Y426353D02*
D03*
Y435059D02*
D03*
X462000Y430706D02*
D03*
X468500Y417647D02*
D03*
X455500Y426353D02*
D03*
Y435059D02*
D03*
Y417647D02*
D03*
M02*
