G04*
G04 #@! TF.GenerationSoftware,Altium Limited,Altium Designer,21.0.9 (235)*
G04*
G04 Layer_Color=65535*
%FSLAX25Y25*%
%MOIN*%
G70*
G04*
G04 #@! TF.SameCoordinates,E5C10B9F-721F-4CD3-8270-1C0E1EB20485*
G04*
G04*
G04 #@! TF.FilePolarity,Positive*
G04*
G01*
G75*
%ADD10C,0.00984*%
%ADD11C,0.00787*%
%ADD12C,0.01181*%
%ADD13C,0.02362*%
%ADD14C,0.01000*%
%ADD15C,0.01200*%
%ADD16C,0.00800*%
G36*
X687500Y286004D02*
Y285809D01*
Y285613D01*
Y285418D01*
Y285223D01*
Y285028D01*
Y284833D01*
Y284637D01*
Y284442D01*
Y284247D01*
Y284052D01*
Y283857D01*
Y283661D01*
Y283466D01*
Y283271D01*
Y283076D01*
Y282880D01*
Y282685D01*
Y282490D01*
Y282295D01*
Y282100D01*
Y281905D01*
Y281709D01*
Y281514D01*
Y281319D01*
Y281124D01*
Y280928D01*
Y280733D01*
Y280538D01*
Y280343D01*
Y280148D01*
Y279952D01*
Y279757D01*
Y279562D01*
Y279367D01*
Y279172D01*
Y278976D01*
Y278781D01*
Y278586D01*
Y278391D01*
Y278196D01*
Y278000D01*
Y277805D01*
Y277610D01*
Y277415D01*
Y277220D01*
Y277024D01*
Y276829D01*
Y276634D01*
Y276439D01*
Y276243D01*
Y276048D01*
Y275853D01*
Y275658D01*
Y275463D01*
Y275267D01*
Y275072D01*
Y274877D01*
Y274682D01*
Y274487D01*
Y274291D01*
Y274096D01*
Y273901D01*
Y273706D01*
Y273511D01*
Y273315D01*
Y273120D01*
Y272925D01*
Y272730D01*
Y272534D01*
Y272339D01*
Y272144D01*
Y271949D01*
Y271754D01*
Y271558D01*
Y271363D01*
Y271168D01*
Y270973D01*
Y270778D01*
Y270582D01*
Y270387D01*
Y270192D01*
Y269997D01*
Y269802D01*
Y269606D01*
Y269411D01*
Y269216D01*
Y269021D01*
Y268826D01*
Y268630D01*
Y268435D01*
Y268240D01*
Y268045D01*
Y267849D01*
Y267654D01*
Y267459D01*
Y267264D01*
Y267069D01*
Y266874D01*
Y266678D01*
Y266483D01*
Y266288D01*
Y266093D01*
Y265897D01*
Y265702D01*
Y265507D01*
Y265312D01*
Y265117D01*
Y264921D01*
Y264726D01*
Y264531D01*
Y264336D01*
Y264141D01*
Y263945D01*
Y263750D01*
Y263555D01*
Y263360D01*
Y263164D01*
Y262969D01*
Y262774D01*
Y262579D01*
Y262384D01*
Y262189D01*
Y261993D01*
Y261798D01*
Y261603D01*
Y261408D01*
Y261212D01*
Y261017D01*
Y260822D01*
Y260627D01*
Y260432D01*
Y260236D01*
Y260041D01*
Y259846D01*
Y259651D01*
Y259456D01*
Y259260D01*
Y259065D01*
Y258870D01*
Y258675D01*
Y258480D01*
Y258284D01*
Y258089D01*
Y257894D01*
Y257699D01*
Y257504D01*
Y257308D01*
Y257113D01*
Y256918D01*
Y256723D01*
Y256527D01*
Y256332D01*
Y256137D01*
Y255942D01*
Y255747D01*
Y255551D01*
Y255356D01*
Y255161D01*
Y254966D01*
Y254771D01*
Y254575D01*
Y254380D01*
Y254185D01*
Y253990D01*
Y253795D01*
Y253599D01*
Y253404D01*
Y253209D01*
Y253014D01*
Y252818D01*
Y252623D01*
Y252428D01*
Y252233D01*
Y252038D01*
Y251842D01*
Y251647D01*
Y251452D01*
Y251257D01*
Y251062D01*
Y250867D01*
Y250671D01*
Y250476D01*
Y250281D01*
Y250086D01*
Y249890D01*
Y249695D01*
Y249500D01*
Y249305D01*
Y249110D01*
Y248914D01*
Y248719D01*
Y248524D01*
Y248329D01*
Y248133D01*
Y247938D01*
Y247743D01*
Y247548D01*
Y247353D01*
Y247158D01*
Y246962D01*
Y246767D01*
Y246572D01*
Y246377D01*
Y246182D01*
Y245986D01*
Y245791D01*
Y245596D01*
Y245401D01*
Y245205D01*
Y245010D01*
Y244815D01*
Y244620D01*
Y244425D01*
Y244229D01*
Y244034D01*
Y243839D01*
Y243644D01*
Y243448D01*
Y243253D01*
Y243058D01*
Y242863D01*
Y242668D01*
Y242473D01*
Y242277D01*
Y242082D01*
Y241887D01*
Y241692D01*
Y241496D01*
Y241301D01*
Y241106D01*
Y240911D01*
Y240716D01*
Y240520D01*
Y240325D01*
Y240130D01*
Y239935D01*
Y239740D01*
Y239544D01*
Y239349D01*
Y239154D01*
Y238959D01*
Y238763D01*
Y238568D01*
Y238373D01*
Y238178D01*
Y237983D01*
Y237788D01*
Y237592D01*
Y237397D01*
Y237202D01*
Y237007D01*
Y236811D01*
Y236616D01*
Y236421D01*
Y236226D01*
Y236031D01*
Y235835D01*
Y235640D01*
Y235445D01*
Y235250D01*
Y235055D01*
Y234859D01*
Y234664D01*
Y234469D01*
Y234274D01*
Y234079D01*
Y233883D01*
Y233688D01*
Y233493D01*
Y233298D01*
Y233102D01*
Y232907D01*
Y232712D01*
Y232517D01*
Y232322D01*
X687305D01*
Y232126D01*
X687110D01*
Y231931D01*
X686914D01*
Y231736D01*
X686719D01*
Y231541D01*
X686524D01*
Y231346D01*
X686329D01*
Y231151D01*
X686133D01*
Y230955D01*
X685938D01*
Y230760D01*
X685743D01*
Y230565D01*
X685548D01*
Y230370D01*
X685353D01*
Y230174D01*
X685157D01*
Y229979D01*
X684962D01*
Y229784D01*
X684767D01*
Y229589D01*
X684572D01*
Y229394D01*
X684377D01*
Y229198D01*
X684181D01*
Y229003D01*
X683986D01*
Y228808D01*
X683791D01*
Y228613D01*
X683596D01*
Y228417D01*
X683401D01*
Y228222D01*
X683205D01*
Y228027D01*
X683010D01*
Y227832D01*
X682815D01*
Y227637D01*
X682620D01*
Y227442D01*
X682425D01*
Y227246D01*
X682229D01*
Y227051D01*
X682034D01*
Y226856D01*
X681839D01*
Y226661D01*
X681644D01*
Y226466D01*
X681449D01*
Y226270D01*
X681253D01*
Y226075D01*
X681058D01*
Y225880D01*
X680863D01*
Y225685D01*
X680668D01*
Y225489D01*
X680473D01*
Y225294D01*
X680277D01*
Y225099D01*
X680082D01*
Y224904D01*
X679887D01*
Y224709D01*
X679692D01*
Y224513D01*
X679496D01*
Y224318D01*
X679301D01*
Y224123D01*
X679106D01*
Y223928D01*
X678911D01*
Y223732D01*
X678716D01*
Y223537D01*
X678520D01*
Y223342D01*
X678325D01*
Y223147D01*
X678130D01*
Y222952D01*
X621715D01*
Y223147D01*
Y223342D01*
Y223537D01*
Y223732D01*
Y223928D01*
Y224123D01*
Y224318D01*
Y224513D01*
Y224709D01*
Y224904D01*
Y225099D01*
Y225294D01*
Y225489D01*
Y225685D01*
Y225880D01*
Y226075D01*
Y226270D01*
Y226466D01*
Y226661D01*
Y226856D01*
Y227051D01*
Y227246D01*
Y227442D01*
Y227637D01*
Y227832D01*
Y228027D01*
Y228222D01*
Y228417D01*
Y228613D01*
Y228808D01*
Y229003D01*
Y229198D01*
Y229394D01*
Y229589D01*
Y229784D01*
Y229979D01*
Y230174D01*
Y230370D01*
Y230565D01*
Y230760D01*
Y230955D01*
Y231151D01*
Y231346D01*
Y231541D01*
Y231736D01*
Y231931D01*
Y232126D01*
Y232322D01*
Y232517D01*
Y232712D01*
Y232907D01*
Y233102D01*
Y233298D01*
Y233493D01*
Y233688D01*
Y233883D01*
Y234079D01*
Y234274D01*
Y234469D01*
Y234664D01*
Y234859D01*
Y235055D01*
Y235250D01*
Y235445D01*
Y235640D01*
Y235835D01*
Y236031D01*
Y236226D01*
Y236421D01*
Y236616D01*
Y236811D01*
Y237007D01*
Y237202D01*
Y237397D01*
Y237592D01*
Y237788D01*
Y237983D01*
Y238178D01*
Y238373D01*
Y238568D01*
Y238763D01*
Y238959D01*
Y239154D01*
Y239349D01*
Y239544D01*
Y239740D01*
Y239935D01*
Y240130D01*
Y240325D01*
Y240520D01*
Y240716D01*
Y240911D01*
Y241106D01*
Y241301D01*
Y241496D01*
Y241692D01*
Y241887D01*
Y242082D01*
Y242277D01*
Y242473D01*
Y242668D01*
Y242863D01*
Y243058D01*
Y243253D01*
Y243448D01*
Y243644D01*
Y243839D01*
Y244034D01*
Y244229D01*
Y244425D01*
Y244620D01*
Y244815D01*
Y245010D01*
Y245205D01*
Y245401D01*
Y245596D01*
Y245791D01*
Y245986D01*
Y246182D01*
Y246377D01*
Y246572D01*
Y246767D01*
Y246962D01*
Y247158D01*
Y247353D01*
Y247548D01*
Y247743D01*
Y247938D01*
Y248133D01*
Y248329D01*
Y248524D01*
Y248719D01*
Y248914D01*
Y249110D01*
Y249305D01*
Y249500D01*
Y249695D01*
Y249890D01*
Y250086D01*
Y250281D01*
Y250476D01*
Y250671D01*
Y250867D01*
Y251062D01*
Y251257D01*
Y251452D01*
Y251647D01*
Y251842D01*
Y252038D01*
Y252233D01*
Y252428D01*
Y252623D01*
Y252818D01*
Y253014D01*
Y253209D01*
Y253404D01*
Y253599D01*
Y253795D01*
Y253990D01*
Y254185D01*
Y254380D01*
Y254575D01*
Y254771D01*
Y254966D01*
Y255161D01*
Y255356D01*
Y255551D01*
Y255747D01*
Y255942D01*
Y256137D01*
Y256332D01*
Y256527D01*
Y256723D01*
Y256918D01*
Y257113D01*
Y257308D01*
Y257504D01*
Y257699D01*
Y257894D01*
Y258089D01*
Y258284D01*
Y258480D01*
Y258675D01*
Y258870D01*
Y259065D01*
Y259260D01*
Y259456D01*
Y259651D01*
Y259846D01*
Y260041D01*
Y260236D01*
Y260432D01*
Y260627D01*
Y260822D01*
Y261017D01*
Y261212D01*
Y261408D01*
Y261603D01*
Y261798D01*
Y261993D01*
Y262189D01*
Y262384D01*
Y262579D01*
Y262774D01*
Y262969D01*
Y263164D01*
Y263360D01*
Y263555D01*
Y263750D01*
Y263945D01*
Y264141D01*
Y264336D01*
Y264531D01*
Y264726D01*
Y264921D01*
Y265117D01*
Y265312D01*
Y265507D01*
Y265702D01*
Y265897D01*
Y266093D01*
Y266288D01*
Y266483D01*
Y266678D01*
Y266874D01*
Y267069D01*
Y267264D01*
Y267459D01*
Y267654D01*
Y267849D01*
Y268045D01*
Y268240D01*
Y268435D01*
Y268630D01*
Y268826D01*
Y269021D01*
Y269216D01*
Y269411D01*
Y269606D01*
Y269802D01*
Y269997D01*
Y270192D01*
Y270387D01*
Y270582D01*
Y270778D01*
Y270973D01*
Y271168D01*
Y271363D01*
Y271558D01*
Y271754D01*
X621520D01*
Y271949D01*
Y272144D01*
Y272339D01*
Y272534D01*
Y272730D01*
Y272925D01*
Y273120D01*
Y273315D01*
Y273511D01*
Y273706D01*
Y273901D01*
Y274096D01*
Y274291D01*
Y274487D01*
Y274682D01*
Y274877D01*
Y275072D01*
Y275267D01*
Y275463D01*
Y275658D01*
Y275853D01*
Y276048D01*
Y276243D01*
Y276439D01*
Y276634D01*
Y276829D01*
X621715D01*
Y277024D01*
X621910D01*
Y277220D01*
X622105D01*
Y277415D01*
X622301D01*
Y277610D01*
X622496D01*
Y277805D01*
X622691D01*
Y278000D01*
X622886D01*
Y278196D01*
X623081D01*
Y278391D01*
X623277D01*
Y278586D01*
X623472D01*
Y278781D01*
X623667D01*
Y278976D01*
X623862D01*
Y279172D01*
X624057D01*
Y279367D01*
X624253D01*
Y279562D01*
X624448D01*
Y279757D01*
X624643D01*
Y279952D01*
X624838D01*
Y280148D01*
X625034D01*
Y280343D01*
X625229D01*
Y280538D01*
X625424D01*
Y280733D01*
X625619D01*
Y280928D01*
X625814D01*
Y281124D01*
X626010D01*
Y281319D01*
X626205D01*
Y281514D01*
X626400D01*
Y281709D01*
X626595D01*
Y281905D01*
X626790D01*
Y282100D01*
X626986D01*
Y282295D01*
X627181D01*
Y282490D01*
X627376D01*
Y282685D01*
X627571D01*
Y282880D01*
X627766D01*
Y283076D01*
X627962D01*
Y283271D01*
X628157D01*
Y283466D01*
X628352D01*
Y283661D01*
X628547D01*
Y283857D01*
X628742D01*
Y284052D01*
X628938D01*
Y284247D01*
X629133D01*
Y284442D01*
X629328D01*
Y284637D01*
X629523D01*
Y284833D01*
X629718D01*
Y285028D01*
X629914D01*
Y285223D01*
X630109D01*
Y285418D01*
X630304D01*
Y285613D01*
X630499D01*
Y285809D01*
X630694D01*
Y286004D01*
X630890D01*
Y286199D01*
X687500D01*
Y286004D01*
D02*
G37*
%LPC*%
G36*
X664270Y277024D02*
X644945D01*
Y276829D01*
Y276634D01*
Y276439D01*
Y276243D01*
Y276048D01*
Y275853D01*
Y275658D01*
Y275463D01*
Y275267D01*
Y275072D01*
Y274877D01*
Y274682D01*
Y274487D01*
Y274291D01*
Y274096D01*
Y273901D01*
Y273706D01*
Y273511D01*
Y273315D01*
Y273120D01*
Y272925D01*
Y272730D01*
Y272534D01*
Y272339D01*
Y272144D01*
Y271949D01*
Y271754D01*
Y271558D01*
Y271363D01*
Y271168D01*
Y270973D01*
Y270778D01*
Y270582D01*
Y270387D01*
Y270192D01*
Y269997D01*
Y269802D01*
Y269606D01*
Y269411D01*
Y269216D01*
Y269021D01*
Y268826D01*
Y268630D01*
Y268435D01*
Y268240D01*
Y268045D01*
Y267849D01*
Y267654D01*
Y267459D01*
Y267264D01*
Y267069D01*
Y266874D01*
Y266678D01*
X645140D01*
Y266483D01*
Y266288D01*
Y266093D01*
Y265897D01*
Y265702D01*
Y265507D01*
X645335D01*
Y265312D01*
Y265117D01*
Y264921D01*
Y264726D01*
X645530D01*
Y264531D01*
Y264336D01*
Y264141D01*
X645725D01*
Y263945D01*
Y263750D01*
Y263555D01*
X645921D01*
Y263360D01*
Y263164D01*
X646116D01*
Y262969D01*
Y262774D01*
Y262579D01*
X646311D01*
Y262384D01*
Y262189D01*
X646506D01*
Y261993D01*
X646701D01*
Y261798D01*
Y261603D01*
X646897D01*
Y261408D01*
Y261212D01*
X647092D01*
Y261017D01*
X647287D01*
Y260822D01*
Y260627D01*
X647482D01*
Y260432D01*
X647678D01*
Y260236D01*
Y260041D01*
X647873D01*
Y259846D01*
X648068D01*
Y259651D01*
X648263D01*
Y259456D01*
X648458D01*
Y259260D01*
X648654D01*
Y259065D01*
X648849D01*
Y258870D01*
X649044D01*
Y258675D01*
X649239D01*
Y258480D01*
X649435D01*
Y258284D01*
X649630D01*
Y258089D01*
X649825D01*
Y257894D01*
X650020D01*
Y257699D01*
X650215D01*
Y257504D01*
X650411D01*
Y257308D01*
X650801D01*
Y257113D01*
X650996D01*
Y256918D01*
X651386D01*
Y256723D01*
X651582D01*
Y256527D01*
X651972D01*
Y256332D01*
X652167D01*
Y256137D01*
X652558D01*
Y255942D01*
X652948D01*
Y255747D01*
X653339D01*
Y255551D01*
X653729D01*
Y255356D01*
X654119D01*
Y255161D01*
X655095D01*
Y255356D01*
X655486D01*
Y255551D01*
X655876D01*
Y255747D01*
X656267D01*
Y255942D01*
X656657D01*
Y256137D01*
X657048D01*
Y256332D01*
X657243D01*
Y256527D01*
X657633D01*
Y256723D01*
X658024D01*
Y256918D01*
X658219D01*
Y257113D01*
X658414D01*
Y257308D01*
X658804D01*
Y257504D01*
X659000D01*
Y257699D01*
X659195D01*
Y257894D01*
X659390D01*
Y258089D01*
X659585D01*
Y258284D01*
X659781D01*
Y258480D01*
X660171D01*
Y258675D01*
X660366D01*
Y258870D01*
Y259065D01*
X660561D01*
Y259260D01*
X660756D01*
Y259456D01*
X660952D01*
Y259651D01*
X661147D01*
Y259846D01*
X661342D01*
Y260041D01*
X661537D01*
Y260236D01*
Y260432D01*
X661733D01*
Y260627D01*
X661928D01*
Y260822D01*
Y261017D01*
X662123D01*
Y261212D01*
X662318D01*
Y261408D01*
Y261603D01*
X662513D01*
Y261798D01*
X662709D01*
Y261993D01*
Y262189D01*
X662904D01*
Y262384D01*
Y262579D01*
X663099D01*
Y262774D01*
Y262969D01*
Y263164D01*
X663294D01*
Y263360D01*
Y263555D01*
X663489D01*
Y263750D01*
Y263945D01*
Y264141D01*
X663685D01*
Y264336D01*
Y264531D01*
Y264726D01*
X663880D01*
Y264921D01*
Y265117D01*
Y265312D01*
Y265507D01*
X664075D01*
Y265702D01*
Y265897D01*
Y266093D01*
Y266288D01*
Y266483D01*
Y266678D01*
X664270D01*
Y266874D01*
Y267069D01*
Y267264D01*
Y267459D01*
Y267654D01*
Y267849D01*
Y268045D01*
Y268240D01*
Y268435D01*
Y268630D01*
Y268826D01*
Y269021D01*
Y269216D01*
Y269411D01*
Y269606D01*
Y269802D01*
Y269997D01*
Y270192D01*
Y270387D01*
Y270582D01*
Y270778D01*
Y270973D01*
Y271168D01*
Y271363D01*
Y271558D01*
Y271754D01*
Y271949D01*
Y272144D01*
Y272339D01*
Y272534D01*
Y272730D01*
Y272925D01*
Y273120D01*
Y273315D01*
Y273511D01*
Y273706D01*
Y273901D01*
Y274096D01*
Y274291D01*
Y274487D01*
Y274682D01*
Y274877D01*
Y275072D01*
Y275267D01*
Y275463D01*
Y275658D01*
Y275853D01*
Y276048D01*
Y276243D01*
Y276439D01*
Y276634D01*
Y276829D01*
Y277024D01*
D02*
G37*
G36*
X670907Y252233D02*
X669931D01*
Y252038D01*
X669736D01*
Y251842D01*
X669541D01*
Y251647D01*
X669346D01*
Y251452D01*
Y251257D01*
X669150D01*
Y251452D01*
Y251647D01*
X668955D01*
Y251842D01*
X668760D01*
Y252038D01*
Y252233D01*
X664661D01*
Y252038D01*
Y251842D01*
Y251647D01*
Y251452D01*
X665832D01*
Y251257D01*
Y251062D01*
Y250867D01*
Y250671D01*
Y250476D01*
Y250281D01*
Y250086D01*
Y249890D01*
Y249695D01*
Y249500D01*
Y249305D01*
Y249110D01*
Y248914D01*
Y248719D01*
Y248524D01*
X666613D01*
Y248719D01*
Y248914D01*
Y249110D01*
Y249305D01*
Y249500D01*
Y249695D01*
Y249890D01*
Y250086D01*
Y250281D01*
Y250476D01*
Y250671D01*
Y250867D01*
Y251062D01*
Y251257D01*
Y251452D01*
X667589D01*
Y251647D01*
Y251842D01*
Y252038D01*
X667784D01*
Y251842D01*
X667979D01*
Y251647D01*
Y251452D01*
X668174D01*
Y251257D01*
X668370D01*
Y251062D01*
X668565D01*
Y250867D01*
Y250671D01*
X668760D01*
Y250476D01*
X668955D01*
Y250281D01*
Y250086D01*
Y249890D01*
Y249695D01*
Y249500D01*
Y249305D01*
Y249110D01*
Y248914D01*
Y248719D01*
Y248524D01*
X669736D01*
Y248719D01*
Y248914D01*
Y249110D01*
Y249305D01*
Y249500D01*
Y249695D01*
Y249890D01*
Y250086D01*
Y250281D01*
Y250476D01*
Y250671D01*
X669931D01*
Y250867D01*
X670126D01*
Y251062D01*
Y251257D01*
X670322D01*
Y251452D01*
X670517D01*
Y251647D01*
Y251842D01*
X670712D01*
Y252038D01*
X670907D01*
Y252233D01*
D02*
G37*
G36*
X662318D02*
X660952D01*
Y252038D01*
X660756D01*
Y251842D01*
X660561D01*
Y251647D01*
Y251452D01*
Y251257D01*
Y251062D01*
Y250867D01*
Y250671D01*
X660756D01*
Y250476D01*
X660952D01*
Y250281D01*
X661147D01*
Y250086D01*
X661342D01*
Y249890D01*
X661733D01*
Y249695D01*
X661928D01*
Y249500D01*
Y249305D01*
X661147D01*
Y249500D01*
X660952D01*
Y249695D01*
X660756D01*
Y249890D01*
X660561D01*
Y249695D01*
Y249500D01*
Y249305D01*
Y249110D01*
Y248914D01*
Y248719D01*
X660756D01*
Y248524D01*
X662318D01*
Y248719D01*
X662513D01*
Y248914D01*
Y249110D01*
Y249305D01*
X662709D01*
Y249500D01*
Y249695D01*
Y249890D01*
X662513D01*
Y250086D01*
Y250281D01*
X662318D01*
Y250476D01*
X662123D01*
Y250671D01*
X661928D01*
Y250867D01*
X661537D01*
Y251062D01*
X661342D01*
Y251257D01*
Y251452D01*
X662123D01*
Y251257D01*
X662318D01*
Y251062D01*
X662513D01*
Y251257D01*
Y251452D01*
Y251647D01*
Y251842D01*
Y252038D01*
X662318D01*
Y252233D01*
D02*
G37*
G36*
X637136D02*
X636355D01*
Y252038D01*
Y251842D01*
Y251647D01*
Y251452D01*
Y251257D01*
Y251062D01*
Y250867D01*
X634989D01*
Y251062D01*
Y251257D01*
Y251452D01*
Y251647D01*
Y251842D01*
Y252038D01*
Y252233D01*
X634208D01*
Y252038D01*
Y251842D01*
Y251647D01*
Y251452D01*
Y251257D01*
Y251062D01*
Y250867D01*
Y250671D01*
Y250476D01*
Y250281D01*
Y250086D01*
Y249890D01*
Y249695D01*
Y249500D01*
Y249305D01*
Y249110D01*
Y248914D01*
Y248719D01*
Y248524D01*
X634989D01*
Y248719D01*
Y248914D01*
Y249110D01*
Y249305D01*
Y249500D01*
Y249695D01*
Y249890D01*
Y250086D01*
X636355D01*
Y249890D01*
Y249695D01*
Y249500D01*
Y249305D01*
Y249110D01*
Y248914D01*
Y248719D01*
Y248524D01*
X637136D01*
Y248719D01*
Y248914D01*
Y249110D01*
Y249305D01*
Y249500D01*
Y249695D01*
Y249890D01*
Y250086D01*
Y250281D01*
Y250476D01*
Y250671D01*
Y250867D01*
Y251062D01*
Y251257D01*
Y251452D01*
Y251647D01*
Y251842D01*
Y252038D01*
Y252233D01*
D02*
G37*
G36*
X653924D02*
X653143D01*
Y252038D01*
Y251842D01*
X652948D01*
Y251647D01*
Y251452D01*
Y251257D01*
X652753D01*
Y251062D01*
Y250867D01*
X652558D01*
Y250671D01*
Y250476D01*
Y250281D01*
X652363D01*
Y250476D01*
Y250671D01*
X652167D01*
Y250867D01*
Y251062D01*
Y251257D01*
X651972D01*
Y251452D01*
Y251647D01*
X651777D01*
Y251842D01*
Y252038D01*
Y252233D01*
X650801D01*
Y252038D01*
X650996D01*
Y251842D01*
Y251647D01*
Y251452D01*
X651191D01*
Y251257D01*
Y251062D01*
X651386D01*
Y250867D01*
Y250671D01*
Y250476D01*
X651582D01*
Y250281D01*
Y250086D01*
X651777D01*
Y249890D01*
Y249695D01*
Y249500D01*
X651972D01*
Y249305D01*
Y249110D01*
Y248914D01*
X652167D01*
Y248719D01*
Y248524D01*
X652753D01*
Y248719D01*
Y248914D01*
Y249110D01*
X652948D01*
Y249305D01*
Y249500D01*
X653143D01*
Y249695D01*
Y249890D01*
Y250086D01*
X653339D01*
Y250281D01*
Y250476D01*
Y250671D01*
X653534D01*
Y250867D01*
Y251062D01*
X653729D01*
Y251257D01*
Y251452D01*
Y251647D01*
X653924D01*
Y251842D01*
Y252038D01*
Y252233D01*
D02*
G37*
G36*
X648849D02*
X648068D01*
Y252038D01*
Y251842D01*
Y251647D01*
Y251452D01*
Y251257D01*
Y251062D01*
Y250867D01*
Y250671D01*
Y250476D01*
Y250281D01*
Y250086D01*
X647873D01*
Y250281D01*
Y250476D01*
X647678D01*
Y250671D01*
X647482D01*
Y250867D01*
X647287D01*
Y251062D01*
X647092D01*
Y251257D01*
Y251452D01*
X646897D01*
Y251647D01*
X646701D01*
Y251842D01*
X646506D01*
Y252038D01*
X646311D01*
Y252233D01*
X645530D01*
Y252038D01*
Y251842D01*
Y251647D01*
Y251452D01*
Y251257D01*
Y251062D01*
Y250867D01*
Y250671D01*
Y250476D01*
Y250281D01*
Y250086D01*
Y249890D01*
Y249695D01*
Y249500D01*
Y249305D01*
Y249110D01*
Y248914D01*
Y248719D01*
Y248524D01*
X646311D01*
Y248719D01*
Y248914D01*
Y249110D01*
Y249305D01*
Y249500D01*
Y249695D01*
Y249890D01*
Y250086D01*
Y250281D01*
Y250476D01*
Y250671D01*
Y250867D01*
X646506D01*
Y250671D01*
Y250476D01*
X646701D01*
Y250281D01*
X646897D01*
Y250086D01*
X647092D01*
Y249890D01*
Y249695D01*
X647287D01*
Y249500D01*
X647482D01*
Y249305D01*
X647678D01*
Y249110D01*
X647873D01*
Y248914D01*
Y248719D01*
X648068D01*
Y248524D01*
X648849D01*
Y248719D01*
Y248914D01*
Y249110D01*
Y249305D01*
Y249500D01*
Y249695D01*
Y249890D01*
Y250086D01*
Y250281D01*
Y250476D01*
Y250671D01*
Y250867D01*
Y251062D01*
Y251257D01*
Y251452D01*
Y251647D01*
Y251842D01*
Y252038D01*
Y252233D01*
D02*
G37*
G36*
X644945D02*
X644164D01*
Y252038D01*
Y251842D01*
Y251647D01*
Y251452D01*
Y251257D01*
Y251062D01*
Y250867D01*
Y250671D01*
Y250476D01*
Y250281D01*
Y250086D01*
Y249890D01*
Y249695D01*
Y249500D01*
X643969D01*
Y249305D01*
X642993D01*
Y249500D01*
X642797D01*
Y249695D01*
Y249890D01*
Y250086D01*
Y250281D01*
Y250476D01*
Y250671D01*
Y250867D01*
Y251062D01*
Y251257D01*
Y251452D01*
Y251647D01*
Y251842D01*
Y252038D01*
Y252233D01*
X642017D01*
Y252038D01*
Y251842D01*
Y251647D01*
Y251452D01*
Y251257D01*
Y251062D01*
Y250867D01*
Y250671D01*
Y250476D01*
Y250281D01*
Y250086D01*
Y249890D01*
Y249695D01*
Y249500D01*
Y249305D01*
X642212D01*
Y249110D01*
Y248914D01*
X642407D01*
Y248719D01*
X642797D01*
Y248524D01*
X644359D01*
Y248719D01*
X644554D01*
Y248914D01*
X644749D01*
Y249110D01*
X644945D01*
Y249305D01*
Y249500D01*
Y249695D01*
Y249890D01*
Y250086D01*
Y250281D01*
Y250476D01*
Y250671D01*
Y250867D01*
Y251062D01*
Y251257D01*
Y251452D01*
Y251647D01*
Y251842D01*
Y252038D01*
Y252233D01*
D02*
G37*
G36*
X677935D02*
X675983D01*
Y252038D01*
Y251842D01*
Y251647D01*
Y251452D01*
Y251257D01*
Y251062D01*
Y250867D01*
Y250671D01*
Y250476D01*
Y250281D01*
Y250086D01*
Y249890D01*
Y249695D01*
Y249500D01*
Y249305D01*
Y249110D01*
Y248914D01*
Y248719D01*
Y248524D01*
X676764D01*
Y248719D01*
Y248914D01*
Y249110D01*
Y249305D01*
Y249500D01*
Y249695D01*
Y249890D01*
Y250086D01*
X677935D01*
Y250281D01*
Y250476D01*
Y250671D01*
Y250867D01*
X676764D01*
Y251062D01*
Y251257D01*
Y251452D01*
Y251647D01*
X677935D01*
Y251842D01*
Y252038D01*
Y252233D01*
D02*
G37*
G36*
X674421D02*
X672859D01*
Y252038D01*
X672469D01*
Y251842D01*
X672274D01*
Y251647D01*
X672079D01*
Y251452D01*
Y251257D01*
X671883D01*
Y251062D01*
Y250867D01*
Y250671D01*
Y250476D01*
Y250281D01*
Y250086D01*
Y249890D01*
Y249695D01*
Y249500D01*
X672079D01*
Y249305D01*
Y249110D01*
X672274D01*
Y248914D01*
X672469D01*
Y248719D01*
X672859D01*
Y248524D01*
X674421D01*
Y248719D01*
X674812D01*
Y248914D01*
X675007D01*
Y249110D01*
X675202D01*
Y249305D01*
Y249500D01*
X675397D01*
Y249695D01*
Y249890D01*
Y250086D01*
Y250281D01*
Y250476D01*
Y250671D01*
Y250867D01*
Y251062D01*
Y251257D01*
X675202D01*
Y251452D01*
Y251647D01*
X675007D01*
Y251842D01*
X674812D01*
Y252038D01*
X674421D01*
Y252233D01*
D02*
G37*
G36*
X664270D02*
X663489D01*
Y252038D01*
Y251842D01*
Y251647D01*
Y251452D01*
Y251257D01*
Y251062D01*
Y250867D01*
Y250671D01*
Y250476D01*
Y250281D01*
Y250086D01*
Y249890D01*
Y249695D01*
Y249500D01*
Y249305D01*
Y249110D01*
Y248914D01*
Y248719D01*
Y248524D01*
X664270D01*
Y248719D01*
Y248914D01*
Y249110D01*
Y249305D01*
Y249500D01*
Y249695D01*
Y249890D01*
Y250086D01*
Y250281D01*
Y250476D01*
Y250671D01*
Y250867D01*
Y251062D01*
Y251257D01*
Y251452D01*
Y251647D01*
Y251842D01*
Y252038D01*
Y252233D01*
D02*
G37*
G36*
X659195D02*
X657438D01*
Y252038D01*
Y251842D01*
Y251647D01*
Y251452D01*
Y251257D01*
Y251062D01*
Y250867D01*
Y250671D01*
Y250476D01*
Y250281D01*
Y250086D01*
Y249890D01*
Y249695D01*
Y249500D01*
Y249305D01*
Y249110D01*
Y248914D01*
Y248719D01*
Y248524D01*
X658219D01*
Y248719D01*
Y248914D01*
Y249110D01*
Y249305D01*
Y249500D01*
Y249695D01*
Y249890D01*
Y250086D01*
X658414D01*
Y249890D01*
X658609D01*
Y249695D01*
X658804D01*
Y249500D01*
Y249305D01*
X659000D01*
Y249110D01*
X659195D01*
Y248914D01*
Y248719D01*
X659390D01*
Y248524D01*
X660366D01*
Y248719D01*
X660171D01*
Y248914D01*
Y249110D01*
X659976D01*
Y249305D01*
X659781D01*
Y249500D01*
Y249695D01*
X659585D01*
Y249890D01*
Y250086D01*
X659390D01*
Y250281D01*
Y250476D01*
X659585D01*
Y250671D01*
Y250867D01*
Y251062D01*
Y251257D01*
Y251452D01*
Y251647D01*
Y251842D01*
X659390D01*
Y252038D01*
X659195D01*
Y252233D01*
D02*
G37*
G36*
X656657D02*
X654510D01*
Y252038D01*
Y251842D01*
Y251647D01*
Y251452D01*
Y251257D01*
Y251062D01*
Y250867D01*
Y250671D01*
Y250476D01*
Y250281D01*
Y250086D01*
Y249890D01*
Y249695D01*
Y249500D01*
Y249305D01*
Y249110D01*
Y248914D01*
Y248719D01*
Y248524D01*
X656657D01*
Y248719D01*
Y248914D01*
Y249110D01*
Y249305D01*
X655291D01*
Y249500D01*
Y249695D01*
Y249890D01*
Y250086D01*
X656657D01*
Y250281D01*
Y250476D01*
Y250671D01*
Y250867D01*
X655291D01*
Y251062D01*
Y251257D01*
Y251452D01*
X656657D01*
Y251647D01*
Y251842D01*
Y252038D01*
Y252233D01*
D02*
G37*
G36*
X650411D02*
X649630D01*
Y252038D01*
Y251842D01*
Y251647D01*
Y251452D01*
Y251257D01*
Y251062D01*
Y250867D01*
Y250671D01*
Y250476D01*
Y250281D01*
Y250086D01*
Y249890D01*
Y249695D01*
Y249500D01*
Y249305D01*
Y249110D01*
Y248914D01*
Y248719D01*
Y248524D01*
X650411D01*
Y248719D01*
Y248914D01*
Y249110D01*
Y249305D01*
Y249500D01*
Y249695D01*
Y249890D01*
Y250086D01*
Y250281D01*
Y250476D01*
Y250671D01*
Y250867D01*
Y251062D01*
Y251257D01*
Y251452D01*
Y251647D01*
Y251842D01*
Y252038D01*
Y252233D01*
D02*
G37*
G36*
X640064D02*
X637917D01*
Y252038D01*
Y251842D01*
Y251647D01*
Y251452D01*
Y251257D01*
Y251062D01*
Y250867D01*
Y250671D01*
Y250476D01*
Y250281D01*
Y250086D01*
Y249890D01*
Y249695D01*
Y249500D01*
Y249305D01*
Y249110D01*
Y248914D01*
Y248719D01*
Y248524D01*
X640064D01*
Y248719D01*
Y248914D01*
Y249110D01*
Y249305D01*
X638698D01*
Y249500D01*
Y249695D01*
Y249890D01*
Y250086D01*
X640064D01*
Y250281D01*
Y250476D01*
Y250671D01*
Y250867D01*
X638698D01*
Y251062D01*
Y251257D01*
Y251452D01*
X640064D01*
Y251647D01*
Y251842D01*
Y252038D01*
Y252233D01*
D02*
G37*
G36*
X634013D02*
X631085D01*
Y252038D01*
Y251842D01*
Y251647D01*
Y251452D01*
X632061D01*
Y251257D01*
Y251062D01*
Y250867D01*
Y250671D01*
Y250476D01*
Y250281D01*
Y250086D01*
Y249890D01*
Y249695D01*
Y249500D01*
Y249305D01*
Y249110D01*
Y248914D01*
Y248719D01*
Y248524D01*
X632842D01*
Y248719D01*
Y248914D01*
Y249110D01*
Y249305D01*
Y249500D01*
Y249695D01*
Y249890D01*
Y250086D01*
Y250281D01*
Y250476D01*
Y250671D01*
Y250867D01*
Y251062D01*
Y251257D01*
Y251452D01*
X634013D01*
Y251647D01*
Y251842D01*
Y252038D01*
Y252233D01*
D02*
G37*
G36*
X646897Y247353D02*
X645335D01*
Y247158D01*
X644749D01*
Y246962D01*
X644359D01*
Y246767D01*
X644164D01*
Y246572D01*
X643969D01*
Y246377D01*
X643773D01*
Y246182D01*
X643578D01*
Y245986D01*
Y245791D01*
X643383D01*
Y245596D01*
Y245401D01*
X643188D01*
Y245205D01*
Y245010D01*
Y244815D01*
Y244620D01*
X642993D01*
Y244425D01*
Y244229D01*
Y244034D01*
Y243839D01*
Y243644D01*
Y243448D01*
X643188D01*
Y243253D01*
Y243058D01*
Y242863D01*
X643383D01*
Y242668D01*
Y242473D01*
Y242277D01*
X643578D01*
Y242082D01*
X643773D01*
Y241887D01*
X643969D01*
Y241692D01*
X644164D01*
Y241496D01*
X644359D01*
Y241301D01*
X644554D01*
Y241106D01*
X645140D01*
Y240911D01*
X647287D01*
Y241106D01*
X647873D01*
Y241301D01*
X648068D01*
Y241496D01*
X648263D01*
Y241692D01*
Y241887D01*
Y242082D01*
Y242277D01*
Y242473D01*
Y242668D01*
Y242863D01*
X647873D01*
Y242668D01*
X647678D01*
Y242473D01*
X647287D01*
Y242277D01*
X646897D01*
Y242082D01*
X645530D01*
Y242277D01*
X645140D01*
Y242473D01*
X644945D01*
Y242668D01*
X644749D01*
Y242863D01*
X644554D01*
Y243058D01*
Y243253D01*
X644359D01*
Y243448D01*
Y243644D01*
Y243839D01*
Y244034D01*
X644164D01*
Y244229D01*
X644359D01*
Y244425D01*
Y244620D01*
Y244815D01*
Y245010D01*
X644554D01*
Y245205D01*
Y245401D01*
X644749D01*
Y245596D01*
X644945D01*
Y245791D01*
X645335D01*
Y245986D01*
X645725D01*
Y246182D01*
X646701D01*
Y245986D01*
X647287D01*
Y245791D01*
X647678D01*
Y245596D01*
X647873D01*
Y245401D01*
X648263D01*
Y245596D01*
Y245791D01*
Y245986D01*
Y246182D01*
Y246377D01*
X648068D01*
Y246572D01*
Y246767D01*
Y246962D01*
X647678D01*
Y247158D01*
X646897D01*
Y247353D01*
D02*
G37*
G36*
X653924D02*
X652558D01*
Y247158D01*
X652363D01*
Y246962D01*
X652167D01*
Y246767D01*
Y246572D01*
X651972D01*
Y246377D01*
X651777D01*
Y246182D01*
X651582D01*
Y245986D01*
X651386D01*
Y245791D01*
X651191D01*
Y245596D01*
Y245401D01*
X650996D01*
Y245205D01*
X650801D01*
Y245010D01*
X650606D01*
Y245205D01*
Y245401D01*
Y245596D01*
Y245791D01*
Y245986D01*
Y246182D01*
Y246377D01*
Y246572D01*
Y246767D01*
Y246962D01*
Y247158D01*
Y247353D01*
X649435D01*
Y247158D01*
Y246962D01*
Y246767D01*
Y246572D01*
Y246377D01*
Y246182D01*
Y245986D01*
Y245791D01*
Y245596D01*
Y245401D01*
Y245205D01*
Y245010D01*
Y244815D01*
Y244620D01*
Y244425D01*
Y244229D01*
Y244034D01*
Y243839D01*
Y243644D01*
Y243448D01*
Y243253D01*
Y243058D01*
Y242863D01*
Y242668D01*
Y242473D01*
Y242277D01*
Y242082D01*
Y241887D01*
Y241692D01*
Y241496D01*
Y241301D01*
Y241106D01*
Y240911D01*
X650606D01*
Y241106D01*
Y241301D01*
Y241496D01*
Y241692D01*
Y241887D01*
Y242082D01*
Y242277D01*
Y242473D01*
Y242668D01*
Y242863D01*
Y243058D01*
Y243253D01*
Y243448D01*
X650801D01*
Y243253D01*
X650996D01*
Y243058D01*
X651191D01*
Y242863D01*
X651386D01*
Y242668D01*
X651582D01*
Y242473D01*
X651777D01*
Y242277D01*
X651972D01*
Y242082D01*
X652167D01*
Y241887D01*
X652363D01*
Y241692D01*
Y241496D01*
X652558D01*
Y241301D01*
X652753D01*
Y241106D01*
X652948D01*
Y240911D01*
X654510D01*
Y241106D01*
Y241301D01*
X654315D01*
Y241496D01*
X654119D01*
Y241692D01*
X653924D01*
Y241887D01*
X653729D01*
Y242082D01*
X653534D01*
Y242277D01*
Y242473D01*
X653339D01*
Y242668D01*
X653143D01*
Y242863D01*
X652948D01*
Y243058D01*
X652753D01*
Y243253D01*
X652558D01*
Y243448D01*
X652363D01*
Y243644D01*
X652167D01*
Y243839D01*
X651972D01*
Y244034D01*
X651777D01*
Y244229D01*
Y244425D01*
X651972D01*
Y244620D01*
Y244815D01*
X652167D01*
Y245010D01*
X652363D01*
Y245205D01*
X652558D01*
Y245401D01*
X652753D01*
Y245596D01*
Y245791D01*
X652948D01*
Y245986D01*
X653143D01*
Y246182D01*
X653339D01*
Y246377D01*
X653534D01*
Y246572D01*
X653729D01*
Y246767D01*
Y246962D01*
X653924D01*
Y247158D01*
Y247353D01*
D02*
G37*
G36*
X671493D02*
X670322D01*
Y247158D01*
Y246962D01*
Y246767D01*
Y246572D01*
Y246377D01*
Y246182D01*
Y245986D01*
Y245791D01*
Y245596D01*
Y245401D01*
Y245205D01*
Y245010D01*
Y244815D01*
Y244620D01*
Y244425D01*
Y244229D01*
Y244034D01*
Y243839D01*
Y243644D01*
Y243448D01*
X670126D01*
Y243644D01*
X669931D01*
Y243839D01*
X669736D01*
Y244034D01*
X669541D01*
Y244229D01*
Y244425D01*
X669346D01*
Y244620D01*
X669150D01*
Y244815D01*
X668955D01*
Y245010D01*
X668760D01*
Y245205D01*
Y245401D01*
X668565D01*
Y245596D01*
X668370D01*
Y245791D01*
X668174D01*
Y245986D01*
Y246182D01*
X667979D01*
Y246377D01*
X667784D01*
Y246572D01*
X667589D01*
Y246767D01*
X667394D01*
Y246962D01*
Y247158D01*
X667198D01*
Y247353D01*
X666222D01*
Y247158D01*
Y246962D01*
Y246767D01*
Y246572D01*
Y246377D01*
Y246182D01*
Y245986D01*
Y245791D01*
Y245596D01*
Y245401D01*
Y245205D01*
Y245010D01*
Y244815D01*
Y244620D01*
Y244425D01*
Y244229D01*
Y244034D01*
Y243839D01*
Y243644D01*
Y243448D01*
Y243253D01*
Y243058D01*
Y242863D01*
Y242668D01*
Y242473D01*
Y242277D01*
Y242082D01*
Y241887D01*
Y241692D01*
Y241496D01*
Y241301D01*
Y241106D01*
Y240911D01*
X667394D01*
Y241106D01*
Y241301D01*
Y241496D01*
Y241692D01*
Y241887D01*
Y242082D01*
Y242277D01*
Y242473D01*
Y242668D01*
Y242863D01*
Y243058D01*
Y243253D01*
Y243448D01*
Y243644D01*
Y243839D01*
Y244034D01*
Y244229D01*
Y244425D01*
Y244620D01*
Y244815D01*
X667589D01*
Y244620D01*
X667784D01*
Y244425D01*
X667979D01*
Y244229D01*
Y244034D01*
X668174D01*
Y243839D01*
X668370D01*
Y243644D01*
X668565D01*
Y243448D01*
Y243253D01*
X668760D01*
Y243058D01*
X668955D01*
Y242863D01*
X669150D01*
Y242668D01*
X669346D01*
Y242473D01*
Y242277D01*
X669541D01*
Y242082D01*
X669736D01*
Y241887D01*
X669931D01*
Y241692D01*
Y241496D01*
X670126D01*
Y241301D01*
X670322D01*
Y241106D01*
X670517D01*
Y240911D01*
X671493D01*
Y241106D01*
Y241301D01*
Y241496D01*
Y241692D01*
Y241887D01*
Y242082D01*
Y242277D01*
Y242473D01*
Y242668D01*
Y242863D01*
Y243058D01*
Y243253D01*
Y243448D01*
Y243644D01*
Y243839D01*
Y244034D01*
Y244229D01*
Y244425D01*
Y244620D01*
Y244815D01*
Y245010D01*
Y245205D01*
Y245401D01*
Y245596D01*
Y245791D01*
Y245986D01*
Y246182D01*
Y246377D01*
Y246572D01*
Y246767D01*
Y246962D01*
Y247158D01*
Y247353D01*
D02*
G37*
G36*
X642212D02*
X641041D01*
Y247158D01*
Y246962D01*
Y246767D01*
Y246572D01*
Y246377D01*
Y246182D01*
Y245986D01*
Y245791D01*
Y245596D01*
Y245401D01*
Y245205D01*
Y245010D01*
Y244815D01*
Y244620D01*
Y244425D01*
Y244229D01*
Y244034D01*
Y243839D01*
Y243644D01*
Y243448D01*
Y243253D01*
X640845D01*
Y243058D01*
Y242863D01*
Y242668D01*
X640650D01*
Y242473D01*
X640455D01*
Y242277D01*
X640064D01*
Y242082D01*
X639088D01*
Y242277D01*
X638698D01*
Y242473D01*
X638503D01*
Y242668D01*
Y242863D01*
X638308D01*
Y243058D01*
Y243253D01*
Y243448D01*
Y243644D01*
Y243839D01*
Y244034D01*
Y244229D01*
Y244425D01*
Y244620D01*
Y244815D01*
Y245010D01*
Y245205D01*
Y245401D01*
Y245596D01*
Y245791D01*
Y245986D01*
Y246182D01*
Y246377D01*
Y246572D01*
Y246767D01*
Y246962D01*
Y247158D01*
Y247353D01*
X637136D01*
Y247158D01*
Y246962D01*
Y246767D01*
Y246572D01*
Y246377D01*
Y246182D01*
Y245986D01*
Y245791D01*
Y245596D01*
Y245401D01*
Y245205D01*
Y245010D01*
Y244815D01*
Y244620D01*
Y244425D01*
Y244229D01*
Y244034D01*
Y243839D01*
Y243644D01*
Y243448D01*
Y243253D01*
Y243058D01*
Y242863D01*
Y242668D01*
X637331D01*
Y242473D01*
Y242277D01*
Y242082D01*
X637527D01*
Y241887D01*
Y241692D01*
X637722D01*
Y241496D01*
X637917D01*
Y241301D01*
X638308D01*
Y241106D01*
X638698D01*
Y240911D01*
X640650D01*
Y241106D01*
X641041D01*
Y241301D01*
X641236D01*
Y241496D01*
X641626D01*
Y241692D01*
Y241887D01*
X641821D01*
Y242082D01*
Y242277D01*
X642017D01*
Y242473D01*
Y242668D01*
Y242863D01*
Y243058D01*
X642212D01*
Y243253D01*
Y243448D01*
Y243644D01*
Y243839D01*
Y244034D01*
Y244229D01*
Y244425D01*
Y244620D01*
Y244815D01*
Y245010D01*
Y245205D01*
Y245401D01*
Y245596D01*
Y245791D01*
Y245986D01*
Y246182D01*
Y246377D01*
Y246572D01*
Y246767D01*
Y246962D01*
Y247158D01*
Y247353D01*
D02*
G37*
G36*
X675397D02*
X672859D01*
Y247158D01*
Y246962D01*
Y246767D01*
Y246572D01*
Y246377D01*
Y246182D01*
Y245986D01*
Y245791D01*
Y245596D01*
Y245401D01*
Y245205D01*
Y245010D01*
Y244815D01*
Y244620D01*
Y244425D01*
Y244229D01*
Y244034D01*
Y243839D01*
Y243644D01*
Y243448D01*
Y243253D01*
Y243058D01*
Y242863D01*
Y242668D01*
Y242473D01*
Y242277D01*
Y242082D01*
Y241887D01*
Y241692D01*
Y241496D01*
Y241301D01*
Y241106D01*
Y240911D01*
X675787D01*
Y241106D01*
X676568D01*
Y241301D01*
X676764D01*
Y241496D01*
X677154D01*
Y241692D01*
X677349D01*
Y241887D01*
X677544D01*
Y242082D01*
X677740D01*
Y242277D01*
Y242473D01*
X677935D01*
Y242668D01*
Y242863D01*
Y243058D01*
X678130D01*
Y243253D01*
Y243448D01*
Y243644D01*
Y243839D01*
Y244034D01*
Y244229D01*
Y244425D01*
Y244620D01*
Y244815D01*
Y245010D01*
Y245205D01*
X677935D01*
Y245401D01*
Y245596D01*
Y245791D01*
X677740D01*
Y245986D01*
Y246182D01*
X677544D01*
Y246377D01*
X677349D01*
Y246572D01*
X677154D01*
Y246767D01*
X676764D01*
Y246962D01*
X676373D01*
Y247158D01*
X675397D01*
Y247353D01*
D02*
G37*
G36*
X662709D02*
X661928D01*
Y247158D01*
X661733D01*
Y246962D01*
Y246767D01*
Y246572D01*
X661537D01*
Y246377D01*
Y246182D01*
Y245986D01*
X661342D01*
Y245791D01*
Y245596D01*
X661147D01*
Y245401D01*
Y245205D01*
Y245010D01*
X660952D01*
Y244815D01*
Y244620D01*
X660756D01*
Y244425D01*
Y244229D01*
Y244034D01*
X660561D01*
Y243839D01*
Y243644D01*
Y243448D01*
X660366D01*
Y243253D01*
Y243058D01*
X660171D01*
Y242863D01*
Y242668D01*
Y242473D01*
X659976D01*
Y242277D01*
Y242082D01*
X659781D01*
Y241887D01*
Y241692D01*
Y241496D01*
X659585D01*
Y241301D01*
Y241106D01*
Y240911D01*
X660756D01*
Y241106D01*
Y241301D01*
X660952D01*
Y241496D01*
Y241692D01*
X661147D01*
Y241887D01*
Y242082D01*
Y242277D01*
X661342D01*
Y242473D01*
Y242668D01*
X663294D01*
Y242473D01*
X663489D01*
Y242277D01*
Y242082D01*
X663685D01*
Y241887D01*
Y241692D01*
X663880D01*
Y241496D01*
Y241301D01*
Y241106D01*
X664075D01*
Y240911D01*
X665246D01*
Y241106D01*
Y241301D01*
X665051D01*
Y241496D01*
Y241692D01*
Y241887D01*
X664856D01*
Y242082D01*
Y242277D01*
X664661D01*
Y242473D01*
Y242668D01*
Y242863D01*
X664466D01*
Y243058D01*
Y243253D01*
X664270D01*
Y243448D01*
Y243644D01*
Y243839D01*
X664075D01*
Y244034D01*
Y244229D01*
X663880D01*
Y244425D01*
Y244620D01*
Y244815D01*
X663685D01*
Y245010D01*
Y245205D01*
X663489D01*
Y245401D01*
Y245596D01*
Y245791D01*
X663294D01*
Y245986D01*
Y246182D01*
X663099D01*
Y246377D01*
Y246572D01*
Y246767D01*
X662904D01*
Y246962D01*
Y247158D01*
X662709D01*
Y247353D01*
D02*
G37*
G36*
X656462D02*
X655291D01*
Y247158D01*
Y246962D01*
Y246767D01*
Y246572D01*
Y246377D01*
Y246182D01*
Y245986D01*
Y245791D01*
Y245596D01*
Y245401D01*
Y245205D01*
Y245010D01*
Y244815D01*
Y244620D01*
Y244425D01*
Y244229D01*
Y244034D01*
Y243839D01*
Y243644D01*
Y243448D01*
Y243253D01*
Y243058D01*
Y242863D01*
Y242668D01*
Y242473D01*
Y242277D01*
Y242082D01*
Y241887D01*
Y241692D01*
Y241496D01*
Y241301D01*
Y241106D01*
Y240911D01*
X658804D01*
Y241106D01*
Y241301D01*
Y241496D01*
Y241692D01*
Y241887D01*
Y242082D01*
X656462D01*
Y242277D01*
Y242473D01*
Y242668D01*
Y242863D01*
Y243058D01*
Y243253D01*
Y243448D01*
Y243644D01*
Y243839D01*
Y244034D01*
Y244229D01*
Y244425D01*
Y244620D01*
Y244815D01*
Y245010D01*
Y245205D01*
Y245401D01*
Y245596D01*
Y245791D01*
Y245986D01*
Y246182D01*
Y246377D01*
Y246572D01*
Y246767D01*
Y246962D01*
Y247158D01*
Y247353D01*
D02*
G37*
G36*
X634208D02*
X633232D01*
Y247158D01*
Y246962D01*
Y246767D01*
X633037D01*
Y246572D01*
Y246377D01*
Y246182D01*
X632842D01*
Y245986D01*
Y245791D01*
X632647D01*
Y245596D01*
Y245401D01*
Y245205D01*
X632451D01*
Y245010D01*
Y244815D01*
X632256D01*
Y244620D01*
Y244425D01*
Y244229D01*
X632061D01*
Y244034D01*
Y243839D01*
Y243644D01*
X631866D01*
Y243448D01*
Y243253D01*
X631671D01*
Y243058D01*
Y242863D01*
Y242668D01*
X631475D01*
Y242473D01*
Y242277D01*
X631280D01*
Y242082D01*
Y241887D01*
Y241692D01*
X631085D01*
Y241496D01*
Y241301D01*
X630890D01*
Y241106D01*
Y240911D01*
X632256D01*
Y241106D01*
Y241301D01*
Y241496D01*
X632451D01*
Y241692D01*
Y241887D01*
X632647D01*
Y242082D01*
Y242277D01*
Y242473D01*
X632842D01*
Y242668D01*
X634794D01*
Y242473D01*
Y242277D01*
X634989D01*
Y242082D01*
Y241887D01*
X635184D01*
Y241692D01*
Y241496D01*
X635380D01*
Y241301D01*
Y241106D01*
Y240911D01*
X636746D01*
Y241106D01*
X636551D01*
Y241301D01*
Y241496D01*
Y241692D01*
X636355D01*
Y241887D01*
Y242082D01*
X636160D01*
Y242277D01*
Y242473D01*
Y242668D01*
X635965D01*
Y242863D01*
Y243058D01*
X635770D01*
Y243253D01*
Y243448D01*
Y243644D01*
X635575D01*
Y243839D01*
Y244034D01*
X635380D01*
Y244229D01*
Y244425D01*
Y244620D01*
X635184D01*
Y244815D01*
Y245010D01*
X634989D01*
Y245205D01*
Y245401D01*
Y245596D01*
X634794D01*
Y245791D01*
Y245986D01*
X634599D01*
Y246182D01*
Y246377D01*
Y246572D01*
X634403D01*
Y246767D01*
Y246962D01*
X634208D01*
Y247158D01*
Y247353D01*
D02*
G37*
G36*
X668174Y239740D02*
X667589D01*
Y239544D01*
X667394D01*
Y239349D01*
X667198D01*
Y239154D01*
X667003D01*
Y239349D01*
Y239544D01*
X666808D01*
Y239740D01*
X666222D01*
Y239544D01*
Y239349D01*
Y239154D01*
Y238959D01*
Y238763D01*
Y238568D01*
Y238373D01*
Y238178D01*
Y237983D01*
Y237788D01*
Y237592D01*
X666613D01*
Y237788D01*
Y237983D01*
Y238178D01*
Y238373D01*
Y238568D01*
Y238763D01*
X666808D01*
Y238568D01*
X667003D01*
Y238373D01*
X667394D01*
Y238568D01*
Y238763D01*
X667589D01*
Y238568D01*
Y238373D01*
Y238178D01*
Y237983D01*
Y237788D01*
Y237592D01*
X668174D01*
Y237788D01*
Y237983D01*
Y238178D01*
Y238373D01*
Y238568D01*
Y238763D01*
Y238959D01*
Y239154D01*
Y239349D01*
Y239544D01*
Y239740D01*
D02*
G37*
G36*
X642017Y239154D02*
X641236D01*
Y238959D01*
X640845D01*
Y239154D01*
X639869D01*
Y238959D01*
Y238763D01*
Y238568D01*
Y238373D01*
Y238178D01*
Y237983D01*
Y237788D01*
Y237592D01*
X640260D01*
Y237788D01*
Y237983D01*
Y238178D01*
Y238373D01*
Y238568D01*
X640845D01*
Y238763D01*
X641041D01*
Y238568D01*
Y238373D01*
Y238178D01*
Y237983D01*
Y237788D01*
X641236D01*
Y237592D01*
X642017D01*
Y237788D01*
X642212D01*
Y237983D01*
Y238178D01*
Y238373D01*
Y238568D01*
Y238763D01*
Y238959D01*
X642017D01*
Y239154D01*
D02*
G37*
G36*
X645725Y239740D02*
X645140D01*
Y239544D01*
Y239349D01*
Y239154D01*
X644945D01*
Y238959D01*
Y238763D01*
X644749D01*
Y238959D01*
Y239154D01*
Y239349D01*
X644554D01*
Y239544D01*
Y239740D01*
X643969D01*
Y239544D01*
Y239349D01*
X643773D01*
Y239154D01*
Y238959D01*
Y238763D01*
X643578D01*
Y238959D01*
Y239154D01*
X643383D01*
Y239349D01*
Y239544D01*
Y239740D01*
X642797D01*
Y239544D01*
Y239349D01*
X642993D01*
Y239154D01*
Y238959D01*
Y238763D01*
X643188D01*
Y238568D01*
Y238373D01*
Y238178D01*
X643383D01*
Y237983D01*
Y237788D01*
Y237592D01*
X643773D01*
Y237788D01*
Y237983D01*
X643969D01*
Y238178D01*
Y238373D01*
X644164D01*
Y238568D01*
Y238763D01*
Y238959D01*
X644359D01*
Y238763D01*
Y238568D01*
Y238373D01*
X644554D01*
Y238178D01*
Y237983D01*
Y237788D01*
X644749D01*
Y237592D01*
X644945D01*
Y237788D01*
X645140D01*
Y237983D01*
Y238178D01*
Y238373D01*
X645335D01*
Y238568D01*
Y238763D01*
X645530D01*
Y238568D01*
X645921D01*
Y238373D01*
X645530D01*
Y238178D01*
Y237983D01*
Y237788D01*
X645725D01*
Y237592D01*
X646701D01*
Y237788D01*
Y237983D01*
Y238178D01*
Y238373D01*
Y238568D01*
Y238763D01*
X646506D01*
Y238959D01*
Y239154D01*
Y239349D01*
Y239544D01*
X645725D01*
Y239740D01*
D02*
G37*
G36*
X637527D02*
X636551D01*
Y239544D01*
Y239349D01*
X636355D01*
Y239154D01*
Y238959D01*
Y238763D01*
X636160D01*
Y238959D01*
Y239154D01*
X635965D01*
Y239349D01*
Y239544D01*
Y239740D01*
X635380D01*
Y239544D01*
X635184D01*
Y239349D01*
Y239154D01*
Y238959D01*
X634794D01*
Y239154D01*
Y239349D01*
Y239544D01*
X634599D01*
Y239740D01*
X634208D01*
Y239544D01*
Y239349D01*
Y239154D01*
X634403D01*
Y238959D01*
Y238763D01*
Y238568D01*
X634599D01*
Y238373D01*
Y238178D01*
Y237983D01*
X634794D01*
Y237788D01*
Y237592D01*
X635184D01*
Y237788D01*
Y237983D01*
Y238178D01*
X635380D01*
Y238373D01*
Y238568D01*
X635575D01*
Y238763D01*
X635770D01*
Y238568D01*
Y238373D01*
Y238178D01*
X635965D01*
Y237983D01*
Y237788D01*
Y237592D01*
X636355D01*
Y237788D01*
Y237983D01*
X636551D01*
Y238178D01*
Y238373D01*
X636746D01*
Y238568D01*
Y238763D01*
Y238959D01*
X636941D01*
Y239154D01*
Y239349D01*
Y239544D01*
X637136D01*
Y239349D01*
Y239154D01*
Y238959D01*
Y238763D01*
Y238568D01*
Y238373D01*
Y238178D01*
Y237983D01*
Y237788D01*
Y237592D01*
X637527D01*
Y237788D01*
Y237983D01*
Y238178D01*
Y238373D01*
Y238568D01*
X637722D01*
Y238763D01*
X637917D01*
Y238568D01*
Y238373D01*
Y238178D01*
Y237983D01*
Y237788D01*
Y237592D01*
X638308D01*
Y237788D01*
Y237983D01*
Y238178D01*
Y238373D01*
Y238568D01*
Y238763D01*
Y238959D01*
Y239154D01*
X637527D01*
Y239349D01*
Y239544D01*
Y239740D01*
D02*
G37*
G36*
X677935Y239154D02*
X677544D01*
Y238959D01*
Y238763D01*
Y238568D01*
Y238373D01*
Y238178D01*
Y237983D01*
X677349D01*
Y238178D01*
X677154D01*
Y238373D01*
Y238568D01*
Y238763D01*
Y238959D01*
Y239154D01*
X676764D01*
Y238959D01*
Y238763D01*
Y238568D01*
Y238373D01*
Y238178D01*
Y237983D01*
Y237788D01*
X676959D01*
Y237592D01*
X677935D01*
Y237788D01*
Y237983D01*
Y238178D01*
Y238373D01*
Y238568D01*
Y238763D01*
Y238959D01*
Y239154D01*
D02*
G37*
G36*
X673836D02*
X673445D01*
Y238959D01*
Y238763D01*
Y238568D01*
Y238373D01*
Y238178D01*
X673250D01*
Y237983D01*
X673055D01*
Y238178D01*
Y238373D01*
Y238568D01*
Y238763D01*
Y238959D01*
Y239154D01*
X672664D01*
Y238959D01*
Y238763D01*
Y238568D01*
Y238373D01*
Y238178D01*
Y237983D01*
Y237788D01*
X672859D01*
Y237592D01*
X673836D01*
Y237788D01*
Y237983D01*
Y238178D01*
Y238373D01*
Y238568D01*
Y238763D01*
Y238959D01*
Y239154D01*
D02*
G37*
G36*
X676178D02*
X675397D01*
Y238959D01*
Y238763D01*
Y238568D01*
X675592D01*
Y238373D01*
X675397D01*
Y238178D01*
Y237983D01*
Y237788D01*
Y237592D01*
X676568D01*
Y237788D01*
Y237983D01*
X676373D01*
Y238178D01*
Y238373D01*
Y238568D01*
Y238763D01*
Y238959D01*
X676178D01*
Y239154D01*
D02*
G37*
G36*
X675202D02*
X674226D01*
Y238959D01*
Y238763D01*
Y238568D01*
Y238373D01*
Y238178D01*
Y237983D01*
Y237788D01*
Y237592D01*
X674616D01*
Y237788D01*
Y237983D01*
Y238178D01*
Y238373D01*
Y238568D01*
X675202D01*
Y238763D01*
Y238959D01*
Y239154D01*
D02*
G37*
G36*
X672079D02*
X671298D01*
Y238959D01*
Y238763D01*
Y238568D01*
X671493D01*
Y238373D01*
X671298D01*
Y238178D01*
Y237983D01*
Y237788D01*
Y237592D01*
X672469D01*
Y237788D01*
Y237983D01*
X672274D01*
Y238178D01*
Y238373D01*
Y238568D01*
Y238763D01*
Y238959D01*
X672079D01*
Y239154D01*
D02*
G37*
G36*
X670322Y239740D02*
X669736D01*
Y239544D01*
Y239349D01*
Y239154D01*
Y238959D01*
Y238763D01*
Y238568D01*
Y238373D01*
Y238178D01*
Y237983D01*
Y237788D01*
Y237592D01*
X670322D01*
Y237788D01*
Y237983D01*
X670517D01*
Y237788D01*
Y237592D01*
X671103D01*
Y237788D01*
Y237983D01*
X670907D01*
Y238178D01*
X670712D01*
Y238373D01*
Y238568D01*
X670907D01*
Y238763D01*
Y238959D01*
X671103D01*
Y239154D01*
X670517D01*
Y238959D01*
X670322D01*
Y239154D01*
Y239349D01*
Y239544D01*
Y239740D01*
D02*
G37*
G36*
X669346Y239154D02*
X668565D01*
Y238959D01*
X668370D01*
Y238763D01*
Y238568D01*
X668565D01*
Y238373D01*
X668370D01*
Y238178D01*
Y237983D01*
Y237788D01*
Y237592D01*
X669541D01*
Y237788D01*
Y237983D01*
X669346D01*
Y238178D01*
Y238373D01*
Y238568D01*
Y238763D01*
Y238959D01*
Y239154D01*
D02*
G37*
G36*
X664856Y239740D02*
X664466D01*
Y239544D01*
Y239349D01*
Y239154D01*
Y238959D01*
Y238763D01*
Y238568D01*
Y238373D01*
Y238178D01*
Y237983D01*
Y237788D01*
Y237592D01*
X664856D01*
Y237788D01*
Y237983D01*
Y238178D01*
Y238373D01*
Y238568D01*
Y238763D01*
Y238959D01*
Y239154D01*
Y239349D01*
Y239544D01*
Y239740D01*
D02*
G37*
G36*
X663294D02*
X662904D01*
Y239544D01*
Y239349D01*
Y239154D01*
Y238959D01*
Y238763D01*
Y238568D01*
Y238373D01*
Y238178D01*
Y237983D01*
Y237788D01*
Y237592D01*
X663294D01*
Y237788D01*
Y237983D01*
X663489D01*
Y237788D01*
X663685D01*
Y237592D01*
X664270D01*
Y237788D01*
Y237983D01*
X664075D01*
Y238178D01*
X663880D01*
Y238373D01*
Y238568D01*
Y238763D01*
X664075D01*
Y238959D01*
X664270D01*
Y239154D01*
X663685D01*
Y238959D01*
X663489D01*
Y238763D01*
X663294D01*
Y238959D01*
Y239154D01*
Y239349D01*
Y239544D01*
Y239740D01*
D02*
G37*
G36*
X662318Y239154D02*
X661537D01*
Y238959D01*
Y238763D01*
Y238568D01*
X661733D01*
Y238373D01*
X661537D01*
Y238178D01*
Y237983D01*
Y237788D01*
Y237592D01*
X662709D01*
Y237788D01*
Y237983D01*
X662513D01*
Y238178D01*
Y238373D01*
Y238568D01*
Y238763D01*
Y238959D01*
X662318D01*
Y239154D01*
D02*
G37*
G36*
X661147D02*
X659390D01*
Y238959D01*
Y238763D01*
Y238568D01*
Y238373D01*
Y238178D01*
Y237983D01*
Y237788D01*
Y237592D01*
X659781D01*
Y237788D01*
Y237983D01*
Y238178D01*
Y238373D01*
Y238568D01*
Y238763D01*
X659976D01*
Y238568D01*
X660171D01*
Y238373D01*
Y238178D01*
Y237983D01*
Y237788D01*
Y237592D01*
X660561D01*
Y237788D01*
Y237983D01*
Y238178D01*
Y238373D01*
Y238568D01*
Y238763D01*
X660756D01*
Y238568D01*
Y238373D01*
Y238178D01*
Y237983D01*
Y237788D01*
Y237592D01*
X661342D01*
Y237788D01*
Y237983D01*
Y238178D01*
Y238373D01*
Y238568D01*
Y238763D01*
X661147D01*
Y238959D01*
Y239154D01*
D02*
G37*
G36*
X658219Y239740D02*
X656462D01*
Y239544D01*
Y239349D01*
X657048D01*
Y239154D01*
Y238959D01*
Y238763D01*
Y238568D01*
Y238373D01*
Y238178D01*
Y237983D01*
Y237788D01*
Y237592D01*
X657633D01*
Y237788D01*
Y237983D01*
Y238178D01*
Y238373D01*
Y238568D01*
Y238763D01*
Y238959D01*
Y239154D01*
Y239349D01*
X658024D01*
Y239154D01*
Y238959D01*
X657828D01*
Y238763D01*
Y238568D01*
X658219D01*
Y238373D01*
X658024D01*
Y238178D01*
X657828D01*
Y237983D01*
Y237788D01*
X658024D01*
Y237592D01*
X659000D01*
Y237788D01*
X659195D01*
Y237983D01*
X659000D01*
Y238178D01*
Y238373D01*
Y238568D01*
Y238763D01*
Y238959D01*
X658804D01*
Y239154D01*
Y239349D01*
Y239544D01*
X658219D01*
Y239740D01*
D02*
G37*
G36*
X655486Y239154D02*
X654705D01*
Y238959D01*
X654510D01*
Y238763D01*
Y238568D01*
X654315D01*
Y238373D01*
Y238178D01*
X654510D01*
Y237983D01*
Y237788D01*
X654705D01*
Y237592D01*
X655486D01*
Y237788D01*
X655681D01*
Y237983D01*
X655876D01*
Y238178D01*
Y238373D01*
Y238568D01*
Y238763D01*
X655681D01*
Y238959D01*
X655486D01*
Y239154D01*
D02*
G37*
G36*
X653143D02*
X652363D01*
Y238959D01*
Y238763D01*
Y238568D01*
X652558D01*
Y238373D01*
X652363D01*
Y238178D01*
X652167D01*
Y237983D01*
Y237788D01*
X652363D01*
Y237592D01*
X653534D01*
Y237788D01*
Y237983D01*
X653339D01*
Y238178D01*
Y238373D01*
Y238568D01*
Y238763D01*
Y238959D01*
X653143D01*
Y239154D01*
D02*
G37*
G36*
X650606D02*
X649630D01*
Y238959D01*
Y238763D01*
Y238568D01*
Y238373D01*
Y238178D01*
Y237983D01*
Y237788D01*
Y237592D01*
X650020D01*
Y237788D01*
Y237983D01*
Y238178D01*
Y238373D01*
Y238568D01*
X650215D01*
Y238763D01*
X650411D01*
Y238568D01*
Y238373D01*
Y238178D01*
Y237983D01*
Y237788D01*
Y237592D01*
X650801D01*
Y237788D01*
Y237983D01*
Y238178D01*
Y238373D01*
Y238568D01*
Y238763D01*
Y238959D01*
X650606D01*
Y239154D01*
D02*
G37*
G36*
X649239D02*
X648458D01*
Y238959D01*
X648263D01*
Y238763D01*
Y238568D01*
X648458D01*
Y238373D01*
X648263D01*
Y238178D01*
Y237983D01*
Y237788D01*
X648458D01*
Y237592D01*
X649435D01*
Y237788D01*
Y237983D01*
X649239D01*
Y238178D01*
Y238373D01*
Y238568D01*
Y238763D01*
Y238959D01*
Y239154D01*
D02*
G37*
G36*
X647873D02*
X646897D01*
Y238959D01*
Y238763D01*
Y238568D01*
Y238373D01*
Y238178D01*
Y237983D01*
Y237788D01*
Y237592D01*
X647287D01*
Y237788D01*
Y237983D01*
Y238178D01*
Y238373D01*
Y238568D01*
X647482D01*
Y238763D01*
X647678D01*
Y238568D01*
Y238373D01*
Y238178D01*
Y237983D01*
Y237788D01*
Y237592D01*
X648068D01*
Y237788D01*
Y237983D01*
Y238178D01*
Y238373D01*
Y238568D01*
Y238763D01*
Y238959D01*
X647873D01*
Y239154D01*
D02*
G37*
G36*
X639479D02*
X638698D01*
Y238959D01*
X638503D01*
Y238763D01*
Y238568D01*
X638893D01*
Y238373D01*
X638503D01*
Y238178D01*
Y237983D01*
Y237788D01*
X638698D01*
Y237592D01*
X639674D01*
Y237788D01*
Y237983D01*
X639479D01*
Y238178D01*
Y238373D01*
Y238568D01*
Y238763D01*
Y238959D01*
Y239154D01*
D02*
G37*
G36*
X633427D02*
X632647D01*
Y238959D01*
X632451D01*
Y238763D01*
X632256D01*
Y238568D01*
Y238373D01*
Y238178D01*
Y237983D01*
X632451D01*
Y237788D01*
X632647D01*
Y237592D01*
X633427D01*
Y237788D01*
X633623D01*
Y237983D01*
Y238178D01*
Y238373D01*
Y238568D01*
Y238763D01*
X633427D01*
Y238959D01*
Y239154D01*
D02*
G37*
G36*
X632647Y239740D02*
X630890D01*
Y239544D01*
Y239349D01*
X631475D01*
Y239154D01*
Y238959D01*
Y238763D01*
Y238568D01*
Y238373D01*
Y238178D01*
Y237983D01*
Y237788D01*
Y237592D01*
X632061D01*
Y237788D01*
Y237983D01*
Y238178D01*
Y238373D01*
Y238568D01*
Y238763D01*
Y238959D01*
Y239154D01*
Y239349D01*
X632647D01*
Y239544D01*
Y239740D01*
D02*
G37*
G36*
X652167Y239154D02*
X651191D01*
Y238959D01*
X650996D01*
Y238763D01*
Y238568D01*
Y238373D01*
Y238178D01*
X651191D01*
Y237983D01*
Y237788D01*
X650996D01*
Y237592D01*
Y237397D01*
Y237202D01*
Y237007D01*
X652167D01*
Y237202D01*
Y237397D01*
Y237592D01*
Y237788D01*
X651972D01*
Y237983D01*
Y238178D01*
Y238373D01*
X652167D01*
Y238568D01*
Y238763D01*
Y238959D01*
Y239154D01*
D02*
G37*
G36*
X678130Y236226D02*
X631085D01*
Y236031D01*
Y235835D01*
X678130D01*
Y236031D01*
Y236226D01*
D02*
G37*
G36*
X643773Y235055D02*
X643188D01*
Y234859D01*
X642993D01*
Y234664D01*
Y234469D01*
Y234274D01*
X642797D01*
Y234079D01*
Y233883D01*
X642602D01*
Y234079D01*
X642407D01*
Y234274D01*
Y234469D01*
X642212D01*
Y234664D01*
Y234859D01*
X642017D01*
Y235055D01*
X641431D01*
Y234859D01*
Y234664D01*
X641236D01*
Y234469D01*
Y234274D01*
X641041D01*
Y234079D01*
Y233883D01*
Y233688D01*
X640845D01*
Y233883D01*
Y234079D01*
X640650D01*
Y234274D01*
Y234469D01*
Y234664D01*
X640455D01*
Y234859D01*
Y235055D01*
X639674D01*
Y234859D01*
Y234664D01*
X639869D01*
Y234469D01*
Y234274D01*
X640064D01*
Y234079D01*
Y233883D01*
Y233688D01*
X640260D01*
Y233493D01*
Y233298D01*
X640455D01*
Y233102D01*
Y232907D01*
Y232712D01*
X640650D01*
Y232517D01*
Y232322D01*
X641236D01*
Y232517D01*
Y232712D01*
Y232907D01*
X641431D01*
Y233102D01*
Y233298D01*
X641626D01*
Y233493D01*
Y233688D01*
X641821D01*
Y233493D01*
X642017D01*
Y233298D01*
Y233102D01*
X642212D01*
Y232907D01*
Y232712D01*
X642407D01*
Y232517D01*
Y232322D01*
X642797D01*
Y232517D01*
X642993D01*
Y232712D01*
Y232907D01*
X643188D01*
Y233102D01*
Y233298D01*
Y233493D01*
X643383D01*
Y233688D01*
Y233883D01*
X643578D01*
Y234079D01*
Y234274D01*
X643773D01*
Y234469D01*
Y234664D01*
Y234859D01*
Y235055D01*
D02*
G37*
G36*
X673055D02*
X672469D01*
Y234859D01*
Y234664D01*
Y234469D01*
Y234274D01*
Y234079D01*
Y233883D01*
Y233688D01*
X672274D01*
Y233883D01*
X672079D01*
Y234079D01*
X671883D01*
Y234274D01*
X671688D01*
Y234469D01*
X671493D01*
Y234664D01*
Y234859D01*
X671298D01*
Y235055D01*
X670517D01*
Y234859D01*
Y234664D01*
Y234469D01*
Y234274D01*
Y234079D01*
Y233883D01*
Y233688D01*
Y233493D01*
Y233298D01*
Y233102D01*
Y232907D01*
Y232712D01*
Y232517D01*
Y232322D01*
X671298D01*
Y232517D01*
Y232712D01*
Y232907D01*
Y233102D01*
Y233298D01*
Y233493D01*
Y233688D01*
X671493D01*
Y233493D01*
X671688D01*
Y233298D01*
X671883D01*
Y233102D01*
Y232907D01*
X672079D01*
Y232712D01*
X672274D01*
Y232517D01*
X672469D01*
Y232322D01*
X673055D01*
Y232517D01*
Y232712D01*
Y232907D01*
Y233102D01*
Y233298D01*
Y233493D01*
Y233688D01*
Y233883D01*
Y234079D01*
Y234274D01*
Y234469D01*
Y234664D01*
Y234859D01*
Y235055D01*
D02*
G37*
G36*
X633623D02*
X632842D01*
Y234859D01*
Y234664D01*
Y234469D01*
Y234274D01*
Y234079D01*
Y233883D01*
Y233688D01*
X632647D01*
Y233883D01*
X632451D01*
Y234079D01*
X632256D01*
Y234274D01*
Y234469D01*
X632061D01*
Y234664D01*
X631866D01*
Y234859D01*
X631671D01*
Y235055D01*
X631085D01*
Y234859D01*
Y234664D01*
Y234469D01*
Y234274D01*
Y234079D01*
Y233883D01*
Y233688D01*
Y233493D01*
Y233298D01*
Y233102D01*
Y232907D01*
Y232712D01*
Y232517D01*
Y232322D01*
X631671D01*
Y232517D01*
Y232712D01*
Y232907D01*
Y233102D01*
Y233298D01*
Y233493D01*
Y233688D01*
X631866D01*
Y233493D01*
X632061D01*
Y233298D01*
X632256D01*
Y233102D01*
X632451D01*
Y232907D01*
X632647D01*
Y232712D01*
Y232517D01*
X632842D01*
Y232322D01*
X633623D01*
Y232517D01*
Y232712D01*
Y232907D01*
Y233102D01*
Y233298D01*
Y233493D01*
Y233688D01*
Y233883D01*
Y234079D01*
Y234274D01*
Y234469D01*
Y234664D01*
Y234859D01*
Y235055D01*
D02*
G37*
G36*
X677154D02*
X675397D01*
Y234859D01*
Y234664D01*
Y234469D01*
Y234274D01*
Y234079D01*
Y233883D01*
Y233688D01*
Y233493D01*
Y233298D01*
Y233102D01*
Y232907D01*
Y232712D01*
Y232517D01*
Y232322D01*
X677349D01*
Y232517D01*
X677544D01*
Y232712D01*
X677740D01*
Y232907D01*
X677935D01*
Y233102D01*
Y233298D01*
X678130D01*
Y233493D01*
Y233688D01*
Y233883D01*
X677935D01*
Y234079D01*
Y234274D01*
Y234469D01*
X677740D01*
Y234664D01*
X677544D01*
Y234859D01*
X677154D01*
Y235055D01*
D02*
G37*
G36*
X667394D02*
X666808D01*
Y234859D01*
X666613D01*
Y234664D01*
Y234469D01*
X666418D01*
Y234274D01*
Y234079D01*
X666222D01*
Y233883D01*
Y233688D01*
Y233493D01*
X666027D01*
Y233298D01*
Y233102D01*
X665832D01*
Y232907D01*
Y232712D01*
Y232517D01*
X665637D01*
Y232322D01*
X666418D01*
Y232517D01*
X666613D01*
Y232712D01*
Y232907D01*
X667589D01*
Y232712D01*
Y232517D01*
X667784D01*
Y232322D01*
X668565D01*
Y232517D01*
Y232712D01*
X668370D01*
Y232907D01*
Y233102D01*
X668174D01*
Y233298D01*
Y233493D01*
X667979D01*
Y233688D01*
Y233883D01*
X667784D01*
Y234079D01*
Y234274D01*
Y234469D01*
X667589D01*
Y234664D01*
Y234859D01*
X667394D01*
Y235055D01*
D02*
G37*
G36*
X662709D02*
X661928D01*
Y234859D01*
Y234664D01*
Y234469D01*
Y234274D01*
Y234079D01*
Y233883D01*
Y233688D01*
Y233493D01*
Y233298D01*
Y233102D01*
Y232907D01*
Y232712D01*
Y232517D01*
Y232322D01*
X663880D01*
Y232517D01*
Y232712D01*
Y232907D01*
X662709D01*
Y233102D01*
Y233298D01*
Y233493D01*
Y233688D01*
Y233883D01*
Y234079D01*
Y234274D01*
Y234469D01*
Y234664D01*
Y234859D01*
Y235055D01*
D02*
G37*
G36*
X658804D02*
X658024D01*
Y234859D01*
Y234664D01*
Y234469D01*
X657828D01*
Y234274D01*
Y234079D01*
X657633D01*
Y233883D01*
Y233688D01*
Y233493D01*
X657438D01*
Y233298D01*
Y233102D01*
X657243D01*
Y232907D01*
Y232712D01*
X657048D01*
Y232517D01*
Y232322D01*
X657828D01*
Y232517D01*
Y232712D01*
X658024D01*
Y232907D01*
X659000D01*
Y232712D01*
Y232517D01*
X659195D01*
Y232322D01*
X659976D01*
Y232517D01*
X659781D01*
Y232712D01*
Y232907D01*
X659585D01*
Y233102D01*
Y233298D01*
Y233493D01*
X659390D01*
Y233688D01*
Y233883D01*
X659195D01*
Y234079D01*
Y234274D01*
X659000D01*
Y234469D01*
Y234664D01*
Y234859D01*
X658804D01*
Y235055D01*
D02*
G37*
G36*
X655095D02*
X653339D01*
Y234859D01*
Y234664D01*
Y234469D01*
Y234274D01*
Y234079D01*
Y233883D01*
Y233688D01*
Y233493D01*
Y233298D01*
Y233102D01*
Y232907D01*
Y232712D01*
Y232517D01*
Y232322D01*
X655095D01*
Y232517D01*
Y232712D01*
Y232907D01*
X653924D01*
Y233102D01*
Y233298D01*
X655095D01*
Y233493D01*
Y233688D01*
Y233883D01*
X653924D01*
Y234079D01*
Y234274D01*
Y234469D01*
X655095D01*
Y234664D01*
Y234859D01*
Y235055D01*
D02*
G37*
G36*
X651191D02*
X648849D01*
Y234859D01*
Y234664D01*
Y234469D01*
X650020D01*
Y234274D01*
X649825D01*
Y234079D01*
X649630D01*
Y233883D01*
Y233688D01*
X649435D01*
Y233493D01*
X649239D01*
Y233298D01*
Y233102D01*
X649044D01*
Y232907D01*
X648849D01*
Y232712D01*
X648654D01*
Y232517D01*
Y232322D01*
X651191D01*
Y232517D01*
Y232712D01*
Y232907D01*
X649825D01*
Y233102D01*
X650020D01*
Y233298D01*
X650215D01*
Y233493D01*
Y233688D01*
X650411D01*
Y233883D01*
X650606D01*
Y234079D01*
X650801D01*
Y234274D01*
Y234469D01*
X650996D01*
Y234664D01*
X651191D01*
Y234859D01*
Y235055D01*
D02*
G37*
G36*
X637722D02*
X635965D01*
Y234859D01*
Y234664D01*
Y234469D01*
Y234274D01*
Y234079D01*
Y233883D01*
Y233688D01*
Y233493D01*
Y233298D01*
Y233102D01*
Y232907D01*
Y232712D01*
Y232517D01*
Y232322D01*
X637722D01*
Y232517D01*
Y232712D01*
Y232907D01*
X636551D01*
Y233102D01*
Y233298D01*
X637722D01*
Y233493D01*
Y233688D01*
Y233883D01*
X636551D01*
Y234079D01*
Y234274D01*
Y234469D01*
X637722D01*
Y234664D01*
Y234859D01*
Y235055D01*
D02*
G37*
%LPD*%
G36*
X658024Y272925D02*
Y272730D01*
X657828D01*
Y272925D01*
Y273120D01*
X658024D01*
Y272925D01*
D02*
G37*
G36*
X652167D02*
Y272730D01*
X651972D01*
Y272925D01*
Y273120D01*
X652167D01*
Y272925D01*
D02*
G37*
G36*
X650020Y275267D02*
X650411D01*
Y275072D01*
X650606D01*
Y274877D01*
X650801D01*
Y274682D01*
X650996D01*
Y274487D01*
Y274291D01*
X651191D01*
Y274096D01*
Y273901D01*
Y273706D01*
Y273511D01*
Y273315D01*
X650996D01*
Y273120D01*
Y272925D01*
X650801D01*
Y272730D01*
X650411D01*
Y272534D01*
Y272339D01*
Y272144D01*
Y271949D01*
Y271754D01*
Y271558D01*
X650020D01*
Y271754D01*
X650215D01*
Y271949D01*
Y272144D01*
Y272339D01*
X650020D01*
Y272534D01*
X649825D01*
Y272339D01*
X649435D01*
Y272144D01*
Y271949D01*
X648849D01*
Y272144D01*
X649044D01*
Y272339D01*
X649239D01*
Y272534D01*
X649630D01*
Y272730D01*
X649825D01*
Y272925D01*
Y273120D01*
X650215D01*
Y273315D01*
X650411D01*
Y273511D01*
X650606D01*
Y273706D01*
Y273901D01*
Y274096D01*
Y274291D01*
Y274487D01*
Y274682D01*
X650411D01*
Y274877D01*
X650215D01*
Y275072D01*
X650020D01*
Y275267D01*
X649435D01*
Y275463D01*
X650020D01*
Y275267D01*
D02*
G37*
G36*
X661928D02*
X662318D01*
Y275072D01*
X662513D01*
Y274877D01*
X662709D01*
Y274682D01*
X662904D01*
Y274487D01*
Y274291D01*
Y274096D01*
X663099D01*
Y273901D01*
Y273706D01*
Y273511D01*
X662904D01*
Y273315D01*
Y273120D01*
Y272925D01*
X662709D01*
Y272730D01*
X662318D01*
Y272534D01*
X662123D01*
Y272339D01*
X662318D01*
Y272144D01*
Y271949D01*
Y271754D01*
Y271558D01*
Y271363D01*
X662123D01*
Y271558D01*
X661928D01*
Y271754D01*
X662123D01*
Y271949D01*
Y272144D01*
X661928D01*
Y272339D01*
Y272534D01*
X661537D01*
Y272339D01*
X661342D01*
Y272144D01*
X661147D01*
Y271949D01*
X660756D01*
Y272144D01*
X660952D01*
Y272339D01*
X661147D01*
Y272534D01*
X661342D01*
Y272730D01*
X661733D01*
Y272925D01*
Y273120D01*
X662123D01*
Y273315D01*
X662318D01*
Y273511D01*
X662513D01*
Y273706D01*
Y273901D01*
Y274096D01*
Y274291D01*
Y274487D01*
X662318D01*
Y274682D01*
Y274877D01*
X662123D01*
Y275072D01*
X661733D01*
Y275267D01*
X661342D01*
Y275463D01*
X661928D01*
Y275267D01*
D02*
G37*
G36*
X660756Y271754D02*
X660561D01*
Y271558D01*
X660171D01*
Y271363D01*
X659976D01*
Y271558D01*
Y271754D01*
X660366D01*
Y271949D01*
X660756D01*
Y271754D01*
D02*
G37*
G36*
X656072Y275267D02*
X656462D01*
Y275072D01*
X656657D01*
Y274877D01*
X656852D01*
Y274682D01*
Y274487D01*
X657048D01*
Y274291D01*
Y274096D01*
Y273901D01*
Y273706D01*
Y273511D01*
Y273315D01*
Y273120D01*
X656852D01*
Y272925D01*
X656657D01*
Y272730D01*
X656462D01*
Y272534D01*
X656267D01*
Y272339D01*
Y272144D01*
X656462D01*
Y271949D01*
Y271754D01*
X656267D01*
Y271558D01*
X656072D01*
Y271363D01*
X655876D01*
Y271558D01*
Y271754D01*
X656072D01*
Y271949D01*
Y272144D01*
Y272339D01*
Y272534D01*
X655681D01*
Y272339D01*
X655486D01*
Y272144D01*
X655291D01*
Y271949D01*
X654900D01*
Y271754D01*
X654510D01*
Y271949D01*
X654705D01*
Y272144D01*
X654900D01*
Y272339D01*
X655291D01*
Y272534D01*
X655486D01*
Y272730D01*
X655681D01*
Y272925D01*
X655876D01*
Y273120D01*
X656072D01*
Y273315D01*
X656462D01*
Y273511D01*
Y273706D01*
X656657D01*
Y273901D01*
Y274096D01*
Y274291D01*
X656462D01*
Y274487D01*
Y274682D01*
Y274877D01*
X656072D01*
Y275072D01*
X655876D01*
Y275267D01*
X655486D01*
Y275463D01*
X656072D01*
Y275267D01*
D02*
G37*
G36*
X654510Y271558D02*
X654315D01*
Y271363D01*
X654119D01*
Y271558D01*
X653924D01*
Y271754D01*
X654510D01*
Y271558D01*
D02*
G37*
G36*
X648654D02*
X648458D01*
Y271363D01*
X648263D01*
Y271558D01*
X648068D01*
Y271754D01*
X648654D01*
Y271558D01*
D02*
G37*
G36*
X645725Y270778D02*
X646701D01*
Y270582D01*
X647092D01*
Y270387D01*
X647482D01*
Y270192D01*
X648263D01*
Y269997D01*
X649044D01*
Y270192D01*
X649825D01*
Y270387D01*
X650215D01*
Y270582D01*
X650606D01*
Y270778D01*
X652558D01*
Y270582D01*
X652948D01*
Y270387D01*
X653339D01*
Y270192D01*
X654119D01*
Y269997D01*
X655095D01*
Y270192D01*
X655876D01*
Y270387D01*
X656267D01*
Y270582D01*
X656657D01*
Y270778D01*
X658609D01*
Y270582D01*
X659000D01*
Y270387D01*
X659390D01*
Y270192D01*
X660171D01*
Y269997D01*
X660952D01*
Y270192D01*
X661733D01*
Y270387D01*
X662123D01*
Y270582D01*
X662513D01*
Y270778D01*
X663685D01*
Y270582D01*
Y270387D01*
Y270192D01*
Y269997D01*
Y269802D01*
Y269606D01*
Y269411D01*
Y269216D01*
Y269021D01*
Y268826D01*
Y268630D01*
Y268435D01*
Y268240D01*
Y268045D01*
Y267849D01*
Y267654D01*
Y267459D01*
Y267264D01*
Y267069D01*
Y266874D01*
Y266678D01*
X663489D01*
Y266483D01*
Y266288D01*
Y266093D01*
Y265897D01*
Y265702D01*
X663294D01*
Y265507D01*
Y265312D01*
Y265117D01*
Y264921D01*
X663099D01*
Y264726D01*
Y264531D01*
Y264336D01*
X662904D01*
Y264141D01*
Y263945D01*
Y263750D01*
X662709D01*
Y263555D01*
Y263360D01*
X662513D01*
Y263164D01*
Y262969D01*
X662318D01*
Y262774D01*
Y262579D01*
X662123D01*
Y262384D01*
Y262189D01*
X661928D01*
Y261993D01*
Y261798D01*
X661733D01*
Y261603D01*
Y261408D01*
X661537D01*
Y261212D01*
X661342D01*
Y261017D01*
Y260822D01*
X661147D01*
Y260627D01*
X660952D01*
Y260432D01*
X660756D01*
Y260236D01*
Y260041D01*
X660561D01*
Y259846D01*
X660366D01*
Y259651D01*
X660171D01*
Y259456D01*
X659976D01*
Y259260D01*
X659781D01*
Y259065D01*
X659585D01*
Y258870D01*
X659390D01*
Y258675D01*
X659195D01*
Y258480D01*
X659000D01*
Y258284D01*
X658804D01*
Y258089D01*
X658414D01*
Y257894D01*
X658219D01*
Y257699D01*
X658024D01*
Y257504D01*
X657633D01*
Y257308D01*
X657438D01*
Y257113D01*
X657048D01*
Y256918D01*
X656852D01*
Y256723D01*
X656462D01*
Y256527D01*
X656072D01*
Y256332D01*
X655876D01*
Y256527D01*
Y256723D01*
X655681D01*
Y256918D01*
Y257113D01*
Y257308D01*
X655486D01*
Y257504D01*
Y257699D01*
Y257894D01*
X655681D01*
Y258089D01*
X656072D01*
Y258284D01*
X656267D01*
Y258480D01*
X656462D01*
Y258675D01*
X655095D01*
Y258870D01*
Y259065D01*
Y259260D01*
X654900D01*
Y259456D01*
Y259651D01*
Y259846D01*
X654705D01*
Y260041D01*
X654510D01*
Y259846D01*
X654315D01*
Y259651D01*
Y259456D01*
Y259260D01*
X654119D01*
Y259065D01*
Y258870D01*
Y258675D01*
X652753D01*
Y258480D01*
X652948D01*
Y258284D01*
X653143D01*
Y258089D01*
X653534D01*
Y257894D01*
X653729D01*
Y257699D01*
Y257504D01*
Y257308D01*
X653534D01*
Y257113D01*
Y256918D01*
Y256723D01*
X653339D01*
Y256527D01*
Y256332D01*
X653143D01*
Y256527D01*
X652753D01*
Y256723D01*
X652363D01*
Y256918D01*
X652167D01*
Y257113D01*
X651777D01*
Y257308D01*
X651582D01*
Y257504D01*
X651191D01*
Y257699D01*
X650996D01*
Y257894D01*
X650801D01*
Y258089D01*
X650411D01*
Y258284D01*
X650215D01*
Y258480D01*
X650020D01*
Y258675D01*
X649825D01*
Y258870D01*
X649630D01*
Y259065D01*
X649435D01*
Y259260D01*
X649239D01*
Y259456D01*
X649044D01*
Y259651D01*
X648849D01*
Y259846D01*
X648654D01*
Y260041D01*
Y260236D01*
X648458D01*
Y260432D01*
X648263D01*
Y260627D01*
X648068D01*
Y260822D01*
X647873D01*
Y261017D01*
Y261212D01*
X647678D01*
Y261408D01*
X647482D01*
Y261603D01*
Y261798D01*
X647287D01*
Y261993D01*
Y262189D01*
X647092D01*
Y262384D01*
Y262579D01*
X646897D01*
Y262774D01*
Y262969D01*
X646701D01*
Y263164D01*
Y263360D01*
X646506D01*
Y263555D01*
Y263750D01*
X646311D01*
Y263945D01*
Y264141D01*
Y264336D01*
X646116D01*
Y264531D01*
Y264726D01*
Y264921D01*
X645921D01*
Y265117D01*
Y265312D01*
Y265507D01*
Y265702D01*
X645725D01*
Y265897D01*
Y266093D01*
Y266288D01*
Y266483D01*
Y266678D01*
Y266874D01*
X645530D01*
Y267069D01*
Y267264D01*
Y267459D01*
Y267654D01*
Y267849D01*
Y268045D01*
Y268240D01*
Y268435D01*
Y268630D01*
Y268826D01*
Y269021D01*
Y269216D01*
Y269411D01*
Y269606D01*
Y269802D01*
Y269997D01*
Y270192D01*
Y270387D01*
Y270582D01*
Y270778D01*
Y270973D01*
X645725D01*
Y270778D01*
D02*
G37*
G36*
X654900Y256918D02*
X655095D01*
Y256723D01*
X655291D01*
Y256527D01*
X655681D01*
Y256332D01*
Y256137D01*
X655291D01*
Y255942D01*
X654900D01*
Y255747D01*
X654315D01*
Y255942D01*
X653924D01*
Y256137D01*
X653534D01*
Y256332D01*
X653729D01*
Y256527D01*
X653924D01*
Y256723D01*
X654119D01*
Y256918D01*
X654510D01*
Y257113D01*
X654900D01*
Y256918D01*
D02*
G37*
%LPC*%
G36*
X658414Y270582D02*
X658024D01*
Y270387D01*
Y270192D01*
Y269997D01*
X657828D01*
Y269802D01*
Y269606D01*
Y269411D01*
Y269216D01*
X656267D01*
Y269021D01*
X656462D01*
Y268826D01*
X656852D01*
Y268630D01*
X657048D01*
Y268435D01*
X657243D01*
Y268240D01*
X657438D01*
Y268045D01*
X657243D01*
Y267849D01*
Y267654D01*
Y267459D01*
X657048D01*
Y267264D01*
Y267069D01*
Y266874D01*
X657438D01*
Y267069D01*
X657633D01*
Y267264D01*
X657828D01*
Y267459D01*
X658024D01*
Y267654D01*
X658414D01*
Y267459D01*
X658609D01*
Y267264D01*
X658804D01*
Y267069D01*
X659195D01*
Y266874D01*
X659390D01*
Y267069D01*
Y267264D01*
Y267459D01*
Y267654D01*
X659195D01*
Y267849D01*
Y268045D01*
Y268240D01*
Y268435D01*
X659390D01*
Y268630D01*
X659781D01*
Y268826D01*
X659976D01*
Y269021D01*
X660171D01*
Y269216D01*
X658804D01*
Y269411D01*
X658609D01*
Y269606D01*
Y269802D01*
Y269997D01*
X658414D01*
Y270192D01*
Y270387D01*
Y270582D01*
D02*
G37*
G36*
X651191D02*
X650801D01*
Y270387D01*
Y270192D01*
Y269997D01*
X650606D01*
Y269802D01*
Y269606D01*
Y269411D01*
X650411D01*
Y269216D01*
X649044D01*
Y269021D01*
X649239D01*
Y268826D01*
X649435D01*
Y268630D01*
X649825D01*
Y268435D01*
X650020D01*
Y268240D01*
Y268045D01*
Y267849D01*
Y267654D01*
Y267459D01*
X649825D01*
Y267264D01*
Y267069D01*
Y266874D01*
X650020D01*
Y267069D01*
X650411D01*
Y267264D01*
X650606D01*
Y267459D01*
X650801D01*
Y267654D01*
X650996D01*
Y267459D01*
X651386D01*
Y267264D01*
X651582D01*
Y267069D01*
X651777D01*
Y266874D01*
X652167D01*
Y267069D01*
Y267264D01*
Y267459D01*
X651972D01*
Y267654D01*
Y267849D01*
Y268045D01*
X651777D01*
Y268240D01*
X651972D01*
Y268435D01*
X652167D01*
Y268630D01*
X652558D01*
Y268826D01*
X652753D01*
Y269021D01*
X652948D01*
Y269216D01*
X651582D01*
Y269411D01*
X651386D01*
Y269606D01*
Y269802D01*
Y269997D01*
X651191D01*
Y270192D01*
Y270387D01*
Y270582D01*
D02*
G37*
G36*
X657243Y266678D02*
X655291D01*
Y266483D01*
X654900D01*
Y266288D01*
X654315D01*
Y266483D01*
X653924D01*
Y266678D01*
X651972D01*
Y266483D01*
X651386D01*
Y266288D01*
X649630D01*
Y266093D01*
X649239D01*
Y265897D01*
X648654D01*
Y266093D01*
X648458D01*
Y265897D01*
X648263D01*
Y265702D01*
Y265507D01*
Y265312D01*
Y265117D01*
Y264921D01*
Y264726D01*
Y264531D01*
Y264336D01*
Y264141D01*
Y263945D01*
Y263750D01*
Y263555D01*
X649044D01*
Y263360D01*
X648263D01*
Y263164D01*
Y262969D01*
Y262774D01*
Y262579D01*
Y262384D01*
Y262189D01*
Y261993D01*
Y261798D01*
Y261603D01*
X649239D01*
Y261408D01*
X649435D01*
Y261212D01*
X650020D01*
Y261017D01*
X651582D01*
Y261212D01*
X651972D01*
Y261408D01*
X652363D01*
Y261603D01*
X653534D01*
Y261408D01*
X653729D01*
Y261212D01*
X653534D01*
Y261017D01*
Y260822D01*
X653729D01*
Y260627D01*
X655486D01*
Y260822D01*
X655681D01*
Y261017D01*
Y261212D01*
X655486D01*
Y261408D01*
X655681D01*
Y261603D01*
X656852D01*
Y261408D01*
X657243D01*
Y261212D01*
X657633D01*
Y261017D01*
X659195D01*
Y261212D01*
X659781D01*
Y261408D01*
X660171D01*
Y261603D01*
X660952D01*
Y261798D01*
Y261993D01*
Y262189D01*
Y262384D01*
Y262579D01*
Y262774D01*
Y262969D01*
Y263164D01*
Y263360D01*
X660171D01*
Y263555D01*
X660952D01*
Y263750D01*
Y263945D01*
Y264141D01*
Y264336D01*
Y264531D01*
Y264726D01*
Y264921D01*
Y265117D01*
Y265312D01*
Y265507D01*
Y265702D01*
Y265897D01*
X660756D01*
Y266093D01*
X660561D01*
Y265897D01*
X660171D01*
Y266093D01*
X659781D01*
Y266288D01*
X657828D01*
Y266483D01*
X657243D01*
Y266678D01*
D02*
G37*
%LPD*%
G36*
X660366Y264726D02*
Y264531D01*
X660171D01*
Y264726D01*
Y264921D01*
X660366D01*
Y264726D01*
D02*
G37*
G36*
X649044D02*
Y264531D01*
X648849D01*
Y264726D01*
Y264921D01*
X649044D01*
Y264726D01*
D02*
G37*
G36*
X660366Y262189D02*
Y261993D01*
X660171D01*
Y262189D01*
Y262384D01*
X660366D01*
Y262189D01*
D02*
G37*
G36*
X649044D02*
Y261993D01*
X648849D01*
Y262189D01*
Y262384D01*
X649044D01*
Y262189D01*
D02*
G37*
G36*
X674226Y251257D02*
X674421D01*
Y251062D01*
Y250867D01*
X674616D01*
Y250671D01*
Y250476D01*
Y250281D01*
Y250086D01*
Y249890D01*
X674421D01*
Y249695D01*
Y249500D01*
X674031D01*
Y249305D01*
X673250D01*
Y249500D01*
X672859D01*
Y249695D01*
Y249890D01*
X672664D01*
Y250086D01*
Y250281D01*
Y250476D01*
Y250671D01*
Y250867D01*
Y251062D01*
X672859D01*
Y251257D01*
X673055D01*
Y251452D01*
X674226D01*
Y251257D01*
D02*
G37*
G36*
X658414Y251452D02*
X658804D01*
Y251257D01*
Y251062D01*
Y250867D01*
X658219D01*
Y251062D01*
Y251257D01*
Y251452D01*
Y251647D01*
X658414D01*
Y251452D01*
D02*
G37*
G36*
X675202Y245986D02*
X675983D01*
Y245791D01*
X676373D01*
Y245596D01*
X676568D01*
Y245401D01*
Y245205D01*
X676764D01*
Y245010D01*
Y244815D01*
X676959D01*
Y244620D01*
Y244425D01*
Y244229D01*
Y244034D01*
Y243839D01*
Y243644D01*
Y243448D01*
X676764D01*
Y243253D01*
Y243058D01*
X676568D01*
Y242863D01*
Y242668D01*
X676373D01*
Y242473D01*
X675983D01*
Y242277D01*
X675592D01*
Y242082D01*
X674031D01*
Y242277D01*
Y242473D01*
Y242668D01*
Y242863D01*
Y243058D01*
Y243253D01*
Y243448D01*
Y243644D01*
Y243839D01*
Y244034D01*
Y244229D01*
Y244425D01*
Y244620D01*
Y244815D01*
Y245010D01*
Y245205D01*
Y245401D01*
Y245596D01*
Y245791D01*
Y245986D01*
Y246182D01*
X675202D01*
Y245986D01*
D02*
G37*
G36*
X662513Y244815D02*
Y244620D01*
Y244425D01*
X662709D01*
Y244229D01*
Y244034D01*
X662904D01*
Y243839D01*
X661928D01*
Y244034D01*
Y244229D01*
X662123D01*
Y244425D01*
Y244620D01*
Y244815D01*
X662318D01*
Y245010D01*
X662513D01*
Y244815D01*
D02*
G37*
G36*
X633818D02*
X634013D01*
Y244620D01*
Y244425D01*
Y244229D01*
X634208D01*
Y244034D01*
Y243839D01*
X633232D01*
Y244034D01*
X633427D01*
Y244229D01*
Y244425D01*
X633623D01*
Y244620D01*
Y244815D01*
Y245010D01*
X633818D01*
Y244815D01*
D02*
G37*
G36*
X655291Y238568D02*
X655486D01*
Y238373D01*
Y238178D01*
X655291D01*
Y237983D01*
X655095D01*
Y238178D01*
X654900D01*
Y238373D01*
Y238568D01*
X655095D01*
Y238763D01*
X655291D01*
Y238568D01*
D02*
G37*
G36*
X676764Y234274D02*
X677154D01*
Y234079D01*
X677349D01*
Y233883D01*
Y233688D01*
Y233493D01*
Y233298D01*
X677154D01*
Y233102D01*
X676959D01*
Y232907D01*
X676178D01*
Y233102D01*
Y233298D01*
Y233493D01*
Y233688D01*
Y233883D01*
Y234079D01*
Y234274D01*
Y234469D01*
X676764D01*
Y234274D01*
D02*
G37*
G36*
X667198Y233688D02*
Y233493D01*
X667003D01*
Y233688D01*
Y233883D01*
X667198D01*
Y233688D01*
D02*
G37*
G36*
X658609D02*
Y233493D01*
X658219D01*
Y233688D01*
X658414D01*
Y233883D01*
X658609D01*
Y233688D01*
D02*
G37*
D10*
X419079Y282988D02*
X418340Y283414D01*
Y282562D01*
X419079Y282988D01*
X576894Y333653D02*
X576156Y334080D01*
Y333227D01*
X576894Y333653D01*
X434492D02*
X433754Y334080D01*
Y333227D01*
X434492Y333653D01*
X526236Y186004D02*
X525498Y186430D01*
Y185578D01*
X526236Y186004D01*
D11*
X396000Y296000D02*
X395898Y297007D01*
X395595Y297972D01*
X395104Y298856D01*
X394445Y299624D01*
X393645Y300243D01*
X392737Y300689D01*
X391757Y300942D01*
X390747Y300994D01*
X389747Y300840D01*
X388798Y300489D01*
X387940Y299954D01*
X387206Y299257D01*
X386628Y298427D01*
X386229Y297497D01*
X386026Y296506D01*
Y295494D01*
X386229Y294503D01*
X386628Y293573D01*
X387206Y292743D01*
X387940Y292046D01*
X388798Y291511D01*
X389747Y291160D01*
X390747Y291006D01*
X391757Y291058D01*
X392737Y291311D01*
X393645Y291757D01*
X394445Y292376D01*
X395104Y293144D01*
X395595Y294028D01*
X395898Y294993D01*
X396000Y296000D01*
Y282000D02*
X395898Y283007D01*
X395595Y283972D01*
X395104Y284856D01*
X394445Y285624D01*
X393645Y286243D01*
X392737Y286689D01*
X391757Y286942D01*
X390747Y286994D01*
X389747Y286840D01*
X388798Y286489D01*
X387940Y285954D01*
X387206Y285257D01*
X386628Y284426D01*
X386229Y283497D01*
X386026Y282506D01*
Y281494D01*
X386229Y280503D01*
X386628Y279573D01*
X387206Y278743D01*
X387940Y278046D01*
X388798Y277511D01*
X389747Y277160D01*
X390747Y277006D01*
X391757Y277058D01*
X392737Y277311D01*
X393645Y277757D01*
X394445Y278376D01*
X395104Y279144D01*
X395595Y280028D01*
X395898Y280994D01*
X396000Y282000D01*
X497410Y328360D02*
X504710Y328380D01*
X489638Y336000D02*
X494362D01*
X519016Y594067D02*
X520984D01*
X519016Y614933D02*
X520984D01*
X477016Y641933D02*
X478984D01*
X477016Y621067D02*
X478984D01*
X519016Y641933D02*
X520984D01*
X519016Y621067D02*
X520984D01*
X646047Y405125D02*
Y408275D01*
X651953Y405125D02*
Y408275D01*
X651063Y434425D02*
Y437575D01*
X658937Y434425D02*
Y437575D01*
X425772Y269898D02*
Y282102D01*
X422228Y269898D02*
Y282102D01*
Y269898D02*
X425772D01*
X422228Y282102D02*
X425772D01*
X421425Y291937D02*
X424575D01*
X421425Y284063D02*
X424575D01*
X488937Y239425D02*
Y242575D01*
X481063Y239425D02*
Y242575D01*
X562016Y641933D02*
X563984D01*
X562016Y621067D02*
X563984D01*
X435063Y281425D02*
Y284575D01*
X442937Y281425D02*
Y284575D01*
X473638Y218000D02*
X478362D01*
X455638D02*
X460362D01*
X436638D02*
X441362D01*
X436638Y241000D02*
X441362D01*
X461937Y239425D02*
Y242575D01*
X454063Y239425D02*
Y242575D01*
X473638Y241000D02*
X478362D01*
X464638D02*
X469362D01*
X444063Y239425D02*
Y242575D01*
X451937Y239425D02*
Y242575D01*
X521063Y265425D02*
Y268575D01*
X528937Y265425D02*
Y268575D01*
X530638Y267000D02*
X535362D01*
X400833Y235000D02*
X420000D01*
X390000D02*
X420000D01*
X390000Y255000D02*
X420000D01*
X390000Y235000D02*
Y255000D01*
X420000Y235000D02*
Y255000D01*
X561425Y462453D02*
X564575D01*
X561425Y456547D02*
X564575D01*
X571973Y334874D02*
Y369126D01*
X559374Y334874D02*
Y369126D01*
Y334874D02*
X571973D01*
X559374Y369126D02*
X571973D01*
X583000Y326638D02*
Y331362D01*
X562650Y387606D02*
Y388394D01*
X556153Y387606D02*
Y388394D01*
X574650Y387606D02*
Y388394D01*
X568153Y387606D02*
Y388394D01*
X588827Y343937D02*
X591976D01*
X588827Y336063D02*
X591976D01*
X413752Y387606D02*
Y388394D01*
X420248Y387606D02*
Y388394D01*
X446425Y343937D02*
X449575D01*
X446425Y336063D02*
X449575D01*
X448000Y327638D02*
Y332362D01*
X418425Y462453D02*
X421575D01*
X418425Y456547D02*
X421575D01*
X519925Y231937D02*
X523075D01*
X519925Y224063D02*
X523075D01*
X510000Y234000D02*
Y244000D01*
X550000D01*
X510000Y234000D02*
X550000D01*
Y244000D01*
X518425Y200937D02*
X521575D01*
X518425Y193063D02*
X521575D01*
X495000Y194638D02*
Y199362D01*
X412638Y227000D02*
X417362D01*
X427937Y225425D02*
Y228575D01*
X420063Y225425D02*
Y228575D01*
X435063Y267425D02*
Y270575D01*
X442937Y267425D02*
Y270575D01*
X387425Y257063D02*
X390575D01*
X387425Y264937D02*
X390575D01*
X618638Y386000D02*
X623362D01*
X608638D02*
X613362D01*
X464063Y297425D02*
Y300575D01*
X471937Y297425D02*
Y300575D01*
X454984Y301543D02*
X459709D01*
X452425Y285787D02*
X455575D01*
X452425Y293661D02*
X455575D01*
X528425Y285937D02*
X531575D01*
X528425Y278063D02*
X531575D01*
X432248Y387606D02*
Y388394D01*
X425752Y387606D02*
Y388394D01*
X429571Y334874D02*
Y369126D01*
X416972Y334874D02*
Y369126D01*
Y334874D02*
X429571D01*
X416972Y369126D02*
X429571D01*
X523850Y181000D02*
Y191000D01*
X490150D02*
X523850D01*
X490150Y181000D02*
Y191000D01*
Y181000D02*
X523850D01*
X580000Y212000D02*
Y222000D01*
X510000Y212000D02*
X580000D01*
X510000D02*
Y222000D01*
X580000D01*
X521063Y299425D02*
Y302575D01*
X528937Y299425D02*
Y302575D01*
X543063Y281425D02*
Y284575D01*
X550937Y281425D02*
Y284575D01*
D12*
X513698Y268858D02*
X512863Y269340D01*
Y268376D01*
X513698Y268858D01*
D13*
X569216Y338811D02*
X568772Y339734D01*
X567773Y339963D01*
X566971Y339323D01*
Y338299D01*
X567773Y337660D01*
X568772Y337888D01*
X569216Y338811D01*
X426815D02*
X426370Y339734D01*
X425371Y339963D01*
X424570Y339323D01*
Y338299D01*
X425371Y337660D01*
X426370Y337888D01*
X426815Y338811D01*
D14*
X450299Y360032D02*
Y363968D01*
X437701Y360032D02*
Y363968D01*
X654000Y368700D02*
Y391700D01*
Y368700D02*
X684000D01*
Y414700D01*
X654000D02*
X684000D01*
X654000Y391700D02*
Y414700D01*
X688205Y509028D02*
Y549972D01*
X663795Y509028D02*
X688205D01*
X663795D02*
Y549972D01*
X688205D01*
X658000Y457500D02*
Y474500D01*
X636000Y457500D02*
X637000D01*
X636000Y474500D02*
X637000D01*
X657000D02*
X658000D01*
X657000Y457500D02*
X658000D01*
X636000D02*
Y474500D01*
X590400Y424526D02*
X593900D01*
Y452872D01*
X590400D02*
X593900D01*
X568195D02*
X570400D01*
X567014D02*
X568195D01*
X567014Y424526D02*
Y452872D01*
Y424526D02*
X570400D01*
X482433Y298386D02*
Y299567D01*
X483614D01*
X510386Y299567D02*
X511567D01*
Y298386D02*
Y299567D01*
X482433Y270433D02*
Y271614D01*
Y270433D02*
X483614D01*
X510386D02*
X511567D01*
Y271614D01*
X557000Y452074D02*
X560386D01*
Y423728D02*
Y452074D01*
X559205Y423728D02*
X560386D01*
X557000D02*
X559205D01*
X533500D02*
X537000D01*
X533500D02*
Y452074D01*
X537000D01*
X538803Y327638D02*
Y332362D01*
X551299Y344032D02*
Y347969D01*
X538701Y344032D02*
Y347969D01*
X581102Y360032D02*
Y363968D01*
X593701Y360032D02*
Y363968D01*
X584299Y467031D02*
Y470968D01*
X571701Y467031D02*
Y470968D01*
X598299Y467031D02*
Y470968D01*
X585701Y467031D02*
Y470968D01*
X448000Y424526D02*
X451500D01*
Y452872D01*
X448000D02*
X451500D01*
X425795D02*
X428000D01*
X424614D02*
X425795D01*
X424614Y424526D02*
Y452872D01*
Y424526D02*
X428000D01*
X440299Y467031D02*
Y470968D01*
X427701Y467031D02*
Y470968D01*
X455299Y467031D02*
Y470968D01*
X442701Y467031D02*
Y470968D01*
X391100Y452074D02*
X394600D01*
X391100Y423728D02*
Y452074D01*
Y423728D02*
X394600D01*
X414600D02*
X416805D01*
X417986D01*
Y452074D01*
X414600D02*
X417986D01*
X679032Y416701D02*
X682969D01*
X679032Y429299D02*
X682969D01*
X653732Y355401D02*
X657669D01*
X653732Y367999D02*
X657669D01*
X396402Y327638D02*
Y332362D01*
X395220Y344032D02*
Y347969D01*
X407819Y344032D02*
Y347969D01*
X671472Y211500D02*
X668139D01*
X671472Y214832D01*
Y215665D01*
X670639Y216498D01*
X668972D01*
X668139Y215665D01*
X673138D02*
X673971Y216498D01*
X675637D01*
X676470Y215665D01*
Y212333D01*
X675637Y211500D01*
X673971D01*
X673138Y212333D01*
Y215665D01*
X681468Y211500D02*
X678136D01*
X681468Y214832D01*
Y215665D01*
X680635Y216498D01*
X678969D01*
X678136Y215665D01*
X683135D02*
X683968Y216498D01*
X685634D01*
X686467Y215665D01*
Y212333D01*
X685634Y211500D01*
X683968D01*
X683135Y212333D01*
Y215665D01*
X621488Y198665D02*
X620655Y199498D01*
X618989D01*
X618156Y198665D01*
Y197832D01*
X618989Y196999D01*
X620655D01*
X621488Y196166D01*
Y195333D01*
X620655Y194500D01*
X618989D01*
X618156Y195333D01*
X625653Y194500D02*
X623987D01*
X623154Y195333D01*
Y196999D01*
X623987Y197832D01*
X625653D01*
X626486Y196999D01*
Y196166D01*
X623154D01*
X628985Y197832D02*
X630652D01*
X631485Y196999D01*
Y194500D01*
X628985D01*
X628152Y195333D01*
X628985Y196166D01*
X631485D01*
X633151Y194500D02*
Y197832D01*
X635650D01*
X636483Y196999D01*
Y194500D01*
X643148D02*
Y199498D01*
X644814Y197832D01*
X646480Y199498D01*
Y194500D01*
X651478Y197832D02*
X648979D01*
X648146Y196999D01*
Y195333D01*
X648979Y194500D01*
X651478D01*
X653144Y199498D02*
Y194500D01*
Y196166D01*
X656476Y199498D01*
X653977Y196999D01*
X656476Y194500D01*
X660642D02*
X658976D01*
X658143Y195333D01*
Y196999D01*
X658976Y197832D01*
X660642D01*
X661475Y196999D01*
Y196166D01*
X658143D01*
X663974Y194500D02*
X665640D01*
X666473Y195333D01*
Y196999D01*
X665640Y197832D01*
X663974D01*
X663141Y196999D01*
Y195333D01*
X663974Y194500D01*
X668139Y197832D02*
Y195333D01*
X668972Y194500D01*
X669805Y195333D01*
X670639Y194500D01*
X671472Y195333D01*
Y197832D01*
X673138Y194500D02*
Y197832D01*
X675637D01*
X676470Y196999D01*
Y194500D01*
X686467D02*
X685634Y195333D01*
X684801Y194500D01*
X683968D01*
X683135Y195333D01*
Y196166D01*
X683968Y196999D01*
X683135Y197832D01*
Y198665D01*
X683968Y199498D01*
X684801D01*
X685634Y198665D01*
Y197832D01*
X684801Y196999D01*
X685634Y196166D01*
Y195333D01*
X686467Y196999D02*
X685634Y196166D01*
X683968Y196999D02*
X684801D01*
X584000Y191165D02*
Y186166D01*
Y188665D01*
X587332D01*
Y191165D01*
Y186166D01*
X591498D02*
X589831D01*
X588998Y186999D01*
Y188665D01*
X589831Y189498D01*
X591498D01*
X592331Y188665D01*
Y187832D01*
X588998D01*
X593997Y186166D02*
Y189498D01*
X596496D01*
X597329Y188665D01*
Y186166D01*
X598995Y189498D02*
Y186166D01*
Y187832D01*
X599828Y188665D01*
X600661Y189498D01*
X601494D01*
X603994D02*
Y186999D01*
X604827Y186166D01*
X607326D01*
Y185333D01*
X606493Y184500D01*
X605660D01*
X607326Y186166D02*
Y189498D01*
X613990Y186166D02*
Y191165D01*
X615656Y189498D01*
X617322Y191165D01*
Y186166D01*
X618989D02*
X620655D01*
X619822D01*
Y189498D01*
X618989D01*
X623987Y190331D02*
Y189498D01*
X623154D01*
X624820D01*
X623987D01*
Y186999D01*
X624820Y186166D01*
X630652Y189498D02*
X628152D01*
X627319Y188665D01*
Y186999D01*
X628152Y186166D01*
X630652D01*
X632318Y191165D02*
Y186166D01*
Y188665D01*
X633151Y189498D01*
X634817D01*
X635650Y188665D01*
Y186166D01*
X639815D02*
X638149D01*
X637316Y186999D01*
Y188665D01*
X638149Y189498D01*
X639815D01*
X640648Y188665D01*
Y187832D01*
X637316D01*
X642314Y186166D02*
X643981D01*
X643148D01*
Y191165D01*
X642314D01*
X646480Y186166D02*
X648146D01*
X647313D01*
Y191165D01*
X646480D01*
X650645Y188665D02*
X653977D01*
X655644Y191165D02*
Y186166D01*
Y188665D01*
X658976D01*
Y191165D01*
Y186166D01*
X660642D02*
X662308D01*
X661475D01*
Y189498D01*
X660642D01*
X664807Y191165D02*
Y186166D01*
X667306D01*
X668139Y186999D01*
Y187832D01*
Y188665D01*
X667306Y189498D01*
X664807D01*
X669805Y191165D02*
Y186166D01*
X672305D01*
X673138Y186999D01*
Y187832D01*
Y188665D01*
X672305Y189498D01*
X669805D01*
X677303Y186166D02*
X675637D01*
X674804Y186999D01*
Y188665D01*
X675637Y189498D01*
X677303D01*
X678136Y188665D01*
Y187832D01*
X674804D01*
X679802Y189498D02*
Y186166D01*
Y187832D01*
X680635Y188665D01*
X681468Y189498D01*
X682302D01*
X685634Y190331D02*
Y189498D01*
X684801D01*
X686467D01*
X685634D01*
Y186999D01*
X686467Y186166D01*
X605660Y203166D02*
Y208165D01*
X608159D01*
X608992Y207331D01*
Y205665D01*
X608159Y204832D01*
X605660D01*
X610658Y206498D02*
Y203166D01*
Y204832D01*
X611491Y205665D01*
X612324Y206498D01*
X613157D01*
X615656Y203166D02*
X617322D01*
X616490D01*
Y206498D01*
X615656D01*
X619822Y203166D02*
Y206498D01*
X620655D01*
X621488Y205665D01*
Y203166D01*
Y205665D01*
X622321Y206498D01*
X623154Y205665D01*
Y203166D01*
X625653Y206498D02*
X627319D01*
X628152Y205665D01*
Y203166D01*
X625653D01*
X624820Y203999D01*
X625653Y204832D01*
X628152D01*
X629818Y206498D02*
Y203166D01*
Y204832D01*
X630652Y205665D01*
X631485Y206498D01*
X632318D01*
X634817D02*
Y203999D01*
X635650Y203166D01*
X638149D01*
Y202333D01*
X637316Y201500D01*
X636483D01*
X638149Y203166D02*
Y206498D01*
X648146Y207331D02*
X647313Y208165D01*
X645647D01*
X644814Y207331D01*
Y203999D01*
X645647Y203166D01*
X647313D01*
X648146Y203999D01*
X650645Y203166D02*
X652311D01*
X653144Y203999D01*
Y205665D01*
X652311Y206498D01*
X650645D01*
X649812Y205665D01*
Y203999D01*
X650645Y203166D01*
X654810D02*
Y206498D01*
X657310D01*
X658143Y205665D01*
Y203166D01*
X659809Y206498D02*
X661475Y203166D01*
X663141Y206498D01*
X667306Y203166D02*
X665640D01*
X664807Y203999D01*
Y205665D01*
X665640Y206498D01*
X667306D01*
X668139Y205665D01*
Y204832D01*
X664807D01*
X669805Y206498D02*
Y203166D01*
Y204832D01*
X670639Y205665D01*
X671472Y206498D01*
X672305D01*
X675637Y207331D02*
Y206498D01*
X674804D01*
X676470D01*
X675637D01*
Y203999D01*
X676470Y203166D01*
X681468D02*
X679802D01*
X678969Y203999D01*
Y205665D01*
X679802Y206498D01*
X681468D01*
X682302Y205665D01*
Y204832D01*
X678969D01*
X683968Y206498D02*
Y203166D01*
Y204832D01*
X684801Y205665D01*
X685634Y206498D01*
X686467D01*
X422606Y296115D02*
X422049Y296673D01*
X420933D01*
X420376Y296115D01*
Y293885D01*
X420933Y293327D01*
X422049D01*
X422606Y293885D01*
X423721Y293327D02*
X424836D01*
X424279D01*
Y296673D01*
X423721Y296115D01*
X426509Y293327D02*
X427624D01*
X427067D01*
Y296673D01*
X426509Y296115D01*
X566548Y616468D02*
X565564Y617452D01*
X563596D01*
X562612Y616468D01*
Y612532D01*
X563596Y611548D01*
X565564D01*
X566548Y612532D01*
X571468Y611548D02*
Y617452D01*
X568516Y614500D01*
X572452D01*
X574420Y611548D02*
X576388D01*
X575404D01*
Y617452D01*
X574420Y616468D01*
X518056Y650468D02*
X517072Y651452D01*
X515104D01*
X514120Y650468D01*
Y646532D01*
X515104Y645548D01*
X517072D01*
X518056Y646532D01*
X520024Y645548D02*
X521992D01*
X521008D01*
Y651452D01*
X520024Y650468D01*
X524944Y651452D02*
X528879D01*
Y650468D01*
X524944Y646532D01*
Y645548D01*
X474556Y649968D02*
X473572Y650952D01*
X471604D01*
X470620Y649968D01*
Y646032D01*
X471604Y645048D01*
X473572D01*
X474556Y646032D01*
X476524Y645048D02*
X478492D01*
X477508D01*
Y650952D01*
X476524Y649968D01*
X485380Y650952D02*
X483412Y649968D01*
X481444Y648000D01*
Y646032D01*
X482428Y645048D01*
X484396D01*
X485380Y646032D01*
Y647016D01*
X484396Y648000D01*
X481444D01*
X399770Y297615D02*
X399212Y298173D01*
X398097D01*
X397539Y297615D01*
Y295385D01*
X398097Y294827D01*
X399212D01*
X399770Y295385D01*
Y296500D01*
X398655D01*
X400885Y294827D02*
Y298173D01*
X403115Y294827D01*
Y298173D01*
X404230D02*
Y294827D01*
X405903D01*
X406461Y295385D01*
Y297615D01*
X405903Y298173D01*
X404230D01*
X397539Y283115D02*
X398097Y283673D01*
X399212D01*
X399770Y283115D01*
Y282558D01*
X399212Y282000D01*
X398655D01*
X399212D01*
X399770Y281442D01*
Y280885D01*
X399212Y280327D01*
X398097D01*
X397539Y280885D01*
X400885Y283673D02*
Y281442D01*
X402000Y280327D01*
X403115Y281442D01*
Y283673D01*
X404230Y283115D02*
X404788Y283673D01*
X405903D01*
X406461Y283115D01*
Y282558D01*
X405903Y282000D01*
X405345D01*
X405903D01*
X406461Y281442D01*
Y280885D01*
X405903Y280327D01*
X404788D01*
X404230Y280885D01*
X422942Y265385D02*
Y267615D01*
X422385Y268173D01*
X421270D01*
X420712Y267615D01*
Y265385D01*
X421270Y264827D01*
X422385D01*
X421827Y265942D02*
X422942Y264827D01*
X422385D02*
X422942Y265385D01*
X426288Y268173D02*
X425173Y267615D01*
X424058Y266500D01*
Y265385D01*
X424615Y264827D01*
X425730D01*
X426288Y265385D01*
Y265942D01*
X425730Y266500D01*
X424058D01*
X645270Y376115D02*
X644712Y376673D01*
X643597D01*
X643040Y376115D01*
Y373885D01*
X643597Y373327D01*
X644712D01*
X645270Y373885D01*
X646385Y376115D02*
X646942Y376673D01*
X648058D01*
X648615Y376115D01*
Y375558D01*
X648058Y375000D01*
X647500D01*
X648058D01*
X648615Y374442D01*
Y373885D01*
X648058Y373327D01*
X646942D01*
X646385Y373885D01*
X649730Y376115D02*
X650288Y376673D01*
X651403D01*
X651961Y376115D01*
Y375558D01*
X651403Y375000D01*
X651961Y374442D01*
Y373885D01*
X651403Y373327D01*
X650288D01*
X649730Y373885D01*
Y374442D01*
X650288Y375000D01*
X649730Y375558D01*
Y376115D01*
X650288Y375000D02*
X651403D01*
X641500Y413115D02*
X640942Y413673D01*
X639827D01*
X639270Y413115D01*
Y410885D01*
X639827Y410327D01*
X640942D01*
X641500Y410885D01*
X642615Y410327D02*
X643730D01*
X643173D01*
Y413673D01*
X642615Y413115D01*
X553002Y236001D02*
Y241999D01*
X556001D01*
X557000Y240999D01*
Y239000D01*
X556001Y238000D01*
X553002D01*
X562998Y241999D02*
X560999Y240999D01*
X559000Y239000D01*
Y237001D01*
X559999Y236001D01*
X561999D01*
X562998Y237001D01*
Y238000D01*
X561999Y239000D01*
X559000D01*
X443818Y303327D02*
Y306673D01*
X445491D01*
X446048Y306115D01*
Y305000D01*
X445491Y304442D01*
X443818D01*
X444933D02*
X446048Y303327D01*
X447164D02*
X448279D01*
X447721D01*
Y306673D01*
X447164Y306115D01*
X449952Y303885D02*
X450509Y303327D01*
X451624D01*
X452182Y303885D01*
Y306115D01*
X451624Y306673D01*
X450509D01*
X449952Y306115D01*
Y305558D01*
X450509Y305000D01*
X452182D01*
X449770Y283840D02*
X449212Y284397D01*
X448097D01*
X447540Y283840D01*
Y281609D01*
X448097Y281052D01*
X449212D01*
X449770Y281609D01*
X450885Y283840D02*
X451442Y284397D01*
X452558D01*
X453115Y283840D01*
Y283282D01*
X452558Y282724D01*
X452000D01*
X452558D01*
X453115Y282167D01*
Y281609D01*
X452558Y281052D01*
X451442D01*
X450885Y281609D01*
X454230Y284397D02*
X456461D01*
Y283840D01*
X454230Y281609D01*
Y281052D01*
X557770Y467615D02*
X557212Y468173D01*
X556097D01*
X555540Y467615D01*
Y465385D01*
X556097Y464827D01*
X557212D01*
X557770Y465385D01*
X558885Y467615D02*
X559442Y468173D01*
X560558D01*
X561115Y467615D01*
Y467058D01*
X560558Y466500D01*
X560000D01*
X560558D01*
X561115Y465942D01*
Y465385D01*
X560558Y464827D01*
X559442D01*
X558885Y465385D01*
X564461Y468173D02*
X562230D01*
Y466500D01*
X563345Y467058D01*
X563903D01*
X564461Y466500D01*
Y465385D01*
X563903Y464827D01*
X562788D01*
X562230Y465385D01*
X575770Y483115D02*
X575212Y483673D01*
X574097D01*
X573539Y483115D01*
Y480885D01*
X574097Y480327D01*
X575212D01*
X575770Y480885D01*
X576885Y483115D02*
X577442Y483673D01*
X578558D01*
X579115Y483115D01*
Y482557D01*
X578558Y482000D01*
X578000D01*
X578558D01*
X579115Y481442D01*
Y480885D01*
X578558Y480327D01*
X577442D01*
X576885Y480885D01*
X581903Y480327D02*
Y483673D01*
X580230Y482000D01*
X582460D01*
X589770Y483115D02*
X589212Y483673D01*
X588097D01*
X587539Y483115D01*
Y480885D01*
X588097Y480327D01*
X589212D01*
X589770Y480885D01*
X590885Y483115D02*
X591442Y483673D01*
X592558D01*
X593115Y483115D01*
Y482557D01*
X592558Y482000D01*
X592000D01*
X592558D01*
X593115Y481442D01*
Y480885D01*
X592558Y480327D01*
X591442D01*
X590885Y480885D01*
X594230Y483115D02*
X594788Y483673D01*
X595903D01*
X596460Y483115D01*
Y482557D01*
X595903Y482000D01*
X595345D01*
X595903D01*
X596460Y481442D01*
Y480885D01*
X595903Y480327D01*
X594788D01*
X594230Y480885D01*
X618318Y374827D02*
Y378173D01*
X619991D01*
X620548Y377615D01*
Y376500D01*
X619991Y375942D01*
X618318D01*
X619433D02*
X620548Y374827D01*
X621664D02*
X622779D01*
X622221D01*
Y378173D01*
X621664Y377615D01*
X626682Y374827D02*
X624451D01*
X626682Y377058D01*
Y377615D01*
X626124Y378173D01*
X625009D01*
X624451Y377615D01*
X606876Y374827D02*
Y378173D01*
X608548D01*
X609106Y377615D01*
Y376500D01*
X608548Y375942D01*
X606876D01*
X607991D02*
X609106Y374827D01*
X610221D02*
X611336D01*
X610779D01*
Y378173D01*
X610221Y377615D01*
X613009Y374827D02*
X614124D01*
X613567D01*
Y378173D01*
X613009Y377615D01*
X563212Y374673D02*
Y371327D01*
X564885D01*
X565442Y371885D01*
Y374115D01*
X564885Y374673D01*
X563212D01*
X568788D02*
X566558D01*
Y373000D01*
X567673Y373558D01*
X568230D01*
X568788Y373000D01*
Y371885D01*
X568230Y371327D01*
X567115D01*
X566558Y371885D01*
X421212Y374673D02*
Y371327D01*
X422885D01*
X423442Y371885D01*
Y374115D01*
X422885Y374673D01*
X421212D01*
X426230Y371327D02*
Y374673D01*
X424558Y373000D01*
X426788D01*
X572500Y415501D02*
Y419499D01*
X571501Y420499D01*
X569501D01*
X568502Y419499D01*
Y415501D01*
X569501Y414501D01*
X571501D01*
X570501Y416500D02*
X572500Y414501D01*
X571501D02*
X572500Y415501D01*
X577499Y414501D02*
Y420499D01*
X574500Y417500D01*
X578498D01*
X430000Y416001D02*
Y419999D01*
X429001Y420999D01*
X427001D01*
X426002Y419999D01*
Y416001D01*
X427001Y415001D01*
X429001D01*
X428001Y417000D02*
X430000Y415001D01*
X429001D02*
X430000Y416001D01*
X432000Y419999D02*
X432999Y420999D01*
X434999D01*
X435998Y419999D01*
Y419000D01*
X434999Y418000D01*
X433999D01*
X434999D01*
X435998Y417000D01*
Y416001D01*
X434999Y415001D01*
X432999D01*
X432000Y416001D01*
X537600Y415601D02*
Y419599D01*
X536601Y420599D01*
X534601D01*
X533602Y419599D01*
Y415601D01*
X534601Y414601D01*
X536601D01*
X535601Y416600D02*
X537600Y414601D01*
X536601D02*
X537600Y415601D01*
X543598Y414601D02*
X539600D01*
X543598Y418600D01*
Y419599D01*
X542599Y420599D01*
X540599D01*
X539600Y419599D01*
X396000Y416001D02*
Y419999D01*
X395000Y420999D01*
X393001D01*
X392001Y419999D01*
Y416001D01*
X393001Y415001D01*
X395000D01*
X394001Y417000D02*
X396000Y415001D01*
X395000D02*
X396000Y416001D01*
X397999Y415001D02*
X399999D01*
X398999D01*
Y420999D01*
X397999Y419999D01*
X660502Y474499D02*
Y469501D01*
X661501Y468501D01*
X663501D01*
X664500Y469501D01*
Y474499D01*
X670498Y468501D02*
X666500D01*
X670498Y472500D01*
Y473499D01*
X669499Y474499D01*
X667499D01*
X666500Y473499D01*
X475501Y267499D02*
Y262501D01*
X476501Y261501D01*
X478500D01*
X479500Y262501D01*
Y267499D01*
X481499Y261501D02*
X483499D01*
X482499D01*
Y267499D01*
X481499Y266499D01*
X532500Y187999D02*
X531500Y188999D01*
X529501D01*
X528501Y187999D01*
Y187000D01*
X529501Y186000D01*
X531500D01*
X532500Y185000D01*
Y184001D01*
X531500Y183001D01*
X529501D01*
X528501Y184001D01*
X534499Y183001D02*
X536499D01*
X535499D01*
Y188999D01*
X534499Y187999D01*
X487318Y343827D02*
Y347173D01*
X488991D01*
X489548Y346615D01*
Y345500D01*
X488991Y344942D01*
X487318D01*
X488433D02*
X489548Y343827D01*
X490664D02*
X491779D01*
X491221D01*
Y347173D01*
X490664Y346615D01*
X493451D02*
X494009Y347173D01*
X495124D01*
X495682Y346615D01*
Y346058D01*
X495124Y345500D01*
X495682Y344942D01*
Y344385D01*
X495124Y343827D01*
X494009D01*
X493451Y344385D01*
Y344942D01*
X494009Y345500D01*
X493451Y346058D01*
Y346615D01*
X494009Y345500D02*
X495124D01*
X490818Y202327D02*
Y205673D01*
X492491D01*
X493048Y205115D01*
Y204000D01*
X492491Y203442D01*
X490818D01*
X491933D02*
X493048Y202327D01*
X494164D02*
X495279D01*
X494721D01*
Y205673D01*
X494164Y205115D01*
X496951Y205673D02*
X499182D01*
Y205115D01*
X496951Y202885D01*
Y202327D01*
X408818Y214827D02*
Y218173D01*
X410491D01*
X411049Y217615D01*
Y216500D01*
X410491Y215942D01*
X408818D01*
X409933D02*
X411049Y214827D01*
X412164D02*
X413279D01*
X412721D01*
Y218173D01*
X412164Y217615D01*
X417182Y218173D02*
X416067Y217615D01*
X414952Y216500D01*
Y215385D01*
X415509Y214827D01*
X416624D01*
X417182Y215385D01*
Y215942D01*
X416624Y216500D01*
X414952D01*
X533818Y256327D02*
Y259673D01*
X535491D01*
X536049Y259115D01*
Y258000D01*
X535491Y257442D01*
X533818D01*
X534933D02*
X536049Y256327D01*
X537164D02*
X538279D01*
X537721D01*
Y259673D01*
X537164Y259115D01*
X542182Y259673D02*
X539952D01*
Y258000D01*
X541067Y258558D01*
X541624D01*
X542182Y258000D01*
Y256885D01*
X541624Y256327D01*
X540509D01*
X539952Y256885D01*
X589818Y327327D02*
Y330673D01*
X591491D01*
X592049Y330115D01*
Y329000D01*
X591491Y328442D01*
X589818D01*
X590933D02*
X592049Y327327D01*
X593164D02*
X594279D01*
X593721D01*
Y330673D01*
X593164Y330115D01*
X597624Y327327D02*
Y330673D01*
X595952Y329000D01*
X598182D01*
X432818Y328327D02*
Y331673D01*
X434491D01*
X435048Y331115D01*
Y330000D01*
X434491Y329442D01*
X432818D01*
X433933D02*
X435048Y328327D01*
X436164D02*
X437279D01*
X436721D01*
Y331673D01*
X436164Y331115D01*
X438951D02*
X439509Y331673D01*
X440624D01*
X441182Y331115D01*
Y330558D01*
X440624Y330000D01*
X440067D01*
X440624D01*
X441182Y329442D01*
Y328885D01*
X440624Y328327D01*
X439509D01*
X438951Y328885D01*
X575818Y391327D02*
Y394673D01*
X577491D01*
X578049Y394115D01*
Y393000D01*
X577491Y392442D01*
X575818D01*
X576933D02*
X578049Y391327D01*
X579164D02*
X580279D01*
X579721D01*
Y394673D01*
X579164Y394115D01*
X581952D02*
X582509Y394673D01*
X583624D01*
X584182Y394115D01*
Y391885D01*
X583624Y391327D01*
X582509D01*
X581952Y391885D01*
Y394115D01*
X433212Y398327D02*
Y401673D01*
X434885D01*
X435442Y401115D01*
Y400000D01*
X434885Y399442D01*
X433212D01*
X434327D02*
X435442Y398327D01*
X436558Y398885D02*
X437115Y398327D01*
X438230D01*
X438788Y398885D01*
Y401115D01*
X438230Y401673D01*
X437115D01*
X436558Y401115D01*
Y400558D01*
X437115Y400000D01*
X438788D01*
X473212Y249327D02*
Y252673D01*
X474885D01*
X475442Y252115D01*
Y251000D01*
X474885Y250442D01*
X473212D01*
X474327D02*
X475442Y249327D01*
X476558Y252115D02*
X477115Y252673D01*
X478230D01*
X478788Y252115D01*
Y251558D01*
X478230Y251000D01*
X478788Y250442D01*
Y249885D01*
X478230Y249327D01*
X477115D01*
X476558Y249885D01*
Y250442D01*
X477115Y251000D01*
X476558Y251558D01*
Y252115D01*
X477115Y251000D02*
X478230D01*
X464212Y229827D02*
Y233173D01*
X465885D01*
X466442Y232615D01*
Y231500D01*
X465885Y230942D01*
X464212D01*
X465327D02*
X466442Y229827D01*
X467558Y233173D02*
X469788D01*
Y232615D01*
X467558Y230385D01*
Y229827D01*
X435212Y249327D02*
Y252673D01*
X436885D01*
X437442Y252115D01*
Y251000D01*
X436885Y250442D01*
X435212D01*
X436327D02*
X437442Y249327D01*
X440788Y252673D02*
X439673Y252115D01*
X438558Y251000D01*
Y249885D01*
X439115Y249327D01*
X440230D01*
X440788Y249885D01*
Y250442D01*
X440230Y251000D01*
X438558D01*
X473212Y206327D02*
Y209673D01*
X474885D01*
X475442Y209115D01*
Y208000D01*
X474885Y207442D01*
X473212D01*
X474327D02*
X475442Y206327D01*
X478788Y209673D02*
X476558D01*
Y208000D01*
X477673Y208558D01*
X478230D01*
X478788Y208000D01*
Y206885D01*
X478230Y206327D01*
X477115D01*
X476558Y206885D01*
X455212Y206327D02*
Y209673D01*
X456885D01*
X457442Y209115D01*
Y208000D01*
X456885Y207442D01*
X455212D01*
X456327D02*
X457442Y206327D01*
X460230D02*
Y209673D01*
X458558Y208000D01*
X460788D01*
X436212Y206327D02*
Y209673D01*
X437885D01*
X438442Y209115D01*
Y208000D01*
X437885Y207442D01*
X436212D01*
X437327D02*
X438442Y206327D01*
X439558Y209115D02*
X440115Y209673D01*
X441230D01*
X441788Y209115D01*
Y208558D01*
X441230Y208000D01*
X440673D01*
X441230D01*
X441788Y207442D01*
Y206885D01*
X441230Y206327D01*
X440115D01*
X439558Y206885D01*
X549212Y391327D02*
Y394673D01*
X550885D01*
X551442Y394115D01*
Y393000D01*
X550885Y392442D01*
X549212D01*
X550327D02*
X551442Y391327D01*
X554788D02*
X552558D01*
X554788Y393558D01*
Y394115D01*
X554230Y394673D01*
X553115D01*
X552558Y394115D01*
X410770Y398327D02*
Y401673D01*
X412442D01*
X413000Y401115D01*
Y400000D01*
X412442Y399442D01*
X410770D01*
X411885D02*
X413000Y398327D01*
X414115D02*
X415230D01*
X414673D01*
Y401673D01*
X414115Y401115D01*
X659442Y417385D02*
Y419615D01*
X658885Y420173D01*
X657770D01*
X657212Y419615D01*
Y417385D01*
X657770Y416827D01*
X658885D01*
X658327Y417942D02*
X659442Y416827D01*
X658885D02*
X659442Y417385D01*
X662788Y420173D02*
X660558D01*
Y418500D01*
X661673Y419058D01*
X662230D01*
X662788Y418500D01*
Y417385D01*
X662230Y416827D01*
X661115D01*
X660558Y417385D01*
X583002Y214001D02*
Y219999D01*
X586001D01*
X587000Y218999D01*
Y217000D01*
X586001Y216000D01*
X583002D01*
X592998Y219999D02*
X589000D01*
Y217000D01*
X590999Y218000D01*
X591999D01*
X592998Y217000D01*
Y215001D01*
X591999Y214001D01*
X589999D01*
X589000Y215001D01*
X411501Y257001D02*
Y262999D01*
X414500D01*
X415500Y261999D01*
Y260000D01*
X414500Y259000D01*
X411501D01*
X417499Y257001D02*
X419499D01*
X418499D01*
Y262999D01*
X417499Y261999D01*
X524845Y488534D02*
Y482536D01*
X528844D01*
X530843D02*
X532842D01*
X531843D01*
Y488534D01*
X530843Y487534D01*
X535841Y488534D02*
Y482536D01*
X538840D01*
X539840Y483536D01*
Y484535D01*
X538840Y485535D01*
X535841D01*
X538840D01*
X539840Y486535D01*
Y487534D01*
X538840Y488534D01*
X535841D01*
X496502Y488999D02*
Y483001D01*
X500501D01*
X502500D02*
X504500D01*
X503500D01*
Y488999D01*
X502500Y487999D01*
X507499Y483001D02*
Y487000D01*
X509498Y488999D01*
X511498Y487000D01*
Y483001D01*
Y486000D01*
X507499D01*
X668299Y559498D02*
X664300D01*
Y556499D01*
X666299D01*
X664300D01*
Y553500D01*
X670298D02*
X672297D01*
X671298D01*
Y559498D01*
X670298Y558498D01*
X529761Y331645D02*
Y328300D01*
X531434D01*
X531992Y328858D01*
Y331088D01*
X531434Y331645D01*
X529761D01*
X533107Y331088D02*
X533664Y331645D01*
X534780D01*
X535337Y331088D01*
Y330530D01*
X534780Y329973D01*
X534222D01*
X534780D01*
X535337Y329415D01*
Y328858D01*
X534780Y328300D01*
X533664D01*
X533107Y328858D01*
X399212Y325673D02*
Y322327D01*
X400885D01*
X401442Y322885D01*
Y325115D01*
X400885Y325673D01*
X399212D01*
X404788Y322327D02*
X402558D01*
X404788Y324558D01*
Y325115D01*
X404230Y325673D01*
X403115D01*
X402558Y325115D01*
X499270Y347173D02*
Y343827D01*
X500942D01*
X501500Y344385D01*
Y346615D01*
X500942Y347173D01*
X499270D01*
X502615Y343827D02*
X503730D01*
X503173D01*
Y347173D01*
X502615Y346615D01*
X517770Y205115D02*
X517212Y205673D01*
X516097D01*
X515540Y205115D01*
Y202885D01*
X516097Y202327D01*
X517212D01*
X517770Y202885D01*
X518885Y205115D02*
X519442Y205673D01*
X520558D01*
X521115Y205115D01*
Y204558D01*
X520558Y204000D01*
X520000D01*
X520558D01*
X521115Y203442D01*
Y202885D01*
X520558Y202327D01*
X519442D01*
X518885Y202885D01*
X524461Y202327D02*
X522230D01*
X524461Y204558D01*
Y205115D01*
X523903Y205673D01*
X522788D01*
X522230Y205115D01*
X446827Y273615D02*
X446270Y274173D01*
X445155D01*
X444597Y273615D01*
Y271385D01*
X445155Y270827D01*
X446270D01*
X446827Y271385D01*
X447942Y273615D02*
X448500Y274173D01*
X449615D01*
X450173Y273615D01*
Y273058D01*
X449615Y272500D01*
X449058D01*
X449615D01*
X450173Y271942D01*
Y271385D01*
X449615Y270827D01*
X448500D01*
X447942Y271385D01*
X451288Y270827D02*
X452403D01*
X451845D01*
Y274173D01*
X451288Y273615D01*
X423770Y217615D02*
X423212Y218173D01*
X422097D01*
X421539Y217615D01*
Y215385D01*
X422097Y214827D01*
X423212D01*
X423770Y215385D01*
X424885Y217615D02*
X425442Y218173D01*
X426558D01*
X427115Y217615D01*
Y217058D01*
X426558Y216500D01*
X426000D01*
X426558D01*
X427115Y215942D01*
Y215385D01*
X426558Y214827D01*
X425442D01*
X424885Y215385D01*
X428230Y217615D02*
X428788Y218173D01*
X429903D01*
X430461Y217615D01*
Y215385D01*
X429903Y214827D01*
X428788D01*
X428230Y215385D01*
Y217615D01*
X516770Y259115D02*
X516212Y259673D01*
X515097D01*
X514539Y259115D01*
Y256885D01*
X515097Y256327D01*
X516212D01*
X516770Y256885D01*
X520115Y256327D02*
X517885D01*
X520115Y258558D01*
Y259115D01*
X519558Y259673D01*
X518442D01*
X517885Y259115D01*
X521230Y256885D02*
X521788Y256327D01*
X522903D01*
X523460Y256885D01*
Y259115D01*
X522903Y259673D01*
X521788D01*
X521230Y259115D01*
Y258558D01*
X521788Y258000D01*
X523460D01*
X540064Y592968D02*
X539080Y593952D01*
X537113D01*
X536129Y592968D01*
Y589032D01*
X537113Y588048D01*
X539080D01*
X540064Y589032D01*
X545968Y588048D02*
X542032D01*
X545968Y591984D01*
Y592968D01*
X544984Y593952D01*
X543016D01*
X542032Y592968D01*
X547936D02*
X548920Y593952D01*
X550887D01*
X551871Y592968D01*
Y591984D01*
X550887Y591000D01*
X551871Y590016D01*
Y589032D01*
X550887Y588048D01*
X548920D01*
X547936Y589032D01*
Y590016D01*
X548920Y591000D01*
X547936Y591984D01*
Y592968D01*
X548920Y591000D02*
X550887D01*
X446730Y484088D02*
X446173Y484645D01*
X445058D01*
X444500Y484088D01*
Y481858D01*
X445058Y481300D01*
X446173D01*
X446730Y481858D01*
X450076Y481300D02*
X447845D01*
X450076Y483530D01*
Y484088D01*
X449518Y484645D01*
X448403D01*
X447845Y484088D01*
X451191Y484645D02*
X453421D01*
Y484088D01*
X451191Y481858D01*
Y481300D01*
X444270Y233115D02*
X443712Y233673D01*
X442597D01*
X442039Y233115D01*
Y230885D01*
X442597Y230327D01*
X443712D01*
X444270Y230885D01*
X447615Y230327D02*
X445385D01*
X447615Y232558D01*
Y233115D01*
X447058Y233673D01*
X445942D01*
X445385Y233115D01*
X450960Y233673D02*
X449845Y233115D01*
X448730Y232000D01*
Y230885D01*
X449288Y230327D01*
X450403D01*
X450960Y230885D01*
Y231442D01*
X450403Y232000D01*
X448730D01*
X599770Y341115D02*
X599212Y341673D01*
X598097D01*
X597540Y341115D01*
Y338885D01*
X598097Y338327D01*
X599212D01*
X599770Y338885D01*
X603115Y338327D02*
X600885D01*
X603115Y340558D01*
Y341115D01*
X602558Y341673D01*
X601442D01*
X600885Y341115D01*
X606461Y341673D02*
X604230D01*
Y340000D01*
X605345Y340558D01*
X605903D01*
X606461Y340000D01*
Y338885D01*
X605903Y338327D01*
X604788D01*
X604230Y338885D01*
X457770Y341115D02*
X457212Y341673D01*
X456097D01*
X455540Y341115D01*
Y338885D01*
X456097Y338327D01*
X457212D01*
X457770Y338885D01*
X461115Y338327D02*
X458885D01*
X461115Y340558D01*
Y341115D01*
X460558Y341673D01*
X459442D01*
X458885Y341115D01*
X463903Y338327D02*
Y341673D01*
X462230Y340000D01*
X464461D01*
X485770Y233115D02*
X485212Y233673D01*
X484097D01*
X483539Y233115D01*
Y230885D01*
X484097Y230327D01*
X485212D01*
X485770Y230885D01*
X489115Y230327D02*
X486885D01*
X489115Y232558D01*
Y233115D01*
X488558Y233673D01*
X487442D01*
X486885Y233115D01*
X490230D02*
X490788Y233673D01*
X491903D01*
X492460Y233115D01*
Y232558D01*
X491903Y232000D01*
X491345D01*
X491903D01*
X492460Y231442D01*
Y230885D01*
X491903Y230327D01*
X490788D01*
X490230Y230885D01*
X455770Y252115D02*
X455212Y252673D01*
X454097D01*
X453540Y252115D01*
Y249885D01*
X454097Y249327D01*
X455212D01*
X455770Y249885D01*
X459115Y249327D02*
X456885D01*
X459115Y251558D01*
Y252115D01*
X458558Y252673D01*
X457442D01*
X456885Y252115D01*
X462461Y249327D02*
X460230D01*
X462461Y251558D01*
Y252115D01*
X461903Y252673D01*
X460788D01*
X460230Y252115D01*
X523327Y312115D02*
X522770Y312673D01*
X521655D01*
X521097Y312115D01*
Y309885D01*
X521655Y309327D01*
X522770D01*
X523327Y309885D01*
X526673Y309327D02*
X524442D01*
X526673Y311558D01*
Y312115D01*
X526115Y312673D01*
X525000D01*
X524442Y312115D01*
X527788Y309327D02*
X528903D01*
X528345D01*
Y312673D01*
X527788Y312115D01*
X554270Y288115D02*
X553712Y288673D01*
X552597D01*
X552039Y288115D01*
Y285885D01*
X552597Y285327D01*
X553712D01*
X554270Y285885D01*
X557615Y285327D02*
X555385D01*
X557615Y287558D01*
Y288115D01*
X557058Y288673D01*
X555942D01*
X555385Y288115D01*
X558730D02*
X559288Y288673D01*
X560403D01*
X560960Y288115D01*
Y285885D01*
X560403Y285327D01*
X559288D01*
X558730Y285885D01*
Y288115D01*
X466048Y309115D02*
X465491Y309673D01*
X464376D01*
X463818Y309115D01*
Y306885D01*
X464376Y306327D01*
X465491D01*
X466048Y306885D01*
X467164Y306327D02*
X468279D01*
X467721D01*
Y309673D01*
X467164Y309115D01*
X469951Y306885D02*
X470509Y306327D01*
X471624D01*
X472182Y306885D01*
Y309115D01*
X471624Y309673D01*
X470509D01*
X469951Y309115D01*
Y308558D01*
X470509Y308000D01*
X472182D01*
X437048Y293115D02*
X436491Y293673D01*
X435376D01*
X434818Y293115D01*
Y290885D01*
X435376Y290327D01*
X436491D01*
X437048Y290885D01*
X438164Y290327D02*
X439279D01*
X438721D01*
Y293673D01*
X438164Y293115D01*
X440951D02*
X441509Y293673D01*
X442624D01*
X443182Y293115D01*
Y292558D01*
X442624Y292000D01*
X443182Y291442D01*
Y290885D01*
X442624Y290327D01*
X441509D01*
X440951Y290885D01*
Y291442D01*
X441509Y292000D01*
X440951Y292558D01*
Y293115D01*
X441509Y292000D02*
X442624D01*
X534549Y289115D02*
X533991Y289673D01*
X532876D01*
X532318Y289115D01*
Y286885D01*
X532876Y286327D01*
X533991D01*
X534549Y286885D01*
X535664Y286327D02*
X536779D01*
X536221D01*
Y289673D01*
X535664Y289115D01*
X540682Y289673D02*
X538451D01*
Y288000D01*
X539567Y288558D01*
X540124D01*
X540682Y288000D01*
Y286885D01*
X540124Y286327D01*
X539009D01*
X538451Y286885D01*
X653049Y428115D02*
X652491Y428673D01*
X651376D01*
X650818Y428115D01*
Y425885D01*
X651376Y425327D01*
X652491D01*
X653049Y425885D01*
X654164Y425327D02*
X655279D01*
X654721D01*
Y428673D01*
X654164Y428115D01*
X658624Y425327D02*
Y428673D01*
X656952Y427000D01*
X659182D01*
X531549Y229115D02*
X530991Y229673D01*
X529876D01*
X529318Y229115D01*
Y226885D01*
X529876Y226327D01*
X530991D01*
X531549Y226885D01*
X532664Y226327D02*
X533779D01*
X533221D01*
Y229673D01*
X532664Y229115D01*
X535452D02*
X536009Y229673D01*
X537124D01*
X537682Y229115D01*
Y228558D01*
X537124Y228000D01*
X536567D01*
X537124D01*
X537682Y227442D01*
Y226885D01*
X537124Y226327D01*
X536009D01*
X535452Y226885D01*
X392548Y270115D02*
X391991Y270673D01*
X390876D01*
X390318Y270115D01*
Y267885D01*
X390876Y267327D01*
X391991D01*
X392548Y267885D01*
X393664Y267327D02*
X394779D01*
X394221D01*
Y270673D01*
X393664Y270115D01*
X398682Y267327D02*
X396451D01*
X398682Y269558D01*
Y270115D01*
X398124Y270673D01*
X397009D01*
X396451Y270115D01*
X442049Y375115D02*
X441491Y375673D01*
X440376D01*
X439818Y375115D01*
Y372885D01*
X440376Y372327D01*
X441491D01*
X442049Y372885D01*
X443164Y372327D02*
X444279D01*
X443721D01*
Y375673D01*
X443164Y375115D01*
X445952D02*
X446509Y375673D01*
X447624D01*
X448182Y375115D01*
Y372885D01*
X447624Y372327D01*
X446509D01*
X445952Y372885D01*
Y375115D01*
X544442Y359115D02*
X543885Y359673D01*
X542770D01*
X542212Y359115D01*
Y356885D01*
X542770Y356327D01*
X543885D01*
X544442Y356885D01*
X545558D02*
X546115Y356327D01*
X547230D01*
X547788Y356885D01*
Y359115D01*
X547230Y359673D01*
X546115D01*
X545558Y359115D01*
Y358558D01*
X546115Y358000D01*
X547788D01*
X655442Y352615D02*
X654885Y353173D01*
X653770D01*
X653212Y352615D01*
Y350385D01*
X653770Y349827D01*
X654885D01*
X655442Y350385D01*
X656558Y352615D02*
X657115Y353173D01*
X658230D01*
X658788Y352615D01*
Y352058D01*
X658230Y351500D01*
X658788Y350942D01*
Y350385D01*
X658230Y349827D01*
X657115D01*
X656558Y350385D01*
Y350942D01*
X657115Y351500D01*
X656558Y352058D01*
Y352615D01*
X657115Y351500D02*
X658230D01*
X676442Y433615D02*
X675885Y434173D01*
X674770D01*
X674212Y433615D01*
Y431385D01*
X674770Y430827D01*
X675885D01*
X676442Y431385D01*
X677558Y434173D02*
X679788D01*
Y433615D01*
X677558Y431385D01*
Y430827D01*
X597749Y363328D02*
X597191Y363886D01*
X596076D01*
X595519Y363328D01*
Y361098D01*
X596076Y360540D01*
X597191D01*
X597749Y361098D01*
X601094Y363886D02*
X599979Y363328D01*
X598864Y362213D01*
Y361098D01*
X599422Y360540D01*
X600537D01*
X601094Y361098D01*
Y361655D01*
X600537Y362213D01*
X598864D01*
X399442Y359115D02*
X398885Y359673D01*
X397770D01*
X397212Y359115D01*
Y356885D01*
X397770Y356327D01*
X398885D01*
X399442Y356885D01*
X402788Y359673D02*
X400558D01*
Y358000D01*
X401673Y358558D01*
X402230D01*
X402788Y358000D01*
Y356885D01*
X402230Y356327D01*
X401115D01*
X400558Y356885D01*
X433430Y484088D02*
X432873Y484645D01*
X431758D01*
X431200Y484088D01*
Y481858D01*
X431758Y481300D01*
X432873D01*
X433430Y481858D01*
X434545Y484088D02*
X435103Y484645D01*
X436218D01*
X436776Y484088D01*
Y483530D01*
X436218Y482973D01*
X435661D01*
X436218D01*
X436776Y482415D01*
Y481858D01*
X436218Y481300D01*
X435103D01*
X434545Y481858D01*
X419430Y469188D02*
X418873Y469745D01*
X417758D01*
X417200Y469188D01*
Y466958D01*
X417758Y466400D01*
X418873D01*
X419430Y466958D01*
X422776Y466400D02*
X420545D01*
X422776Y468630D01*
Y469188D01*
X422218Y469745D01*
X421103D01*
X420545Y469188D01*
D15*
X504933Y513410D02*
Y564591D01*
X434067Y513410D02*
Y564591D01*
X493122Y491756D02*
Y495693D01*
Y582307D02*
Y586244D01*
X445878Y491756D02*
Y495693D01*
Y582307D02*
Y586244D01*
X426193Y491756D02*
Y586244D01*
X512807Y491756D02*
Y586244D01*
X504933Y539000D02*
X512807D01*
X426193D02*
X434067D01*
Y564591D02*
X504933D01*
X434067Y513410D02*
X504933D01*
X493122Y491756D02*
X512807D01*
X493122Y586244D02*
X512807D01*
X426193Y491756D02*
X445878D01*
X426193Y586244D02*
X445878D01*
X426193Y495693D02*
X512807D01*
X426193Y582307D02*
X512807D01*
X523035Y582256D02*
X609650D01*
X523035Y495642D02*
X609650D01*
X523035Y586193D02*
X542721D01*
X523035Y491705D02*
X542721D01*
X589965Y586193D02*
X609650D01*
X589965Y491705D02*
X609650D01*
X530909Y513358D02*
X601776D01*
X530909Y564539D02*
X601776D01*
X523035Y538949D02*
X530909D01*
X601776D02*
X609650D01*
Y491705D02*
Y586193D01*
X523035Y491705D02*
Y586193D01*
X542721Y582256D02*
Y586193D01*
Y491705D02*
Y495642D01*
X589965Y582256D02*
Y586193D01*
Y491705D02*
Y495642D01*
X530909Y513358D02*
Y564539D01*
X601776Y513358D02*
Y564539D01*
D16*
X385000Y237000D02*
X386666D01*
X385833D01*
Y241998D01*
X385000Y241165D01*
X387332Y248000D02*
X384000D01*
X387332Y251332D01*
Y252165D01*
X386499Y252998D01*
X384833D01*
X384000Y252165D01*
X424332Y242998D02*
X421000D01*
Y240499D01*
X422666Y241332D01*
X423499D01*
X424332Y240499D01*
Y238833D01*
X423499Y238000D01*
X421833D01*
X421000Y238833D01*
X424332Y252998D02*
X422666Y252165D01*
X421000Y250499D01*
Y248833D01*
X421833Y248000D01*
X423499D01*
X424332Y248833D01*
Y249666D01*
X423499Y250499D01*
X421000D01*
M02*
