M48
;Layer_Color=9474304
;FILE_FORMAT=2:4
INCH,TZ
;TYPE=PLATED
T1F00S00C0.0157
T2F00S00C0.0197
T3F00S00C0.0230
T4F00S00C0.0236
T5F00S00C0.0276
T6F00S00C0.0354
T7F00S00C0.0394
T8F00S00C0.0433
T9F00S00C0.0512
T10F00S00C0.1181
T11F00S00C0.1260
T12F00S00C0.1654
%
T01
X48000Y23000
X49796
X49100Y23700
X48500Y24900
X49796Y25050
X49400Y25450
X49164Y25836
X48000Y25900
X47107Y26693
X47000Y27200
X48643Y28343
X49202Y28000
X51700Y27000
X51600Y26500
X50900Y25300
X52950Y25250
Y24450
X55500Y25100
Y25900
X56500
Y25100
X56896Y27696
X54700Y26700
X53800Y27226
X53000Y28800
X53098Y29602
X54700Y29190
X51800Y30400
X51600Y31100
X50777
X48600
X47435Y30235
X50900Y21200
X52800Y19700
X45300Y23400
X43500Y23000
X43150Y22350
X42600Y24000
X42200Y23600
X43778Y25528
X44300Y25200
X44800Y25300
X44600Y26598
X43300Y26600
Y28800
X45050Y29650
X45950Y28028
X45854Y27354
X46700Y25100
X41304Y27600
X46500Y31514
Y32400
X46850Y41765
Y42635
Y43506
X46200Y43071
Y42200
X45550Y42635
Y43506
Y41765
X47194Y45050
X48065
X48935
X48500Y45700
X47629
X48065Y46350
X47194
X48935
X56700Y46700
X57300Y45750
X58550
X59150
Y45100
X59800Y43241
Y42371
Y41500
X60450Y41935
Y42806
X61100Y43241
Y42371
Y41500
X62000Y45100
X62435Y45750
X62000Y46400
X53300Y31800
X52000Y31500
X51700Y32000
X50500Y31500
X50700Y33200
X48700Y32400
X62871Y45100
Y46400
T02
X38565Y26885
X63300Y40100
X63747
X64300Y43197
X64600Y44200
X66000Y43300
T03
X66200Y38170
Y39170
Y40170
T04
X41500Y33000
X44300Y35000
X44900
X45280Y35405
X43357Y37242
X42900Y39973
X42284Y40484
X41700Y40000
X40800
Y41900
X41700Y42600
X42700Y44800
X43800Y45600
X56940Y44800
X58040Y45600
X55940Y42600
X55040Y41900
Y39767
X55940
X57140
X56550Y40650
X57628Y37286
X58540Y35000
X59140
X59540Y35400
X56552Y33370
X61900Y40100
Y41400
X62700Y40100
Y43000
X64900Y41770
X65400Y39200
X66768Y36170
X68700Y43200
T05
X63228Y58032
X64095
Y58898
Y59764
X63228
Y58898
X62362Y59764
X61496
X60630
X59764
X58898
X58032
X57165
X56299
X55433
X54567
Y60630
Y61496
Y62362
X53701
Y61496
Y60630
Y59764
X55433Y60630
Y61496
X58032Y62362
X58898
X50049Y62299
Y61355
Y60410
Y59465
X49104
X48159
X47214
Y60410
X48159
X49104
Y61355
X62350Y51825
Y51100
Y50375
X41050
Y51100
Y51825
X40600Y57575
X39655
X38710
Y58520
Y59465
Y60410
X39655
Y59465
X40600
X41545
X42490
X43435
X44380
Y60410
X45324
Y59465
X46269
Y60410
X45906Y62362
X43435Y60410
X42490
X41545
X40600
Y58520
X39655
X42441Y63228
X43307
X44173
X45039
X45906
Y64095
X45039
Y64961
Y65827
Y66693
X44173
X43307
X42441
Y65827
Y64961
Y64095
X50049Y63244
X53701Y63228
X54567
X58032
X58898
X59764
X60630
X61496
Y64095
Y64961
Y65827
Y66693
X60630
X59764
X58898
Y65827
Y64961
Y64095
X58032
T06
X48600Y21200
Y22200
X51500Y21700
X52500
X53500
X54500
X55500
X56500
X57500
X54500Y23900
X53500
X52500
X51500
X46700Y22200
Y21200
X44900
Y22200
X41500Y24000
X40500
Y25000
X39500
Y24000
X41500Y25000
T07
X39100Y28200
Y29600
T08
X49700Y18600
X51700
T09
X47934Y50455
X49903
X53682Y50450
X55650
X57618
X59587
Y57340
X57618
X55650
X53682
X49903Y57345
X47934
X45966
X43997
Y50455
X45966
T10
X67700Y58750
Y60750
T11
X63583Y51100
Y56200
X39685
Y51100
T12
X43750Y65200
X60200
M30
