G04*
G04 #@! TF.GenerationSoftware,Altium Limited,Altium Designer,21.0.9 (235)*
G04*
G04 Layer_Color=16711935*
%FSLAX25Y25*%
%MOIN*%
G70*
G04*
G04 #@! TF.SameCoordinates,E5C10B9F-721F-4CD3-8270-1C0E1EB20485*
G04*
G04*
G04 #@! TF.FilePolarity,Positive*
G04*
G01*
G75*
%ADD14C,0.01000*%
D14*
X384000Y676000D02*
X383025Y675904D01*
X382087Y675619D01*
X381222Y675157D01*
X380465Y674536D01*
X379843Y673778D01*
X379381Y672913D01*
X379096Y671976D01*
X379000Y671000D01*
Y183000D02*
X379096Y182025D01*
X379381Y181087D01*
X379843Y180222D01*
X380465Y179464D01*
X381222Y178843D01*
X382087Y178381D01*
X383025Y178096D01*
X384000Y178000D01*
X688000D02*
X688975Y178096D01*
X689913Y178381D01*
X690778Y178843D01*
X691536Y179464D01*
X692157Y180222D01*
X692619Y181087D01*
X692904Y182025D01*
X693000Y183000D01*
X693000Y671000D02*
X692904Y671976D01*
X692619Y672913D01*
X692157Y673778D01*
X691536Y674536D01*
X690778Y675157D01*
X689913Y675619D01*
X688975Y675904D01*
X688000Y676000D01*
X384000D02*
X688000D01*
X379000Y183000D02*
X379000Y671000D01*
X693000Y671000D02*
X693000Y183000D01*
X384000Y178000D02*
X400000D01*
X688000D01*
M02*
