G04*
G04 #@! TF.GenerationSoftware,Altium Limited,Altium Designer,21.0.9 (235)*
G04*
G04 Layer_Color=255*
%FSLAX25Y25*%
%MOIN*%
G70*
G04*
G04 #@! TF.SameCoordinates,E5C10B9F-721F-4CD3-8270-1C0E1EB20485*
G04*
G04*
G04 #@! TF.FilePolarity,Positive*
G04*
G01*
G75*
%ADD19R,0.08661X0.21654*%
%ADD35R,0.07284X0.07284*%
%ADD80C,0.19685*%
%ADD81O,0.07874X0.11811*%
%ADD82R,0.07874X0.11811*%
%ADD83C,0.04000*%
%ADD84C,0.05906*%
%ADD85R,0.05906X0.05906*%
%ADD86C,0.15748*%
%ADD87C,0.07284*%
%ADD91R,0.07874X0.21654*%
D19*
X553059Y631500D02*
D03*
X572941D02*
D03*
X510000Y604500D02*
D03*
X529882D02*
D03*
X529941Y631500D02*
D03*
X510059D02*
D03*
X468059D02*
D03*
X487941D02*
D03*
D35*
X517000Y186000D02*
D03*
D80*
X602000Y652000D02*
D03*
X437500D02*
D03*
D81*
X479343Y573449D02*
D03*
X459657D02*
D03*
X479343Y504551D02*
D03*
X459657D02*
D03*
X439972Y573449D02*
D03*
X499028D02*
D03*
Y504551D02*
D03*
X595870Y504500D02*
D03*
Y573398D02*
D03*
X536815D02*
D03*
X556500Y504500D02*
D03*
X576185D02*
D03*
X556500Y573398D02*
D03*
X576185D02*
D03*
D82*
X439972Y504551D02*
D03*
X536815Y504500D02*
D03*
D83*
X662000Y401700D02*
D03*
Y381700D02*
D03*
Y391700D02*
D03*
D84*
X486000Y212000D02*
D03*
X467000D02*
D03*
X449000D02*
D03*
X391000Y296000D02*
D03*
Y282000D02*
D03*
X415000Y240000D02*
D03*
X405000Y250000D02*
D03*
Y240000D02*
D03*
X395000Y250000D02*
D03*
X415000D02*
D03*
X545000Y239000D02*
D03*
X535000D02*
D03*
X525000D02*
D03*
X535000Y217000D02*
D03*
X545000D02*
D03*
X555000D02*
D03*
X565000D02*
D03*
X575000D02*
D03*
X525000D02*
D03*
D85*
X449000Y222000D02*
D03*
X486000D02*
D03*
X467000D02*
D03*
X395000Y240000D02*
D03*
X515000Y239000D02*
D03*
Y217000D02*
D03*
D86*
X677000Y587500D02*
D03*
Y607500D02*
D03*
D87*
X497000Y186000D02*
D03*
D91*
X537000Y292701D02*
D03*
Y255299D02*
D03*
M02*
